G04 #@! TF.GenerationSoftware,KiCad,Pcbnew,(5.1.2)-1*
G04 #@! TF.CreationDate,2020-10-03T12:09:34+09:00*
G04 #@! TF.ProjectId,es,65732e6b-6963-4616-945f-706362585858,v1.4*
G04 #@! TF.SameCoordinates,Original*
G04 #@! TF.FileFunction,Copper,L2,Bot*
G04 #@! TF.FilePolarity,Positive*
%FSLAX46Y46*%
G04 Gerber Fmt 4.6, Leading zero omitted, Abs format (unit mm)*
G04 Created by KiCad (PCBNEW (5.1.2)-1) date 2020-10-03 12:09:34*
%MOMM*%
%LPD*%
G04 APERTURE LIST*
%ADD10O,1.700000X1.700000*%
%ADD11R,1.700000X1.700000*%
%ADD12O,1.800000X1.524000*%
%ADD13C,0.800000*%
%ADD14C,0.300000*%
%ADD15C,0.250000*%
%ADD16C,0.254000*%
G04 APERTURE END LIST*
D10*
X160120000Y-80500000D03*
X157580000Y-80500000D03*
X155040000Y-80500000D03*
D11*
X152500000Y-80500000D03*
D12*
X173500000Y-91500000D03*
X173500000Y-89500000D03*
X173500000Y-87500000D03*
X173500000Y-85500000D03*
X152000000Y-85500000D03*
X152000000Y-87500000D03*
X152000000Y-89500000D03*
X152000000Y-91500000D03*
D11*
X155500000Y-97500000D03*
D10*
X158040000Y-97500000D03*
X160580000Y-97500000D03*
D13*
X163150118Y-91946918D03*
X160811400Y-89819300D03*
X164068900Y-94045000D03*
X164780000Y-93362800D03*
X153800000Y-82900000D03*
X149000000Y-89300000D03*
X158200000Y-83000000D03*
X168143400Y-91973400D03*
X169028600Y-91131600D03*
D14*
X174900000Y-88100000D02*
X173500000Y-89500000D01*
X174900000Y-84900000D02*
X174900000Y-88100000D01*
X174200000Y-84200000D02*
X174900000Y-84900000D01*
X162974100Y-84360400D02*
X163134500Y-84200000D01*
X163134500Y-84200000D02*
X174200000Y-84200000D01*
X156916100Y-84360400D02*
X162974100Y-84360400D01*
X152500000Y-80500000D02*
X153055700Y-80500000D01*
X153055700Y-80500000D02*
X156916100Y-84360400D01*
X163150118Y-84536418D02*
X163150118Y-91381233D01*
X163150118Y-91381233D02*
X163150118Y-91946918D01*
X162974100Y-84360400D02*
X163150118Y-84536418D01*
D15*
X153205300Y-89500000D02*
X160492100Y-89500000D01*
X160492100Y-89500000D02*
X160811400Y-89819300D01*
X152000000Y-89500000D02*
X153205300Y-89500000D01*
X173500000Y-87500000D02*
X171619400Y-87500000D01*
X171619400Y-87500000D02*
X167438100Y-91681300D01*
X167438100Y-91681300D02*
X167438100Y-91757800D01*
X167438100Y-91757800D02*
X165067300Y-94128600D01*
X165067300Y-94128600D02*
X164152500Y-94128600D01*
X164152500Y-94128600D02*
X164068900Y-94045000D01*
X172642800Y-85500000D02*
X164780000Y-93362800D01*
X173500000Y-85500000D02*
X172642800Y-85500000D01*
X153800000Y-82900000D02*
X152000000Y-82900000D01*
X152000000Y-82900000D02*
X149000000Y-85900000D01*
X149000000Y-85900000D02*
X149000000Y-89300000D01*
X155040000Y-80500000D02*
X157540000Y-83000000D01*
X157540000Y-83000000D02*
X158200000Y-83000000D01*
X164993900Y-95122900D02*
X168143400Y-91973400D01*
X155500000Y-97500000D02*
X157877100Y-95122900D01*
X157877100Y-95122900D02*
X164993900Y-95122900D01*
X169028600Y-92138400D02*
X169028600Y-91131600D01*
X165067000Y-96100000D02*
X169028600Y-92138400D01*
X158040000Y-97500000D02*
X159440000Y-96100000D01*
X159440000Y-96100000D02*
X165067000Y-96100000D01*
D16*
G36*
X151011928Y-81350000D02*
G01*
X151024188Y-81474482D01*
X151060498Y-81594180D01*
X151119463Y-81704494D01*
X151198815Y-81801185D01*
X151295506Y-81880537D01*
X151405820Y-81939502D01*
X151525518Y-81975812D01*
X151650000Y-81988072D01*
X153350000Y-81988072D01*
X153426118Y-81980575D01*
X156333758Y-84888216D01*
X156358336Y-84918164D01*
X156388284Y-84942742D01*
X156388287Y-84942745D01*
X156412730Y-84962805D01*
X156477867Y-85016262D01*
X156614240Y-85089154D01*
X156762213Y-85134041D01*
X156877539Y-85145400D01*
X156877546Y-85145400D01*
X156916099Y-85149197D01*
X156954652Y-85145400D01*
X162365118Y-85145400D01*
X162365119Y-91268206D01*
X162346181Y-91287144D01*
X162232913Y-91456662D01*
X162154892Y-91645020D01*
X162115118Y-91844979D01*
X162115118Y-92048857D01*
X162154892Y-92248816D01*
X162232913Y-92437174D01*
X162346181Y-92606692D01*
X162490344Y-92750855D01*
X162659862Y-92864123D01*
X162848220Y-92942144D01*
X163048179Y-92981918D01*
X163252057Y-92981918D01*
X163452016Y-92942144D01*
X163640374Y-92864123D01*
X163809892Y-92750855D01*
X163954055Y-92606692D01*
X164067323Y-92437174D01*
X164145344Y-92248816D01*
X164185118Y-92048857D01*
X164185118Y-91844979D01*
X164145344Y-91645020D01*
X164067323Y-91456662D01*
X163954055Y-91287144D01*
X163935118Y-91268207D01*
X163935118Y-84985000D01*
X172058363Y-84985000D01*
X172047637Y-85020360D01*
X164740199Y-92327800D01*
X164678061Y-92327800D01*
X164478102Y-92367574D01*
X164289744Y-92445595D01*
X164120226Y-92558863D01*
X163976063Y-92703026D01*
X163862795Y-92872544D01*
X163791393Y-93044922D01*
X163767002Y-93049774D01*
X163578644Y-93127795D01*
X163409126Y-93241063D01*
X163264963Y-93385226D01*
X163151695Y-93554744D01*
X163073674Y-93743102D01*
X163033900Y-93943061D01*
X163033900Y-94146939D01*
X163073674Y-94346898D01*
X163080302Y-94362900D01*
X157914422Y-94362900D01*
X157877099Y-94359224D01*
X157839776Y-94362900D01*
X157839767Y-94362900D01*
X157728114Y-94373897D01*
X157584853Y-94417354D01*
X157452823Y-94487926D01*
X157395152Y-94535256D01*
X157337099Y-94582899D01*
X157313301Y-94611897D01*
X155913271Y-96011928D01*
X154650000Y-96011928D01*
X154525518Y-96024188D01*
X154405820Y-96060498D01*
X154295506Y-96119463D01*
X154198815Y-96198815D01*
X154119463Y-96295506D01*
X154060498Y-96405820D01*
X154024188Y-96525518D01*
X154011928Y-96650000D01*
X154011928Y-98340000D01*
X145032279Y-98340000D01*
X144934576Y-98330420D01*
X144871643Y-98311420D01*
X144813594Y-98280554D01*
X144762657Y-98239011D01*
X144720752Y-98188356D01*
X144689485Y-98130529D01*
X144670044Y-98067728D01*
X144660000Y-97972165D01*
X144660000Y-95779872D01*
X144765000Y-95779872D01*
X144765000Y-96220128D01*
X144850890Y-96651925D01*
X145019369Y-97058669D01*
X145263962Y-97424729D01*
X145575271Y-97736038D01*
X145941331Y-97980631D01*
X146348075Y-98149110D01*
X146779872Y-98235000D01*
X147220128Y-98235000D01*
X147651925Y-98149110D01*
X148058669Y-97980631D01*
X148424729Y-97736038D01*
X148736038Y-97424729D01*
X148980631Y-97058669D01*
X149149110Y-96651925D01*
X149235000Y-96220128D01*
X149235000Y-95779872D01*
X149149110Y-95348075D01*
X148980631Y-94941331D01*
X148736038Y-94575271D01*
X148424729Y-94263962D01*
X148058669Y-94019369D01*
X147651925Y-93850890D01*
X147220128Y-93765000D01*
X146779872Y-93765000D01*
X146348075Y-93850890D01*
X145941331Y-94019369D01*
X145575271Y-94263962D01*
X145263962Y-94575271D01*
X145019369Y-94941331D01*
X144850890Y-95348075D01*
X144765000Y-95779872D01*
X144660000Y-95779872D01*
X144660000Y-87500000D01*
X150458241Y-87500000D01*
X150485214Y-87773860D01*
X150565096Y-88037195D01*
X150694817Y-88279887D01*
X150869392Y-88492608D01*
X150878399Y-88500000D01*
X150869392Y-88507392D01*
X150694817Y-88720113D01*
X150565096Y-88962805D01*
X150485214Y-89226140D01*
X150458241Y-89500000D01*
X150485214Y-89773860D01*
X150565096Y-90037195D01*
X150694817Y-90279887D01*
X150869392Y-90492608D01*
X150878399Y-90500000D01*
X150869392Y-90507392D01*
X150694817Y-90720113D01*
X150565096Y-90962805D01*
X150485214Y-91226140D01*
X150458241Y-91500000D01*
X150485214Y-91773860D01*
X150565096Y-92037195D01*
X150694817Y-92279887D01*
X150869392Y-92492608D01*
X151082113Y-92667183D01*
X151324805Y-92796904D01*
X151588140Y-92876786D01*
X151793375Y-92897000D01*
X152206625Y-92897000D01*
X152411860Y-92876786D01*
X152675195Y-92796904D01*
X152917887Y-92667183D01*
X153130608Y-92492608D01*
X153305183Y-92279887D01*
X153434904Y-92037195D01*
X153514786Y-91773860D01*
X153541759Y-91500000D01*
X153514786Y-91226140D01*
X153434904Y-90962805D01*
X153305183Y-90720113D01*
X153130608Y-90507392D01*
X153121601Y-90500000D01*
X153130608Y-90492608D01*
X153305183Y-90279887D01*
X153315813Y-90260000D01*
X159873668Y-90260000D01*
X159894195Y-90309556D01*
X160007463Y-90479074D01*
X160151626Y-90623237D01*
X160321144Y-90736505D01*
X160509502Y-90814526D01*
X160709461Y-90854300D01*
X160913339Y-90854300D01*
X161113298Y-90814526D01*
X161301656Y-90736505D01*
X161471174Y-90623237D01*
X161615337Y-90479074D01*
X161728605Y-90309556D01*
X161806626Y-90121198D01*
X161846400Y-89921239D01*
X161846400Y-89717361D01*
X161806626Y-89517402D01*
X161728605Y-89329044D01*
X161615337Y-89159526D01*
X161471174Y-89015363D01*
X161301656Y-88902095D01*
X161113298Y-88824074D01*
X160913339Y-88784300D01*
X160750873Y-88784300D01*
X160641086Y-88750997D01*
X160529433Y-88740000D01*
X160529422Y-88740000D01*
X160492100Y-88736324D01*
X160454778Y-88740000D01*
X153315813Y-88740000D01*
X153305183Y-88720113D01*
X153130608Y-88507392D01*
X153121601Y-88500000D01*
X153130608Y-88492608D01*
X153305183Y-88279887D01*
X153434904Y-88037195D01*
X153514786Y-87773860D01*
X153541759Y-87500000D01*
X153514786Y-87226140D01*
X153434904Y-86962805D01*
X153305183Y-86720113D01*
X153130608Y-86507392D01*
X153114337Y-86494039D01*
X153262135Y-86330330D01*
X153402524Y-86095068D01*
X153492220Y-85843070D01*
X153369720Y-85627000D01*
X152127000Y-85627000D01*
X152127000Y-85647000D01*
X151873000Y-85647000D01*
X151873000Y-85627000D01*
X150630280Y-85627000D01*
X150507780Y-85843070D01*
X150597476Y-86095068D01*
X150737865Y-86330330D01*
X150885663Y-86494039D01*
X150869392Y-86507392D01*
X150694817Y-86720113D01*
X150565096Y-86962805D01*
X150485214Y-87226140D01*
X150458241Y-87500000D01*
X144660000Y-87500000D01*
X144660000Y-85156930D01*
X150507780Y-85156930D01*
X150630280Y-85373000D01*
X151873000Y-85373000D01*
X151873000Y-84261251D01*
X152127000Y-84261251D01*
X152127000Y-85373000D01*
X153369720Y-85373000D01*
X153492220Y-85156930D01*
X153402524Y-84904932D01*
X153262135Y-84669670D01*
X153078546Y-84466317D01*
X152858812Y-84302688D01*
X152611378Y-84185071D01*
X152345752Y-84117986D01*
X152127000Y-84261251D01*
X151873000Y-84261251D01*
X151654248Y-84117986D01*
X151388622Y-84185071D01*
X151141188Y-84302688D01*
X150921454Y-84466317D01*
X150737865Y-84669670D01*
X150597476Y-84904932D01*
X150507780Y-85156930D01*
X144660000Y-85156930D01*
X144660000Y-81679872D01*
X144765000Y-81679872D01*
X144765000Y-82120128D01*
X144850890Y-82551925D01*
X145019369Y-82958669D01*
X145263962Y-83324729D01*
X145575271Y-83636038D01*
X145941331Y-83880631D01*
X146348075Y-84049110D01*
X146779872Y-84135000D01*
X147220128Y-84135000D01*
X147651925Y-84049110D01*
X148058669Y-83880631D01*
X148424729Y-83636038D01*
X148736038Y-83324729D01*
X148980631Y-82958669D01*
X149149110Y-82551925D01*
X149235000Y-82120128D01*
X149235000Y-81679872D01*
X149149110Y-81248075D01*
X148980631Y-80841331D01*
X148736038Y-80475271D01*
X148424729Y-80163962D01*
X148058669Y-79919369D01*
X147651925Y-79750890D01*
X147220128Y-79665000D01*
X146779872Y-79665000D01*
X146348075Y-79750890D01*
X145941331Y-79919369D01*
X145575271Y-80163962D01*
X145263962Y-80475271D01*
X145019369Y-80841331D01*
X144850890Y-81248075D01*
X144765000Y-81679872D01*
X144660000Y-81679872D01*
X144660000Y-80032279D01*
X144669580Y-79934576D01*
X144688580Y-79871644D01*
X144719445Y-79813595D01*
X144760989Y-79762657D01*
X144811644Y-79720752D01*
X144869471Y-79689485D01*
X144932272Y-79670044D01*
X145027835Y-79660000D01*
X151011928Y-79660000D01*
X151011928Y-81350000D01*
X151011928Y-81350000D01*
G37*
X151011928Y-81350000D02*
X151024188Y-81474482D01*
X151060498Y-81594180D01*
X151119463Y-81704494D01*
X151198815Y-81801185D01*
X151295506Y-81880537D01*
X151405820Y-81939502D01*
X151525518Y-81975812D01*
X151650000Y-81988072D01*
X153350000Y-81988072D01*
X153426118Y-81980575D01*
X156333758Y-84888216D01*
X156358336Y-84918164D01*
X156388284Y-84942742D01*
X156388287Y-84942745D01*
X156412730Y-84962805D01*
X156477867Y-85016262D01*
X156614240Y-85089154D01*
X156762213Y-85134041D01*
X156877539Y-85145400D01*
X156877546Y-85145400D01*
X156916099Y-85149197D01*
X156954652Y-85145400D01*
X162365118Y-85145400D01*
X162365119Y-91268206D01*
X162346181Y-91287144D01*
X162232913Y-91456662D01*
X162154892Y-91645020D01*
X162115118Y-91844979D01*
X162115118Y-92048857D01*
X162154892Y-92248816D01*
X162232913Y-92437174D01*
X162346181Y-92606692D01*
X162490344Y-92750855D01*
X162659862Y-92864123D01*
X162848220Y-92942144D01*
X163048179Y-92981918D01*
X163252057Y-92981918D01*
X163452016Y-92942144D01*
X163640374Y-92864123D01*
X163809892Y-92750855D01*
X163954055Y-92606692D01*
X164067323Y-92437174D01*
X164145344Y-92248816D01*
X164185118Y-92048857D01*
X164185118Y-91844979D01*
X164145344Y-91645020D01*
X164067323Y-91456662D01*
X163954055Y-91287144D01*
X163935118Y-91268207D01*
X163935118Y-84985000D01*
X172058363Y-84985000D01*
X172047637Y-85020360D01*
X164740199Y-92327800D01*
X164678061Y-92327800D01*
X164478102Y-92367574D01*
X164289744Y-92445595D01*
X164120226Y-92558863D01*
X163976063Y-92703026D01*
X163862795Y-92872544D01*
X163791393Y-93044922D01*
X163767002Y-93049774D01*
X163578644Y-93127795D01*
X163409126Y-93241063D01*
X163264963Y-93385226D01*
X163151695Y-93554744D01*
X163073674Y-93743102D01*
X163033900Y-93943061D01*
X163033900Y-94146939D01*
X163073674Y-94346898D01*
X163080302Y-94362900D01*
X157914422Y-94362900D01*
X157877099Y-94359224D01*
X157839776Y-94362900D01*
X157839767Y-94362900D01*
X157728114Y-94373897D01*
X157584853Y-94417354D01*
X157452823Y-94487926D01*
X157395152Y-94535256D01*
X157337099Y-94582899D01*
X157313301Y-94611897D01*
X155913271Y-96011928D01*
X154650000Y-96011928D01*
X154525518Y-96024188D01*
X154405820Y-96060498D01*
X154295506Y-96119463D01*
X154198815Y-96198815D01*
X154119463Y-96295506D01*
X154060498Y-96405820D01*
X154024188Y-96525518D01*
X154011928Y-96650000D01*
X154011928Y-98340000D01*
X145032279Y-98340000D01*
X144934576Y-98330420D01*
X144871643Y-98311420D01*
X144813594Y-98280554D01*
X144762657Y-98239011D01*
X144720752Y-98188356D01*
X144689485Y-98130529D01*
X144670044Y-98067728D01*
X144660000Y-97972165D01*
X144660000Y-95779872D01*
X144765000Y-95779872D01*
X144765000Y-96220128D01*
X144850890Y-96651925D01*
X145019369Y-97058669D01*
X145263962Y-97424729D01*
X145575271Y-97736038D01*
X145941331Y-97980631D01*
X146348075Y-98149110D01*
X146779872Y-98235000D01*
X147220128Y-98235000D01*
X147651925Y-98149110D01*
X148058669Y-97980631D01*
X148424729Y-97736038D01*
X148736038Y-97424729D01*
X148980631Y-97058669D01*
X149149110Y-96651925D01*
X149235000Y-96220128D01*
X149235000Y-95779872D01*
X149149110Y-95348075D01*
X148980631Y-94941331D01*
X148736038Y-94575271D01*
X148424729Y-94263962D01*
X148058669Y-94019369D01*
X147651925Y-93850890D01*
X147220128Y-93765000D01*
X146779872Y-93765000D01*
X146348075Y-93850890D01*
X145941331Y-94019369D01*
X145575271Y-94263962D01*
X145263962Y-94575271D01*
X145019369Y-94941331D01*
X144850890Y-95348075D01*
X144765000Y-95779872D01*
X144660000Y-95779872D01*
X144660000Y-87500000D01*
X150458241Y-87500000D01*
X150485214Y-87773860D01*
X150565096Y-88037195D01*
X150694817Y-88279887D01*
X150869392Y-88492608D01*
X150878399Y-88500000D01*
X150869392Y-88507392D01*
X150694817Y-88720113D01*
X150565096Y-88962805D01*
X150485214Y-89226140D01*
X150458241Y-89500000D01*
X150485214Y-89773860D01*
X150565096Y-90037195D01*
X150694817Y-90279887D01*
X150869392Y-90492608D01*
X150878399Y-90500000D01*
X150869392Y-90507392D01*
X150694817Y-90720113D01*
X150565096Y-90962805D01*
X150485214Y-91226140D01*
X150458241Y-91500000D01*
X150485214Y-91773860D01*
X150565096Y-92037195D01*
X150694817Y-92279887D01*
X150869392Y-92492608D01*
X151082113Y-92667183D01*
X151324805Y-92796904D01*
X151588140Y-92876786D01*
X151793375Y-92897000D01*
X152206625Y-92897000D01*
X152411860Y-92876786D01*
X152675195Y-92796904D01*
X152917887Y-92667183D01*
X153130608Y-92492608D01*
X153305183Y-92279887D01*
X153434904Y-92037195D01*
X153514786Y-91773860D01*
X153541759Y-91500000D01*
X153514786Y-91226140D01*
X153434904Y-90962805D01*
X153305183Y-90720113D01*
X153130608Y-90507392D01*
X153121601Y-90500000D01*
X153130608Y-90492608D01*
X153305183Y-90279887D01*
X153315813Y-90260000D01*
X159873668Y-90260000D01*
X159894195Y-90309556D01*
X160007463Y-90479074D01*
X160151626Y-90623237D01*
X160321144Y-90736505D01*
X160509502Y-90814526D01*
X160709461Y-90854300D01*
X160913339Y-90854300D01*
X161113298Y-90814526D01*
X161301656Y-90736505D01*
X161471174Y-90623237D01*
X161615337Y-90479074D01*
X161728605Y-90309556D01*
X161806626Y-90121198D01*
X161846400Y-89921239D01*
X161846400Y-89717361D01*
X161806626Y-89517402D01*
X161728605Y-89329044D01*
X161615337Y-89159526D01*
X161471174Y-89015363D01*
X161301656Y-88902095D01*
X161113298Y-88824074D01*
X160913339Y-88784300D01*
X160750873Y-88784300D01*
X160641086Y-88750997D01*
X160529433Y-88740000D01*
X160529422Y-88740000D01*
X160492100Y-88736324D01*
X160454778Y-88740000D01*
X153315813Y-88740000D01*
X153305183Y-88720113D01*
X153130608Y-88507392D01*
X153121601Y-88500000D01*
X153130608Y-88492608D01*
X153305183Y-88279887D01*
X153434904Y-88037195D01*
X153514786Y-87773860D01*
X153541759Y-87500000D01*
X153514786Y-87226140D01*
X153434904Y-86962805D01*
X153305183Y-86720113D01*
X153130608Y-86507392D01*
X153114337Y-86494039D01*
X153262135Y-86330330D01*
X153402524Y-86095068D01*
X153492220Y-85843070D01*
X153369720Y-85627000D01*
X152127000Y-85627000D01*
X152127000Y-85647000D01*
X151873000Y-85647000D01*
X151873000Y-85627000D01*
X150630280Y-85627000D01*
X150507780Y-85843070D01*
X150597476Y-86095068D01*
X150737865Y-86330330D01*
X150885663Y-86494039D01*
X150869392Y-86507392D01*
X150694817Y-86720113D01*
X150565096Y-86962805D01*
X150485214Y-87226140D01*
X150458241Y-87500000D01*
X144660000Y-87500000D01*
X144660000Y-85156930D01*
X150507780Y-85156930D01*
X150630280Y-85373000D01*
X151873000Y-85373000D01*
X151873000Y-84261251D01*
X152127000Y-84261251D01*
X152127000Y-85373000D01*
X153369720Y-85373000D01*
X153492220Y-85156930D01*
X153402524Y-84904932D01*
X153262135Y-84669670D01*
X153078546Y-84466317D01*
X152858812Y-84302688D01*
X152611378Y-84185071D01*
X152345752Y-84117986D01*
X152127000Y-84261251D01*
X151873000Y-84261251D01*
X151654248Y-84117986D01*
X151388622Y-84185071D01*
X151141188Y-84302688D01*
X150921454Y-84466317D01*
X150737865Y-84669670D01*
X150597476Y-84904932D01*
X150507780Y-85156930D01*
X144660000Y-85156930D01*
X144660000Y-81679872D01*
X144765000Y-81679872D01*
X144765000Y-82120128D01*
X144850890Y-82551925D01*
X145019369Y-82958669D01*
X145263962Y-83324729D01*
X145575271Y-83636038D01*
X145941331Y-83880631D01*
X146348075Y-84049110D01*
X146779872Y-84135000D01*
X147220128Y-84135000D01*
X147651925Y-84049110D01*
X148058669Y-83880631D01*
X148424729Y-83636038D01*
X148736038Y-83324729D01*
X148980631Y-82958669D01*
X149149110Y-82551925D01*
X149235000Y-82120128D01*
X149235000Y-81679872D01*
X149149110Y-81248075D01*
X148980631Y-80841331D01*
X148736038Y-80475271D01*
X148424729Y-80163962D01*
X148058669Y-79919369D01*
X147651925Y-79750890D01*
X147220128Y-79665000D01*
X146779872Y-79665000D01*
X146348075Y-79750890D01*
X145941331Y-79919369D01*
X145575271Y-80163962D01*
X145263962Y-80475271D01*
X145019369Y-80841331D01*
X144850890Y-81248075D01*
X144765000Y-81679872D01*
X144660000Y-81679872D01*
X144660000Y-80032279D01*
X144669580Y-79934576D01*
X144688580Y-79871644D01*
X144719445Y-79813595D01*
X144760989Y-79762657D01*
X144811644Y-79720752D01*
X144869471Y-79689485D01*
X144932272Y-79670044D01*
X145027835Y-79660000D01*
X151011928Y-79660000D01*
X151011928Y-81350000D01*
G36*
X178065424Y-79669580D02*
G01*
X178128356Y-79688580D01*
X178186405Y-79719445D01*
X178237343Y-79760989D01*
X178279248Y-79811644D01*
X178310515Y-79869471D01*
X178329956Y-79932272D01*
X178340000Y-80027835D01*
X178340001Y-97967711D01*
X178330420Y-98065424D01*
X178311420Y-98128357D01*
X178280554Y-98186406D01*
X178239011Y-98237343D01*
X178188356Y-98279248D01*
X178130529Y-98310515D01*
X178067728Y-98329956D01*
X177972165Y-98340000D01*
X161799812Y-98340000D01*
X161924157Y-98131252D01*
X162021481Y-97856891D01*
X161900814Y-97627000D01*
X160707000Y-97627000D01*
X160707000Y-97647000D01*
X160453000Y-97647000D01*
X160453000Y-97627000D01*
X160433000Y-97627000D01*
X160433000Y-97373000D01*
X160453000Y-97373000D01*
X160453000Y-97353000D01*
X160707000Y-97353000D01*
X160707000Y-97373000D01*
X161900814Y-97373000D01*
X162021481Y-97143109D01*
X161924157Y-96868748D01*
X161918946Y-96860000D01*
X165029678Y-96860000D01*
X165067000Y-96863676D01*
X165104322Y-96860000D01*
X165104333Y-96860000D01*
X165215986Y-96849003D01*
X165359247Y-96805546D01*
X165491276Y-96734974D01*
X165607001Y-96640001D01*
X165630804Y-96610997D01*
X169539609Y-92702194D01*
X169568601Y-92678401D01*
X169592395Y-92649408D01*
X169592399Y-92649404D01*
X169663573Y-92562677D01*
X169663574Y-92562676D01*
X169734146Y-92430647D01*
X169777603Y-92287386D01*
X169788600Y-92175733D01*
X169788600Y-92175724D01*
X169792276Y-92138401D01*
X169788600Y-92101078D01*
X169788600Y-91843070D01*
X172007780Y-91843070D01*
X172097476Y-92095068D01*
X172237865Y-92330330D01*
X172421454Y-92533683D01*
X172641188Y-92697312D01*
X172888622Y-92814929D01*
X173154248Y-92882014D01*
X173373000Y-92738749D01*
X173373000Y-91627000D01*
X173627000Y-91627000D01*
X173627000Y-92738749D01*
X173845752Y-92882014D01*
X174111378Y-92814929D01*
X174358812Y-92697312D01*
X174578546Y-92533683D01*
X174762135Y-92330330D01*
X174902524Y-92095068D01*
X174992220Y-91843070D01*
X174869720Y-91627000D01*
X173627000Y-91627000D01*
X173373000Y-91627000D01*
X172130280Y-91627000D01*
X172007780Y-91843070D01*
X169788600Y-91843070D01*
X169788600Y-91835311D01*
X169832537Y-91791374D01*
X169945805Y-91621856D01*
X170023826Y-91433498D01*
X170063600Y-91233539D01*
X170063600Y-91029661D01*
X170023826Y-90829702D01*
X169945805Y-90641344D01*
X169832537Y-90471826D01*
X169777456Y-90416745D01*
X171934202Y-88260000D01*
X172184187Y-88260000D01*
X172194817Y-88279887D01*
X172369392Y-88492608D01*
X172378399Y-88500000D01*
X172369392Y-88507392D01*
X172194817Y-88720113D01*
X172065096Y-88962805D01*
X171985214Y-89226140D01*
X171958241Y-89500000D01*
X171985214Y-89773860D01*
X172065096Y-90037195D01*
X172194817Y-90279887D01*
X172369392Y-90492608D01*
X172385663Y-90505961D01*
X172237865Y-90669670D01*
X172097476Y-90904932D01*
X172007780Y-91156930D01*
X172130280Y-91373000D01*
X173373000Y-91373000D01*
X173373000Y-91353000D01*
X173627000Y-91353000D01*
X173627000Y-91373000D01*
X174869720Y-91373000D01*
X174992220Y-91156930D01*
X174902524Y-90904932D01*
X174762135Y-90669670D01*
X174614337Y-90505961D01*
X174630608Y-90492608D01*
X174805183Y-90279887D01*
X174934904Y-90037195D01*
X175014786Y-89773860D01*
X175041759Y-89500000D01*
X175014786Y-89226140D01*
X174984350Y-89125807D01*
X175427816Y-88682342D01*
X175457764Y-88657764D01*
X175555862Y-88538233D01*
X175628754Y-88401860D01*
X175649698Y-88332817D01*
X175673642Y-88253887D01*
X175681020Y-88178974D01*
X175685000Y-88138561D01*
X175685000Y-88138556D01*
X175688797Y-88100000D01*
X175685000Y-88061445D01*
X175685000Y-84938552D01*
X175688797Y-84899999D01*
X175685000Y-84861446D01*
X175685000Y-84861439D01*
X175673641Y-84746113D01*
X175668090Y-84727812D01*
X175663194Y-84711672D01*
X175628754Y-84598140D01*
X175555862Y-84461767D01*
X175457764Y-84342236D01*
X175427816Y-84317659D01*
X174782347Y-83672189D01*
X174757764Y-83642236D01*
X174638233Y-83544138D01*
X174501860Y-83471246D01*
X174353887Y-83426359D01*
X174238561Y-83415000D01*
X174238553Y-83415000D01*
X174200000Y-83411203D01*
X174161447Y-83415000D01*
X163173056Y-83415000D01*
X163134500Y-83411203D01*
X163095944Y-83415000D01*
X163095939Y-83415000D01*
X163055526Y-83418980D01*
X162980613Y-83426358D01*
X162867081Y-83460799D01*
X162832640Y-83471246D01*
X162696267Y-83544138D01*
X162658175Y-83575400D01*
X159060314Y-83575400D01*
X159117205Y-83490256D01*
X159195226Y-83301898D01*
X159235000Y-83101939D01*
X159235000Y-82898061D01*
X159195226Y-82698102D01*
X159117205Y-82509744D01*
X159003937Y-82340226D01*
X158859774Y-82196063D01*
X158690256Y-82082795D01*
X158501898Y-82004774D01*
X158301939Y-81965000D01*
X158098061Y-81965000D01*
X157898102Y-82004774D01*
X157709744Y-82082795D01*
X157702462Y-82087660D01*
X157599802Y-81985000D01*
X157707002Y-81985000D01*
X157707002Y-81820156D01*
X157936890Y-81941476D01*
X158084099Y-81896825D01*
X158346920Y-81771641D01*
X158580269Y-81597588D01*
X158775178Y-81381355D01*
X158844799Y-81264477D01*
X158879294Y-81329014D01*
X159064866Y-81555134D01*
X159290986Y-81740706D01*
X159548966Y-81878599D01*
X159828889Y-81963513D01*
X160047050Y-81985000D01*
X160192950Y-81985000D01*
X160411111Y-81963513D01*
X160691034Y-81878599D01*
X160949014Y-81740706D01*
X161175134Y-81555134D01*
X161360706Y-81329014D01*
X161498599Y-81071034D01*
X161583513Y-80791111D01*
X161612185Y-80500000D01*
X161583513Y-80208889D01*
X161498599Y-79928966D01*
X161360706Y-79670986D01*
X161351690Y-79660000D01*
X177967721Y-79660000D01*
X178065424Y-79669580D01*
X178065424Y-79669580D01*
G37*
X178065424Y-79669580D02*
X178128356Y-79688580D01*
X178186405Y-79719445D01*
X178237343Y-79760989D01*
X178279248Y-79811644D01*
X178310515Y-79869471D01*
X178329956Y-79932272D01*
X178340000Y-80027835D01*
X178340001Y-97967711D01*
X178330420Y-98065424D01*
X178311420Y-98128357D01*
X178280554Y-98186406D01*
X178239011Y-98237343D01*
X178188356Y-98279248D01*
X178130529Y-98310515D01*
X178067728Y-98329956D01*
X177972165Y-98340000D01*
X161799812Y-98340000D01*
X161924157Y-98131252D01*
X162021481Y-97856891D01*
X161900814Y-97627000D01*
X160707000Y-97627000D01*
X160707000Y-97647000D01*
X160453000Y-97647000D01*
X160453000Y-97627000D01*
X160433000Y-97627000D01*
X160433000Y-97373000D01*
X160453000Y-97373000D01*
X160453000Y-97353000D01*
X160707000Y-97353000D01*
X160707000Y-97373000D01*
X161900814Y-97373000D01*
X162021481Y-97143109D01*
X161924157Y-96868748D01*
X161918946Y-96860000D01*
X165029678Y-96860000D01*
X165067000Y-96863676D01*
X165104322Y-96860000D01*
X165104333Y-96860000D01*
X165215986Y-96849003D01*
X165359247Y-96805546D01*
X165491276Y-96734974D01*
X165607001Y-96640001D01*
X165630804Y-96610997D01*
X169539609Y-92702194D01*
X169568601Y-92678401D01*
X169592395Y-92649408D01*
X169592399Y-92649404D01*
X169663573Y-92562677D01*
X169663574Y-92562676D01*
X169734146Y-92430647D01*
X169777603Y-92287386D01*
X169788600Y-92175733D01*
X169788600Y-92175724D01*
X169792276Y-92138401D01*
X169788600Y-92101078D01*
X169788600Y-91843070D01*
X172007780Y-91843070D01*
X172097476Y-92095068D01*
X172237865Y-92330330D01*
X172421454Y-92533683D01*
X172641188Y-92697312D01*
X172888622Y-92814929D01*
X173154248Y-92882014D01*
X173373000Y-92738749D01*
X173373000Y-91627000D01*
X173627000Y-91627000D01*
X173627000Y-92738749D01*
X173845752Y-92882014D01*
X174111378Y-92814929D01*
X174358812Y-92697312D01*
X174578546Y-92533683D01*
X174762135Y-92330330D01*
X174902524Y-92095068D01*
X174992220Y-91843070D01*
X174869720Y-91627000D01*
X173627000Y-91627000D01*
X173373000Y-91627000D01*
X172130280Y-91627000D01*
X172007780Y-91843070D01*
X169788600Y-91843070D01*
X169788600Y-91835311D01*
X169832537Y-91791374D01*
X169945805Y-91621856D01*
X170023826Y-91433498D01*
X170063600Y-91233539D01*
X170063600Y-91029661D01*
X170023826Y-90829702D01*
X169945805Y-90641344D01*
X169832537Y-90471826D01*
X169777456Y-90416745D01*
X171934202Y-88260000D01*
X172184187Y-88260000D01*
X172194817Y-88279887D01*
X172369392Y-88492608D01*
X172378399Y-88500000D01*
X172369392Y-88507392D01*
X172194817Y-88720113D01*
X172065096Y-88962805D01*
X171985214Y-89226140D01*
X171958241Y-89500000D01*
X171985214Y-89773860D01*
X172065096Y-90037195D01*
X172194817Y-90279887D01*
X172369392Y-90492608D01*
X172385663Y-90505961D01*
X172237865Y-90669670D01*
X172097476Y-90904932D01*
X172007780Y-91156930D01*
X172130280Y-91373000D01*
X173373000Y-91373000D01*
X173373000Y-91353000D01*
X173627000Y-91353000D01*
X173627000Y-91373000D01*
X174869720Y-91373000D01*
X174992220Y-91156930D01*
X174902524Y-90904932D01*
X174762135Y-90669670D01*
X174614337Y-90505961D01*
X174630608Y-90492608D01*
X174805183Y-90279887D01*
X174934904Y-90037195D01*
X175014786Y-89773860D01*
X175041759Y-89500000D01*
X175014786Y-89226140D01*
X174984350Y-89125807D01*
X175427816Y-88682342D01*
X175457764Y-88657764D01*
X175555862Y-88538233D01*
X175628754Y-88401860D01*
X175649698Y-88332817D01*
X175673642Y-88253887D01*
X175681020Y-88178974D01*
X175685000Y-88138561D01*
X175685000Y-88138556D01*
X175688797Y-88100000D01*
X175685000Y-88061445D01*
X175685000Y-84938552D01*
X175688797Y-84899999D01*
X175685000Y-84861446D01*
X175685000Y-84861439D01*
X175673641Y-84746113D01*
X175668090Y-84727812D01*
X175663194Y-84711672D01*
X175628754Y-84598140D01*
X175555862Y-84461767D01*
X175457764Y-84342236D01*
X175427816Y-84317659D01*
X174782347Y-83672189D01*
X174757764Y-83642236D01*
X174638233Y-83544138D01*
X174501860Y-83471246D01*
X174353887Y-83426359D01*
X174238561Y-83415000D01*
X174238553Y-83415000D01*
X174200000Y-83411203D01*
X174161447Y-83415000D01*
X163173056Y-83415000D01*
X163134500Y-83411203D01*
X163095944Y-83415000D01*
X163095939Y-83415000D01*
X163055526Y-83418980D01*
X162980613Y-83426358D01*
X162867081Y-83460799D01*
X162832640Y-83471246D01*
X162696267Y-83544138D01*
X162658175Y-83575400D01*
X159060314Y-83575400D01*
X159117205Y-83490256D01*
X159195226Y-83301898D01*
X159235000Y-83101939D01*
X159235000Y-82898061D01*
X159195226Y-82698102D01*
X159117205Y-82509744D01*
X159003937Y-82340226D01*
X158859774Y-82196063D01*
X158690256Y-82082795D01*
X158501898Y-82004774D01*
X158301939Y-81965000D01*
X158098061Y-81965000D01*
X157898102Y-82004774D01*
X157709744Y-82082795D01*
X157702462Y-82087660D01*
X157599802Y-81985000D01*
X157707002Y-81985000D01*
X157707002Y-81820156D01*
X157936890Y-81941476D01*
X158084099Y-81896825D01*
X158346920Y-81771641D01*
X158580269Y-81597588D01*
X158775178Y-81381355D01*
X158844799Y-81264477D01*
X158879294Y-81329014D01*
X159064866Y-81555134D01*
X159290986Y-81740706D01*
X159548966Y-81878599D01*
X159828889Y-81963513D01*
X160047050Y-81985000D01*
X160192950Y-81985000D01*
X160411111Y-81963513D01*
X160691034Y-81878599D01*
X160949014Y-81740706D01*
X161175134Y-81555134D01*
X161360706Y-81329014D01*
X161498599Y-81071034D01*
X161583513Y-80791111D01*
X161612185Y-80500000D01*
X161583513Y-80208889D01*
X161498599Y-79928966D01*
X161360706Y-79670986D01*
X161351690Y-79660000D01*
X177967721Y-79660000D01*
X178065424Y-79669580D01*
G36*
X157707000Y-80373000D02*
G01*
X157727000Y-80373000D01*
X157727000Y-80627000D01*
X157707000Y-80627000D01*
X157707000Y-80647000D01*
X157453000Y-80647000D01*
X157453000Y-80627000D01*
X157433000Y-80627000D01*
X157433000Y-80373000D01*
X157453000Y-80373000D01*
X157453000Y-80353000D01*
X157707000Y-80353000D01*
X157707000Y-80373000D01*
X157707000Y-80373000D01*
G37*
X157707000Y-80373000D02*
X157727000Y-80373000D01*
X157727000Y-80627000D01*
X157707000Y-80627000D01*
X157707000Y-80647000D01*
X157453000Y-80647000D01*
X157453000Y-80627000D01*
X157433000Y-80627000D01*
X157433000Y-80373000D01*
X157453000Y-80373000D01*
X157453000Y-80353000D01*
X157707000Y-80353000D01*
X157707000Y-80373000D01*
M02*
