G04 #@! TF.GenerationSoftware,KiCad,Pcbnew,(5.1.2)-1*
G04 #@! TF.CreationDate,2020-10-03T12:09:34+09:00*
G04 #@! TF.ProjectId,es,65732e6b-6963-4616-945f-706362585858,v1.4*
G04 #@! TF.SameCoordinates,Original*
G04 #@! TF.FileFunction,Legend,Bot*
G04 #@! TF.FilePolarity,Positive*
%FSLAX46Y46*%
G04 Gerber Fmt 4.6, Leading zero omitted, Abs format (unit mm)*
G04 Created by KiCad (PCBNEW (5.1.2)-1) date 2020-10-03 12:09:34*
%MOMM*%
%LPD*%
G04 APERTURE LIST*
%ADD10C,0.120000*%
%ADD11C,3.302000*%
%ADD12O,1.802000X1.802000*%
%ADD13R,1.802000X1.802000*%
%ADD14O,1.902000X1.626000*%
G04 APERTURE END LIST*
D10*
X165495238Y-86965714D02*
X165533333Y-87003809D01*
X165647619Y-87041904D01*
X165723809Y-87041904D01*
X165838095Y-87003809D01*
X165914285Y-86927619D01*
X165952380Y-86851428D01*
X165990476Y-86699047D01*
X165990476Y-86584761D01*
X165952380Y-86432380D01*
X165914285Y-86356190D01*
X165838095Y-86280000D01*
X165723809Y-86241904D01*
X165647619Y-86241904D01*
X165533333Y-86280000D01*
X165495238Y-86318095D01*
X165038095Y-87041904D02*
X165114285Y-87003809D01*
X165152380Y-86965714D01*
X165190476Y-86889523D01*
X165190476Y-86660952D01*
X165152380Y-86584761D01*
X165114285Y-86546666D01*
X165038095Y-86508571D01*
X164923809Y-86508571D01*
X164847619Y-86546666D01*
X164809523Y-86584761D01*
X164771428Y-86660952D01*
X164771428Y-86889523D01*
X164809523Y-86965714D01*
X164847619Y-87003809D01*
X164923809Y-87041904D01*
X165038095Y-87041904D01*
X164428571Y-86508571D02*
X164428571Y-87041904D01*
X164428571Y-86584761D02*
X164390476Y-86546666D01*
X164314285Y-86508571D01*
X164200000Y-86508571D01*
X164123809Y-86546666D01*
X164085714Y-86622857D01*
X164085714Y-87041904D01*
X163780952Y-86508571D02*
X163590476Y-87041904D01*
X163400000Y-86508571D01*
X162790476Y-87003809D02*
X162866666Y-87041904D01*
X163019047Y-87041904D01*
X163095238Y-87003809D01*
X163133333Y-86927619D01*
X163133333Y-86622857D01*
X163095238Y-86546666D01*
X163019047Y-86508571D01*
X162866666Y-86508571D01*
X162790476Y-86546666D01*
X162752380Y-86622857D01*
X162752380Y-86699047D01*
X163133333Y-86775238D01*
X162409523Y-87041904D02*
X162409523Y-86508571D01*
X162409523Y-86660952D02*
X162371428Y-86584761D01*
X162333333Y-86546666D01*
X162257142Y-86508571D01*
X162180952Y-86508571D01*
X162028571Y-86508571D02*
X161723809Y-86508571D01*
X161914285Y-86241904D02*
X161914285Y-86927619D01*
X161876190Y-87003809D01*
X161800000Y-87041904D01*
X161723809Y-87041904D01*
X161152380Y-87003809D02*
X161228571Y-87041904D01*
X161380952Y-87041904D01*
X161457142Y-87003809D01*
X161495238Y-86927619D01*
X161495238Y-86622857D01*
X161457142Y-86546666D01*
X161380952Y-86508571D01*
X161228571Y-86508571D01*
X161152380Y-86546666D01*
X161114285Y-86622857D01*
X161114285Y-86699047D01*
X161495238Y-86775238D01*
X160771428Y-87041904D02*
X160771428Y-86508571D01*
X160771428Y-86660952D02*
X160733333Y-86584761D01*
X160695238Y-86546666D01*
X160619047Y-86508571D01*
X160542857Y-86508571D01*
X169857142Y-87828571D02*
X169552380Y-87828571D01*
X169742857Y-88361904D02*
X169742857Y-87676190D01*
X169704761Y-87600000D01*
X169628571Y-87561904D01*
X169552380Y-87561904D01*
X169171428Y-88361904D02*
X169247619Y-88323809D01*
X169285714Y-88285714D01*
X169323809Y-88209523D01*
X169323809Y-87980952D01*
X169285714Y-87904761D01*
X169247619Y-87866666D01*
X169171428Y-87828571D01*
X169057142Y-87828571D01*
X168980952Y-87866666D01*
X168942857Y-87904761D01*
X168904761Y-87980952D01*
X168904761Y-88209523D01*
X168942857Y-88285714D01*
X168980952Y-88323809D01*
X169057142Y-88361904D01*
X169171428Y-88361904D01*
X168561904Y-88361904D02*
X168561904Y-87828571D01*
X168561904Y-87980952D02*
X168523809Y-87904761D01*
X168485714Y-87866666D01*
X168409523Y-87828571D01*
X168333333Y-87828571D01*
X167495238Y-88133333D02*
X167114285Y-88133333D01*
X167571428Y-88361904D02*
X167304761Y-87561904D01*
X167038095Y-88361904D01*
X166771428Y-88361904D02*
X166771428Y-87828571D01*
X166771428Y-87561904D02*
X166809523Y-87600000D01*
X166771428Y-87638095D01*
X166733333Y-87600000D01*
X166771428Y-87561904D01*
X166771428Y-87638095D01*
X166390476Y-88361904D02*
X166390476Y-87828571D01*
X166390476Y-87980952D02*
X166352380Y-87904761D01*
X166314285Y-87866666D01*
X166238095Y-87828571D01*
X166161904Y-87828571D01*
X164752380Y-88438095D02*
X164828571Y-88400000D01*
X164904761Y-88323809D01*
X165019047Y-88209523D01*
X165095238Y-88171428D01*
X165171428Y-88171428D01*
X165133333Y-88361904D02*
X165209523Y-88323809D01*
X165285714Y-88247619D01*
X165323809Y-88095238D01*
X165323809Y-87828571D01*
X165285714Y-87676190D01*
X165209523Y-87600000D01*
X165133333Y-87561904D01*
X164980952Y-87561904D01*
X164904761Y-87600000D01*
X164828571Y-87676190D01*
X164790476Y-87828571D01*
X164790476Y-88095238D01*
X164828571Y-88247619D01*
X164904761Y-88323809D01*
X164980952Y-88361904D01*
X165133333Y-88361904D01*
X164104761Y-87828571D02*
X164104761Y-88361904D01*
X164447619Y-87828571D02*
X164447619Y-88247619D01*
X164409523Y-88323809D01*
X164333333Y-88361904D01*
X164219047Y-88361904D01*
X164142857Y-88323809D01*
X164104761Y-88285714D01*
X163380952Y-88361904D02*
X163380952Y-87942857D01*
X163419047Y-87866666D01*
X163495238Y-87828571D01*
X163647619Y-87828571D01*
X163723809Y-87866666D01*
X163380952Y-88323809D02*
X163457142Y-88361904D01*
X163647619Y-88361904D01*
X163723809Y-88323809D01*
X163761904Y-88247619D01*
X163761904Y-88171428D01*
X163723809Y-88095238D01*
X163647619Y-88057142D01*
X163457142Y-88057142D01*
X163380952Y-88019047D01*
X162885714Y-88361904D02*
X162961904Y-88323809D01*
X163000000Y-88247619D01*
X163000000Y-87561904D01*
X162580952Y-88361904D02*
X162580952Y-87828571D01*
X162580952Y-87561904D02*
X162619047Y-87600000D01*
X162580952Y-87638095D01*
X162542857Y-87600000D01*
X162580952Y-87561904D01*
X162580952Y-87638095D01*
X162314285Y-87828571D02*
X162009523Y-87828571D01*
X162200000Y-87561904D02*
X162200000Y-88247619D01*
X162161904Y-88323809D01*
X162085714Y-88361904D01*
X162009523Y-88361904D01*
X161819047Y-87828571D02*
X161628571Y-88361904D01*
X161438095Y-87828571D02*
X161628571Y-88361904D01*
X161704761Y-88552380D01*
X161742857Y-88590476D01*
X161819047Y-88628571D01*
X160561904Y-88323809D02*
X160447619Y-88361904D01*
X160257142Y-88361904D01*
X160180952Y-88323809D01*
X160142857Y-88285714D01*
X160104761Y-88209523D01*
X160104761Y-88133333D01*
X160142857Y-88057142D01*
X160180952Y-88019047D01*
X160257142Y-87980952D01*
X160409523Y-87942857D01*
X160485714Y-87904761D01*
X160523809Y-87866666D01*
X160561904Y-87790476D01*
X160561904Y-87714285D01*
X160523809Y-87638095D01*
X160485714Y-87600000D01*
X160409523Y-87561904D01*
X160219047Y-87561904D01*
X160104761Y-87600000D01*
X159457142Y-88323809D02*
X159533333Y-88361904D01*
X159685714Y-88361904D01*
X159761904Y-88323809D01*
X159800000Y-88247619D01*
X159800000Y-87942857D01*
X159761904Y-87866666D01*
X159685714Y-87828571D01*
X159533333Y-87828571D01*
X159457142Y-87866666D01*
X159419047Y-87942857D01*
X159419047Y-88019047D01*
X159800000Y-88095238D01*
X159076190Y-87828571D02*
X159076190Y-88361904D01*
X159076190Y-87904761D02*
X159038095Y-87866666D01*
X158961904Y-87828571D01*
X158847619Y-87828571D01*
X158771428Y-87866666D01*
X158733333Y-87942857D01*
X158733333Y-88361904D01*
X158390476Y-88323809D02*
X158314285Y-88361904D01*
X158161904Y-88361904D01*
X158085714Y-88323809D01*
X158047619Y-88247619D01*
X158047619Y-88209523D01*
X158085714Y-88133333D01*
X158161904Y-88095238D01*
X158276190Y-88095238D01*
X158352380Y-88057142D01*
X158390476Y-87980952D01*
X158390476Y-87942857D01*
X158352380Y-87866666D01*
X158276190Y-87828571D01*
X158161904Y-87828571D01*
X158085714Y-87866666D01*
X157590476Y-88361904D02*
X157666666Y-88323809D01*
X157704761Y-88285714D01*
X157742857Y-88209523D01*
X157742857Y-87980952D01*
X157704761Y-87904761D01*
X157666666Y-87866666D01*
X157590476Y-87828571D01*
X157476190Y-87828571D01*
X157400000Y-87866666D01*
X157361904Y-87904761D01*
X157323809Y-87980952D01*
X157323809Y-88209523D01*
X157361904Y-88285714D01*
X157400000Y-88323809D01*
X157476190Y-88361904D01*
X157590476Y-88361904D01*
X156980952Y-88361904D02*
X156980952Y-87828571D01*
X156980952Y-87980952D02*
X156942857Y-87904761D01*
X156904761Y-87866666D01*
X156828571Y-87828571D01*
X156752380Y-87828571D01*
X168866666Y-89148571D02*
X168676190Y-89681904D01*
X168485714Y-89148571D01*
X167761904Y-89681904D02*
X168219047Y-89681904D01*
X167990476Y-89681904D02*
X167990476Y-88881904D01*
X168066666Y-88996190D01*
X168142857Y-89072380D01*
X168219047Y-89110476D01*
X167419047Y-89605714D02*
X167380952Y-89643809D01*
X167419047Y-89681904D01*
X167457142Y-89643809D01*
X167419047Y-89605714D01*
X167419047Y-89681904D01*
X166695238Y-89148571D02*
X166695238Y-89681904D01*
X166885714Y-88843809D02*
X167076190Y-89415238D01*
X166580952Y-89415238D01*
X165704761Y-88958095D02*
X165666666Y-88920000D01*
X165590476Y-88881904D01*
X165400000Y-88881904D01*
X165323809Y-88920000D01*
X165285714Y-88958095D01*
X165247619Y-89034285D01*
X165247619Y-89110476D01*
X165285714Y-89224761D01*
X165742857Y-89681904D01*
X165247619Y-89681904D01*
X164752380Y-88881904D02*
X164676190Y-88881904D01*
X164600000Y-88920000D01*
X164561904Y-88958095D01*
X164523809Y-89034285D01*
X164485714Y-89186666D01*
X164485714Y-89377142D01*
X164523809Y-89529523D01*
X164561904Y-89605714D01*
X164600000Y-89643809D01*
X164676190Y-89681904D01*
X164752380Y-89681904D01*
X164828571Y-89643809D01*
X164866666Y-89605714D01*
X164904761Y-89529523D01*
X164942857Y-89377142D01*
X164942857Y-89186666D01*
X164904761Y-89034285D01*
X164866666Y-88958095D01*
X164828571Y-88920000D01*
X164752380Y-88881904D01*
X163723809Y-89681904D02*
X164180952Y-89681904D01*
X163952380Y-89681904D02*
X163952380Y-88881904D01*
X164028571Y-88996190D01*
X164104761Y-89072380D01*
X164180952Y-89110476D01*
X163228571Y-88881904D02*
X163152380Y-88881904D01*
X163076190Y-88920000D01*
X163038095Y-88958095D01*
X163000000Y-89034285D01*
X162961904Y-89186666D01*
X162961904Y-89377142D01*
X163000000Y-89529523D01*
X163038095Y-89605714D01*
X163076190Y-89643809D01*
X163152380Y-89681904D01*
X163228571Y-89681904D01*
X163304761Y-89643809D01*
X163342857Y-89605714D01*
X163380952Y-89529523D01*
X163419047Y-89377142D01*
X163419047Y-89186666D01*
X163380952Y-89034285D01*
X163342857Y-88958095D01*
X163304761Y-88920000D01*
X163228571Y-88881904D01*
X161552380Y-89605714D02*
X161590476Y-89643809D01*
X161704761Y-89681904D01*
X161780952Y-89681904D01*
X161895238Y-89643809D01*
X161971428Y-89567619D01*
X162009523Y-89491428D01*
X162047619Y-89339047D01*
X162047619Y-89224761D01*
X162009523Y-89072380D01*
X161971428Y-88996190D01*
X161895238Y-88920000D01*
X161780952Y-88881904D01*
X161704761Y-88881904D01*
X161590476Y-88920000D01*
X161552380Y-88958095D01*
X161209523Y-89681904D02*
X161209523Y-89148571D01*
X161209523Y-89300952D02*
X161171428Y-89224761D01*
X161133333Y-89186666D01*
X161057142Y-89148571D01*
X160980952Y-89148571D01*
X160409523Y-89643809D02*
X160485714Y-89681904D01*
X160638095Y-89681904D01*
X160714285Y-89643809D01*
X160752380Y-89567619D01*
X160752380Y-89262857D01*
X160714285Y-89186666D01*
X160638095Y-89148571D01*
X160485714Y-89148571D01*
X160409523Y-89186666D01*
X160371428Y-89262857D01*
X160371428Y-89339047D01*
X160752380Y-89415238D01*
X160066666Y-89643809D02*
X159990476Y-89681904D01*
X159838095Y-89681904D01*
X159761904Y-89643809D01*
X159723809Y-89567619D01*
X159723809Y-89529523D01*
X159761904Y-89453333D01*
X159838095Y-89415238D01*
X159952380Y-89415238D01*
X160028571Y-89377142D01*
X160066666Y-89300952D01*
X160066666Y-89262857D01*
X160028571Y-89186666D01*
X159952380Y-89148571D01*
X159838095Y-89148571D01*
X159761904Y-89186666D01*
X159038095Y-89643809D02*
X159114285Y-89681904D01*
X159266666Y-89681904D01*
X159342857Y-89643809D01*
X159380952Y-89605714D01*
X159419047Y-89529523D01*
X159419047Y-89300952D01*
X159380952Y-89224761D01*
X159342857Y-89186666D01*
X159266666Y-89148571D01*
X159114285Y-89148571D01*
X159038095Y-89186666D01*
X158390476Y-89643809D02*
X158466666Y-89681904D01*
X158619047Y-89681904D01*
X158695238Y-89643809D01*
X158733333Y-89567619D01*
X158733333Y-89262857D01*
X158695238Y-89186666D01*
X158619047Y-89148571D01*
X158466666Y-89148571D01*
X158390476Y-89186666D01*
X158352380Y-89262857D01*
X158352380Y-89339047D01*
X158733333Y-89415238D01*
X158009523Y-89148571D02*
X158009523Y-89681904D01*
X158009523Y-89224761D02*
X157971428Y-89186666D01*
X157895238Y-89148571D01*
X157780952Y-89148571D01*
X157704761Y-89186666D01*
X157666666Y-89262857D01*
X157666666Y-89681904D01*
X157400000Y-89148571D02*
X157095238Y-89148571D01*
X157285714Y-88881904D02*
X157285714Y-89567619D01*
X157247619Y-89643809D01*
X157171428Y-89681904D01*
X157095238Y-89681904D01*
%LPC*%
D11*
X147000000Y-96000000D03*
X147000000Y-81900000D03*
D12*
X160120000Y-80500000D03*
X157580000Y-80500000D03*
X155040000Y-80500000D03*
D13*
X152500000Y-80500000D03*
D14*
X173500000Y-91500000D03*
X173500000Y-89500000D03*
X173500000Y-87500000D03*
X173500000Y-85500000D03*
X152000000Y-85500000D03*
X152000000Y-87500000D03*
X152000000Y-89500000D03*
X152000000Y-91500000D03*
D13*
X155500000Y-97500000D03*
D12*
X158040000Y-97500000D03*
X160580000Y-97500000D03*
M02*
