G04 #@! TF.GenerationSoftware,KiCad,Pcbnew,(5.1.2)-1*
G04 #@! TF.CreationDate,2020-10-03T12:09:34+09:00*
G04 #@! TF.ProjectId,es,65732e6b-6963-4616-945f-706362585858,v1.4*
G04 #@! TF.SameCoordinates,Original*
G04 #@! TF.FileFunction,Copper,L1,Top*
G04 #@! TF.FilePolarity,Positive*
%FSLAX46Y46*%
G04 Gerber Fmt 4.6, Leading zero omitted, Abs format (unit mm)*
G04 Created by KiCad (PCBNEW (5.1.2)-1) date 2020-10-03 12:09:34*
%MOMM*%
%LPD*%
G04 APERTURE LIST*
%ADD10C,0.100000*%
%ADD11C,0.250000*%
%ADD12C,3.450000*%
%ADD13O,1.700000X1.700000*%
%ADD14R,1.700000X1.700000*%
%ADD15R,0.650000X1.060000*%
%ADD16O,1.800000X1.524000*%
%ADD17C,0.875000*%
%ADD18C,0.800000*%
%ADD19C,0.300000*%
%ADD20C,0.250000*%
%ADD21C,0.254000*%
G04 APERTURE END LIST*
D10*
G36*
X163443626Y-90925301D02*
G01*
X163449693Y-90926201D01*
X163455643Y-90927691D01*
X163461418Y-90929758D01*
X163466962Y-90932380D01*
X163472223Y-90935533D01*
X163477150Y-90939187D01*
X163481694Y-90943306D01*
X163485813Y-90947850D01*
X163489467Y-90952777D01*
X163492620Y-90958038D01*
X163495242Y-90963582D01*
X163497309Y-90969357D01*
X163498799Y-90975307D01*
X163499699Y-90981374D01*
X163500000Y-90987500D01*
X163500000Y-91112500D01*
X163499699Y-91118626D01*
X163498799Y-91124693D01*
X163497309Y-91130643D01*
X163495242Y-91136418D01*
X163492620Y-91141962D01*
X163489467Y-91147223D01*
X163485813Y-91152150D01*
X163481694Y-91156694D01*
X163477150Y-91160813D01*
X163472223Y-91164467D01*
X163466962Y-91167620D01*
X163461418Y-91170242D01*
X163455643Y-91172309D01*
X163449693Y-91173799D01*
X163443626Y-91174699D01*
X163437500Y-91175000D01*
X162687500Y-91175000D01*
X162681374Y-91174699D01*
X162675307Y-91173799D01*
X162669357Y-91172309D01*
X162663582Y-91170242D01*
X162658038Y-91167620D01*
X162652777Y-91164467D01*
X162647850Y-91160813D01*
X162643306Y-91156694D01*
X162639187Y-91152150D01*
X162635533Y-91147223D01*
X162632380Y-91141962D01*
X162629758Y-91136418D01*
X162627691Y-91130643D01*
X162626201Y-91124693D01*
X162625301Y-91118626D01*
X162625000Y-91112500D01*
X162625000Y-90987500D01*
X162625301Y-90981374D01*
X162626201Y-90975307D01*
X162627691Y-90969357D01*
X162629758Y-90963582D01*
X162632380Y-90958038D01*
X162635533Y-90952777D01*
X162639187Y-90947850D01*
X162643306Y-90943306D01*
X162647850Y-90939187D01*
X162652777Y-90935533D01*
X162658038Y-90932380D01*
X162663582Y-90929758D01*
X162669357Y-90927691D01*
X162675307Y-90926201D01*
X162681374Y-90925301D01*
X162687500Y-90925000D01*
X163437500Y-90925000D01*
X163443626Y-90925301D01*
X163443626Y-90925301D01*
G37*
D11*
X163062500Y-91050000D03*
D10*
G36*
X163443626Y-90425301D02*
G01*
X163449693Y-90426201D01*
X163455643Y-90427691D01*
X163461418Y-90429758D01*
X163466962Y-90432380D01*
X163472223Y-90435533D01*
X163477150Y-90439187D01*
X163481694Y-90443306D01*
X163485813Y-90447850D01*
X163489467Y-90452777D01*
X163492620Y-90458038D01*
X163495242Y-90463582D01*
X163497309Y-90469357D01*
X163498799Y-90475307D01*
X163499699Y-90481374D01*
X163500000Y-90487500D01*
X163500000Y-90612500D01*
X163499699Y-90618626D01*
X163498799Y-90624693D01*
X163497309Y-90630643D01*
X163495242Y-90636418D01*
X163492620Y-90641962D01*
X163489467Y-90647223D01*
X163485813Y-90652150D01*
X163481694Y-90656694D01*
X163477150Y-90660813D01*
X163472223Y-90664467D01*
X163466962Y-90667620D01*
X163461418Y-90670242D01*
X163455643Y-90672309D01*
X163449693Y-90673799D01*
X163443626Y-90674699D01*
X163437500Y-90675000D01*
X162687500Y-90675000D01*
X162681374Y-90674699D01*
X162675307Y-90673799D01*
X162669357Y-90672309D01*
X162663582Y-90670242D01*
X162658038Y-90667620D01*
X162652777Y-90664467D01*
X162647850Y-90660813D01*
X162643306Y-90656694D01*
X162639187Y-90652150D01*
X162635533Y-90647223D01*
X162632380Y-90641962D01*
X162629758Y-90636418D01*
X162627691Y-90630643D01*
X162626201Y-90624693D01*
X162625301Y-90618626D01*
X162625000Y-90612500D01*
X162625000Y-90487500D01*
X162625301Y-90481374D01*
X162626201Y-90475307D01*
X162627691Y-90469357D01*
X162629758Y-90463582D01*
X162632380Y-90458038D01*
X162635533Y-90452777D01*
X162639187Y-90447850D01*
X162643306Y-90443306D01*
X162647850Y-90439187D01*
X162652777Y-90435533D01*
X162658038Y-90432380D01*
X162663582Y-90429758D01*
X162669357Y-90427691D01*
X162675307Y-90426201D01*
X162681374Y-90425301D01*
X162687500Y-90425000D01*
X163437500Y-90425000D01*
X163443626Y-90425301D01*
X163443626Y-90425301D01*
G37*
D11*
X163062500Y-90550000D03*
D10*
G36*
X163443626Y-89925301D02*
G01*
X163449693Y-89926201D01*
X163455643Y-89927691D01*
X163461418Y-89929758D01*
X163466962Y-89932380D01*
X163472223Y-89935533D01*
X163477150Y-89939187D01*
X163481694Y-89943306D01*
X163485813Y-89947850D01*
X163489467Y-89952777D01*
X163492620Y-89958038D01*
X163495242Y-89963582D01*
X163497309Y-89969357D01*
X163498799Y-89975307D01*
X163499699Y-89981374D01*
X163500000Y-89987500D01*
X163500000Y-90112500D01*
X163499699Y-90118626D01*
X163498799Y-90124693D01*
X163497309Y-90130643D01*
X163495242Y-90136418D01*
X163492620Y-90141962D01*
X163489467Y-90147223D01*
X163485813Y-90152150D01*
X163481694Y-90156694D01*
X163477150Y-90160813D01*
X163472223Y-90164467D01*
X163466962Y-90167620D01*
X163461418Y-90170242D01*
X163455643Y-90172309D01*
X163449693Y-90173799D01*
X163443626Y-90174699D01*
X163437500Y-90175000D01*
X162687500Y-90175000D01*
X162681374Y-90174699D01*
X162675307Y-90173799D01*
X162669357Y-90172309D01*
X162663582Y-90170242D01*
X162658038Y-90167620D01*
X162652777Y-90164467D01*
X162647850Y-90160813D01*
X162643306Y-90156694D01*
X162639187Y-90152150D01*
X162635533Y-90147223D01*
X162632380Y-90141962D01*
X162629758Y-90136418D01*
X162627691Y-90130643D01*
X162626201Y-90124693D01*
X162625301Y-90118626D01*
X162625000Y-90112500D01*
X162625000Y-89987500D01*
X162625301Y-89981374D01*
X162626201Y-89975307D01*
X162627691Y-89969357D01*
X162629758Y-89963582D01*
X162632380Y-89958038D01*
X162635533Y-89952777D01*
X162639187Y-89947850D01*
X162643306Y-89943306D01*
X162647850Y-89939187D01*
X162652777Y-89935533D01*
X162658038Y-89932380D01*
X162663582Y-89929758D01*
X162669357Y-89927691D01*
X162675307Y-89926201D01*
X162681374Y-89925301D01*
X162687500Y-89925000D01*
X163437500Y-89925000D01*
X163443626Y-89925301D01*
X163443626Y-89925301D01*
G37*
D11*
X163062500Y-90050000D03*
D10*
G36*
X163443626Y-89425301D02*
G01*
X163449693Y-89426201D01*
X163455643Y-89427691D01*
X163461418Y-89429758D01*
X163466962Y-89432380D01*
X163472223Y-89435533D01*
X163477150Y-89439187D01*
X163481694Y-89443306D01*
X163485813Y-89447850D01*
X163489467Y-89452777D01*
X163492620Y-89458038D01*
X163495242Y-89463582D01*
X163497309Y-89469357D01*
X163498799Y-89475307D01*
X163499699Y-89481374D01*
X163500000Y-89487500D01*
X163500000Y-89612500D01*
X163499699Y-89618626D01*
X163498799Y-89624693D01*
X163497309Y-89630643D01*
X163495242Y-89636418D01*
X163492620Y-89641962D01*
X163489467Y-89647223D01*
X163485813Y-89652150D01*
X163481694Y-89656694D01*
X163477150Y-89660813D01*
X163472223Y-89664467D01*
X163466962Y-89667620D01*
X163461418Y-89670242D01*
X163455643Y-89672309D01*
X163449693Y-89673799D01*
X163443626Y-89674699D01*
X163437500Y-89675000D01*
X162687500Y-89675000D01*
X162681374Y-89674699D01*
X162675307Y-89673799D01*
X162669357Y-89672309D01*
X162663582Y-89670242D01*
X162658038Y-89667620D01*
X162652777Y-89664467D01*
X162647850Y-89660813D01*
X162643306Y-89656694D01*
X162639187Y-89652150D01*
X162635533Y-89647223D01*
X162632380Y-89641962D01*
X162629758Y-89636418D01*
X162627691Y-89630643D01*
X162626201Y-89624693D01*
X162625301Y-89618626D01*
X162625000Y-89612500D01*
X162625000Y-89487500D01*
X162625301Y-89481374D01*
X162626201Y-89475307D01*
X162627691Y-89469357D01*
X162629758Y-89463582D01*
X162632380Y-89458038D01*
X162635533Y-89452777D01*
X162639187Y-89447850D01*
X162643306Y-89443306D01*
X162647850Y-89439187D01*
X162652777Y-89435533D01*
X162658038Y-89432380D01*
X162663582Y-89429758D01*
X162669357Y-89427691D01*
X162675307Y-89426201D01*
X162681374Y-89425301D01*
X162687500Y-89425000D01*
X163437500Y-89425000D01*
X163443626Y-89425301D01*
X163443626Y-89425301D01*
G37*
D11*
X163062500Y-89550000D03*
D10*
G36*
X163443626Y-88925301D02*
G01*
X163449693Y-88926201D01*
X163455643Y-88927691D01*
X163461418Y-88929758D01*
X163466962Y-88932380D01*
X163472223Y-88935533D01*
X163477150Y-88939187D01*
X163481694Y-88943306D01*
X163485813Y-88947850D01*
X163489467Y-88952777D01*
X163492620Y-88958038D01*
X163495242Y-88963582D01*
X163497309Y-88969357D01*
X163498799Y-88975307D01*
X163499699Y-88981374D01*
X163500000Y-88987500D01*
X163500000Y-89112500D01*
X163499699Y-89118626D01*
X163498799Y-89124693D01*
X163497309Y-89130643D01*
X163495242Y-89136418D01*
X163492620Y-89141962D01*
X163489467Y-89147223D01*
X163485813Y-89152150D01*
X163481694Y-89156694D01*
X163477150Y-89160813D01*
X163472223Y-89164467D01*
X163466962Y-89167620D01*
X163461418Y-89170242D01*
X163455643Y-89172309D01*
X163449693Y-89173799D01*
X163443626Y-89174699D01*
X163437500Y-89175000D01*
X162687500Y-89175000D01*
X162681374Y-89174699D01*
X162675307Y-89173799D01*
X162669357Y-89172309D01*
X162663582Y-89170242D01*
X162658038Y-89167620D01*
X162652777Y-89164467D01*
X162647850Y-89160813D01*
X162643306Y-89156694D01*
X162639187Y-89152150D01*
X162635533Y-89147223D01*
X162632380Y-89141962D01*
X162629758Y-89136418D01*
X162627691Y-89130643D01*
X162626201Y-89124693D01*
X162625301Y-89118626D01*
X162625000Y-89112500D01*
X162625000Y-88987500D01*
X162625301Y-88981374D01*
X162626201Y-88975307D01*
X162627691Y-88969357D01*
X162629758Y-88963582D01*
X162632380Y-88958038D01*
X162635533Y-88952777D01*
X162639187Y-88947850D01*
X162643306Y-88943306D01*
X162647850Y-88939187D01*
X162652777Y-88935533D01*
X162658038Y-88932380D01*
X162663582Y-88929758D01*
X162669357Y-88927691D01*
X162675307Y-88926201D01*
X162681374Y-88925301D01*
X162687500Y-88925000D01*
X163437500Y-88925000D01*
X163443626Y-88925301D01*
X163443626Y-88925301D01*
G37*
D11*
X163062500Y-89050000D03*
D10*
G36*
X163443626Y-88425301D02*
G01*
X163449693Y-88426201D01*
X163455643Y-88427691D01*
X163461418Y-88429758D01*
X163466962Y-88432380D01*
X163472223Y-88435533D01*
X163477150Y-88439187D01*
X163481694Y-88443306D01*
X163485813Y-88447850D01*
X163489467Y-88452777D01*
X163492620Y-88458038D01*
X163495242Y-88463582D01*
X163497309Y-88469357D01*
X163498799Y-88475307D01*
X163499699Y-88481374D01*
X163500000Y-88487500D01*
X163500000Y-88612500D01*
X163499699Y-88618626D01*
X163498799Y-88624693D01*
X163497309Y-88630643D01*
X163495242Y-88636418D01*
X163492620Y-88641962D01*
X163489467Y-88647223D01*
X163485813Y-88652150D01*
X163481694Y-88656694D01*
X163477150Y-88660813D01*
X163472223Y-88664467D01*
X163466962Y-88667620D01*
X163461418Y-88670242D01*
X163455643Y-88672309D01*
X163449693Y-88673799D01*
X163443626Y-88674699D01*
X163437500Y-88675000D01*
X162687500Y-88675000D01*
X162681374Y-88674699D01*
X162675307Y-88673799D01*
X162669357Y-88672309D01*
X162663582Y-88670242D01*
X162658038Y-88667620D01*
X162652777Y-88664467D01*
X162647850Y-88660813D01*
X162643306Y-88656694D01*
X162639187Y-88652150D01*
X162635533Y-88647223D01*
X162632380Y-88641962D01*
X162629758Y-88636418D01*
X162627691Y-88630643D01*
X162626201Y-88624693D01*
X162625301Y-88618626D01*
X162625000Y-88612500D01*
X162625000Y-88487500D01*
X162625301Y-88481374D01*
X162626201Y-88475307D01*
X162627691Y-88469357D01*
X162629758Y-88463582D01*
X162632380Y-88458038D01*
X162635533Y-88452777D01*
X162639187Y-88447850D01*
X162643306Y-88443306D01*
X162647850Y-88439187D01*
X162652777Y-88435533D01*
X162658038Y-88432380D01*
X162663582Y-88429758D01*
X162669357Y-88427691D01*
X162675307Y-88426201D01*
X162681374Y-88425301D01*
X162687500Y-88425000D01*
X163437500Y-88425000D01*
X163443626Y-88425301D01*
X163443626Y-88425301D01*
G37*
D11*
X163062500Y-88550000D03*
D10*
G36*
X163443626Y-87925301D02*
G01*
X163449693Y-87926201D01*
X163455643Y-87927691D01*
X163461418Y-87929758D01*
X163466962Y-87932380D01*
X163472223Y-87935533D01*
X163477150Y-87939187D01*
X163481694Y-87943306D01*
X163485813Y-87947850D01*
X163489467Y-87952777D01*
X163492620Y-87958038D01*
X163495242Y-87963582D01*
X163497309Y-87969357D01*
X163498799Y-87975307D01*
X163499699Y-87981374D01*
X163500000Y-87987500D01*
X163500000Y-88112500D01*
X163499699Y-88118626D01*
X163498799Y-88124693D01*
X163497309Y-88130643D01*
X163495242Y-88136418D01*
X163492620Y-88141962D01*
X163489467Y-88147223D01*
X163485813Y-88152150D01*
X163481694Y-88156694D01*
X163477150Y-88160813D01*
X163472223Y-88164467D01*
X163466962Y-88167620D01*
X163461418Y-88170242D01*
X163455643Y-88172309D01*
X163449693Y-88173799D01*
X163443626Y-88174699D01*
X163437500Y-88175000D01*
X162687500Y-88175000D01*
X162681374Y-88174699D01*
X162675307Y-88173799D01*
X162669357Y-88172309D01*
X162663582Y-88170242D01*
X162658038Y-88167620D01*
X162652777Y-88164467D01*
X162647850Y-88160813D01*
X162643306Y-88156694D01*
X162639187Y-88152150D01*
X162635533Y-88147223D01*
X162632380Y-88141962D01*
X162629758Y-88136418D01*
X162627691Y-88130643D01*
X162626201Y-88124693D01*
X162625301Y-88118626D01*
X162625000Y-88112500D01*
X162625000Y-87987500D01*
X162625301Y-87981374D01*
X162626201Y-87975307D01*
X162627691Y-87969357D01*
X162629758Y-87963582D01*
X162632380Y-87958038D01*
X162635533Y-87952777D01*
X162639187Y-87947850D01*
X162643306Y-87943306D01*
X162647850Y-87939187D01*
X162652777Y-87935533D01*
X162658038Y-87932380D01*
X162663582Y-87929758D01*
X162669357Y-87927691D01*
X162675307Y-87926201D01*
X162681374Y-87925301D01*
X162687500Y-87925000D01*
X163437500Y-87925000D01*
X163443626Y-87925301D01*
X163443626Y-87925301D01*
G37*
D11*
X163062500Y-88050000D03*
D10*
G36*
X163443626Y-87425301D02*
G01*
X163449693Y-87426201D01*
X163455643Y-87427691D01*
X163461418Y-87429758D01*
X163466962Y-87432380D01*
X163472223Y-87435533D01*
X163477150Y-87439187D01*
X163481694Y-87443306D01*
X163485813Y-87447850D01*
X163489467Y-87452777D01*
X163492620Y-87458038D01*
X163495242Y-87463582D01*
X163497309Y-87469357D01*
X163498799Y-87475307D01*
X163499699Y-87481374D01*
X163500000Y-87487500D01*
X163500000Y-87612500D01*
X163499699Y-87618626D01*
X163498799Y-87624693D01*
X163497309Y-87630643D01*
X163495242Y-87636418D01*
X163492620Y-87641962D01*
X163489467Y-87647223D01*
X163485813Y-87652150D01*
X163481694Y-87656694D01*
X163477150Y-87660813D01*
X163472223Y-87664467D01*
X163466962Y-87667620D01*
X163461418Y-87670242D01*
X163455643Y-87672309D01*
X163449693Y-87673799D01*
X163443626Y-87674699D01*
X163437500Y-87675000D01*
X162687500Y-87675000D01*
X162681374Y-87674699D01*
X162675307Y-87673799D01*
X162669357Y-87672309D01*
X162663582Y-87670242D01*
X162658038Y-87667620D01*
X162652777Y-87664467D01*
X162647850Y-87660813D01*
X162643306Y-87656694D01*
X162639187Y-87652150D01*
X162635533Y-87647223D01*
X162632380Y-87641962D01*
X162629758Y-87636418D01*
X162627691Y-87630643D01*
X162626201Y-87624693D01*
X162625301Y-87618626D01*
X162625000Y-87612500D01*
X162625000Y-87487500D01*
X162625301Y-87481374D01*
X162626201Y-87475307D01*
X162627691Y-87469357D01*
X162629758Y-87463582D01*
X162632380Y-87458038D01*
X162635533Y-87452777D01*
X162639187Y-87447850D01*
X162643306Y-87443306D01*
X162647850Y-87439187D01*
X162652777Y-87435533D01*
X162658038Y-87432380D01*
X162663582Y-87429758D01*
X162669357Y-87427691D01*
X162675307Y-87426201D01*
X162681374Y-87425301D01*
X162687500Y-87425000D01*
X163437500Y-87425000D01*
X163443626Y-87425301D01*
X163443626Y-87425301D01*
G37*
D11*
X163062500Y-87550000D03*
D10*
G36*
X163818626Y-86425301D02*
G01*
X163824693Y-86426201D01*
X163830643Y-86427691D01*
X163836418Y-86429758D01*
X163841962Y-86432380D01*
X163847223Y-86435533D01*
X163852150Y-86439187D01*
X163856694Y-86443306D01*
X163860813Y-86447850D01*
X163864467Y-86452777D01*
X163867620Y-86458038D01*
X163870242Y-86463582D01*
X163872309Y-86469357D01*
X163873799Y-86475307D01*
X163874699Y-86481374D01*
X163875000Y-86487500D01*
X163875000Y-87237500D01*
X163874699Y-87243626D01*
X163873799Y-87249693D01*
X163872309Y-87255643D01*
X163870242Y-87261418D01*
X163867620Y-87266962D01*
X163864467Y-87272223D01*
X163860813Y-87277150D01*
X163856694Y-87281694D01*
X163852150Y-87285813D01*
X163847223Y-87289467D01*
X163841962Y-87292620D01*
X163836418Y-87295242D01*
X163830643Y-87297309D01*
X163824693Y-87298799D01*
X163818626Y-87299699D01*
X163812500Y-87300000D01*
X163687500Y-87300000D01*
X163681374Y-87299699D01*
X163675307Y-87298799D01*
X163669357Y-87297309D01*
X163663582Y-87295242D01*
X163658038Y-87292620D01*
X163652777Y-87289467D01*
X163647850Y-87285813D01*
X163643306Y-87281694D01*
X163639187Y-87277150D01*
X163635533Y-87272223D01*
X163632380Y-87266962D01*
X163629758Y-87261418D01*
X163627691Y-87255643D01*
X163626201Y-87249693D01*
X163625301Y-87243626D01*
X163625000Y-87237500D01*
X163625000Y-86487500D01*
X163625301Y-86481374D01*
X163626201Y-86475307D01*
X163627691Y-86469357D01*
X163629758Y-86463582D01*
X163632380Y-86458038D01*
X163635533Y-86452777D01*
X163639187Y-86447850D01*
X163643306Y-86443306D01*
X163647850Y-86439187D01*
X163652777Y-86435533D01*
X163658038Y-86432380D01*
X163663582Y-86429758D01*
X163669357Y-86427691D01*
X163675307Y-86426201D01*
X163681374Y-86425301D01*
X163687500Y-86425000D01*
X163812500Y-86425000D01*
X163818626Y-86425301D01*
X163818626Y-86425301D01*
G37*
D11*
X163750000Y-86862500D03*
D10*
G36*
X164318626Y-86425301D02*
G01*
X164324693Y-86426201D01*
X164330643Y-86427691D01*
X164336418Y-86429758D01*
X164341962Y-86432380D01*
X164347223Y-86435533D01*
X164352150Y-86439187D01*
X164356694Y-86443306D01*
X164360813Y-86447850D01*
X164364467Y-86452777D01*
X164367620Y-86458038D01*
X164370242Y-86463582D01*
X164372309Y-86469357D01*
X164373799Y-86475307D01*
X164374699Y-86481374D01*
X164375000Y-86487500D01*
X164375000Y-87237500D01*
X164374699Y-87243626D01*
X164373799Y-87249693D01*
X164372309Y-87255643D01*
X164370242Y-87261418D01*
X164367620Y-87266962D01*
X164364467Y-87272223D01*
X164360813Y-87277150D01*
X164356694Y-87281694D01*
X164352150Y-87285813D01*
X164347223Y-87289467D01*
X164341962Y-87292620D01*
X164336418Y-87295242D01*
X164330643Y-87297309D01*
X164324693Y-87298799D01*
X164318626Y-87299699D01*
X164312500Y-87300000D01*
X164187500Y-87300000D01*
X164181374Y-87299699D01*
X164175307Y-87298799D01*
X164169357Y-87297309D01*
X164163582Y-87295242D01*
X164158038Y-87292620D01*
X164152777Y-87289467D01*
X164147850Y-87285813D01*
X164143306Y-87281694D01*
X164139187Y-87277150D01*
X164135533Y-87272223D01*
X164132380Y-87266962D01*
X164129758Y-87261418D01*
X164127691Y-87255643D01*
X164126201Y-87249693D01*
X164125301Y-87243626D01*
X164125000Y-87237500D01*
X164125000Y-86487500D01*
X164125301Y-86481374D01*
X164126201Y-86475307D01*
X164127691Y-86469357D01*
X164129758Y-86463582D01*
X164132380Y-86458038D01*
X164135533Y-86452777D01*
X164139187Y-86447850D01*
X164143306Y-86443306D01*
X164147850Y-86439187D01*
X164152777Y-86435533D01*
X164158038Y-86432380D01*
X164163582Y-86429758D01*
X164169357Y-86427691D01*
X164175307Y-86426201D01*
X164181374Y-86425301D01*
X164187500Y-86425000D01*
X164312500Y-86425000D01*
X164318626Y-86425301D01*
X164318626Y-86425301D01*
G37*
D11*
X164250000Y-86862500D03*
D10*
G36*
X164818626Y-86425301D02*
G01*
X164824693Y-86426201D01*
X164830643Y-86427691D01*
X164836418Y-86429758D01*
X164841962Y-86432380D01*
X164847223Y-86435533D01*
X164852150Y-86439187D01*
X164856694Y-86443306D01*
X164860813Y-86447850D01*
X164864467Y-86452777D01*
X164867620Y-86458038D01*
X164870242Y-86463582D01*
X164872309Y-86469357D01*
X164873799Y-86475307D01*
X164874699Y-86481374D01*
X164875000Y-86487500D01*
X164875000Y-87237500D01*
X164874699Y-87243626D01*
X164873799Y-87249693D01*
X164872309Y-87255643D01*
X164870242Y-87261418D01*
X164867620Y-87266962D01*
X164864467Y-87272223D01*
X164860813Y-87277150D01*
X164856694Y-87281694D01*
X164852150Y-87285813D01*
X164847223Y-87289467D01*
X164841962Y-87292620D01*
X164836418Y-87295242D01*
X164830643Y-87297309D01*
X164824693Y-87298799D01*
X164818626Y-87299699D01*
X164812500Y-87300000D01*
X164687500Y-87300000D01*
X164681374Y-87299699D01*
X164675307Y-87298799D01*
X164669357Y-87297309D01*
X164663582Y-87295242D01*
X164658038Y-87292620D01*
X164652777Y-87289467D01*
X164647850Y-87285813D01*
X164643306Y-87281694D01*
X164639187Y-87277150D01*
X164635533Y-87272223D01*
X164632380Y-87266962D01*
X164629758Y-87261418D01*
X164627691Y-87255643D01*
X164626201Y-87249693D01*
X164625301Y-87243626D01*
X164625000Y-87237500D01*
X164625000Y-86487500D01*
X164625301Y-86481374D01*
X164626201Y-86475307D01*
X164627691Y-86469357D01*
X164629758Y-86463582D01*
X164632380Y-86458038D01*
X164635533Y-86452777D01*
X164639187Y-86447850D01*
X164643306Y-86443306D01*
X164647850Y-86439187D01*
X164652777Y-86435533D01*
X164658038Y-86432380D01*
X164663582Y-86429758D01*
X164669357Y-86427691D01*
X164675307Y-86426201D01*
X164681374Y-86425301D01*
X164687500Y-86425000D01*
X164812500Y-86425000D01*
X164818626Y-86425301D01*
X164818626Y-86425301D01*
G37*
D11*
X164750000Y-86862500D03*
D10*
G36*
X165318626Y-86425301D02*
G01*
X165324693Y-86426201D01*
X165330643Y-86427691D01*
X165336418Y-86429758D01*
X165341962Y-86432380D01*
X165347223Y-86435533D01*
X165352150Y-86439187D01*
X165356694Y-86443306D01*
X165360813Y-86447850D01*
X165364467Y-86452777D01*
X165367620Y-86458038D01*
X165370242Y-86463582D01*
X165372309Y-86469357D01*
X165373799Y-86475307D01*
X165374699Y-86481374D01*
X165375000Y-86487500D01*
X165375000Y-87237500D01*
X165374699Y-87243626D01*
X165373799Y-87249693D01*
X165372309Y-87255643D01*
X165370242Y-87261418D01*
X165367620Y-87266962D01*
X165364467Y-87272223D01*
X165360813Y-87277150D01*
X165356694Y-87281694D01*
X165352150Y-87285813D01*
X165347223Y-87289467D01*
X165341962Y-87292620D01*
X165336418Y-87295242D01*
X165330643Y-87297309D01*
X165324693Y-87298799D01*
X165318626Y-87299699D01*
X165312500Y-87300000D01*
X165187500Y-87300000D01*
X165181374Y-87299699D01*
X165175307Y-87298799D01*
X165169357Y-87297309D01*
X165163582Y-87295242D01*
X165158038Y-87292620D01*
X165152777Y-87289467D01*
X165147850Y-87285813D01*
X165143306Y-87281694D01*
X165139187Y-87277150D01*
X165135533Y-87272223D01*
X165132380Y-87266962D01*
X165129758Y-87261418D01*
X165127691Y-87255643D01*
X165126201Y-87249693D01*
X165125301Y-87243626D01*
X165125000Y-87237500D01*
X165125000Y-86487500D01*
X165125301Y-86481374D01*
X165126201Y-86475307D01*
X165127691Y-86469357D01*
X165129758Y-86463582D01*
X165132380Y-86458038D01*
X165135533Y-86452777D01*
X165139187Y-86447850D01*
X165143306Y-86443306D01*
X165147850Y-86439187D01*
X165152777Y-86435533D01*
X165158038Y-86432380D01*
X165163582Y-86429758D01*
X165169357Y-86427691D01*
X165175307Y-86426201D01*
X165181374Y-86425301D01*
X165187500Y-86425000D01*
X165312500Y-86425000D01*
X165318626Y-86425301D01*
X165318626Y-86425301D01*
G37*
D11*
X165250000Y-86862500D03*
D10*
G36*
X165818626Y-86425301D02*
G01*
X165824693Y-86426201D01*
X165830643Y-86427691D01*
X165836418Y-86429758D01*
X165841962Y-86432380D01*
X165847223Y-86435533D01*
X165852150Y-86439187D01*
X165856694Y-86443306D01*
X165860813Y-86447850D01*
X165864467Y-86452777D01*
X165867620Y-86458038D01*
X165870242Y-86463582D01*
X165872309Y-86469357D01*
X165873799Y-86475307D01*
X165874699Y-86481374D01*
X165875000Y-86487500D01*
X165875000Y-87237500D01*
X165874699Y-87243626D01*
X165873799Y-87249693D01*
X165872309Y-87255643D01*
X165870242Y-87261418D01*
X165867620Y-87266962D01*
X165864467Y-87272223D01*
X165860813Y-87277150D01*
X165856694Y-87281694D01*
X165852150Y-87285813D01*
X165847223Y-87289467D01*
X165841962Y-87292620D01*
X165836418Y-87295242D01*
X165830643Y-87297309D01*
X165824693Y-87298799D01*
X165818626Y-87299699D01*
X165812500Y-87300000D01*
X165687500Y-87300000D01*
X165681374Y-87299699D01*
X165675307Y-87298799D01*
X165669357Y-87297309D01*
X165663582Y-87295242D01*
X165658038Y-87292620D01*
X165652777Y-87289467D01*
X165647850Y-87285813D01*
X165643306Y-87281694D01*
X165639187Y-87277150D01*
X165635533Y-87272223D01*
X165632380Y-87266962D01*
X165629758Y-87261418D01*
X165627691Y-87255643D01*
X165626201Y-87249693D01*
X165625301Y-87243626D01*
X165625000Y-87237500D01*
X165625000Y-86487500D01*
X165625301Y-86481374D01*
X165626201Y-86475307D01*
X165627691Y-86469357D01*
X165629758Y-86463582D01*
X165632380Y-86458038D01*
X165635533Y-86452777D01*
X165639187Y-86447850D01*
X165643306Y-86443306D01*
X165647850Y-86439187D01*
X165652777Y-86435533D01*
X165658038Y-86432380D01*
X165663582Y-86429758D01*
X165669357Y-86427691D01*
X165675307Y-86426201D01*
X165681374Y-86425301D01*
X165687500Y-86425000D01*
X165812500Y-86425000D01*
X165818626Y-86425301D01*
X165818626Y-86425301D01*
G37*
D11*
X165750000Y-86862500D03*
D10*
G36*
X166318626Y-86425301D02*
G01*
X166324693Y-86426201D01*
X166330643Y-86427691D01*
X166336418Y-86429758D01*
X166341962Y-86432380D01*
X166347223Y-86435533D01*
X166352150Y-86439187D01*
X166356694Y-86443306D01*
X166360813Y-86447850D01*
X166364467Y-86452777D01*
X166367620Y-86458038D01*
X166370242Y-86463582D01*
X166372309Y-86469357D01*
X166373799Y-86475307D01*
X166374699Y-86481374D01*
X166375000Y-86487500D01*
X166375000Y-87237500D01*
X166374699Y-87243626D01*
X166373799Y-87249693D01*
X166372309Y-87255643D01*
X166370242Y-87261418D01*
X166367620Y-87266962D01*
X166364467Y-87272223D01*
X166360813Y-87277150D01*
X166356694Y-87281694D01*
X166352150Y-87285813D01*
X166347223Y-87289467D01*
X166341962Y-87292620D01*
X166336418Y-87295242D01*
X166330643Y-87297309D01*
X166324693Y-87298799D01*
X166318626Y-87299699D01*
X166312500Y-87300000D01*
X166187500Y-87300000D01*
X166181374Y-87299699D01*
X166175307Y-87298799D01*
X166169357Y-87297309D01*
X166163582Y-87295242D01*
X166158038Y-87292620D01*
X166152777Y-87289467D01*
X166147850Y-87285813D01*
X166143306Y-87281694D01*
X166139187Y-87277150D01*
X166135533Y-87272223D01*
X166132380Y-87266962D01*
X166129758Y-87261418D01*
X166127691Y-87255643D01*
X166126201Y-87249693D01*
X166125301Y-87243626D01*
X166125000Y-87237500D01*
X166125000Y-86487500D01*
X166125301Y-86481374D01*
X166126201Y-86475307D01*
X166127691Y-86469357D01*
X166129758Y-86463582D01*
X166132380Y-86458038D01*
X166135533Y-86452777D01*
X166139187Y-86447850D01*
X166143306Y-86443306D01*
X166147850Y-86439187D01*
X166152777Y-86435533D01*
X166158038Y-86432380D01*
X166163582Y-86429758D01*
X166169357Y-86427691D01*
X166175307Y-86426201D01*
X166181374Y-86425301D01*
X166187500Y-86425000D01*
X166312500Y-86425000D01*
X166318626Y-86425301D01*
X166318626Y-86425301D01*
G37*
D11*
X166250000Y-86862500D03*
D10*
G36*
X166818626Y-86425301D02*
G01*
X166824693Y-86426201D01*
X166830643Y-86427691D01*
X166836418Y-86429758D01*
X166841962Y-86432380D01*
X166847223Y-86435533D01*
X166852150Y-86439187D01*
X166856694Y-86443306D01*
X166860813Y-86447850D01*
X166864467Y-86452777D01*
X166867620Y-86458038D01*
X166870242Y-86463582D01*
X166872309Y-86469357D01*
X166873799Y-86475307D01*
X166874699Y-86481374D01*
X166875000Y-86487500D01*
X166875000Y-87237500D01*
X166874699Y-87243626D01*
X166873799Y-87249693D01*
X166872309Y-87255643D01*
X166870242Y-87261418D01*
X166867620Y-87266962D01*
X166864467Y-87272223D01*
X166860813Y-87277150D01*
X166856694Y-87281694D01*
X166852150Y-87285813D01*
X166847223Y-87289467D01*
X166841962Y-87292620D01*
X166836418Y-87295242D01*
X166830643Y-87297309D01*
X166824693Y-87298799D01*
X166818626Y-87299699D01*
X166812500Y-87300000D01*
X166687500Y-87300000D01*
X166681374Y-87299699D01*
X166675307Y-87298799D01*
X166669357Y-87297309D01*
X166663582Y-87295242D01*
X166658038Y-87292620D01*
X166652777Y-87289467D01*
X166647850Y-87285813D01*
X166643306Y-87281694D01*
X166639187Y-87277150D01*
X166635533Y-87272223D01*
X166632380Y-87266962D01*
X166629758Y-87261418D01*
X166627691Y-87255643D01*
X166626201Y-87249693D01*
X166625301Y-87243626D01*
X166625000Y-87237500D01*
X166625000Y-86487500D01*
X166625301Y-86481374D01*
X166626201Y-86475307D01*
X166627691Y-86469357D01*
X166629758Y-86463582D01*
X166632380Y-86458038D01*
X166635533Y-86452777D01*
X166639187Y-86447850D01*
X166643306Y-86443306D01*
X166647850Y-86439187D01*
X166652777Y-86435533D01*
X166658038Y-86432380D01*
X166663582Y-86429758D01*
X166669357Y-86427691D01*
X166675307Y-86426201D01*
X166681374Y-86425301D01*
X166687500Y-86425000D01*
X166812500Y-86425000D01*
X166818626Y-86425301D01*
X166818626Y-86425301D01*
G37*
D11*
X166750000Y-86862500D03*
D10*
G36*
X167318626Y-86425301D02*
G01*
X167324693Y-86426201D01*
X167330643Y-86427691D01*
X167336418Y-86429758D01*
X167341962Y-86432380D01*
X167347223Y-86435533D01*
X167352150Y-86439187D01*
X167356694Y-86443306D01*
X167360813Y-86447850D01*
X167364467Y-86452777D01*
X167367620Y-86458038D01*
X167370242Y-86463582D01*
X167372309Y-86469357D01*
X167373799Y-86475307D01*
X167374699Y-86481374D01*
X167375000Y-86487500D01*
X167375000Y-87237500D01*
X167374699Y-87243626D01*
X167373799Y-87249693D01*
X167372309Y-87255643D01*
X167370242Y-87261418D01*
X167367620Y-87266962D01*
X167364467Y-87272223D01*
X167360813Y-87277150D01*
X167356694Y-87281694D01*
X167352150Y-87285813D01*
X167347223Y-87289467D01*
X167341962Y-87292620D01*
X167336418Y-87295242D01*
X167330643Y-87297309D01*
X167324693Y-87298799D01*
X167318626Y-87299699D01*
X167312500Y-87300000D01*
X167187500Y-87300000D01*
X167181374Y-87299699D01*
X167175307Y-87298799D01*
X167169357Y-87297309D01*
X167163582Y-87295242D01*
X167158038Y-87292620D01*
X167152777Y-87289467D01*
X167147850Y-87285813D01*
X167143306Y-87281694D01*
X167139187Y-87277150D01*
X167135533Y-87272223D01*
X167132380Y-87266962D01*
X167129758Y-87261418D01*
X167127691Y-87255643D01*
X167126201Y-87249693D01*
X167125301Y-87243626D01*
X167125000Y-87237500D01*
X167125000Y-86487500D01*
X167125301Y-86481374D01*
X167126201Y-86475307D01*
X167127691Y-86469357D01*
X167129758Y-86463582D01*
X167132380Y-86458038D01*
X167135533Y-86452777D01*
X167139187Y-86447850D01*
X167143306Y-86443306D01*
X167147850Y-86439187D01*
X167152777Y-86435533D01*
X167158038Y-86432380D01*
X167163582Y-86429758D01*
X167169357Y-86427691D01*
X167175307Y-86426201D01*
X167181374Y-86425301D01*
X167187500Y-86425000D01*
X167312500Y-86425000D01*
X167318626Y-86425301D01*
X167318626Y-86425301D01*
G37*
D11*
X167250000Y-86862500D03*
D10*
G36*
X168318626Y-87425301D02*
G01*
X168324693Y-87426201D01*
X168330643Y-87427691D01*
X168336418Y-87429758D01*
X168341962Y-87432380D01*
X168347223Y-87435533D01*
X168352150Y-87439187D01*
X168356694Y-87443306D01*
X168360813Y-87447850D01*
X168364467Y-87452777D01*
X168367620Y-87458038D01*
X168370242Y-87463582D01*
X168372309Y-87469357D01*
X168373799Y-87475307D01*
X168374699Y-87481374D01*
X168375000Y-87487500D01*
X168375000Y-87612500D01*
X168374699Y-87618626D01*
X168373799Y-87624693D01*
X168372309Y-87630643D01*
X168370242Y-87636418D01*
X168367620Y-87641962D01*
X168364467Y-87647223D01*
X168360813Y-87652150D01*
X168356694Y-87656694D01*
X168352150Y-87660813D01*
X168347223Y-87664467D01*
X168341962Y-87667620D01*
X168336418Y-87670242D01*
X168330643Y-87672309D01*
X168324693Y-87673799D01*
X168318626Y-87674699D01*
X168312500Y-87675000D01*
X167562500Y-87675000D01*
X167556374Y-87674699D01*
X167550307Y-87673799D01*
X167544357Y-87672309D01*
X167538582Y-87670242D01*
X167533038Y-87667620D01*
X167527777Y-87664467D01*
X167522850Y-87660813D01*
X167518306Y-87656694D01*
X167514187Y-87652150D01*
X167510533Y-87647223D01*
X167507380Y-87641962D01*
X167504758Y-87636418D01*
X167502691Y-87630643D01*
X167501201Y-87624693D01*
X167500301Y-87618626D01*
X167500000Y-87612500D01*
X167500000Y-87487500D01*
X167500301Y-87481374D01*
X167501201Y-87475307D01*
X167502691Y-87469357D01*
X167504758Y-87463582D01*
X167507380Y-87458038D01*
X167510533Y-87452777D01*
X167514187Y-87447850D01*
X167518306Y-87443306D01*
X167522850Y-87439187D01*
X167527777Y-87435533D01*
X167533038Y-87432380D01*
X167538582Y-87429758D01*
X167544357Y-87427691D01*
X167550307Y-87426201D01*
X167556374Y-87425301D01*
X167562500Y-87425000D01*
X168312500Y-87425000D01*
X168318626Y-87425301D01*
X168318626Y-87425301D01*
G37*
D11*
X167937500Y-87550000D03*
D10*
G36*
X168318626Y-87925301D02*
G01*
X168324693Y-87926201D01*
X168330643Y-87927691D01*
X168336418Y-87929758D01*
X168341962Y-87932380D01*
X168347223Y-87935533D01*
X168352150Y-87939187D01*
X168356694Y-87943306D01*
X168360813Y-87947850D01*
X168364467Y-87952777D01*
X168367620Y-87958038D01*
X168370242Y-87963582D01*
X168372309Y-87969357D01*
X168373799Y-87975307D01*
X168374699Y-87981374D01*
X168375000Y-87987500D01*
X168375000Y-88112500D01*
X168374699Y-88118626D01*
X168373799Y-88124693D01*
X168372309Y-88130643D01*
X168370242Y-88136418D01*
X168367620Y-88141962D01*
X168364467Y-88147223D01*
X168360813Y-88152150D01*
X168356694Y-88156694D01*
X168352150Y-88160813D01*
X168347223Y-88164467D01*
X168341962Y-88167620D01*
X168336418Y-88170242D01*
X168330643Y-88172309D01*
X168324693Y-88173799D01*
X168318626Y-88174699D01*
X168312500Y-88175000D01*
X167562500Y-88175000D01*
X167556374Y-88174699D01*
X167550307Y-88173799D01*
X167544357Y-88172309D01*
X167538582Y-88170242D01*
X167533038Y-88167620D01*
X167527777Y-88164467D01*
X167522850Y-88160813D01*
X167518306Y-88156694D01*
X167514187Y-88152150D01*
X167510533Y-88147223D01*
X167507380Y-88141962D01*
X167504758Y-88136418D01*
X167502691Y-88130643D01*
X167501201Y-88124693D01*
X167500301Y-88118626D01*
X167500000Y-88112500D01*
X167500000Y-87987500D01*
X167500301Y-87981374D01*
X167501201Y-87975307D01*
X167502691Y-87969357D01*
X167504758Y-87963582D01*
X167507380Y-87958038D01*
X167510533Y-87952777D01*
X167514187Y-87947850D01*
X167518306Y-87943306D01*
X167522850Y-87939187D01*
X167527777Y-87935533D01*
X167533038Y-87932380D01*
X167538582Y-87929758D01*
X167544357Y-87927691D01*
X167550307Y-87926201D01*
X167556374Y-87925301D01*
X167562500Y-87925000D01*
X168312500Y-87925000D01*
X168318626Y-87925301D01*
X168318626Y-87925301D01*
G37*
D11*
X167937500Y-88050000D03*
D10*
G36*
X168318626Y-88425301D02*
G01*
X168324693Y-88426201D01*
X168330643Y-88427691D01*
X168336418Y-88429758D01*
X168341962Y-88432380D01*
X168347223Y-88435533D01*
X168352150Y-88439187D01*
X168356694Y-88443306D01*
X168360813Y-88447850D01*
X168364467Y-88452777D01*
X168367620Y-88458038D01*
X168370242Y-88463582D01*
X168372309Y-88469357D01*
X168373799Y-88475307D01*
X168374699Y-88481374D01*
X168375000Y-88487500D01*
X168375000Y-88612500D01*
X168374699Y-88618626D01*
X168373799Y-88624693D01*
X168372309Y-88630643D01*
X168370242Y-88636418D01*
X168367620Y-88641962D01*
X168364467Y-88647223D01*
X168360813Y-88652150D01*
X168356694Y-88656694D01*
X168352150Y-88660813D01*
X168347223Y-88664467D01*
X168341962Y-88667620D01*
X168336418Y-88670242D01*
X168330643Y-88672309D01*
X168324693Y-88673799D01*
X168318626Y-88674699D01*
X168312500Y-88675000D01*
X167562500Y-88675000D01*
X167556374Y-88674699D01*
X167550307Y-88673799D01*
X167544357Y-88672309D01*
X167538582Y-88670242D01*
X167533038Y-88667620D01*
X167527777Y-88664467D01*
X167522850Y-88660813D01*
X167518306Y-88656694D01*
X167514187Y-88652150D01*
X167510533Y-88647223D01*
X167507380Y-88641962D01*
X167504758Y-88636418D01*
X167502691Y-88630643D01*
X167501201Y-88624693D01*
X167500301Y-88618626D01*
X167500000Y-88612500D01*
X167500000Y-88487500D01*
X167500301Y-88481374D01*
X167501201Y-88475307D01*
X167502691Y-88469357D01*
X167504758Y-88463582D01*
X167507380Y-88458038D01*
X167510533Y-88452777D01*
X167514187Y-88447850D01*
X167518306Y-88443306D01*
X167522850Y-88439187D01*
X167527777Y-88435533D01*
X167533038Y-88432380D01*
X167538582Y-88429758D01*
X167544357Y-88427691D01*
X167550307Y-88426201D01*
X167556374Y-88425301D01*
X167562500Y-88425000D01*
X168312500Y-88425000D01*
X168318626Y-88425301D01*
X168318626Y-88425301D01*
G37*
D11*
X167937500Y-88550000D03*
D10*
G36*
X168318626Y-88925301D02*
G01*
X168324693Y-88926201D01*
X168330643Y-88927691D01*
X168336418Y-88929758D01*
X168341962Y-88932380D01*
X168347223Y-88935533D01*
X168352150Y-88939187D01*
X168356694Y-88943306D01*
X168360813Y-88947850D01*
X168364467Y-88952777D01*
X168367620Y-88958038D01*
X168370242Y-88963582D01*
X168372309Y-88969357D01*
X168373799Y-88975307D01*
X168374699Y-88981374D01*
X168375000Y-88987500D01*
X168375000Y-89112500D01*
X168374699Y-89118626D01*
X168373799Y-89124693D01*
X168372309Y-89130643D01*
X168370242Y-89136418D01*
X168367620Y-89141962D01*
X168364467Y-89147223D01*
X168360813Y-89152150D01*
X168356694Y-89156694D01*
X168352150Y-89160813D01*
X168347223Y-89164467D01*
X168341962Y-89167620D01*
X168336418Y-89170242D01*
X168330643Y-89172309D01*
X168324693Y-89173799D01*
X168318626Y-89174699D01*
X168312500Y-89175000D01*
X167562500Y-89175000D01*
X167556374Y-89174699D01*
X167550307Y-89173799D01*
X167544357Y-89172309D01*
X167538582Y-89170242D01*
X167533038Y-89167620D01*
X167527777Y-89164467D01*
X167522850Y-89160813D01*
X167518306Y-89156694D01*
X167514187Y-89152150D01*
X167510533Y-89147223D01*
X167507380Y-89141962D01*
X167504758Y-89136418D01*
X167502691Y-89130643D01*
X167501201Y-89124693D01*
X167500301Y-89118626D01*
X167500000Y-89112500D01*
X167500000Y-88987500D01*
X167500301Y-88981374D01*
X167501201Y-88975307D01*
X167502691Y-88969357D01*
X167504758Y-88963582D01*
X167507380Y-88958038D01*
X167510533Y-88952777D01*
X167514187Y-88947850D01*
X167518306Y-88943306D01*
X167522850Y-88939187D01*
X167527777Y-88935533D01*
X167533038Y-88932380D01*
X167538582Y-88929758D01*
X167544357Y-88927691D01*
X167550307Y-88926201D01*
X167556374Y-88925301D01*
X167562500Y-88925000D01*
X168312500Y-88925000D01*
X168318626Y-88925301D01*
X168318626Y-88925301D01*
G37*
D11*
X167937500Y-89050000D03*
D10*
G36*
X168318626Y-89425301D02*
G01*
X168324693Y-89426201D01*
X168330643Y-89427691D01*
X168336418Y-89429758D01*
X168341962Y-89432380D01*
X168347223Y-89435533D01*
X168352150Y-89439187D01*
X168356694Y-89443306D01*
X168360813Y-89447850D01*
X168364467Y-89452777D01*
X168367620Y-89458038D01*
X168370242Y-89463582D01*
X168372309Y-89469357D01*
X168373799Y-89475307D01*
X168374699Y-89481374D01*
X168375000Y-89487500D01*
X168375000Y-89612500D01*
X168374699Y-89618626D01*
X168373799Y-89624693D01*
X168372309Y-89630643D01*
X168370242Y-89636418D01*
X168367620Y-89641962D01*
X168364467Y-89647223D01*
X168360813Y-89652150D01*
X168356694Y-89656694D01*
X168352150Y-89660813D01*
X168347223Y-89664467D01*
X168341962Y-89667620D01*
X168336418Y-89670242D01*
X168330643Y-89672309D01*
X168324693Y-89673799D01*
X168318626Y-89674699D01*
X168312500Y-89675000D01*
X167562500Y-89675000D01*
X167556374Y-89674699D01*
X167550307Y-89673799D01*
X167544357Y-89672309D01*
X167538582Y-89670242D01*
X167533038Y-89667620D01*
X167527777Y-89664467D01*
X167522850Y-89660813D01*
X167518306Y-89656694D01*
X167514187Y-89652150D01*
X167510533Y-89647223D01*
X167507380Y-89641962D01*
X167504758Y-89636418D01*
X167502691Y-89630643D01*
X167501201Y-89624693D01*
X167500301Y-89618626D01*
X167500000Y-89612500D01*
X167500000Y-89487500D01*
X167500301Y-89481374D01*
X167501201Y-89475307D01*
X167502691Y-89469357D01*
X167504758Y-89463582D01*
X167507380Y-89458038D01*
X167510533Y-89452777D01*
X167514187Y-89447850D01*
X167518306Y-89443306D01*
X167522850Y-89439187D01*
X167527777Y-89435533D01*
X167533038Y-89432380D01*
X167538582Y-89429758D01*
X167544357Y-89427691D01*
X167550307Y-89426201D01*
X167556374Y-89425301D01*
X167562500Y-89425000D01*
X168312500Y-89425000D01*
X168318626Y-89425301D01*
X168318626Y-89425301D01*
G37*
D11*
X167937500Y-89550000D03*
D10*
G36*
X168318626Y-89925301D02*
G01*
X168324693Y-89926201D01*
X168330643Y-89927691D01*
X168336418Y-89929758D01*
X168341962Y-89932380D01*
X168347223Y-89935533D01*
X168352150Y-89939187D01*
X168356694Y-89943306D01*
X168360813Y-89947850D01*
X168364467Y-89952777D01*
X168367620Y-89958038D01*
X168370242Y-89963582D01*
X168372309Y-89969357D01*
X168373799Y-89975307D01*
X168374699Y-89981374D01*
X168375000Y-89987500D01*
X168375000Y-90112500D01*
X168374699Y-90118626D01*
X168373799Y-90124693D01*
X168372309Y-90130643D01*
X168370242Y-90136418D01*
X168367620Y-90141962D01*
X168364467Y-90147223D01*
X168360813Y-90152150D01*
X168356694Y-90156694D01*
X168352150Y-90160813D01*
X168347223Y-90164467D01*
X168341962Y-90167620D01*
X168336418Y-90170242D01*
X168330643Y-90172309D01*
X168324693Y-90173799D01*
X168318626Y-90174699D01*
X168312500Y-90175000D01*
X167562500Y-90175000D01*
X167556374Y-90174699D01*
X167550307Y-90173799D01*
X167544357Y-90172309D01*
X167538582Y-90170242D01*
X167533038Y-90167620D01*
X167527777Y-90164467D01*
X167522850Y-90160813D01*
X167518306Y-90156694D01*
X167514187Y-90152150D01*
X167510533Y-90147223D01*
X167507380Y-90141962D01*
X167504758Y-90136418D01*
X167502691Y-90130643D01*
X167501201Y-90124693D01*
X167500301Y-90118626D01*
X167500000Y-90112500D01*
X167500000Y-89987500D01*
X167500301Y-89981374D01*
X167501201Y-89975307D01*
X167502691Y-89969357D01*
X167504758Y-89963582D01*
X167507380Y-89958038D01*
X167510533Y-89952777D01*
X167514187Y-89947850D01*
X167518306Y-89943306D01*
X167522850Y-89939187D01*
X167527777Y-89935533D01*
X167533038Y-89932380D01*
X167538582Y-89929758D01*
X167544357Y-89927691D01*
X167550307Y-89926201D01*
X167556374Y-89925301D01*
X167562500Y-89925000D01*
X168312500Y-89925000D01*
X168318626Y-89925301D01*
X168318626Y-89925301D01*
G37*
D11*
X167937500Y-90050000D03*
D10*
G36*
X168318626Y-90425301D02*
G01*
X168324693Y-90426201D01*
X168330643Y-90427691D01*
X168336418Y-90429758D01*
X168341962Y-90432380D01*
X168347223Y-90435533D01*
X168352150Y-90439187D01*
X168356694Y-90443306D01*
X168360813Y-90447850D01*
X168364467Y-90452777D01*
X168367620Y-90458038D01*
X168370242Y-90463582D01*
X168372309Y-90469357D01*
X168373799Y-90475307D01*
X168374699Y-90481374D01*
X168375000Y-90487500D01*
X168375000Y-90612500D01*
X168374699Y-90618626D01*
X168373799Y-90624693D01*
X168372309Y-90630643D01*
X168370242Y-90636418D01*
X168367620Y-90641962D01*
X168364467Y-90647223D01*
X168360813Y-90652150D01*
X168356694Y-90656694D01*
X168352150Y-90660813D01*
X168347223Y-90664467D01*
X168341962Y-90667620D01*
X168336418Y-90670242D01*
X168330643Y-90672309D01*
X168324693Y-90673799D01*
X168318626Y-90674699D01*
X168312500Y-90675000D01*
X167562500Y-90675000D01*
X167556374Y-90674699D01*
X167550307Y-90673799D01*
X167544357Y-90672309D01*
X167538582Y-90670242D01*
X167533038Y-90667620D01*
X167527777Y-90664467D01*
X167522850Y-90660813D01*
X167518306Y-90656694D01*
X167514187Y-90652150D01*
X167510533Y-90647223D01*
X167507380Y-90641962D01*
X167504758Y-90636418D01*
X167502691Y-90630643D01*
X167501201Y-90624693D01*
X167500301Y-90618626D01*
X167500000Y-90612500D01*
X167500000Y-90487500D01*
X167500301Y-90481374D01*
X167501201Y-90475307D01*
X167502691Y-90469357D01*
X167504758Y-90463582D01*
X167507380Y-90458038D01*
X167510533Y-90452777D01*
X167514187Y-90447850D01*
X167518306Y-90443306D01*
X167522850Y-90439187D01*
X167527777Y-90435533D01*
X167533038Y-90432380D01*
X167538582Y-90429758D01*
X167544357Y-90427691D01*
X167550307Y-90426201D01*
X167556374Y-90425301D01*
X167562500Y-90425000D01*
X168312500Y-90425000D01*
X168318626Y-90425301D01*
X168318626Y-90425301D01*
G37*
D11*
X167937500Y-90550000D03*
D10*
G36*
X168318626Y-90925301D02*
G01*
X168324693Y-90926201D01*
X168330643Y-90927691D01*
X168336418Y-90929758D01*
X168341962Y-90932380D01*
X168347223Y-90935533D01*
X168352150Y-90939187D01*
X168356694Y-90943306D01*
X168360813Y-90947850D01*
X168364467Y-90952777D01*
X168367620Y-90958038D01*
X168370242Y-90963582D01*
X168372309Y-90969357D01*
X168373799Y-90975307D01*
X168374699Y-90981374D01*
X168375000Y-90987500D01*
X168375000Y-91112500D01*
X168374699Y-91118626D01*
X168373799Y-91124693D01*
X168372309Y-91130643D01*
X168370242Y-91136418D01*
X168367620Y-91141962D01*
X168364467Y-91147223D01*
X168360813Y-91152150D01*
X168356694Y-91156694D01*
X168352150Y-91160813D01*
X168347223Y-91164467D01*
X168341962Y-91167620D01*
X168336418Y-91170242D01*
X168330643Y-91172309D01*
X168324693Y-91173799D01*
X168318626Y-91174699D01*
X168312500Y-91175000D01*
X167562500Y-91175000D01*
X167556374Y-91174699D01*
X167550307Y-91173799D01*
X167544357Y-91172309D01*
X167538582Y-91170242D01*
X167533038Y-91167620D01*
X167527777Y-91164467D01*
X167522850Y-91160813D01*
X167518306Y-91156694D01*
X167514187Y-91152150D01*
X167510533Y-91147223D01*
X167507380Y-91141962D01*
X167504758Y-91136418D01*
X167502691Y-91130643D01*
X167501201Y-91124693D01*
X167500301Y-91118626D01*
X167500000Y-91112500D01*
X167500000Y-90987500D01*
X167500301Y-90981374D01*
X167501201Y-90975307D01*
X167502691Y-90969357D01*
X167504758Y-90963582D01*
X167507380Y-90958038D01*
X167510533Y-90952777D01*
X167514187Y-90947850D01*
X167518306Y-90943306D01*
X167522850Y-90939187D01*
X167527777Y-90935533D01*
X167533038Y-90932380D01*
X167538582Y-90929758D01*
X167544357Y-90927691D01*
X167550307Y-90926201D01*
X167556374Y-90925301D01*
X167562500Y-90925000D01*
X168312500Y-90925000D01*
X168318626Y-90925301D01*
X168318626Y-90925301D01*
G37*
D11*
X167937500Y-91050000D03*
D10*
G36*
X167318626Y-91300301D02*
G01*
X167324693Y-91301201D01*
X167330643Y-91302691D01*
X167336418Y-91304758D01*
X167341962Y-91307380D01*
X167347223Y-91310533D01*
X167352150Y-91314187D01*
X167356694Y-91318306D01*
X167360813Y-91322850D01*
X167364467Y-91327777D01*
X167367620Y-91333038D01*
X167370242Y-91338582D01*
X167372309Y-91344357D01*
X167373799Y-91350307D01*
X167374699Y-91356374D01*
X167375000Y-91362500D01*
X167375000Y-92112500D01*
X167374699Y-92118626D01*
X167373799Y-92124693D01*
X167372309Y-92130643D01*
X167370242Y-92136418D01*
X167367620Y-92141962D01*
X167364467Y-92147223D01*
X167360813Y-92152150D01*
X167356694Y-92156694D01*
X167352150Y-92160813D01*
X167347223Y-92164467D01*
X167341962Y-92167620D01*
X167336418Y-92170242D01*
X167330643Y-92172309D01*
X167324693Y-92173799D01*
X167318626Y-92174699D01*
X167312500Y-92175000D01*
X167187500Y-92175000D01*
X167181374Y-92174699D01*
X167175307Y-92173799D01*
X167169357Y-92172309D01*
X167163582Y-92170242D01*
X167158038Y-92167620D01*
X167152777Y-92164467D01*
X167147850Y-92160813D01*
X167143306Y-92156694D01*
X167139187Y-92152150D01*
X167135533Y-92147223D01*
X167132380Y-92141962D01*
X167129758Y-92136418D01*
X167127691Y-92130643D01*
X167126201Y-92124693D01*
X167125301Y-92118626D01*
X167125000Y-92112500D01*
X167125000Y-91362500D01*
X167125301Y-91356374D01*
X167126201Y-91350307D01*
X167127691Y-91344357D01*
X167129758Y-91338582D01*
X167132380Y-91333038D01*
X167135533Y-91327777D01*
X167139187Y-91322850D01*
X167143306Y-91318306D01*
X167147850Y-91314187D01*
X167152777Y-91310533D01*
X167158038Y-91307380D01*
X167163582Y-91304758D01*
X167169357Y-91302691D01*
X167175307Y-91301201D01*
X167181374Y-91300301D01*
X167187500Y-91300000D01*
X167312500Y-91300000D01*
X167318626Y-91300301D01*
X167318626Y-91300301D01*
G37*
D11*
X167250000Y-91737500D03*
D10*
G36*
X166818626Y-91300301D02*
G01*
X166824693Y-91301201D01*
X166830643Y-91302691D01*
X166836418Y-91304758D01*
X166841962Y-91307380D01*
X166847223Y-91310533D01*
X166852150Y-91314187D01*
X166856694Y-91318306D01*
X166860813Y-91322850D01*
X166864467Y-91327777D01*
X166867620Y-91333038D01*
X166870242Y-91338582D01*
X166872309Y-91344357D01*
X166873799Y-91350307D01*
X166874699Y-91356374D01*
X166875000Y-91362500D01*
X166875000Y-92112500D01*
X166874699Y-92118626D01*
X166873799Y-92124693D01*
X166872309Y-92130643D01*
X166870242Y-92136418D01*
X166867620Y-92141962D01*
X166864467Y-92147223D01*
X166860813Y-92152150D01*
X166856694Y-92156694D01*
X166852150Y-92160813D01*
X166847223Y-92164467D01*
X166841962Y-92167620D01*
X166836418Y-92170242D01*
X166830643Y-92172309D01*
X166824693Y-92173799D01*
X166818626Y-92174699D01*
X166812500Y-92175000D01*
X166687500Y-92175000D01*
X166681374Y-92174699D01*
X166675307Y-92173799D01*
X166669357Y-92172309D01*
X166663582Y-92170242D01*
X166658038Y-92167620D01*
X166652777Y-92164467D01*
X166647850Y-92160813D01*
X166643306Y-92156694D01*
X166639187Y-92152150D01*
X166635533Y-92147223D01*
X166632380Y-92141962D01*
X166629758Y-92136418D01*
X166627691Y-92130643D01*
X166626201Y-92124693D01*
X166625301Y-92118626D01*
X166625000Y-92112500D01*
X166625000Y-91362500D01*
X166625301Y-91356374D01*
X166626201Y-91350307D01*
X166627691Y-91344357D01*
X166629758Y-91338582D01*
X166632380Y-91333038D01*
X166635533Y-91327777D01*
X166639187Y-91322850D01*
X166643306Y-91318306D01*
X166647850Y-91314187D01*
X166652777Y-91310533D01*
X166658038Y-91307380D01*
X166663582Y-91304758D01*
X166669357Y-91302691D01*
X166675307Y-91301201D01*
X166681374Y-91300301D01*
X166687500Y-91300000D01*
X166812500Y-91300000D01*
X166818626Y-91300301D01*
X166818626Y-91300301D01*
G37*
D11*
X166750000Y-91737500D03*
D10*
G36*
X166318626Y-91300301D02*
G01*
X166324693Y-91301201D01*
X166330643Y-91302691D01*
X166336418Y-91304758D01*
X166341962Y-91307380D01*
X166347223Y-91310533D01*
X166352150Y-91314187D01*
X166356694Y-91318306D01*
X166360813Y-91322850D01*
X166364467Y-91327777D01*
X166367620Y-91333038D01*
X166370242Y-91338582D01*
X166372309Y-91344357D01*
X166373799Y-91350307D01*
X166374699Y-91356374D01*
X166375000Y-91362500D01*
X166375000Y-92112500D01*
X166374699Y-92118626D01*
X166373799Y-92124693D01*
X166372309Y-92130643D01*
X166370242Y-92136418D01*
X166367620Y-92141962D01*
X166364467Y-92147223D01*
X166360813Y-92152150D01*
X166356694Y-92156694D01*
X166352150Y-92160813D01*
X166347223Y-92164467D01*
X166341962Y-92167620D01*
X166336418Y-92170242D01*
X166330643Y-92172309D01*
X166324693Y-92173799D01*
X166318626Y-92174699D01*
X166312500Y-92175000D01*
X166187500Y-92175000D01*
X166181374Y-92174699D01*
X166175307Y-92173799D01*
X166169357Y-92172309D01*
X166163582Y-92170242D01*
X166158038Y-92167620D01*
X166152777Y-92164467D01*
X166147850Y-92160813D01*
X166143306Y-92156694D01*
X166139187Y-92152150D01*
X166135533Y-92147223D01*
X166132380Y-92141962D01*
X166129758Y-92136418D01*
X166127691Y-92130643D01*
X166126201Y-92124693D01*
X166125301Y-92118626D01*
X166125000Y-92112500D01*
X166125000Y-91362500D01*
X166125301Y-91356374D01*
X166126201Y-91350307D01*
X166127691Y-91344357D01*
X166129758Y-91338582D01*
X166132380Y-91333038D01*
X166135533Y-91327777D01*
X166139187Y-91322850D01*
X166143306Y-91318306D01*
X166147850Y-91314187D01*
X166152777Y-91310533D01*
X166158038Y-91307380D01*
X166163582Y-91304758D01*
X166169357Y-91302691D01*
X166175307Y-91301201D01*
X166181374Y-91300301D01*
X166187500Y-91300000D01*
X166312500Y-91300000D01*
X166318626Y-91300301D01*
X166318626Y-91300301D01*
G37*
D11*
X166250000Y-91737500D03*
D10*
G36*
X165818626Y-91300301D02*
G01*
X165824693Y-91301201D01*
X165830643Y-91302691D01*
X165836418Y-91304758D01*
X165841962Y-91307380D01*
X165847223Y-91310533D01*
X165852150Y-91314187D01*
X165856694Y-91318306D01*
X165860813Y-91322850D01*
X165864467Y-91327777D01*
X165867620Y-91333038D01*
X165870242Y-91338582D01*
X165872309Y-91344357D01*
X165873799Y-91350307D01*
X165874699Y-91356374D01*
X165875000Y-91362500D01*
X165875000Y-92112500D01*
X165874699Y-92118626D01*
X165873799Y-92124693D01*
X165872309Y-92130643D01*
X165870242Y-92136418D01*
X165867620Y-92141962D01*
X165864467Y-92147223D01*
X165860813Y-92152150D01*
X165856694Y-92156694D01*
X165852150Y-92160813D01*
X165847223Y-92164467D01*
X165841962Y-92167620D01*
X165836418Y-92170242D01*
X165830643Y-92172309D01*
X165824693Y-92173799D01*
X165818626Y-92174699D01*
X165812500Y-92175000D01*
X165687500Y-92175000D01*
X165681374Y-92174699D01*
X165675307Y-92173799D01*
X165669357Y-92172309D01*
X165663582Y-92170242D01*
X165658038Y-92167620D01*
X165652777Y-92164467D01*
X165647850Y-92160813D01*
X165643306Y-92156694D01*
X165639187Y-92152150D01*
X165635533Y-92147223D01*
X165632380Y-92141962D01*
X165629758Y-92136418D01*
X165627691Y-92130643D01*
X165626201Y-92124693D01*
X165625301Y-92118626D01*
X165625000Y-92112500D01*
X165625000Y-91362500D01*
X165625301Y-91356374D01*
X165626201Y-91350307D01*
X165627691Y-91344357D01*
X165629758Y-91338582D01*
X165632380Y-91333038D01*
X165635533Y-91327777D01*
X165639187Y-91322850D01*
X165643306Y-91318306D01*
X165647850Y-91314187D01*
X165652777Y-91310533D01*
X165658038Y-91307380D01*
X165663582Y-91304758D01*
X165669357Y-91302691D01*
X165675307Y-91301201D01*
X165681374Y-91300301D01*
X165687500Y-91300000D01*
X165812500Y-91300000D01*
X165818626Y-91300301D01*
X165818626Y-91300301D01*
G37*
D11*
X165750000Y-91737500D03*
D10*
G36*
X165318626Y-91300301D02*
G01*
X165324693Y-91301201D01*
X165330643Y-91302691D01*
X165336418Y-91304758D01*
X165341962Y-91307380D01*
X165347223Y-91310533D01*
X165352150Y-91314187D01*
X165356694Y-91318306D01*
X165360813Y-91322850D01*
X165364467Y-91327777D01*
X165367620Y-91333038D01*
X165370242Y-91338582D01*
X165372309Y-91344357D01*
X165373799Y-91350307D01*
X165374699Y-91356374D01*
X165375000Y-91362500D01*
X165375000Y-92112500D01*
X165374699Y-92118626D01*
X165373799Y-92124693D01*
X165372309Y-92130643D01*
X165370242Y-92136418D01*
X165367620Y-92141962D01*
X165364467Y-92147223D01*
X165360813Y-92152150D01*
X165356694Y-92156694D01*
X165352150Y-92160813D01*
X165347223Y-92164467D01*
X165341962Y-92167620D01*
X165336418Y-92170242D01*
X165330643Y-92172309D01*
X165324693Y-92173799D01*
X165318626Y-92174699D01*
X165312500Y-92175000D01*
X165187500Y-92175000D01*
X165181374Y-92174699D01*
X165175307Y-92173799D01*
X165169357Y-92172309D01*
X165163582Y-92170242D01*
X165158038Y-92167620D01*
X165152777Y-92164467D01*
X165147850Y-92160813D01*
X165143306Y-92156694D01*
X165139187Y-92152150D01*
X165135533Y-92147223D01*
X165132380Y-92141962D01*
X165129758Y-92136418D01*
X165127691Y-92130643D01*
X165126201Y-92124693D01*
X165125301Y-92118626D01*
X165125000Y-92112500D01*
X165125000Y-91362500D01*
X165125301Y-91356374D01*
X165126201Y-91350307D01*
X165127691Y-91344357D01*
X165129758Y-91338582D01*
X165132380Y-91333038D01*
X165135533Y-91327777D01*
X165139187Y-91322850D01*
X165143306Y-91318306D01*
X165147850Y-91314187D01*
X165152777Y-91310533D01*
X165158038Y-91307380D01*
X165163582Y-91304758D01*
X165169357Y-91302691D01*
X165175307Y-91301201D01*
X165181374Y-91300301D01*
X165187500Y-91300000D01*
X165312500Y-91300000D01*
X165318626Y-91300301D01*
X165318626Y-91300301D01*
G37*
D11*
X165250000Y-91737500D03*
D10*
G36*
X164818626Y-91300301D02*
G01*
X164824693Y-91301201D01*
X164830643Y-91302691D01*
X164836418Y-91304758D01*
X164841962Y-91307380D01*
X164847223Y-91310533D01*
X164852150Y-91314187D01*
X164856694Y-91318306D01*
X164860813Y-91322850D01*
X164864467Y-91327777D01*
X164867620Y-91333038D01*
X164870242Y-91338582D01*
X164872309Y-91344357D01*
X164873799Y-91350307D01*
X164874699Y-91356374D01*
X164875000Y-91362500D01*
X164875000Y-92112500D01*
X164874699Y-92118626D01*
X164873799Y-92124693D01*
X164872309Y-92130643D01*
X164870242Y-92136418D01*
X164867620Y-92141962D01*
X164864467Y-92147223D01*
X164860813Y-92152150D01*
X164856694Y-92156694D01*
X164852150Y-92160813D01*
X164847223Y-92164467D01*
X164841962Y-92167620D01*
X164836418Y-92170242D01*
X164830643Y-92172309D01*
X164824693Y-92173799D01*
X164818626Y-92174699D01*
X164812500Y-92175000D01*
X164687500Y-92175000D01*
X164681374Y-92174699D01*
X164675307Y-92173799D01*
X164669357Y-92172309D01*
X164663582Y-92170242D01*
X164658038Y-92167620D01*
X164652777Y-92164467D01*
X164647850Y-92160813D01*
X164643306Y-92156694D01*
X164639187Y-92152150D01*
X164635533Y-92147223D01*
X164632380Y-92141962D01*
X164629758Y-92136418D01*
X164627691Y-92130643D01*
X164626201Y-92124693D01*
X164625301Y-92118626D01*
X164625000Y-92112500D01*
X164625000Y-91362500D01*
X164625301Y-91356374D01*
X164626201Y-91350307D01*
X164627691Y-91344357D01*
X164629758Y-91338582D01*
X164632380Y-91333038D01*
X164635533Y-91327777D01*
X164639187Y-91322850D01*
X164643306Y-91318306D01*
X164647850Y-91314187D01*
X164652777Y-91310533D01*
X164658038Y-91307380D01*
X164663582Y-91304758D01*
X164669357Y-91302691D01*
X164675307Y-91301201D01*
X164681374Y-91300301D01*
X164687500Y-91300000D01*
X164812500Y-91300000D01*
X164818626Y-91300301D01*
X164818626Y-91300301D01*
G37*
D11*
X164750000Y-91737500D03*
D10*
G36*
X164318626Y-91300301D02*
G01*
X164324693Y-91301201D01*
X164330643Y-91302691D01*
X164336418Y-91304758D01*
X164341962Y-91307380D01*
X164347223Y-91310533D01*
X164352150Y-91314187D01*
X164356694Y-91318306D01*
X164360813Y-91322850D01*
X164364467Y-91327777D01*
X164367620Y-91333038D01*
X164370242Y-91338582D01*
X164372309Y-91344357D01*
X164373799Y-91350307D01*
X164374699Y-91356374D01*
X164375000Y-91362500D01*
X164375000Y-92112500D01*
X164374699Y-92118626D01*
X164373799Y-92124693D01*
X164372309Y-92130643D01*
X164370242Y-92136418D01*
X164367620Y-92141962D01*
X164364467Y-92147223D01*
X164360813Y-92152150D01*
X164356694Y-92156694D01*
X164352150Y-92160813D01*
X164347223Y-92164467D01*
X164341962Y-92167620D01*
X164336418Y-92170242D01*
X164330643Y-92172309D01*
X164324693Y-92173799D01*
X164318626Y-92174699D01*
X164312500Y-92175000D01*
X164187500Y-92175000D01*
X164181374Y-92174699D01*
X164175307Y-92173799D01*
X164169357Y-92172309D01*
X164163582Y-92170242D01*
X164158038Y-92167620D01*
X164152777Y-92164467D01*
X164147850Y-92160813D01*
X164143306Y-92156694D01*
X164139187Y-92152150D01*
X164135533Y-92147223D01*
X164132380Y-92141962D01*
X164129758Y-92136418D01*
X164127691Y-92130643D01*
X164126201Y-92124693D01*
X164125301Y-92118626D01*
X164125000Y-92112500D01*
X164125000Y-91362500D01*
X164125301Y-91356374D01*
X164126201Y-91350307D01*
X164127691Y-91344357D01*
X164129758Y-91338582D01*
X164132380Y-91333038D01*
X164135533Y-91327777D01*
X164139187Y-91322850D01*
X164143306Y-91318306D01*
X164147850Y-91314187D01*
X164152777Y-91310533D01*
X164158038Y-91307380D01*
X164163582Y-91304758D01*
X164169357Y-91302691D01*
X164175307Y-91301201D01*
X164181374Y-91300301D01*
X164187500Y-91300000D01*
X164312500Y-91300000D01*
X164318626Y-91300301D01*
X164318626Y-91300301D01*
G37*
D11*
X164250000Y-91737500D03*
D10*
G36*
X163818626Y-91300301D02*
G01*
X163824693Y-91301201D01*
X163830643Y-91302691D01*
X163836418Y-91304758D01*
X163841962Y-91307380D01*
X163847223Y-91310533D01*
X163852150Y-91314187D01*
X163856694Y-91318306D01*
X163860813Y-91322850D01*
X163864467Y-91327777D01*
X163867620Y-91333038D01*
X163870242Y-91338582D01*
X163872309Y-91344357D01*
X163873799Y-91350307D01*
X163874699Y-91356374D01*
X163875000Y-91362500D01*
X163875000Y-92112500D01*
X163874699Y-92118626D01*
X163873799Y-92124693D01*
X163872309Y-92130643D01*
X163870242Y-92136418D01*
X163867620Y-92141962D01*
X163864467Y-92147223D01*
X163860813Y-92152150D01*
X163856694Y-92156694D01*
X163852150Y-92160813D01*
X163847223Y-92164467D01*
X163841962Y-92167620D01*
X163836418Y-92170242D01*
X163830643Y-92172309D01*
X163824693Y-92173799D01*
X163818626Y-92174699D01*
X163812500Y-92175000D01*
X163687500Y-92175000D01*
X163681374Y-92174699D01*
X163675307Y-92173799D01*
X163669357Y-92172309D01*
X163663582Y-92170242D01*
X163658038Y-92167620D01*
X163652777Y-92164467D01*
X163647850Y-92160813D01*
X163643306Y-92156694D01*
X163639187Y-92152150D01*
X163635533Y-92147223D01*
X163632380Y-92141962D01*
X163629758Y-92136418D01*
X163627691Y-92130643D01*
X163626201Y-92124693D01*
X163625301Y-92118626D01*
X163625000Y-92112500D01*
X163625000Y-91362500D01*
X163625301Y-91356374D01*
X163626201Y-91350307D01*
X163627691Y-91344357D01*
X163629758Y-91338582D01*
X163632380Y-91333038D01*
X163635533Y-91327777D01*
X163639187Y-91322850D01*
X163643306Y-91318306D01*
X163647850Y-91314187D01*
X163652777Y-91310533D01*
X163658038Y-91307380D01*
X163663582Y-91304758D01*
X163669357Y-91302691D01*
X163675307Y-91301201D01*
X163681374Y-91300301D01*
X163687500Y-91300000D01*
X163812500Y-91300000D01*
X163818626Y-91300301D01*
X163818626Y-91300301D01*
G37*
D11*
X163750000Y-91737500D03*
D10*
G36*
X166999504Y-87576204D02*
G01*
X167023773Y-87579804D01*
X167047571Y-87585765D01*
X167070671Y-87594030D01*
X167092849Y-87604520D01*
X167113893Y-87617133D01*
X167133598Y-87631747D01*
X167151777Y-87648223D01*
X167168253Y-87666402D01*
X167182867Y-87686107D01*
X167195480Y-87707151D01*
X167205970Y-87729329D01*
X167214235Y-87752429D01*
X167220196Y-87776227D01*
X167223796Y-87800496D01*
X167225000Y-87825000D01*
X167225000Y-90775000D01*
X167223796Y-90799504D01*
X167220196Y-90823773D01*
X167214235Y-90847571D01*
X167205970Y-90870671D01*
X167195480Y-90892849D01*
X167182867Y-90913893D01*
X167168253Y-90933598D01*
X167151777Y-90951777D01*
X167133598Y-90968253D01*
X167113893Y-90982867D01*
X167092849Y-90995480D01*
X167070671Y-91005970D01*
X167047571Y-91014235D01*
X167023773Y-91020196D01*
X166999504Y-91023796D01*
X166975000Y-91025000D01*
X164025000Y-91025000D01*
X164000496Y-91023796D01*
X163976227Y-91020196D01*
X163952429Y-91014235D01*
X163929329Y-91005970D01*
X163907151Y-90995480D01*
X163886107Y-90982867D01*
X163866402Y-90968253D01*
X163848223Y-90951777D01*
X163831747Y-90933598D01*
X163817133Y-90913893D01*
X163804520Y-90892849D01*
X163794030Y-90870671D01*
X163785765Y-90847571D01*
X163779804Y-90823773D01*
X163776204Y-90799504D01*
X163775000Y-90775000D01*
X163775000Y-87825000D01*
X163776204Y-87800496D01*
X163779804Y-87776227D01*
X163785765Y-87752429D01*
X163794030Y-87729329D01*
X163804520Y-87707151D01*
X163817133Y-87686107D01*
X163831747Y-87666402D01*
X163848223Y-87648223D01*
X163866402Y-87631747D01*
X163886107Y-87617133D01*
X163907151Y-87604520D01*
X163929329Y-87594030D01*
X163952429Y-87585765D01*
X163976227Y-87579804D01*
X164000496Y-87576204D01*
X164025000Y-87575000D01*
X166975000Y-87575000D01*
X166999504Y-87576204D01*
X166999504Y-87576204D01*
G37*
D12*
X165500000Y-89300000D03*
D13*
X160120000Y-80500000D03*
X157580000Y-80500000D03*
X155040000Y-80500000D03*
D14*
X152500000Y-80500000D03*
D15*
X157800000Y-88950000D03*
X155900000Y-88950000D03*
X155900000Y-86750000D03*
X156850000Y-86750000D03*
X157800000Y-86750000D03*
D16*
X173500000Y-91500000D03*
X173500000Y-89500000D03*
X173500000Y-87500000D03*
X173500000Y-85500000D03*
X152000000Y-85500000D03*
X152000000Y-87500000D03*
X152000000Y-89500000D03*
X152000000Y-91500000D03*
D10*
G36*
X158227691Y-92021053D02*
G01*
X158248926Y-92024203D01*
X158269750Y-92029419D01*
X158289962Y-92036651D01*
X158309368Y-92045830D01*
X158327781Y-92056866D01*
X158345024Y-92069654D01*
X158360930Y-92084070D01*
X158375346Y-92099976D01*
X158388134Y-92117219D01*
X158399170Y-92135632D01*
X158408349Y-92155038D01*
X158415581Y-92175250D01*
X158420797Y-92196074D01*
X158423947Y-92217309D01*
X158425000Y-92238750D01*
X158425000Y-92676250D01*
X158423947Y-92697691D01*
X158420797Y-92718926D01*
X158415581Y-92739750D01*
X158408349Y-92759962D01*
X158399170Y-92779368D01*
X158388134Y-92797781D01*
X158375346Y-92815024D01*
X158360930Y-92830930D01*
X158345024Y-92845346D01*
X158327781Y-92858134D01*
X158309368Y-92869170D01*
X158289962Y-92878349D01*
X158269750Y-92885581D01*
X158248926Y-92890797D01*
X158227691Y-92893947D01*
X158206250Y-92895000D01*
X157693750Y-92895000D01*
X157672309Y-92893947D01*
X157651074Y-92890797D01*
X157630250Y-92885581D01*
X157610038Y-92878349D01*
X157590632Y-92869170D01*
X157572219Y-92858134D01*
X157554976Y-92845346D01*
X157539070Y-92830930D01*
X157524654Y-92815024D01*
X157511866Y-92797781D01*
X157500830Y-92779368D01*
X157491651Y-92759962D01*
X157484419Y-92739750D01*
X157479203Y-92718926D01*
X157476053Y-92697691D01*
X157475000Y-92676250D01*
X157475000Y-92238750D01*
X157476053Y-92217309D01*
X157479203Y-92196074D01*
X157484419Y-92175250D01*
X157491651Y-92155038D01*
X157500830Y-92135632D01*
X157511866Y-92117219D01*
X157524654Y-92099976D01*
X157539070Y-92084070D01*
X157554976Y-92069654D01*
X157572219Y-92056866D01*
X157590632Y-92045830D01*
X157610038Y-92036651D01*
X157630250Y-92029419D01*
X157651074Y-92024203D01*
X157672309Y-92021053D01*
X157693750Y-92020000D01*
X158206250Y-92020000D01*
X158227691Y-92021053D01*
X158227691Y-92021053D01*
G37*
D17*
X157950000Y-92457500D03*
D10*
G36*
X158227691Y-90446053D02*
G01*
X158248926Y-90449203D01*
X158269750Y-90454419D01*
X158289962Y-90461651D01*
X158309368Y-90470830D01*
X158327781Y-90481866D01*
X158345024Y-90494654D01*
X158360930Y-90509070D01*
X158375346Y-90524976D01*
X158388134Y-90542219D01*
X158399170Y-90560632D01*
X158408349Y-90580038D01*
X158415581Y-90600250D01*
X158420797Y-90621074D01*
X158423947Y-90642309D01*
X158425000Y-90663750D01*
X158425000Y-91101250D01*
X158423947Y-91122691D01*
X158420797Y-91143926D01*
X158415581Y-91164750D01*
X158408349Y-91184962D01*
X158399170Y-91204368D01*
X158388134Y-91222781D01*
X158375346Y-91240024D01*
X158360930Y-91255930D01*
X158345024Y-91270346D01*
X158327781Y-91283134D01*
X158309368Y-91294170D01*
X158289962Y-91303349D01*
X158269750Y-91310581D01*
X158248926Y-91315797D01*
X158227691Y-91318947D01*
X158206250Y-91320000D01*
X157693750Y-91320000D01*
X157672309Y-91318947D01*
X157651074Y-91315797D01*
X157630250Y-91310581D01*
X157610038Y-91303349D01*
X157590632Y-91294170D01*
X157572219Y-91283134D01*
X157554976Y-91270346D01*
X157539070Y-91255930D01*
X157524654Y-91240024D01*
X157511866Y-91222781D01*
X157500830Y-91204368D01*
X157491651Y-91184962D01*
X157484419Y-91164750D01*
X157479203Y-91143926D01*
X157476053Y-91122691D01*
X157475000Y-91101250D01*
X157475000Y-90663750D01*
X157476053Y-90642309D01*
X157479203Y-90621074D01*
X157484419Y-90600250D01*
X157491651Y-90580038D01*
X157500830Y-90560632D01*
X157511866Y-90542219D01*
X157524654Y-90524976D01*
X157539070Y-90509070D01*
X157554976Y-90494654D01*
X157572219Y-90481866D01*
X157590632Y-90470830D01*
X157610038Y-90461651D01*
X157630250Y-90454419D01*
X157651074Y-90449203D01*
X157672309Y-90446053D01*
X157693750Y-90445000D01*
X158206250Y-90445000D01*
X158227691Y-90446053D01*
X158227691Y-90446053D01*
G37*
D17*
X157950000Y-90882500D03*
D10*
G36*
X156027691Y-92001053D02*
G01*
X156048926Y-92004203D01*
X156069750Y-92009419D01*
X156089962Y-92016651D01*
X156109368Y-92025830D01*
X156127781Y-92036866D01*
X156145024Y-92049654D01*
X156160930Y-92064070D01*
X156175346Y-92079976D01*
X156188134Y-92097219D01*
X156199170Y-92115632D01*
X156208349Y-92135038D01*
X156215581Y-92155250D01*
X156220797Y-92176074D01*
X156223947Y-92197309D01*
X156225000Y-92218750D01*
X156225000Y-92656250D01*
X156223947Y-92677691D01*
X156220797Y-92698926D01*
X156215581Y-92719750D01*
X156208349Y-92739962D01*
X156199170Y-92759368D01*
X156188134Y-92777781D01*
X156175346Y-92795024D01*
X156160930Y-92810930D01*
X156145024Y-92825346D01*
X156127781Y-92838134D01*
X156109368Y-92849170D01*
X156089962Y-92858349D01*
X156069750Y-92865581D01*
X156048926Y-92870797D01*
X156027691Y-92873947D01*
X156006250Y-92875000D01*
X155493750Y-92875000D01*
X155472309Y-92873947D01*
X155451074Y-92870797D01*
X155430250Y-92865581D01*
X155410038Y-92858349D01*
X155390632Y-92849170D01*
X155372219Y-92838134D01*
X155354976Y-92825346D01*
X155339070Y-92810930D01*
X155324654Y-92795024D01*
X155311866Y-92777781D01*
X155300830Y-92759368D01*
X155291651Y-92739962D01*
X155284419Y-92719750D01*
X155279203Y-92698926D01*
X155276053Y-92677691D01*
X155275000Y-92656250D01*
X155275000Y-92218750D01*
X155276053Y-92197309D01*
X155279203Y-92176074D01*
X155284419Y-92155250D01*
X155291651Y-92135038D01*
X155300830Y-92115632D01*
X155311866Y-92097219D01*
X155324654Y-92079976D01*
X155339070Y-92064070D01*
X155354976Y-92049654D01*
X155372219Y-92036866D01*
X155390632Y-92025830D01*
X155410038Y-92016651D01*
X155430250Y-92009419D01*
X155451074Y-92004203D01*
X155472309Y-92001053D01*
X155493750Y-92000000D01*
X156006250Y-92000000D01*
X156027691Y-92001053D01*
X156027691Y-92001053D01*
G37*
D17*
X155750000Y-92437500D03*
D10*
G36*
X156027691Y-90426053D02*
G01*
X156048926Y-90429203D01*
X156069750Y-90434419D01*
X156089962Y-90441651D01*
X156109368Y-90450830D01*
X156127781Y-90461866D01*
X156145024Y-90474654D01*
X156160930Y-90489070D01*
X156175346Y-90504976D01*
X156188134Y-90522219D01*
X156199170Y-90540632D01*
X156208349Y-90560038D01*
X156215581Y-90580250D01*
X156220797Y-90601074D01*
X156223947Y-90622309D01*
X156225000Y-90643750D01*
X156225000Y-91081250D01*
X156223947Y-91102691D01*
X156220797Y-91123926D01*
X156215581Y-91144750D01*
X156208349Y-91164962D01*
X156199170Y-91184368D01*
X156188134Y-91202781D01*
X156175346Y-91220024D01*
X156160930Y-91235930D01*
X156145024Y-91250346D01*
X156127781Y-91263134D01*
X156109368Y-91274170D01*
X156089962Y-91283349D01*
X156069750Y-91290581D01*
X156048926Y-91295797D01*
X156027691Y-91298947D01*
X156006250Y-91300000D01*
X155493750Y-91300000D01*
X155472309Y-91298947D01*
X155451074Y-91295797D01*
X155430250Y-91290581D01*
X155410038Y-91283349D01*
X155390632Y-91274170D01*
X155372219Y-91263134D01*
X155354976Y-91250346D01*
X155339070Y-91235930D01*
X155324654Y-91220024D01*
X155311866Y-91202781D01*
X155300830Y-91184368D01*
X155291651Y-91164962D01*
X155284419Y-91144750D01*
X155279203Y-91123926D01*
X155276053Y-91102691D01*
X155275000Y-91081250D01*
X155275000Y-90643750D01*
X155276053Y-90622309D01*
X155279203Y-90601074D01*
X155284419Y-90580250D01*
X155291651Y-90560038D01*
X155300830Y-90540632D01*
X155311866Y-90522219D01*
X155324654Y-90504976D01*
X155339070Y-90489070D01*
X155354976Y-90474654D01*
X155372219Y-90461866D01*
X155390632Y-90450830D01*
X155410038Y-90441651D01*
X155430250Y-90434419D01*
X155451074Y-90429203D01*
X155472309Y-90426053D01*
X155493750Y-90425000D01*
X156006250Y-90425000D01*
X156027691Y-90426053D01*
X156027691Y-90426053D01*
G37*
D17*
X155750000Y-90862500D03*
D10*
G36*
X156602691Y-84576053D02*
G01*
X156623926Y-84579203D01*
X156644750Y-84584419D01*
X156664962Y-84591651D01*
X156684368Y-84600830D01*
X156702781Y-84611866D01*
X156720024Y-84624654D01*
X156735930Y-84639070D01*
X156750346Y-84654976D01*
X156763134Y-84672219D01*
X156774170Y-84690632D01*
X156783349Y-84710038D01*
X156790581Y-84730250D01*
X156795797Y-84751074D01*
X156798947Y-84772309D01*
X156800000Y-84793750D01*
X156800000Y-85306250D01*
X156798947Y-85327691D01*
X156795797Y-85348926D01*
X156790581Y-85369750D01*
X156783349Y-85389962D01*
X156774170Y-85409368D01*
X156763134Y-85427781D01*
X156750346Y-85445024D01*
X156735930Y-85460930D01*
X156720024Y-85475346D01*
X156702781Y-85488134D01*
X156684368Y-85499170D01*
X156664962Y-85508349D01*
X156644750Y-85515581D01*
X156623926Y-85520797D01*
X156602691Y-85523947D01*
X156581250Y-85525000D01*
X156143750Y-85525000D01*
X156122309Y-85523947D01*
X156101074Y-85520797D01*
X156080250Y-85515581D01*
X156060038Y-85508349D01*
X156040632Y-85499170D01*
X156022219Y-85488134D01*
X156004976Y-85475346D01*
X155989070Y-85460930D01*
X155974654Y-85445024D01*
X155961866Y-85427781D01*
X155950830Y-85409368D01*
X155941651Y-85389962D01*
X155934419Y-85369750D01*
X155929203Y-85348926D01*
X155926053Y-85327691D01*
X155925000Y-85306250D01*
X155925000Y-84793750D01*
X155926053Y-84772309D01*
X155929203Y-84751074D01*
X155934419Y-84730250D01*
X155941651Y-84710038D01*
X155950830Y-84690632D01*
X155961866Y-84672219D01*
X155974654Y-84654976D01*
X155989070Y-84639070D01*
X156004976Y-84624654D01*
X156022219Y-84611866D01*
X156040632Y-84600830D01*
X156060038Y-84591651D01*
X156080250Y-84584419D01*
X156101074Y-84579203D01*
X156122309Y-84576053D01*
X156143750Y-84575000D01*
X156581250Y-84575000D01*
X156602691Y-84576053D01*
X156602691Y-84576053D01*
G37*
D17*
X156362500Y-85050000D03*
D10*
G36*
X158177691Y-84576053D02*
G01*
X158198926Y-84579203D01*
X158219750Y-84584419D01*
X158239962Y-84591651D01*
X158259368Y-84600830D01*
X158277781Y-84611866D01*
X158295024Y-84624654D01*
X158310930Y-84639070D01*
X158325346Y-84654976D01*
X158338134Y-84672219D01*
X158349170Y-84690632D01*
X158358349Y-84710038D01*
X158365581Y-84730250D01*
X158370797Y-84751074D01*
X158373947Y-84772309D01*
X158375000Y-84793750D01*
X158375000Y-85306250D01*
X158373947Y-85327691D01*
X158370797Y-85348926D01*
X158365581Y-85369750D01*
X158358349Y-85389962D01*
X158349170Y-85409368D01*
X158338134Y-85427781D01*
X158325346Y-85445024D01*
X158310930Y-85460930D01*
X158295024Y-85475346D01*
X158277781Y-85488134D01*
X158259368Y-85499170D01*
X158239962Y-85508349D01*
X158219750Y-85515581D01*
X158198926Y-85520797D01*
X158177691Y-85523947D01*
X158156250Y-85525000D01*
X157718750Y-85525000D01*
X157697309Y-85523947D01*
X157676074Y-85520797D01*
X157655250Y-85515581D01*
X157635038Y-85508349D01*
X157615632Y-85499170D01*
X157597219Y-85488134D01*
X157579976Y-85475346D01*
X157564070Y-85460930D01*
X157549654Y-85445024D01*
X157536866Y-85427781D01*
X157525830Y-85409368D01*
X157516651Y-85389962D01*
X157509419Y-85369750D01*
X157504203Y-85348926D01*
X157501053Y-85327691D01*
X157500000Y-85306250D01*
X157500000Y-84793750D01*
X157501053Y-84772309D01*
X157504203Y-84751074D01*
X157509419Y-84730250D01*
X157516651Y-84710038D01*
X157525830Y-84690632D01*
X157536866Y-84672219D01*
X157549654Y-84654976D01*
X157564070Y-84639070D01*
X157579976Y-84624654D01*
X157597219Y-84611866D01*
X157615632Y-84600830D01*
X157635038Y-84591651D01*
X157655250Y-84584419D01*
X157676074Y-84579203D01*
X157697309Y-84576053D01*
X157718750Y-84575000D01*
X158156250Y-84575000D01*
X158177691Y-84576053D01*
X158177691Y-84576053D01*
G37*
D17*
X157937500Y-85050000D03*
D10*
G36*
X166840691Y-95276053D02*
G01*
X166861926Y-95279203D01*
X166882750Y-95284419D01*
X166902962Y-95291651D01*
X166922368Y-95300830D01*
X166940781Y-95311866D01*
X166958024Y-95324654D01*
X166973930Y-95339070D01*
X166988346Y-95354976D01*
X167001134Y-95372219D01*
X167012170Y-95390632D01*
X167021349Y-95410038D01*
X167028581Y-95430250D01*
X167033797Y-95451074D01*
X167036947Y-95472309D01*
X167038000Y-95493750D01*
X167038000Y-96006250D01*
X167036947Y-96027691D01*
X167033797Y-96048926D01*
X167028581Y-96069750D01*
X167021349Y-96089962D01*
X167012170Y-96109368D01*
X167001134Y-96127781D01*
X166988346Y-96145024D01*
X166973930Y-96160930D01*
X166958024Y-96175346D01*
X166940781Y-96188134D01*
X166922368Y-96199170D01*
X166902962Y-96208349D01*
X166882750Y-96215581D01*
X166861926Y-96220797D01*
X166840691Y-96223947D01*
X166819250Y-96225000D01*
X166381750Y-96225000D01*
X166360309Y-96223947D01*
X166339074Y-96220797D01*
X166318250Y-96215581D01*
X166298038Y-96208349D01*
X166278632Y-96199170D01*
X166260219Y-96188134D01*
X166242976Y-96175346D01*
X166227070Y-96160930D01*
X166212654Y-96145024D01*
X166199866Y-96127781D01*
X166188830Y-96109368D01*
X166179651Y-96089962D01*
X166172419Y-96069750D01*
X166167203Y-96048926D01*
X166164053Y-96027691D01*
X166163000Y-96006250D01*
X166163000Y-95493750D01*
X166164053Y-95472309D01*
X166167203Y-95451074D01*
X166172419Y-95430250D01*
X166179651Y-95410038D01*
X166188830Y-95390632D01*
X166199866Y-95372219D01*
X166212654Y-95354976D01*
X166227070Y-95339070D01*
X166242976Y-95324654D01*
X166260219Y-95311866D01*
X166278632Y-95300830D01*
X166298038Y-95291651D01*
X166318250Y-95284419D01*
X166339074Y-95279203D01*
X166360309Y-95276053D01*
X166381750Y-95275000D01*
X166819250Y-95275000D01*
X166840691Y-95276053D01*
X166840691Y-95276053D01*
G37*
D17*
X166600500Y-95750000D03*
D10*
G36*
X168415691Y-95276053D02*
G01*
X168436926Y-95279203D01*
X168457750Y-95284419D01*
X168477962Y-95291651D01*
X168497368Y-95300830D01*
X168515781Y-95311866D01*
X168533024Y-95324654D01*
X168548930Y-95339070D01*
X168563346Y-95354976D01*
X168576134Y-95372219D01*
X168587170Y-95390632D01*
X168596349Y-95410038D01*
X168603581Y-95430250D01*
X168608797Y-95451074D01*
X168611947Y-95472309D01*
X168613000Y-95493750D01*
X168613000Y-96006250D01*
X168611947Y-96027691D01*
X168608797Y-96048926D01*
X168603581Y-96069750D01*
X168596349Y-96089962D01*
X168587170Y-96109368D01*
X168576134Y-96127781D01*
X168563346Y-96145024D01*
X168548930Y-96160930D01*
X168533024Y-96175346D01*
X168515781Y-96188134D01*
X168497368Y-96199170D01*
X168477962Y-96208349D01*
X168457750Y-96215581D01*
X168436926Y-96220797D01*
X168415691Y-96223947D01*
X168394250Y-96225000D01*
X167956750Y-96225000D01*
X167935309Y-96223947D01*
X167914074Y-96220797D01*
X167893250Y-96215581D01*
X167873038Y-96208349D01*
X167853632Y-96199170D01*
X167835219Y-96188134D01*
X167817976Y-96175346D01*
X167802070Y-96160930D01*
X167787654Y-96145024D01*
X167774866Y-96127781D01*
X167763830Y-96109368D01*
X167754651Y-96089962D01*
X167747419Y-96069750D01*
X167742203Y-96048926D01*
X167739053Y-96027691D01*
X167738000Y-96006250D01*
X167738000Y-95493750D01*
X167739053Y-95472309D01*
X167742203Y-95451074D01*
X167747419Y-95430250D01*
X167754651Y-95410038D01*
X167763830Y-95390632D01*
X167774866Y-95372219D01*
X167787654Y-95354976D01*
X167802070Y-95339070D01*
X167817976Y-95324654D01*
X167835219Y-95311866D01*
X167853632Y-95300830D01*
X167873038Y-95291651D01*
X167893250Y-95284419D01*
X167914074Y-95279203D01*
X167935309Y-95276053D01*
X167956750Y-95275000D01*
X168394250Y-95275000D01*
X168415691Y-95276053D01*
X168415691Y-95276053D01*
G37*
D17*
X168175500Y-95750000D03*
D10*
G36*
X169540691Y-84226053D02*
G01*
X169561926Y-84229203D01*
X169582750Y-84234419D01*
X169602962Y-84241651D01*
X169622368Y-84250830D01*
X169640781Y-84261866D01*
X169658024Y-84274654D01*
X169673930Y-84289070D01*
X169688346Y-84304976D01*
X169701134Y-84322219D01*
X169712170Y-84340632D01*
X169721349Y-84360038D01*
X169728581Y-84380250D01*
X169733797Y-84401074D01*
X169736947Y-84422309D01*
X169738000Y-84443750D01*
X169738000Y-84956250D01*
X169736947Y-84977691D01*
X169733797Y-84998926D01*
X169728581Y-85019750D01*
X169721349Y-85039962D01*
X169712170Y-85059368D01*
X169701134Y-85077781D01*
X169688346Y-85095024D01*
X169673930Y-85110930D01*
X169658024Y-85125346D01*
X169640781Y-85138134D01*
X169622368Y-85149170D01*
X169602962Y-85158349D01*
X169582750Y-85165581D01*
X169561926Y-85170797D01*
X169540691Y-85173947D01*
X169519250Y-85175000D01*
X169081750Y-85175000D01*
X169060309Y-85173947D01*
X169039074Y-85170797D01*
X169018250Y-85165581D01*
X168998038Y-85158349D01*
X168978632Y-85149170D01*
X168960219Y-85138134D01*
X168942976Y-85125346D01*
X168927070Y-85110930D01*
X168912654Y-85095024D01*
X168899866Y-85077781D01*
X168888830Y-85059368D01*
X168879651Y-85039962D01*
X168872419Y-85019750D01*
X168867203Y-84998926D01*
X168864053Y-84977691D01*
X168863000Y-84956250D01*
X168863000Y-84443750D01*
X168864053Y-84422309D01*
X168867203Y-84401074D01*
X168872419Y-84380250D01*
X168879651Y-84360038D01*
X168888830Y-84340632D01*
X168899866Y-84322219D01*
X168912654Y-84304976D01*
X168927070Y-84289070D01*
X168942976Y-84274654D01*
X168960219Y-84261866D01*
X168978632Y-84250830D01*
X168998038Y-84241651D01*
X169018250Y-84234419D01*
X169039074Y-84229203D01*
X169060309Y-84226053D01*
X169081750Y-84225000D01*
X169519250Y-84225000D01*
X169540691Y-84226053D01*
X169540691Y-84226053D01*
G37*
D17*
X169300500Y-84700000D03*
D10*
G36*
X171115691Y-84226053D02*
G01*
X171136926Y-84229203D01*
X171157750Y-84234419D01*
X171177962Y-84241651D01*
X171197368Y-84250830D01*
X171215781Y-84261866D01*
X171233024Y-84274654D01*
X171248930Y-84289070D01*
X171263346Y-84304976D01*
X171276134Y-84322219D01*
X171287170Y-84340632D01*
X171296349Y-84360038D01*
X171303581Y-84380250D01*
X171308797Y-84401074D01*
X171311947Y-84422309D01*
X171313000Y-84443750D01*
X171313000Y-84956250D01*
X171311947Y-84977691D01*
X171308797Y-84998926D01*
X171303581Y-85019750D01*
X171296349Y-85039962D01*
X171287170Y-85059368D01*
X171276134Y-85077781D01*
X171263346Y-85095024D01*
X171248930Y-85110930D01*
X171233024Y-85125346D01*
X171215781Y-85138134D01*
X171197368Y-85149170D01*
X171177962Y-85158349D01*
X171157750Y-85165581D01*
X171136926Y-85170797D01*
X171115691Y-85173947D01*
X171094250Y-85175000D01*
X170656750Y-85175000D01*
X170635309Y-85173947D01*
X170614074Y-85170797D01*
X170593250Y-85165581D01*
X170573038Y-85158349D01*
X170553632Y-85149170D01*
X170535219Y-85138134D01*
X170517976Y-85125346D01*
X170502070Y-85110930D01*
X170487654Y-85095024D01*
X170474866Y-85077781D01*
X170463830Y-85059368D01*
X170454651Y-85039962D01*
X170447419Y-85019750D01*
X170442203Y-84998926D01*
X170439053Y-84977691D01*
X170438000Y-84956250D01*
X170438000Y-84443750D01*
X170439053Y-84422309D01*
X170442203Y-84401074D01*
X170447419Y-84380250D01*
X170454651Y-84360038D01*
X170463830Y-84340632D01*
X170474866Y-84322219D01*
X170487654Y-84304976D01*
X170502070Y-84289070D01*
X170517976Y-84274654D01*
X170535219Y-84261866D01*
X170553632Y-84250830D01*
X170573038Y-84241651D01*
X170593250Y-84234419D01*
X170614074Y-84229203D01*
X170635309Y-84226053D01*
X170656750Y-84225000D01*
X171094250Y-84225000D01*
X171115691Y-84226053D01*
X171115691Y-84226053D01*
G37*
D17*
X170875500Y-84700000D03*
D10*
G36*
X170177691Y-96838553D02*
G01*
X170198926Y-96841703D01*
X170219750Y-96846919D01*
X170239962Y-96854151D01*
X170259368Y-96863330D01*
X170277781Y-96874366D01*
X170295024Y-96887154D01*
X170310930Y-96901570D01*
X170325346Y-96917476D01*
X170338134Y-96934719D01*
X170349170Y-96953132D01*
X170358349Y-96972538D01*
X170365581Y-96992750D01*
X170370797Y-97013574D01*
X170373947Y-97034809D01*
X170375000Y-97056250D01*
X170375000Y-97493750D01*
X170373947Y-97515191D01*
X170370797Y-97536426D01*
X170365581Y-97557250D01*
X170358349Y-97577462D01*
X170349170Y-97596868D01*
X170338134Y-97615281D01*
X170325346Y-97632524D01*
X170310930Y-97648430D01*
X170295024Y-97662846D01*
X170277781Y-97675634D01*
X170259368Y-97686670D01*
X170239962Y-97695849D01*
X170219750Y-97703081D01*
X170198926Y-97708297D01*
X170177691Y-97711447D01*
X170156250Y-97712500D01*
X169643750Y-97712500D01*
X169622309Y-97711447D01*
X169601074Y-97708297D01*
X169580250Y-97703081D01*
X169560038Y-97695849D01*
X169540632Y-97686670D01*
X169522219Y-97675634D01*
X169504976Y-97662846D01*
X169489070Y-97648430D01*
X169474654Y-97632524D01*
X169461866Y-97615281D01*
X169450830Y-97596868D01*
X169441651Y-97577462D01*
X169434419Y-97557250D01*
X169429203Y-97536426D01*
X169426053Y-97515191D01*
X169425000Y-97493750D01*
X169425000Y-97056250D01*
X169426053Y-97034809D01*
X169429203Y-97013574D01*
X169434419Y-96992750D01*
X169441651Y-96972538D01*
X169450830Y-96953132D01*
X169461866Y-96934719D01*
X169474654Y-96917476D01*
X169489070Y-96901570D01*
X169504976Y-96887154D01*
X169522219Y-96874366D01*
X169540632Y-96863330D01*
X169560038Y-96854151D01*
X169580250Y-96846919D01*
X169601074Y-96841703D01*
X169622309Y-96838553D01*
X169643750Y-96837500D01*
X170156250Y-96837500D01*
X170177691Y-96838553D01*
X170177691Y-96838553D01*
G37*
D17*
X169900000Y-97275000D03*
D10*
G36*
X170177691Y-95263553D02*
G01*
X170198926Y-95266703D01*
X170219750Y-95271919D01*
X170239962Y-95279151D01*
X170259368Y-95288330D01*
X170277781Y-95299366D01*
X170295024Y-95312154D01*
X170310930Y-95326570D01*
X170325346Y-95342476D01*
X170338134Y-95359719D01*
X170349170Y-95378132D01*
X170358349Y-95397538D01*
X170365581Y-95417750D01*
X170370797Y-95438574D01*
X170373947Y-95459809D01*
X170375000Y-95481250D01*
X170375000Y-95918750D01*
X170373947Y-95940191D01*
X170370797Y-95961426D01*
X170365581Y-95982250D01*
X170358349Y-96002462D01*
X170349170Y-96021868D01*
X170338134Y-96040281D01*
X170325346Y-96057524D01*
X170310930Y-96073430D01*
X170295024Y-96087846D01*
X170277781Y-96100634D01*
X170259368Y-96111670D01*
X170239962Y-96120849D01*
X170219750Y-96128081D01*
X170198926Y-96133297D01*
X170177691Y-96136447D01*
X170156250Y-96137500D01*
X169643750Y-96137500D01*
X169622309Y-96136447D01*
X169601074Y-96133297D01*
X169580250Y-96128081D01*
X169560038Y-96120849D01*
X169540632Y-96111670D01*
X169522219Y-96100634D01*
X169504976Y-96087846D01*
X169489070Y-96073430D01*
X169474654Y-96057524D01*
X169461866Y-96040281D01*
X169450830Y-96021868D01*
X169441651Y-96002462D01*
X169434419Y-95982250D01*
X169429203Y-95961426D01*
X169426053Y-95940191D01*
X169425000Y-95918750D01*
X169425000Y-95481250D01*
X169426053Y-95459809D01*
X169429203Y-95438574D01*
X169434419Y-95417750D01*
X169441651Y-95397538D01*
X169450830Y-95378132D01*
X169461866Y-95359719D01*
X169474654Y-95342476D01*
X169489070Y-95326570D01*
X169504976Y-95312154D01*
X169522219Y-95299366D01*
X169540632Y-95288330D01*
X169560038Y-95279151D01*
X169580250Y-95271919D01*
X169601074Y-95266703D01*
X169622309Y-95263553D01*
X169643750Y-95262500D01*
X170156250Y-95262500D01*
X170177691Y-95263553D01*
X170177691Y-95263553D01*
G37*
D17*
X169900000Y-95700000D03*
D10*
G36*
X163577691Y-95263553D02*
G01*
X163598926Y-95266703D01*
X163619750Y-95271919D01*
X163639962Y-95279151D01*
X163659368Y-95288330D01*
X163677781Y-95299366D01*
X163695024Y-95312154D01*
X163710930Y-95326570D01*
X163725346Y-95342476D01*
X163738134Y-95359719D01*
X163749170Y-95378132D01*
X163758349Y-95397538D01*
X163765581Y-95417750D01*
X163770797Y-95438574D01*
X163773947Y-95459809D01*
X163775000Y-95481250D01*
X163775000Y-95918750D01*
X163773947Y-95940191D01*
X163770797Y-95961426D01*
X163765581Y-95982250D01*
X163758349Y-96002462D01*
X163749170Y-96021868D01*
X163738134Y-96040281D01*
X163725346Y-96057524D01*
X163710930Y-96073430D01*
X163695024Y-96087846D01*
X163677781Y-96100634D01*
X163659368Y-96111670D01*
X163639962Y-96120849D01*
X163619750Y-96128081D01*
X163598926Y-96133297D01*
X163577691Y-96136447D01*
X163556250Y-96137500D01*
X163043750Y-96137500D01*
X163022309Y-96136447D01*
X163001074Y-96133297D01*
X162980250Y-96128081D01*
X162960038Y-96120849D01*
X162940632Y-96111670D01*
X162922219Y-96100634D01*
X162904976Y-96087846D01*
X162889070Y-96073430D01*
X162874654Y-96057524D01*
X162861866Y-96040281D01*
X162850830Y-96021868D01*
X162841651Y-96002462D01*
X162834419Y-95982250D01*
X162829203Y-95961426D01*
X162826053Y-95940191D01*
X162825000Y-95918750D01*
X162825000Y-95481250D01*
X162826053Y-95459809D01*
X162829203Y-95438574D01*
X162834419Y-95417750D01*
X162841651Y-95397538D01*
X162850830Y-95378132D01*
X162861866Y-95359719D01*
X162874654Y-95342476D01*
X162889070Y-95326570D01*
X162904976Y-95312154D01*
X162922219Y-95299366D01*
X162940632Y-95288330D01*
X162960038Y-95279151D01*
X162980250Y-95271919D01*
X163001074Y-95266703D01*
X163022309Y-95263553D01*
X163043750Y-95262500D01*
X163556250Y-95262500D01*
X163577691Y-95263553D01*
X163577691Y-95263553D01*
G37*
D17*
X163300000Y-95700000D03*
D10*
G36*
X163577691Y-96838553D02*
G01*
X163598926Y-96841703D01*
X163619750Y-96846919D01*
X163639962Y-96854151D01*
X163659368Y-96863330D01*
X163677781Y-96874366D01*
X163695024Y-96887154D01*
X163710930Y-96901570D01*
X163725346Y-96917476D01*
X163738134Y-96934719D01*
X163749170Y-96953132D01*
X163758349Y-96972538D01*
X163765581Y-96992750D01*
X163770797Y-97013574D01*
X163773947Y-97034809D01*
X163775000Y-97056250D01*
X163775000Y-97493750D01*
X163773947Y-97515191D01*
X163770797Y-97536426D01*
X163765581Y-97557250D01*
X163758349Y-97577462D01*
X163749170Y-97596868D01*
X163738134Y-97615281D01*
X163725346Y-97632524D01*
X163710930Y-97648430D01*
X163695024Y-97662846D01*
X163677781Y-97675634D01*
X163659368Y-97686670D01*
X163639962Y-97695849D01*
X163619750Y-97703081D01*
X163598926Y-97708297D01*
X163577691Y-97711447D01*
X163556250Y-97712500D01*
X163043750Y-97712500D01*
X163022309Y-97711447D01*
X163001074Y-97708297D01*
X162980250Y-97703081D01*
X162960038Y-97695849D01*
X162940632Y-97686670D01*
X162922219Y-97675634D01*
X162904976Y-97662846D01*
X162889070Y-97648430D01*
X162874654Y-97632524D01*
X162861866Y-97615281D01*
X162850830Y-97596868D01*
X162841651Y-97577462D01*
X162834419Y-97557250D01*
X162829203Y-97536426D01*
X162826053Y-97515191D01*
X162825000Y-97493750D01*
X162825000Y-97056250D01*
X162826053Y-97034809D01*
X162829203Y-97013574D01*
X162834419Y-96992750D01*
X162841651Y-96972538D01*
X162850830Y-96953132D01*
X162861866Y-96934719D01*
X162874654Y-96917476D01*
X162889070Y-96901570D01*
X162904976Y-96887154D01*
X162922219Y-96874366D01*
X162940632Y-96863330D01*
X162960038Y-96854151D01*
X162980250Y-96846919D01*
X163001074Y-96841703D01*
X163022309Y-96838553D01*
X163043750Y-96837500D01*
X163556250Y-96837500D01*
X163577691Y-96838553D01*
X163577691Y-96838553D01*
G37*
D17*
X163300000Y-97275000D03*
D10*
G36*
X164764691Y-82126053D02*
G01*
X164785926Y-82129203D01*
X164806750Y-82134419D01*
X164826962Y-82141651D01*
X164846368Y-82150830D01*
X164864781Y-82161866D01*
X164882024Y-82174654D01*
X164897930Y-82189070D01*
X164912346Y-82204976D01*
X164925134Y-82222219D01*
X164936170Y-82240632D01*
X164945349Y-82260038D01*
X164952581Y-82280250D01*
X164957797Y-82301074D01*
X164960947Y-82322309D01*
X164962000Y-82343750D01*
X164962000Y-82856250D01*
X164960947Y-82877691D01*
X164957797Y-82898926D01*
X164952581Y-82919750D01*
X164945349Y-82939962D01*
X164936170Y-82959368D01*
X164925134Y-82977781D01*
X164912346Y-82995024D01*
X164897930Y-83010930D01*
X164882024Y-83025346D01*
X164864781Y-83038134D01*
X164846368Y-83049170D01*
X164826962Y-83058349D01*
X164806750Y-83065581D01*
X164785926Y-83070797D01*
X164764691Y-83073947D01*
X164743250Y-83075000D01*
X164305750Y-83075000D01*
X164284309Y-83073947D01*
X164263074Y-83070797D01*
X164242250Y-83065581D01*
X164222038Y-83058349D01*
X164202632Y-83049170D01*
X164184219Y-83038134D01*
X164166976Y-83025346D01*
X164151070Y-83010930D01*
X164136654Y-82995024D01*
X164123866Y-82977781D01*
X164112830Y-82959368D01*
X164103651Y-82939962D01*
X164096419Y-82919750D01*
X164091203Y-82898926D01*
X164088053Y-82877691D01*
X164087000Y-82856250D01*
X164087000Y-82343750D01*
X164088053Y-82322309D01*
X164091203Y-82301074D01*
X164096419Y-82280250D01*
X164103651Y-82260038D01*
X164112830Y-82240632D01*
X164123866Y-82222219D01*
X164136654Y-82204976D01*
X164151070Y-82189070D01*
X164166976Y-82174654D01*
X164184219Y-82161866D01*
X164202632Y-82150830D01*
X164222038Y-82141651D01*
X164242250Y-82134419D01*
X164263074Y-82129203D01*
X164284309Y-82126053D01*
X164305750Y-82125000D01*
X164743250Y-82125000D01*
X164764691Y-82126053D01*
X164764691Y-82126053D01*
G37*
D17*
X164524500Y-82600000D03*
D10*
G36*
X166339691Y-82126053D02*
G01*
X166360926Y-82129203D01*
X166381750Y-82134419D01*
X166401962Y-82141651D01*
X166421368Y-82150830D01*
X166439781Y-82161866D01*
X166457024Y-82174654D01*
X166472930Y-82189070D01*
X166487346Y-82204976D01*
X166500134Y-82222219D01*
X166511170Y-82240632D01*
X166520349Y-82260038D01*
X166527581Y-82280250D01*
X166532797Y-82301074D01*
X166535947Y-82322309D01*
X166537000Y-82343750D01*
X166537000Y-82856250D01*
X166535947Y-82877691D01*
X166532797Y-82898926D01*
X166527581Y-82919750D01*
X166520349Y-82939962D01*
X166511170Y-82959368D01*
X166500134Y-82977781D01*
X166487346Y-82995024D01*
X166472930Y-83010930D01*
X166457024Y-83025346D01*
X166439781Y-83038134D01*
X166421368Y-83049170D01*
X166401962Y-83058349D01*
X166381750Y-83065581D01*
X166360926Y-83070797D01*
X166339691Y-83073947D01*
X166318250Y-83075000D01*
X165880750Y-83075000D01*
X165859309Y-83073947D01*
X165838074Y-83070797D01*
X165817250Y-83065581D01*
X165797038Y-83058349D01*
X165777632Y-83049170D01*
X165759219Y-83038134D01*
X165741976Y-83025346D01*
X165726070Y-83010930D01*
X165711654Y-82995024D01*
X165698866Y-82977781D01*
X165687830Y-82959368D01*
X165678651Y-82939962D01*
X165671419Y-82919750D01*
X165666203Y-82898926D01*
X165663053Y-82877691D01*
X165662000Y-82856250D01*
X165662000Y-82343750D01*
X165663053Y-82322309D01*
X165666203Y-82301074D01*
X165671419Y-82280250D01*
X165678651Y-82260038D01*
X165687830Y-82240632D01*
X165698866Y-82222219D01*
X165711654Y-82204976D01*
X165726070Y-82189070D01*
X165741976Y-82174654D01*
X165759219Y-82161866D01*
X165777632Y-82150830D01*
X165797038Y-82141651D01*
X165817250Y-82134419D01*
X165838074Y-82129203D01*
X165859309Y-82126053D01*
X165880750Y-82125000D01*
X166318250Y-82125000D01*
X166339691Y-82126053D01*
X166339691Y-82126053D01*
G37*
D17*
X166099500Y-82600000D03*
D14*
X155500000Y-97500000D03*
D13*
X158040000Y-97500000D03*
X160580000Y-97500000D03*
D10*
G36*
X166864691Y-96876053D02*
G01*
X166885926Y-96879203D01*
X166906750Y-96884419D01*
X166926962Y-96891651D01*
X166946368Y-96900830D01*
X166964781Y-96911866D01*
X166982024Y-96924654D01*
X166997930Y-96939070D01*
X167012346Y-96954976D01*
X167025134Y-96972219D01*
X167036170Y-96990632D01*
X167045349Y-97010038D01*
X167052581Y-97030250D01*
X167057797Y-97051074D01*
X167060947Y-97072309D01*
X167062000Y-97093750D01*
X167062000Y-97606250D01*
X167060947Y-97627691D01*
X167057797Y-97648926D01*
X167052581Y-97669750D01*
X167045349Y-97689962D01*
X167036170Y-97709368D01*
X167025134Y-97727781D01*
X167012346Y-97745024D01*
X166997930Y-97760930D01*
X166982024Y-97775346D01*
X166964781Y-97788134D01*
X166946368Y-97799170D01*
X166926962Y-97808349D01*
X166906750Y-97815581D01*
X166885926Y-97820797D01*
X166864691Y-97823947D01*
X166843250Y-97825000D01*
X166405750Y-97825000D01*
X166384309Y-97823947D01*
X166363074Y-97820797D01*
X166342250Y-97815581D01*
X166322038Y-97808349D01*
X166302632Y-97799170D01*
X166284219Y-97788134D01*
X166266976Y-97775346D01*
X166251070Y-97760930D01*
X166236654Y-97745024D01*
X166223866Y-97727781D01*
X166212830Y-97709368D01*
X166203651Y-97689962D01*
X166196419Y-97669750D01*
X166191203Y-97648926D01*
X166188053Y-97627691D01*
X166187000Y-97606250D01*
X166187000Y-97093750D01*
X166188053Y-97072309D01*
X166191203Y-97051074D01*
X166196419Y-97030250D01*
X166203651Y-97010038D01*
X166212830Y-96990632D01*
X166223866Y-96972219D01*
X166236654Y-96954976D01*
X166251070Y-96939070D01*
X166266976Y-96924654D01*
X166284219Y-96911866D01*
X166302632Y-96900830D01*
X166322038Y-96891651D01*
X166342250Y-96884419D01*
X166363074Y-96879203D01*
X166384309Y-96876053D01*
X166405750Y-96875000D01*
X166843250Y-96875000D01*
X166864691Y-96876053D01*
X166864691Y-96876053D01*
G37*
D17*
X166624500Y-97350000D03*
D10*
G36*
X168439691Y-96876053D02*
G01*
X168460926Y-96879203D01*
X168481750Y-96884419D01*
X168501962Y-96891651D01*
X168521368Y-96900830D01*
X168539781Y-96911866D01*
X168557024Y-96924654D01*
X168572930Y-96939070D01*
X168587346Y-96954976D01*
X168600134Y-96972219D01*
X168611170Y-96990632D01*
X168620349Y-97010038D01*
X168627581Y-97030250D01*
X168632797Y-97051074D01*
X168635947Y-97072309D01*
X168637000Y-97093750D01*
X168637000Y-97606250D01*
X168635947Y-97627691D01*
X168632797Y-97648926D01*
X168627581Y-97669750D01*
X168620349Y-97689962D01*
X168611170Y-97709368D01*
X168600134Y-97727781D01*
X168587346Y-97745024D01*
X168572930Y-97760930D01*
X168557024Y-97775346D01*
X168539781Y-97788134D01*
X168521368Y-97799170D01*
X168501962Y-97808349D01*
X168481750Y-97815581D01*
X168460926Y-97820797D01*
X168439691Y-97823947D01*
X168418250Y-97825000D01*
X167980750Y-97825000D01*
X167959309Y-97823947D01*
X167938074Y-97820797D01*
X167917250Y-97815581D01*
X167897038Y-97808349D01*
X167877632Y-97799170D01*
X167859219Y-97788134D01*
X167841976Y-97775346D01*
X167826070Y-97760930D01*
X167811654Y-97745024D01*
X167798866Y-97727781D01*
X167787830Y-97709368D01*
X167778651Y-97689962D01*
X167771419Y-97669750D01*
X167766203Y-97648926D01*
X167763053Y-97627691D01*
X167762000Y-97606250D01*
X167762000Y-97093750D01*
X167763053Y-97072309D01*
X167766203Y-97051074D01*
X167771419Y-97030250D01*
X167778651Y-97010038D01*
X167787830Y-96990632D01*
X167798866Y-96972219D01*
X167811654Y-96954976D01*
X167826070Y-96939070D01*
X167841976Y-96924654D01*
X167859219Y-96911866D01*
X167877632Y-96900830D01*
X167897038Y-96891651D01*
X167917250Y-96884419D01*
X167938074Y-96879203D01*
X167959309Y-96876053D01*
X167980750Y-96875000D01*
X168418250Y-96875000D01*
X168439691Y-96876053D01*
X168439691Y-96876053D01*
G37*
D17*
X168199500Y-97350000D03*
D10*
G36*
X159977691Y-92021053D02*
G01*
X159998926Y-92024203D01*
X160019750Y-92029419D01*
X160039962Y-92036651D01*
X160059368Y-92045830D01*
X160077781Y-92056866D01*
X160095024Y-92069654D01*
X160110930Y-92084070D01*
X160125346Y-92099976D01*
X160138134Y-92117219D01*
X160149170Y-92135632D01*
X160158349Y-92155038D01*
X160165581Y-92175250D01*
X160170797Y-92196074D01*
X160173947Y-92217309D01*
X160175000Y-92238750D01*
X160175000Y-92676250D01*
X160173947Y-92697691D01*
X160170797Y-92718926D01*
X160165581Y-92739750D01*
X160158349Y-92759962D01*
X160149170Y-92779368D01*
X160138134Y-92797781D01*
X160125346Y-92815024D01*
X160110930Y-92830930D01*
X160095024Y-92845346D01*
X160077781Y-92858134D01*
X160059368Y-92869170D01*
X160039962Y-92878349D01*
X160019750Y-92885581D01*
X159998926Y-92890797D01*
X159977691Y-92893947D01*
X159956250Y-92895000D01*
X159443750Y-92895000D01*
X159422309Y-92893947D01*
X159401074Y-92890797D01*
X159380250Y-92885581D01*
X159360038Y-92878349D01*
X159340632Y-92869170D01*
X159322219Y-92858134D01*
X159304976Y-92845346D01*
X159289070Y-92830930D01*
X159274654Y-92815024D01*
X159261866Y-92797781D01*
X159250830Y-92779368D01*
X159241651Y-92759962D01*
X159234419Y-92739750D01*
X159229203Y-92718926D01*
X159226053Y-92697691D01*
X159225000Y-92676250D01*
X159225000Y-92238750D01*
X159226053Y-92217309D01*
X159229203Y-92196074D01*
X159234419Y-92175250D01*
X159241651Y-92155038D01*
X159250830Y-92135632D01*
X159261866Y-92117219D01*
X159274654Y-92099976D01*
X159289070Y-92084070D01*
X159304976Y-92069654D01*
X159322219Y-92056866D01*
X159340632Y-92045830D01*
X159360038Y-92036651D01*
X159380250Y-92029419D01*
X159401074Y-92024203D01*
X159422309Y-92021053D01*
X159443750Y-92020000D01*
X159956250Y-92020000D01*
X159977691Y-92021053D01*
X159977691Y-92021053D01*
G37*
D17*
X159700000Y-92457500D03*
D10*
G36*
X159977691Y-90446053D02*
G01*
X159998926Y-90449203D01*
X160019750Y-90454419D01*
X160039962Y-90461651D01*
X160059368Y-90470830D01*
X160077781Y-90481866D01*
X160095024Y-90494654D01*
X160110930Y-90509070D01*
X160125346Y-90524976D01*
X160138134Y-90542219D01*
X160149170Y-90560632D01*
X160158349Y-90580038D01*
X160165581Y-90600250D01*
X160170797Y-90621074D01*
X160173947Y-90642309D01*
X160175000Y-90663750D01*
X160175000Y-91101250D01*
X160173947Y-91122691D01*
X160170797Y-91143926D01*
X160165581Y-91164750D01*
X160158349Y-91184962D01*
X160149170Y-91204368D01*
X160138134Y-91222781D01*
X160125346Y-91240024D01*
X160110930Y-91255930D01*
X160095024Y-91270346D01*
X160077781Y-91283134D01*
X160059368Y-91294170D01*
X160039962Y-91303349D01*
X160019750Y-91310581D01*
X159998926Y-91315797D01*
X159977691Y-91318947D01*
X159956250Y-91320000D01*
X159443750Y-91320000D01*
X159422309Y-91318947D01*
X159401074Y-91315797D01*
X159380250Y-91310581D01*
X159360038Y-91303349D01*
X159340632Y-91294170D01*
X159322219Y-91283134D01*
X159304976Y-91270346D01*
X159289070Y-91255930D01*
X159274654Y-91240024D01*
X159261866Y-91222781D01*
X159250830Y-91204368D01*
X159241651Y-91184962D01*
X159234419Y-91164750D01*
X159229203Y-91143926D01*
X159226053Y-91122691D01*
X159225000Y-91101250D01*
X159225000Y-90663750D01*
X159226053Y-90642309D01*
X159229203Y-90621074D01*
X159234419Y-90600250D01*
X159241651Y-90580038D01*
X159250830Y-90560632D01*
X159261866Y-90542219D01*
X159274654Y-90524976D01*
X159289070Y-90509070D01*
X159304976Y-90494654D01*
X159322219Y-90481866D01*
X159340632Y-90470830D01*
X159360038Y-90461651D01*
X159380250Y-90454419D01*
X159401074Y-90449203D01*
X159422309Y-90446053D01*
X159443750Y-90445000D01*
X159956250Y-90445000D01*
X159977691Y-90446053D01*
X159977691Y-90446053D01*
G37*
D17*
X159700000Y-90882500D03*
D10*
G36*
X164764691Y-80426053D02*
G01*
X164785926Y-80429203D01*
X164806750Y-80434419D01*
X164826962Y-80441651D01*
X164846368Y-80450830D01*
X164864781Y-80461866D01*
X164882024Y-80474654D01*
X164897930Y-80489070D01*
X164912346Y-80504976D01*
X164925134Y-80522219D01*
X164936170Y-80540632D01*
X164945349Y-80560038D01*
X164952581Y-80580250D01*
X164957797Y-80601074D01*
X164960947Y-80622309D01*
X164962000Y-80643750D01*
X164962000Y-81156250D01*
X164960947Y-81177691D01*
X164957797Y-81198926D01*
X164952581Y-81219750D01*
X164945349Y-81239962D01*
X164936170Y-81259368D01*
X164925134Y-81277781D01*
X164912346Y-81295024D01*
X164897930Y-81310930D01*
X164882024Y-81325346D01*
X164864781Y-81338134D01*
X164846368Y-81349170D01*
X164826962Y-81358349D01*
X164806750Y-81365581D01*
X164785926Y-81370797D01*
X164764691Y-81373947D01*
X164743250Y-81375000D01*
X164305750Y-81375000D01*
X164284309Y-81373947D01*
X164263074Y-81370797D01*
X164242250Y-81365581D01*
X164222038Y-81358349D01*
X164202632Y-81349170D01*
X164184219Y-81338134D01*
X164166976Y-81325346D01*
X164151070Y-81310930D01*
X164136654Y-81295024D01*
X164123866Y-81277781D01*
X164112830Y-81259368D01*
X164103651Y-81239962D01*
X164096419Y-81219750D01*
X164091203Y-81198926D01*
X164088053Y-81177691D01*
X164087000Y-81156250D01*
X164087000Y-80643750D01*
X164088053Y-80622309D01*
X164091203Y-80601074D01*
X164096419Y-80580250D01*
X164103651Y-80560038D01*
X164112830Y-80540632D01*
X164123866Y-80522219D01*
X164136654Y-80504976D01*
X164151070Y-80489070D01*
X164166976Y-80474654D01*
X164184219Y-80461866D01*
X164202632Y-80450830D01*
X164222038Y-80441651D01*
X164242250Y-80434419D01*
X164263074Y-80429203D01*
X164284309Y-80426053D01*
X164305750Y-80425000D01*
X164743250Y-80425000D01*
X164764691Y-80426053D01*
X164764691Y-80426053D01*
G37*
D17*
X164524500Y-80900000D03*
D10*
G36*
X166339691Y-80426053D02*
G01*
X166360926Y-80429203D01*
X166381750Y-80434419D01*
X166401962Y-80441651D01*
X166421368Y-80450830D01*
X166439781Y-80461866D01*
X166457024Y-80474654D01*
X166472930Y-80489070D01*
X166487346Y-80504976D01*
X166500134Y-80522219D01*
X166511170Y-80540632D01*
X166520349Y-80560038D01*
X166527581Y-80580250D01*
X166532797Y-80601074D01*
X166535947Y-80622309D01*
X166537000Y-80643750D01*
X166537000Y-81156250D01*
X166535947Y-81177691D01*
X166532797Y-81198926D01*
X166527581Y-81219750D01*
X166520349Y-81239962D01*
X166511170Y-81259368D01*
X166500134Y-81277781D01*
X166487346Y-81295024D01*
X166472930Y-81310930D01*
X166457024Y-81325346D01*
X166439781Y-81338134D01*
X166421368Y-81349170D01*
X166401962Y-81358349D01*
X166381750Y-81365581D01*
X166360926Y-81370797D01*
X166339691Y-81373947D01*
X166318250Y-81375000D01*
X165880750Y-81375000D01*
X165859309Y-81373947D01*
X165838074Y-81370797D01*
X165817250Y-81365581D01*
X165797038Y-81358349D01*
X165777632Y-81349170D01*
X165759219Y-81338134D01*
X165741976Y-81325346D01*
X165726070Y-81310930D01*
X165711654Y-81295024D01*
X165698866Y-81277781D01*
X165687830Y-81259368D01*
X165678651Y-81239962D01*
X165671419Y-81219750D01*
X165666203Y-81198926D01*
X165663053Y-81177691D01*
X165662000Y-81156250D01*
X165662000Y-80643750D01*
X165663053Y-80622309D01*
X165666203Y-80601074D01*
X165671419Y-80580250D01*
X165678651Y-80560038D01*
X165687830Y-80540632D01*
X165698866Y-80522219D01*
X165711654Y-80504976D01*
X165726070Y-80489070D01*
X165741976Y-80474654D01*
X165759219Y-80461866D01*
X165777632Y-80450830D01*
X165797038Y-80441651D01*
X165817250Y-80434419D01*
X165838074Y-80429203D01*
X165859309Y-80426053D01*
X165880750Y-80425000D01*
X166318250Y-80425000D01*
X166339691Y-80426053D01*
X166339691Y-80426053D01*
G37*
D17*
X166099500Y-80900000D03*
D10*
G36*
X169540691Y-82026053D02*
G01*
X169561926Y-82029203D01*
X169582750Y-82034419D01*
X169602962Y-82041651D01*
X169622368Y-82050830D01*
X169640781Y-82061866D01*
X169658024Y-82074654D01*
X169673930Y-82089070D01*
X169688346Y-82104976D01*
X169701134Y-82122219D01*
X169712170Y-82140632D01*
X169721349Y-82160038D01*
X169728581Y-82180250D01*
X169733797Y-82201074D01*
X169736947Y-82222309D01*
X169738000Y-82243750D01*
X169738000Y-82756250D01*
X169736947Y-82777691D01*
X169733797Y-82798926D01*
X169728581Y-82819750D01*
X169721349Y-82839962D01*
X169712170Y-82859368D01*
X169701134Y-82877781D01*
X169688346Y-82895024D01*
X169673930Y-82910930D01*
X169658024Y-82925346D01*
X169640781Y-82938134D01*
X169622368Y-82949170D01*
X169602962Y-82958349D01*
X169582750Y-82965581D01*
X169561926Y-82970797D01*
X169540691Y-82973947D01*
X169519250Y-82975000D01*
X169081750Y-82975000D01*
X169060309Y-82973947D01*
X169039074Y-82970797D01*
X169018250Y-82965581D01*
X168998038Y-82958349D01*
X168978632Y-82949170D01*
X168960219Y-82938134D01*
X168942976Y-82925346D01*
X168927070Y-82910930D01*
X168912654Y-82895024D01*
X168899866Y-82877781D01*
X168888830Y-82859368D01*
X168879651Y-82839962D01*
X168872419Y-82819750D01*
X168867203Y-82798926D01*
X168864053Y-82777691D01*
X168863000Y-82756250D01*
X168863000Y-82243750D01*
X168864053Y-82222309D01*
X168867203Y-82201074D01*
X168872419Y-82180250D01*
X168879651Y-82160038D01*
X168888830Y-82140632D01*
X168899866Y-82122219D01*
X168912654Y-82104976D01*
X168927070Y-82089070D01*
X168942976Y-82074654D01*
X168960219Y-82061866D01*
X168978632Y-82050830D01*
X168998038Y-82041651D01*
X169018250Y-82034419D01*
X169039074Y-82029203D01*
X169060309Y-82026053D01*
X169081750Y-82025000D01*
X169519250Y-82025000D01*
X169540691Y-82026053D01*
X169540691Y-82026053D01*
G37*
D17*
X169300500Y-82500000D03*
D10*
G36*
X171115691Y-82026053D02*
G01*
X171136926Y-82029203D01*
X171157750Y-82034419D01*
X171177962Y-82041651D01*
X171197368Y-82050830D01*
X171215781Y-82061866D01*
X171233024Y-82074654D01*
X171248930Y-82089070D01*
X171263346Y-82104976D01*
X171276134Y-82122219D01*
X171287170Y-82140632D01*
X171296349Y-82160038D01*
X171303581Y-82180250D01*
X171308797Y-82201074D01*
X171311947Y-82222309D01*
X171313000Y-82243750D01*
X171313000Y-82756250D01*
X171311947Y-82777691D01*
X171308797Y-82798926D01*
X171303581Y-82819750D01*
X171296349Y-82839962D01*
X171287170Y-82859368D01*
X171276134Y-82877781D01*
X171263346Y-82895024D01*
X171248930Y-82910930D01*
X171233024Y-82925346D01*
X171215781Y-82938134D01*
X171197368Y-82949170D01*
X171177962Y-82958349D01*
X171157750Y-82965581D01*
X171136926Y-82970797D01*
X171115691Y-82973947D01*
X171094250Y-82975000D01*
X170656750Y-82975000D01*
X170635309Y-82973947D01*
X170614074Y-82970797D01*
X170593250Y-82965581D01*
X170573038Y-82958349D01*
X170553632Y-82949170D01*
X170535219Y-82938134D01*
X170517976Y-82925346D01*
X170502070Y-82910930D01*
X170487654Y-82895024D01*
X170474866Y-82877781D01*
X170463830Y-82859368D01*
X170454651Y-82839962D01*
X170447419Y-82819750D01*
X170442203Y-82798926D01*
X170439053Y-82777691D01*
X170438000Y-82756250D01*
X170438000Y-82243750D01*
X170439053Y-82222309D01*
X170442203Y-82201074D01*
X170447419Y-82180250D01*
X170454651Y-82160038D01*
X170463830Y-82140632D01*
X170474866Y-82122219D01*
X170487654Y-82104976D01*
X170502070Y-82089070D01*
X170517976Y-82074654D01*
X170535219Y-82061866D01*
X170553632Y-82050830D01*
X170573038Y-82041651D01*
X170593250Y-82034419D01*
X170614074Y-82029203D01*
X170635309Y-82026053D01*
X170656750Y-82025000D01*
X171094250Y-82025000D01*
X171115691Y-82026053D01*
X171115691Y-82026053D01*
G37*
D17*
X170875500Y-82500000D03*
D10*
G36*
X175839691Y-82026053D02*
G01*
X175860926Y-82029203D01*
X175881750Y-82034419D01*
X175901962Y-82041651D01*
X175921368Y-82050830D01*
X175939781Y-82061866D01*
X175957024Y-82074654D01*
X175972930Y-82089070D01*
X175987346Y-82104976D01*
X176000134Y-82122219D01*
X176011170Y-82140632D01*
X176020349Y-82160038D01*
X176027581Y-82180250D01*
X176032797Y-82201074D01*
X176035947Y-82222309D01*
X176037000Y-82243750D01*
X176037000Y-82756250D01*
X176035947Y-82777691D01*
X176032797Y-82798926D01*
X176027581Y-82819750D01*
X176020349Y-82839962D01*
X176011170Y-82859368D01*
X176000134Y-82877781D01*
X175987346Y-82895024D01*
X175972930Y-82910930D01*
X175957024Y-82925346D01*
X175939781Y-82938134D01*
X175921368Y-82949170D01*
X175901962Y-82958349D01*
X175881750Y-82965581D01*
X175860926Y-82970797D01*
X175839691Y-82973947D01*
X175818250Y-82975000D01*
X175380750Y-82975000D01*
X175359309Y-82973947D01*
X175338074Y-82970797D01*
X175317250Y-82965581D01*
X175297038Y-82958349D01*
X175277632Y-82949170D01*
X175259219Y-82938134D01*
X175241976Y-82925346D01*
X175226070Y-82910930D01*
X175211654Y-82895024D01*
X175198866Y-82877781D01*
X175187830Y-82859368D01*
X175178651Y-82839962D01*
X175171419Y-82819750D01*
X175166203Y-82798926D01*
X175163053Y-82777691D01*
X175162000Y-82756250D01*
X175162000Y-82243750D01*
X175163053Y-82222309D01*
X175166203Y-82201074D01*
X175171419Y-82180250D01*
X175178651Y-82160038D01*
X175187830Y-82140632D01*
X175198866Y-82122219D01*
X175211654Y-82104976D01*
X175226070Y-82089070D01*
X175241976Y-82074654D01*
X175259219Y-82061866D01*
X175277632Y-82050830D01*
X175297038Y-82041651D01*
X175317250Y-82034419D01*
X175338074Y-82029203D01*
X175359309Y-82026053D01*
X175380750Y-82025000D01*
X175818250Y-82025000D01*
X175839691Y-82026053D01*
X175839691Y-82026053D01*
G37*
D17*
X175599500Y-82500000D03*
D10*
G36*
X174264691Y-82026053D02*
G01*
X174285926Y-82029203D01*
X174306750Y-82034419D01*
X174326962Y-82041651D01*
X174346368Y-82050830D01*
X174364781Y-82061866D01*
X174382024Y-82074654D01*
X174397930Y-82089070D01*
X174412346Y-82104976D01*
X174425134Y-82122219D01*
X174436170Y-82140632D01*
X174445349Y-82160038D01*
X174452581Y-82180250D01*
X174457797Y-82201074D01*
X174460947Y-82222309D01*
X174462000Y-82243750D01*
X174462000Y-82756250D01*
X174460947Y-82777691D01*
X174457797Y-82798926D01*
X174452581Y-82819750D01*
X174445349Y-82839962D01*
X174436170Y-82859368D01*
X174425134Y-82877781D01*
X174412346Y-82895024D01*
X174397930Y-82910930D01*
X174382024Y-82925346D01*
X174364781Y-82938134D01*
X174346368Y-82949170D01*
X174326962Y-82958349D01*
X174306750Y-82965581D01*
X174285926Y-82970797D01*
X174264691Y-82973947D01*
X174243250Y-82975000D01*
X173805750Y-82975000D01*
X173784309Y-82973947D01*
X173763074Y-82970797D01*
X173742250Y-82965581D01*
X173722038Y-82958349D01*
X173702632Y-82949170D01*
X173684219Y-82938134D01*
X173666976Y-82925346D01*
X173651070Y-82910930D01*
X173636654Y-82895024D01*
X173623866Y-82877781D01*
X173612830Y-82859368D01*
X173603651Y-82839962D01*
X173596419Y-82819750D01*
X173591203Y-82798926D01*
X173588053Y-82777691D01*
X173587000Y-82756250D01*
X173587000Y-82243750D01*
X173588053Y-82222309D01*
X173591203Y-82201074D01*
X173596419Y-82180250D01*
X173603651Y-82160038D01*
X173612830Y-82140632D01*
X173623866Y-82122219D01*
X173636654Y-82104976D01*
X173651070Y-82089070D01*
X173666976Y-82074654D01*
X173684219Y-82061866D01*
X173702632Y-82050830D01*
X173722038Y-82041651D01*
X173742250Y-82034419D01*
X173763074Y-82029203D01*
X173784309Y-82026053D01*
X173805750Y-82025000D01*
X174243250Y-82025000D01*
X174264691Y-82026053D01*
X174264691Y-82026053D01*
G37*
D17*
X174024500Y-82500000D03*
D10*
G36*
X171115691Y-80426053D02*
G01*
X171136926Y-80429203D01*
X171157750Y-80434419D01*
X171177962Y-80441651D01*
X171197368Y-80450830D01*
X171215781Y-80461866D01*
X171233024Y-80474654D01*
X171248930Y-80489070D01*
X171263346Y-80504976D01*
X171276134Y-80522219D01*
X171287170Y-80540632D01*
X171296349Y-80560038D01*
X171303581Y-80580250D01*
X171308797Y-80601074D01*
X171311947Y-80622309D01*
X171313000Y-80643750D01*
X171313000Y-81156250D01*
X171311947Y-81177691D01*
X171308797Y-81198926D01*
X171303581Y-81219750D01*
X171296349Y-81239962D01*
X171287170Y-81259368D01*
X171276134Y-81277781D01*
X171263346Y-81295024D01*
X171248930Y-81310930D01*
X171233024Y-81325346D01*
X171215781Y-81338134D01*
X171197368Y-81349170D01*
X171177962Y-81358349D01*
X171157750Y-81365581D01*
X171136926Y-81370797D01*
X171115691Y-81373947D01*
X171094250Y-81375000D01*
X170656750Y-81375000D01*
X170635309Y-81373947D01*
X170614074Y-81370797D01*
X170593250Y-81365581D01*
X170573038Y-81358349D01*
X170553632Y-81349170D01*
X170535219Y-81338134D01*
X170517976Y-81325346D01*
X170502070Y-81310930D01*
X170487654Y-81295024D01*
X170474866Y-81277781D01*
X170463830Y-81259368D01*
X170454651Y-81239962D01*
X170447419Y-81219750D01*
X170442203Y-81198926D01*
X170439053Y-81177691D01*
X170438000Y-81156250D01*
X170438000Y-80643750D01*
X170439053Y-80622309D01*
X170442203Y-80601074D01*
X170447419Y-80580250D01*
X170454651Y-80560038D01*
X170463830Y-80540632D01*
X170474866Y-80522219D01*
X170487654Y-80504976D01*
X170502070Y-80489070D01*
X170517976Y-80474654D01*
X170535219Y-80461866D01*
X170553632Y-80450830D01*
X170573038Y-80441651D01*
X170593250Y-80434419D01*
X170614074Y-80429203D01*
X170635309Y-80426053D01*
X170656750Y-80425000D01*
X171094250Y-80425000D01*
X171115691Y-80426053D01*
X171115691Y-80426053D01*
G37*
D17*
X170875500Y-80900000D03*
D10*
G36*
X169540691Y-80426053D02*
G01*
X169561926Y-80429203D01*
X169582750Y-80434419D01*
X169602962Y-80441651D01*
X169622368Y-80450830D01*
X169640781Y-80461866D01*
X169658024Y-80474654D01*
X169673930Y-80489070D01*
X169688346Y-80504976D01*
X169701134Y-80522219D01*
X169712170Y-80540632D01*
X169721349Y-80560038D01*
X169728581Y-80580250D01*
X169733797Y-80601074D01*
X169736947Y-80622309D01*
X169738000Y-80643750D01*
X169738000Y-81156250D01*
X169736947Y-81177691D01*
X169733797Y-81198926D01*
X169728581Y-81219750D01*
X169721349Y-81239962D01*
X169712170Y-81259368D01*
X169701134Y-81277781D01*
X169688346Y-81295024D01*
X169673930Y-81310930D01*
X169658024Y-81325346D01*
X169640781Y-81338134D01*
X169622368Y-81349170D01*
X169602962Y-81358349D01*
X169582750Y-81365581D01*
X169561926Y-81370797D01*
X169540691Y-81373947D01*
X169519250Y-81375000D01*
X169081750Y-81375000D01*
X169060309Y-81373947D01*
X169039074Y-81370797D01*
X169018250Y-81365581D01*
X168998038Y-81358349D01*
X168978632Y-81349170D01*
X168960219Y-81338134D01*
X168942976Y-81325346D01*
X168927070Y-81310930D01*
X168912654Y-81295024D01*
X168899866Y-81277781D01*
X168888830Y-81259368D01*
X168879651Y-81239962D01*
X168872419Y-81219750D01*
X168867203Y-81198926D01*
X168864053Y-81177691D01*
X168863000Y-81156250D01*
X168863000Y-80643750D01*
X168864053Y-80622309D01*
X168867203Y-80601074D01*
X168872419Y-80580250D01*
X168879651Y-80560038D01*
X168888830Y-80540632D01*
X168899866Y-80522219D01*
X168912654Y-80504976D01*
X168927070Y-80489070D01*
X168942976Y-80474654D01*
X168960219Y-80461866D01*
X168978632Y-80450830D01*
X168998038Y-80441651D01*
X169018250Y-80434419D01*
X169039074Y-80429203D01*
X169060309Y-80426053D01*
X169081750Y-80425000D01*
X169519250Y-80425000D01*
X169540691Y-80426053D01*
X169540691Y-80426053D01*
G37*
D17*
X169300500Y-80900000D03*
D10*
G36*
X174240691Y-80426053D02*
G01*
X174261926Y-80429203D01*
X174282750Y-80434419D01*
X174302962Y-80441651D01*
X174322368Y-80450830D01*
X174340781Y-80461866D01*
X174358024Y-80474654D01*
X174373930Y-80489070D01*
X174388346Y-80504976D01*
X174401134Y-80522219D01*
X174412170Y-80540632D01*
X174421349Y-80560038D01*
X174428581Y-80580250D01*
X174433797Y-80601074D01*
X174436947Y-80622309D01*
X174438000Y-80643750D01*
X174438000Y-81156250D01*
X174436947Y-81177691D01*
X174433797Y-81198926D01*
X174428581Y-81219750D01*
X174421349Y-81239962D01*
X174412170Y-81259368D01*
X174401134Y-81277781D01*
X174388346Y-81295024D01*
X174373930Y-81310930D01*
X174358024Y-81325346D01*
X174340781Y-81338134D01*
X174322368Y-81349170D01*
X174302962Y-81358349D01*
X174282750Y-81365581D01*
X174261926Y-81370797D01*
X174240691Y-81373947D01*
X174219250Y-81375000D01*
X173781750Y-81375000D01*
X173760309Y-81373947D01*
X173739074Y-81370797D01*
X173718250Y-81365581D01*
X173698038Y-81358349D01*
X173678632Y-81349170D01*
X173660219Y-81338134D01*
X173642976Y-81325346D01*
X173627070Y-81310930D01*
X173612654Y-81295024D01*
X173599866Y-81277781D01*
X173588830Y-81259368D01*
X173579651Y-81239962D01*
X173572419Y-81219750D01*
X173567203Y-81198926D01*
X173564053Y-81177691D01*
X173563000Y-81156250D01*
X173563000Y-80643750D01*
X173564053Y-80622309D01*
X173567203Y-80601074D01*
X173572419Y-80580250D01*
X173579651Y-80560038D01*
X173588830Y-80540632D01*
X173599866Y-80522219D01*
X173612654Y-80504976D01*
X173627070Y-80489070D01*
X173642976Y-80474654D01*
X173660219Y-80461866D01*
X173678632Y-80450830D01*
X173698038Y-80441651D01*
X173718250Y-80434419D01*
X173739074Y-80429203D01*
X173760309Y-80426053D01*
X173781750Y-80425000D01*
X174219250Y-80425000D01*
X174240691Y-80426053D01*
X174240691Y-80426053D01*
G37*
D17*
X174000500Y-80900000D03*
D10*
G36*
X175815691Y-80426053D02*
G01*
X175836926Y-80429203D01*
X175857750Y-80434419D01*
X175877962Y-80441651D01*
X175897368Y-80450830D01*
X175915781Y-80461866D01*
X175933024Y-80474654D01*
X175948930Y-80489070D01*
X175963346Y-80504976D01*
X175976134Y-80522219D01*
X175987170Y-80540632D01*
X175996349Y-80560038D01*
X176003581Y-80580250D01*
X176008797Y-80601074D01*
X176011947Y-80622309D01*
X176013000Y-80643750D01*
X176013000Y-81156250D01*
X176011947Y-81177691D01*
X176008797Y-81198926D01*
X176003581Y-81219750D01*
X175996349Y-81239962D01*
X175987170Y-81259368D01*
X175976134Y-81277781D01*
X175963346Y-81295024D01*
X175948930Y-81310930D01*
X175933024Y-81325346D01*
X175915781Y-81338134D01*
X175897368Y-81349170D01*
X175877962Y-81358349D01*
X175857750Y-81365581D01*
X175836926Y-81370797D01*
X175815691Y-81373947D01*
X175794250Y-81375000D01*
X175356750Y-81375000D01*
X175335309Y-81373947D01*
X175314074Y-81370797D01*
X175293250Y-81365581D01*
X175273038Y-81358349D01*
X175253632Y-81349170D01*
X175235219Y-81338134D01*
X175217976Y-81325346D01*
X175202070Y-81310930D01*
X175187654Y-81295024D01*
X175174866Y-81277781D01*
X175163830Y-81259368D01*
X175154651Y-81239962D01*
X175147419Y-81219750D01*
X175142203Y-81198926D01*
X175139053Y-81177691D01*
X175138000Y-81156250D01*
X175138000Y-80643750D01*
X175139053Y-80622309D01*
X175142203Y-80601074D01*
X175147419Y-80580250D01*
X175154651Y-80560038D01*
X175163830Y-80540632D01*
X175174866Y-80522219D01*
X175187654Y-80504976D01*
X175202070Y-80489070D01*
X175217976Y-80474654D01*
X175235219Y-80461866D01*
X175253632Y-80450830D01*
X175273038Y-80441651D01*
X175293250Y-80434419D01*
X175314074Y-80429203D01*
X175335309Y-80426053D01*
X175356750Y-80425000D01*
X175794250Y-80425000D01*
X175815691Y-80426053D01*
X175815691Y-80426053D01*
G37*
D17*
X175575500Y-80900000D03*
D18*
X163150118Y-91946918D03*
X160811400Y-89819300D03*
X164068900Y-94045000D03*
X164780000Y-93362800D03*
X153800000Y-82900000D03*
X149000000Y-89300000D03*
X158200000Y-83000000D03*
X168143400Y-91973400D03*
X169028600Y-91131600D03*
D19*
X163345400Y-92142100D02*
X163300000Y-92187500D01*
X163300000Y-92187500D02*
X163300000Y-95410600D01*
X163750000Y-91737500D02*
X163345400Y-92142100D01*
X168656000Y-85456500D02*
X172269700Y-89070200D01*
X172269700Y-89070200D02*
X172269700Y-89500000D01*
X168656000Y-85456500D02*
X169300000Y-84812500D01*
X169300000Y-84812500D02*
X169300000Y-84756200D01*
X167250000Y-86862500D02*
X168656000Y-85456500D01*
X173500000Y-89500000D02*
X172269700Y-89500000D01*
X167658700Y-94183700D02*
X172269700Y-89572700D01*
X172269700Y-89572700D02*
X172269700Y-89500000D01*
X167658700Y-94183700D02*
X168175000Y-94700000D01*
X168175000Y-94700000D02*
X168900000Y-94700000D01*
X168900000Y-94700000D02*
X169438000Y-95238400D01*
X169438000Y-95238400D02*
X169900000Y-95700000D01*
X165750000Y-91737500D02*
X165750000Y-92275000D01*
X165750000Y-92275000D02*
X167658700Y-94183700D01*
X163300000Y-95410600D02*
X165239400Y-97350000D01*
X165239400Y-97350000D02*
X166624500Y-97350000D01*
X163300000Y-95410600D02*
X163300000Y-95700000D01*
X157800000Y-89810300D02*
X157950000Y-89960300D01*
X157950000Y-89960300D02*
X157950000Y-90882500D01*
X157800000Y-88950000D02*
X157800000Y-89810300D01*
X169300000Y-84756200D02*
X169300500Y-84755700D01*
X169300500Y-84755700D02*
X169300500Y-84700000D01*
X169300000Y-84756200D02*
X169300000Y-84700000D01*
X157182500Y-91650000D02*
X157950000Y-90882500D01*
X154190100Y-91650000D02*
X157182500Y-91650000D01*
X152500000Y-81680300D02*
X150400000Y-83780300D01*
X152500000Y-80500000D02*
X152500000Y-81680300D01*
X150400000Y-92000000D02*
X151400000Y-93000000D01*
X151400000Y-93000000D02*
X152840100Y-93000000D01*
X150400000Y-83780300D02*
X150400000Y-92000000D01*
X152840100Y-93000000D02*
X154190100Y-91650000D01*
X163150218Y-91946918D02*
X163150118Y-91946918D01*
X163345400Y-92142100D02*
X163150218Y-91946918D01*
D20*
X155750000Y-90862500D02*
X155900000Y-90712500D01*
X155900000Y-90712500D02*
X155900000Y-88950000D01*
X160811400Y-89819300D02*
X161042100Y-90050000D01*
X161042100Y-90050000D02*
X163062500Y-90050000D01*
X163062500Y-89550000D02*
X161671900Y-89550000D01*
X161671900Y-89550000D02*
X160236400Y-88114500D01*
X160236400Y-88114500D02*
X155385500Y-88114500D01*
X155385500Y-88114500D02*
X152000000Y-91500000D01*
X164250000Y-91737500D02*
X164250000Y-92861800D01*
X164250000Y-92861800D02*
X164068900Y-93042900D01*
X164068900Y-93042900D02*
X164068900Y-94045000D01*
X164750000Y-91737500D02*
X164750000Y-93332800D01*
X164750000Y-93332800D02*
X164780000Y-93362800D01*
X160120000Y-80500000D02*
X160120000Y-81655300D01*
X160120000Y-81655300D02*
X164250000Y-85785300D01*
X164250000Y-85785300D02*
X164250000Y-86862500D01*
X167390100Y-97857800D02*
X167390100Y-96539600D01*
X167390100Y-96539600D02*
X166600500Y-95750000D01*
X160580000Y-97500000D02*
X163075000Y-97500000D01*
X163075000Y-97500000D02*
X163300000Y-97275000D01*
X164886400Y-89913600D02*
X165500000Y-89300000D01*
X163062500Y-91050000D02*
X163132000Y-90980500D01*
X163132000Y-90980500D02*
X163819500Y-90980500D01*
X163819500Y-90980500D02*
X164886400Y-89913600D01*
X164886400Y-89913600D02*
X166250000Y-91277300D01*
X166250000Y-91277300D02*
X166250000Y-91737500D01*
X159700000Y-92457500D02*
X157950000Y-92457500D01*
X156362500Y-82872800D02*
X157580000Y-81655300D01*
X156362500Y-85050000D02*
X156362500Y-82872800D01*
X157950000Y-92457500D02*
X155770000Y-92457500D01*
X155770000Y-92457500D02*
X155750000Y-92437500D01*
X156173900Y-85238600D02*
X156362500Y-85050000D01*
X157580000Y-80500000D02*
X157580000Y-81655300D01*
X156173900Y-85238600D02*
X156850000Y-85914700D01*
X171677300Y-84378100D02*
X171197400Y-84378100D01*
X171197400Y-84378100D02*
X170875500Y-84700000D01*
X170875500Y-80900000D02*
X171677300Y-81701800D01*
X171677300Y-81701800D02*
X171677300Y-84378100D01*
X165500000Y-89300000D02*
X167194500Y-87605500D01*
X167194500Y-87605500D02*
X167882000Y-87605500D01*
X167882000Y-87605500D02*
X167937500Y-87550000D01*
X156850000Y-86750000D02*
X156850000Y-85914700D01*
X153827200Y-82872800D02*
X153800000Y-82900000D01*
X155927200Y-82872800D02*
X153827200Y-82872800D01*
X155927200Y-82872800D02*
X156362500Y-82872800D01*
X155710700Y-82872800D02*
X155927200Y-82872800D01*
X169975500Y-80000000D02*
X170875500Y-80900000D01*
X166099500Y-80900000D02*
X166999500Y-80000000D01*
X166999500Y-80000000D02*
X169975500Y-80000000D01*
X175000000Y-85000000D02*
X174378100Y-84378100D01*
X173500000Y-91500000D02*
X175000000Y-90000000D01*
X175000000Y-90000000D02*
X175000000Y-85000000D01*
X171855400Y-84200000D02*
X171677300Y-84378100D01*
X174378100Y-84378100D02*
X174200000Y-84200000D01*
X174200000Y-84200000D02*
X171855400Y-84200000D01*
X174521900Y-84378100D02*
X174378100Y-84378100D01*
X174812000Y-84088000D02*
X174521900Y-84378100D01*
X175575500Y-80900000D02*
X174812000Y-81663500D01*
X174812000Y-81663500D02*
X174812000Y-84088000D01*
X167390100Y-98109900D02*
X167390100Y-97857800D01*
X167200000Y-98300000D02*
X167390100Y-98109900D01*
X163300000Y-97275000D02*
X164325000Y-98300000D01*
X164325000Y-98300000D02*
X167200000Y-98300000D01*
X167390100Y-98190100D02*
X167390100Y-97857800D01*
X167500000Y-98300000D02*
X167390100Y-98190100D01*
X169900000Y-97275000D02*
X168875000Y-98300000D01*
X168875000Y-98300000D02*
X167500000Y-98300000D01*
X155000000Y-85500000D02*
X152000000Y-85500000D01*
X155500000Y-85000000D02*
X155000000Y-85500000D01*
X156173900Y-85238600D02*
X155935300Y-85000000D01*
X155935300Y-85000000D02*
X155500000Y-85000000D01*
X171125000Y-97275000D02*
X169900000Y-97275000D01*
X173500000Y-91500000D02*
X173500000Y-94900000D01*
X173500000Y-94900000D02*
X171125000Y-97275000D01*
X155800000Y-92487500D02*
X155800000Y-93500000D01*
X155750000Y-92437500D02*
X155800000Y-92487500D01*
X155750000Y-93450000D02*
X155750000Y-92437500D01*
X154800000Y-94400000D02*
X155750000Y-93450000D01*
X151300000Y-94400000D02*
X154800000Y-94400000D01*
X149000000Y-89300000D02*
X149000000Y-92100000D01*
X149000000Y-92100000D02*
X151300000Y-94400000D01*
X160800000Y-93300000D02*
X163050000Y-91050000D01*
X163050000Y-91050000D02*
X163062500Y-91050000D01*
X159700000Y-93600000D02*
X159700000Y-92457500D01*
X160580000Y-96344700D02*
X160337700Y-96102400D01*
X160580000Y-97500000D02*
X160580000Y-96344700D01*
X160337700Y-96102400D02*
X160337700Y-93562300D01*
X160337700Y-93562300D02*
X159870700Y-93562300D01*
X159870700Y-93562300D02*
X159833000Y-93600000D01*
X159833000Y-93600000D02*
X159700000Y-93600000D01*
D19*
X157800000Y-86750000D02*
X157800000Y-87610300D01*
X157800000Y-87610300D02*
X155900000Y-87610300D01*
X157937500Y-85050000D02*
X157800000Y-85187500D01*
X157800000Y-85187500D02*
X157800000Y-86750000D01*
X155900000Y-86750000D02*
X155900000Y-87610300D01*
X152000000Y-87500000D02*
X153230300Y-87500000D01*
X153230300Y-87500000D02*
X153340600Y-87610300D01*
X153340600Y-87610300D02*
X155900000Y-87610300D01*
D20*
X168175700Y-95749800D02*
X168176000Y-95750000D01*
X168176000Y-95750000D02*
X168176000Y-97326000D01*
X168176000Y-97326000D02*
X168199500Y-97349500D01*
X165250000Y-91737500D02*
X165250000Y-92824500D01*
X165250000Y-92824500D02*
X168175700Y-95749800D01*
X168175500Y-95750000D02*
X168175700Y-95749800D01*
X168199500Y-97349500D02*
X168199500Y-97350000D01*
X168199500Y-97349500D02*
X168200000Y-97350000D01*
X164524500Y-82600000D02*
X164524500Y-80900000D01*
X159887500Y-83000000D02*
X158200000Y-83000000D01*
X159893750Y-83006250D02*
X159887500Y-83000000D01*
X159893750Y-83006250D02*
X163750000Y-86862500D01*
X168143400Y-91973400D02*
X167937500Y-91767500D01*
X167937500Y-91767500D02*
X167937500Y-91050000D01*
X169028600Y-91131600D02*
X168447000Y-90550000D01*
X168447000Y-90550000D02*
X167937500Y-90550000D01*
X159700000Y-90882500D02*
X160032500Y-90550000D01*
X160032500Y-90550000D02*
X163062500Y-90550000D01*
X166099500Y-82600000D02*
X166250000Y-82750500D01*
X166250000Y-82750500D02*
X166250000Y-86862500D01*
X169300500Y-82500000D02*
X169300500Y-80900000D01*
X170875500Y-82500000D02*
X170070400Y-83305100D01*
X170070400Y-83305100D02*
X168838700Y-83305100D01*
X168838700Y-83305100D02*
X167283600Y-81750000D01*
X167283600Y-81750000D02*
X165717200Y-81750000D01*
X165717200Y-81750000D02*
X165355800Y-82111400D01*
X165355800Y-82111400D02*
X165355800Y-84434300D01*
X165355800Y-84434300D02*
X165750000Y-84828500D01*
X165750000Y-84828500D02*
X165750000Y-86862500D01*
X165250000Y-85071900D02*
X165250000Y-86862500D01*
X163500000Y-83321900D02*
X165250000Y-85071900D01*
X176500000Y-81599500D02*
X176500000Y-80200000D01*
X176500000Y-80200000D02*
X175800000Y-79500000D01*
X175800000Y-79500000D02*
X164496100Y-79500000D01*
X175599500Y-82500000D02*
X176500000Y-81599500D01*
X164496100Y-79500000D02*
X163500000Y-80496100D01*
X163500000Y-80496100D02*
X163500000Y-83321900D01*
X174024500Y-82500000D02*
X174000500Y-82476000D01*
X174000500Y-82476000D02*
X174000500Y-80900000D01*
D21*
G36*
X178065424Y-79669580D02*
G01*
X178128356Y-79688580D01*
X178186405Y-79719445D01*
X178237343Y-79760989D01*
X178279248Y-79811644D01*
X178310515Y-79869471D01*
X178329956Y-79932272D01*
X178340000Y-80027835D01*
X178340001Y-97967711D01*
X178330420Y-98065424D01*
X178311420Y-98128357D01*
X178280554Y-98186406D01*
X178239011Y-98237343D01*
X178188356Y-98279248D01*
X178130529Y-98310515D01*
X178067728Y-98329956D01*
X177972165Y-98340000D01*
X170482343Y-98340000D01*
X170499482Y-98338312D01*
X170619180Y-98302002D01*
X170729494Y-98243037D01*
X170826185Y-98163685D01*
X170905537Y-98066994D01*
X170964502Y-97956680D01*
X171000812Y-97836982D01*
X171013072Y-97712500D01*
X171010000Y-97560750D01*
X170851250Y-97402000D01*
X170027000Y-97402000D01*
X170027000Y-97422000D01*
X169773000Y-97422000D01*
X169773000Y-97402000D01*
X169753000Y-97402000D01*
X169753000Y-97148000D01*
X169773000Y-97148000D01*
X169773000Y-97128000D01*
X170027000Y-97128000D01*
X170027000Y-97148000D01*
X170851250Y-97148000D01*
X171010000Y-96989250D01*
X171013072Y-96837500D01*
X171000812Y-96713018D01*
X170964502Y-96593320D01*
X170905537Y-96483006D01*
X170850900Y-96416430D01*
X170868671Y-96394775D01*
X170947850Y-96246642D01*
X170996608Y-96085908D01*
X171013072Y-95918750D01*
X171013072Y-95481250D01*
X170996608Y-95314092D01*
X170947850Y-95153358D01*
X170868671Y-95005225D01*
X170762115Y-94875385D01*
X170632275Y-94768829D01*
X170484142Y-94689650D01*
X170323408Y-94640892D01*
X170156250Y-94624428D01*
X169934229Y-94624428D01*
X169482440Y-94172304D01*
X169457764Y-94142236D01*
X169396219Y-94091727D01*
X169338475Y-94044302D01*
X169338354Y-94044237D01*
X169338233Y-94044138D01*
X169266857Y-94005987D01*
X169202130Y-93971359D01*
X169201994Y-93971318D01*
X169201860Y-93971246D01*
X169126898Y-93948507D01*
X169054174Y-93926416D01*
X169054027Y-93926401D01*
X169053887Y-93926359D01*
X169028681Y-93923876D01*
X171109487Y-91843070D01*
X172007780Y-91843070D01*
X172097476Y-92095068D01*
X172237865Y-92330330D01*
X172421454Y-92533683D01*
X172641188Y-92697312D01*
X172888622Y-92814929D01*
X173154248Y-92882014D01*
X173373000Y-92738749D01*
X173373000Y-91627000D01*
X173627000Y-91627000D01*
X173627000Y-92738749D01*
X173845752Y-92882014D01*
X174111378Y-92814929D01*
X174358812Y-92697312D01*
X174578546Y-92533683D01*
X174762135Y-92330330D01*
X174902524Y-92095068D01*
X174992220Y-91843070D01*
X174869720Y-91627000D01*
X173627000Y-91627000D01*
X173373000Y-91627000D01*
X172130280Y-91627000D01*
X172007780Y-91843070D01*
X171109487Y-91843070D01*
X172171243Y-90781314D01*
X172097476Y-90904932D01*
X172007780Y-91156930D01*
X172130280Y-91373000D01*
X173373000Y-91373000D01*
X173373000Y-91353000D01*
X173627000Y-91353000D01*
X173627000Y-91373000D01*
X174869720Y-91373000D01*
X174992220Y-91156930D01*
X174902524Y-90904932D01*
X174762135Y-90669670D01*
X174614337Y-90505961D01*
X174630608Y-90492608D01*
X174805183Y-90279887D01*
X174934904Y-90037195D01*
X175014786Y-89773860D01*
X175041759Y-89500000D01*
X175014786Y-89226140D01*
X174934904Y-88962805D01*
X174805183Y-88720113D01*
X174630608Y-88507392D01*
X174621601Y-88500000D01*
X174630608Y-88492608D01*
X174805183Y-88279887D01*
X174934904Y-88037195D01*
X175014786Y-87773860D01*
X175041759Y-87500000D01*
X175014786Y-87226140D01*
X174934904Y-86962805D01*
X174805183Y-86720113D01*
X174630608Y-86507392D01*
X174621601Y-86500000D01*
X174630608Y-86492608D01*
X174805183Y-86279887D01*
X174934904Y-86037195D01*
X175014786Y-85773860D01*
X175041759Y-85500000D01*
X175014786Y-85226140D01*
X174934904Y-84962805D01*
X174805183Y-84720113D01*
X174630608Y-84507392D01*
X174417887Y-84332817D01*
X174175195Y-84203096D01*
X173911860Y-84123214D01*
X173706625Y-84103000D01*
X173293375Y-84103000D01*
X173088140Y-84123214D01*
X172824805Y-84203096D01*
X172582113Y-84332817D01*
X172369392Y-84507392D01*
X172194817Y-84720113D01*
X172065096Y-84962805D01*
X171985214Y-85226140D01*
X171958241Y-85500000D01*
X171985214Y-85773860D01*
X172065096Y-86037195D01*
X172194817Y-86279887D01*
X172369392Y-86492608D01*
X172378399Y-86500000D01*
X172369392Y-86507392D01*
X172194817Y-86720113D01*
X172065096Y-86962805D01*
X171985214Y-87226140D01*
X171958241Y-87500000D01*
X171974474Y-87664817D01*
X169984231Y-85674574D01*
X169995275Y-85668671D01*
X170016930Y-85650900D01*
X170083506Y-85705537D01*
X170193820Y-85764502D01*
X170313518Y-85800812D01*
X170438000Y-85813072D01*
X170589750Y-85810000D01*
X170748500Y-85651250D01*
X170748500Y-84827000D01*
X171002500Y-84827000D01*
X171002500Y-85651250D01*
X171161250Y-85810000D01*
X171313000Y-85813072D01*
X171437482Y-85800812D01*
X171557180Y-85764502D01*
X171667494Y-85705537D01*
X171764185Y-85626185D01*
X171843537Y-85529494D01*
X171902502Y-85419180D01*
X171938812Y-85299482D01*
X171951072Y-85175000D01*
X171948000Y-84985750D01*
X171789250Y-84827000D01*
X171002500Y-84827000D01*
X170748500Y-84827000D01*
X170728500Y-84827000D01*
X170728500Y-84573000D01*
X170748500Y-84573000D01*
X170748500Y-84553000D01*
X171002500Y-84553000D01*
X171002500Y-84573000D01*
X171789250Y-84573000D01*
X171948000Y-84414250D01*
X171951072Y-84225000D01*
X171938812Y-84100518D01*
X171902502Y-83980820D01*
X171843537Y-83870506D01*
X171764185Y-83773815D01*
X171667494Y-83694463D01*
X171557180Y-83635498D01*
X171437482Y-83599188D01*
X171313000Y-83586928D01*
X171291911Y-83587355D01*
X171422142Y-83547850D01*
X171570275Y-83468671D01*
X171700115Y-83362115D01*
X171806671Y-83232275D01*
X171885850Y-83084142D01*
X171934608Y-82923408D01*
X171951072Y-82756250D01*
X171951072Y-82243750D01*
X171934608Y-82076592D01*
X171885850Y-81915858D01*
X171808837Y-81771777D01*
X171843537Y-81729494D01*
X171902502Y-81619180D01*
X171938812Y-81499482D01*
X171951072Y-81375000D01*
X171948000Y-81185750D01*
X171789250Y-81027000D01*
X171002500Y-81027000D01*
X171002500Y-81047000D01*
X170748500Y-81047000D01*
X170748500Y-81027000D01*
X170728500Y-81027000D01*
X170728500Y-80773000D01*
X170748500Y-80773000D01*
X170748500Y-80753000D01*
X171002500Y-80753000D01*
X171002500Y-80773000D01*
X171789250Y-80773000D01*
X171948000Y-80614250D01*
X171951072Y-80425000D01*
X171938812Y-80300518D01*
X171926521Y-80260000D01*
X173020007Y-80260000D01*
X172990150Y-80315858D01*
X172941392Y-80476592D01*
X172924928Y-80643750D01*
X172924928Y-81156250D01*
X172941392Y-81323408D01*
X172990150Y-81484142D01*
X173069329Y-81632275D01*
X173136909Y-81714622D01*
X173093329Y-81767725D01*
X173014150Y-81915858D01*
X172965392Y-82076592D01*
X172948928Y-82243750D01*
X172948928Y-82756250D01*
X172965392Y-82923408D01*
X173014150Y-83084142D01*
X173093329Y-83232275D01*
X173199885Y-83362115D01*
X173329725Y-83468671D01*
X173477858Y-83547850D01*
X173638592Y-83596608D01*
X173805750Y-83613072D01*
X174243250Y-83613072D01*
X174410408Y-83596608D01*
X174571142Y-83547850D01*
X174719275Y-83468671D01*
X174812000Y-83392574D01*
X174904725Y-83468671D01*
X175052858Y-83547850D01*
X175213592Y-83596608D01*
X175380750Y-83613072D01*
X175818250Y-83613072D01*
X175985408Y-83596608D01*
X176146142Y-83547850D01*
X176294275Y-83468671D01*
X176424115Y-83362115D01*
X176530671Y-83232275D01*
X176609850Y-83084142D01*
X176658608Y-82923408D01*
X176675072Y-82756250D01*
X176675072Y-82499230D01*
X177011004Y-82163298D01*
X177040001Y-82139501D01*
X177134974Y-82023776D01*
X177205546Y-81891747D01*
X177249003Y-81748486D01*
X177260000Y-81636833D01*
X177260000Y-81636824D01*
X177263676Y-81599501D01*
X177260000Y-81562178D01*
X177260000Y-80237322D01*
X177263676Y-80199999D01*
X177260000Y-80162676D01*
X177260000Y-80162667D01*
X177249003Y-80051014D01*
X177205546Y-79907753D01*
X177134974Y-79775724D01*
X177113719Y-79749825D01*
X177063799Y-79688996D01*
X177063795Y-79688992D01*
X177040002Y-79660000D01*
X177967721Y-79660000D01*
X178065424Y-79669580D01*
X178065424Y-79669580D01*
G37*
X178065424Y-79669580D02*
X178128356Y-79688580D01*
X178186405Y-79719445D01*
X178237343Y-79760989D01*
X178279248Y-79811644D01*
X178310515Y-79869471D01*
X178329956Y-79932272D01*
X178340000Y-80027835D01*
X178340001Y-97967711D01*
X178330420Y-98065424D01*
X178311420Y-98128357D01*
X178280554Y-98186406D01*
X178239011Y-98237343D01*
X178188356Y-98279248D01*
X178130529Y-98310515D01*
X178067728Y-98329956D01*
X177972165Y-98340000D01*
X170482343Y-98340000D01*
X170499482Y-98338312D01*
X170619180Y-98302002D01*
X170729494Y-98243037D01*
X170826185Y-98163685D01*
X170905537Y-98066994D01*
X170964502Y-97956680D01*
X171000812Y-97836982D01*
X171013072Y-97712500D01*
X171010000Y-97560750D01*
X170851250Y-97402000D01*
X170027000Y-97402000D01*
X170027000Y-97422000D01*
X169773000Y-97422000D01*
X169773000Y-97402000D01*
X169753000Y-97402000D01*
X169753000Y-97148000D01*
X169773000Y-97148000D01*
X169773000Y-97128000D01*
X170027000Y-97128000D01*
X170027000Y-97148000D01*
X170851250Y-97148000D01*
X171010000Y-96989250D01*
X171013072Y-96837500D01*
X171000812Y-96713018D01*
X170964502Y-96593320D01*
X170905537Y-96483006D01*
X170850900Y-96416430D01*
X170868671Y-96394775D01*
X170947850Y-96246642D01*
X170996608Y-96085908D01*
X171013072Y-95918750D01*
X171013072Y-95481250D01*
X170996608Y-95314092D01*
X170947850Y-95153358D01*
X170868671Y-95005225D01*
X170762115Y-94875385D01*
X170632275Y-94768829D01*
X170484142Y-94689650D01*
X170323408Y-94640892D01*
X170156250Y-94624428D01*
X169934229Y-94624428D01*
X169482440Y-94172304D01*
X169457764Y-94142236D01*
X169396219Y-94091727D01*
X169338475Y-94044302D01*
X169338354Y-94044237D01*
X169338233Y-94044138D01*
X169266857Y-94005987D01*
X169202130Y-93971359D01*
X169201994Y-93971318D01*
X169201860Y-93971246D01*
X169126898Y-93948507D01*
X169054174Y-93926416D01*
X169054027Y-93926401D01*
X169053887Y-93926359D01*
X169028681Y-93923876D01*
X171109487Y-91843070D01*
X172007780Y-91843070D01*
X172097476Y-92095068D01*
X172237865Y-92330330D01*
X172421454Y-92533683D01*
X172641188Y-92697312D01*
X172888622Y-92814929D01*
X173154248Y-92882014D01*
X173373000Y-92738749D01*
X173373000Y-91627000D01*
X173627000Y-91627000D01*
X173627000Y-92738749D01*
X173845752Y-92882014D01*
X174111378Y-92814929D01*
X174358812Y-92697312D01*
X174578546Y-92533683D01*
X174762135Y-92330330D01*
X174902524Y-92095068D01*
X174992220Y-91843070D01*
X174869720Y-91627000D01*
X173627000Y-91627000D01*
X173373000Y-91627000D01*
X172130280Y-91627000D01*
X172007780Y-91843070D01*
X171109487Y-91843070D01*
X172171243Y-90781314D01*
X172097476Y-90904932D01*
X172007780Y-91156930D01*
X172130280Y-91373000D01*
X173373000Y-91373000D01*
X173373000Y-91353000D01*
X173627000Y-91353000D01*
X173627000Y-91373000D01*
X174869720Y-91373000D01*
X174992220Y-91156930D01*
X174902524Y-90904932D01*
X174762135Y-90669670D01*
X174614337Y-90505961D01*
X174630608Y-90492608D01*
X174805183Y-90279887D01*
X174934904Y-90037195D01*
X175014786Y-89773860D01*
X175041759Y-89500000D01*
X175014786Y-89226140D01*
X174934904Y-88962805D01*
X174805183Y-88720113D01*
X174630608Y-88507392D01*
X174621601Y-88500000D01*
X174630608Y-88492608D01*
X174805183Y-88279887D01*
X174934904Y-88037195D01*
X175014786Y-87773860D01*
X175041759Y-87500000D01*
X175014786Y-87226140D01*
X174934904Y-86962805D01*
X174805183Y-86720113D01*
X174630608Y-86507392D01*
X174621601Y-86500000D01*
X174630608Y-86492608D01*
X174805183Y-86279887D01*
X174934904Y-86037195D01*
X175014786Y-85773860D01*
X175041759Y-85500000D01*
X175014786Y-85226140D01*
X174934904Y-84962805D01*
X174805183Y-84720113D01*
X174630608Y-84507392D01*
X174417887Y-84332817D01*
X174175195Y-84203096D01*
X173911860Y-84123214D01*
X173706625Y-84103000D01*
X173293375Y-84103000D01*
X173088140Y-84123214D01*
X172824805Y-84203096D01*
X172582113Y-84332817D01*
X172369392Y-84507392D01*
X172194817Y-84720113D01*
X172065096Y-84962805D01*
X171985214Y-85226140D01*
X171958241Y-85500000D01*
X171985214Y-85773860D01*
X172065096Y-86037195D01*
X172194817Y-86279887D01*
X172369392Y-86492608D01*
X172378399Y-86500000D01*
X172369392Y-86507392D01*
X172194817Y-86720113D01*
X172065096Y-86962805D01*
X171985214Y-87226140D01*
X171958241Y-87500000D01*
X171974474Y-87664817D01*
X169984231Y-85674574D01*
X169995275Y-85668671D01*
X170016930Y-85650900D01*
X170083506Y-85705537D01*
X170193820Y-85764502D01*
X170313518Y-85800812D01*
X170438000Y-85813072D01*
X170589750Y-85810000D01*
X170748500Y-85651250D01*
X170748500Y-84827000D01*
X171002500Y-84827000D01*
X171002500Y-85651250D01*
X171161250Y-85810000D01*
X171313000Y-85813072D01*
X171437482Y-85800812D01*
X171557180Y-85764502D01*
X171667494Y-85705537D01*
X171764185Y-85626185D01*
X171843537Y-85529494D01*
X171902502Y-85419180D01*
X171938812Y-85299482D01*
X171951072Y-85175000D01*
X171948000Y-84985750D01*
X171789250Y-84827000D01*
X171002500Y-84827000D01*
X170748500Y-84827000D01*
X170728500Y-84827000D01*
X170728500Y-84573000D01*
X170748500Y-84573000D01*
X170748500Y-84553000D01*
X171002500Y-84553000D01*
X171002500Y-84573000D01*
X171789250Y-84573000D01*
X171948000Y-84414250D01*
X171951072Y-84225000D01*
X171938812Y-84100518D01*
X171902502Y-83980820D01*
X171843537Y-83870506D01*
X171764185Y-83773815D01*
X171667494Y-83694463D01*
X171557180Y-83635498D01*
X171437482Y-83599188D01*
X171313000Y-83586928D01*
X171291911Y-83587355D01*
X171422142Y-83547850D01*
X171570275Y-83468671D01*
X171700115Y-83362115D01*
X171806671Y-83232275D01*
X171885850Y-83084142D01*
X171934608Y-82923408D01*
X171951072Y-82756250D01*
X171951072Y-82243750D01*
X171934608Y-82076592D01*
X171885850Y-81915858D01*
X171808837Y-81771777D01*
X171843537Y-81729494D01*
X171902502Y-81619180D01*
X171938812Y-81499482D01*
X171951072Y-81375000D01*
X171948000Y-81185750D01*
X171789250Y-81027000D01*
X171002500Y-81027000D01*
X171002500Y-81047000D01*
X170748500Y-81047000D01*
X170748500Y-81027000D01*
X170728500Y-81027000D01*
X170728500Y-80773000D01*
X170748500Y-80773000D01*
X170748500Y-80753000D01*
X171002500Y-80753000D01*
X171002500Y-80773000D01*
X171789250Y-80773000D01*
X171948000Y-80614250D01*
X171951072Y-80425000D01*
X171938812Y-80300518D01*
X171926521Y-80260000D01*
X173020007Y-80260000D01*
X172990150Y-80315858D01*
X172941392Y-80476592D01*
X172924928Y-80643750D01*
X172924928Y-81156250D01*
X172941392Y-81323408D01*
X172990150Y-81484142D01*
X173069329Y-81632275D01*
X173136909Y-81714622D01*
X173093329Y-81767725D01*
X173014150Y-81915858D01*
X172965392Y-82076592D01*
X172948928Y-82243750D01*
X172948928Y-82756250D01*
X172965392Y-82923408D01*
X173014150Y-83084142D01*
X173093329Y-83232275D01*
X173199885Y-83362115D01*
X173329725Y-83468671D01*
X173477858Y-83547850D01*
X173638592Y-83596608D01*
X173805750Y-83613072D01*
X174243250Y-83613072D01*
X174410408Y-83596608D01*
X174571142Y-83547850D01*
X174719275Y-83468671D01*
X174812000Y-83392574D01*
X174904725Y-83468671D01*
X175052858Y-83547850D01*
X175213592Y-83596608D01*
X175380750Y-83613072D01*
X175818250Y-83613072D01*
X175985408Y-83596608D01*
X176146142Y-83547850D01*
X176294275Y-83468671D01*
X176424115Y-83362115D01*
X176530671Y-83232275D01*
X176609850Y-83084142D01*
X176658608Y-82923408D01*
X176675072Y-82756250D01*
X176675072Y-82499230D01*
X177011004Y-82163298D01*
X177040001Y-82139501D01*
X177134974Y-82023776D01*
X177205546Y-81891747D01*
X177249003Y-81748486D01*
X177260000Y-81636833D01*
X177260000Y-81636824D01*
X177263676Y-81599501D01*
X177260000Y-81562178D01*
X177260000Y-80237322D01*
X177263676Y-80199999D01*
X177260000Y-80162676D01*
X177260000Y-80162667D01*
X177249003Y-80051014D01*
X177205546Y-79907753D01*
X177134974Y-79775724D01*
X177113719Y-79749825D01*
X177063799Y-79688996D01*
X177063795Y-79688992D01*
X177040002Y-79660000D01*
X177967721Y-79660000D01*
X178065424Y-79669580D01*
G36*
X167504725Y-98318671D02*
G01*
X167544629Y-98340000D01*
X167279371Y-98340000D01*
X167319275Y-98318671D01*
X167412000Y-98242574D01*
X167504725Y-98318671D01*
X167504725Y-98318671D01*
G37*
X167504725Y-98318671D02*
X167544629Y-98340000D01*
X167279371Y-98340000D01*
X167319275Y-98318671D01*
X167412000Y-98242574D01*
X167504725Y-98318671D01*
G36*
X164657053Y-97877810D02*
G01*
X164681636Y-97907764D01*
X164801167Y-98005862D01*
X164930522Y-98075003D01*
X164937540Y-98078754D01*
X165085513Y-98123642D01*
X165160426Y-98131020D01*
X165200839Y-98135000D01*
X165200844Y-98135000D01*
X165239400Y-98138797D01*
X165277956Y-98135000D01*
X165736599Y-98135000D01*
X165799885Y-98212115D01*
X165929725Y-98318671D01*
X165969629Y-98340000D01*
X163882343Y-98340000D01*
X163899482Y-98338312D01*
X164019180Y-98302002D01*
X164129494Y-98243037D01*
X164226185Y-98163685D01*
X164305537Y-98066994D01*
X164364502Y-97956680D01*
X164400812Y-97836982D01*
X164413072Y-97712500D01*
X164411446Y-97632203D01*
X164657053Y-97877810D01*
X164657053Y-97877810D01*
G37*
X164657053Y-97877810D02*
X164681636Y-97907764D01*
X164801167Y-98005862D01*
X164930522Y-98075003D01*
X164937540Y-98078754D01*
X165085513Y-98123642D01*
X165160426Y-98131020D01*
X165200839Y-98135000D01*
X165200844Y-98135000D01*
X165239400Y-98138797D01*
X165277956Y-98135000D01*
X165736599Y-98135000D01*
X165799885Y-98212115D01*
X165929725Y-98318671D01*
X165969629Y-98340000D01*
X163882343Y-98340000D01*
X163899482Y-98338312D01*
X164019180Y-98302002D01*
X164129494Y-98243037D01*
X164226185Y-98163685D01*
X164305537Y-98066994D01*
X164364502Y-97956680D01*
X164400812Y-97836982D01*
X164413072Y-97712500D01*
X164411446Y-97632203D01*
X164657053Y-97877810D01*
G36*
X151011928Y-81350000D02*
G01*
X151024188Y-81474482D01*
X151060498Y-81594180D01*
X151119463Y-81704494D01*
X151198815Y-81801185D01*
X151237340Y-81832802D01*
X149872190Y-83197953D01*
X149842236Y-83222536D01*
X149744138Y-83342068D01*
X149671246Y-83478441D01*
X149626359Y-83626414D01*
X149615000Y-83741740D01*
X149615000Y-83741747D01*
X149611203Y-83780300D01*
X149615000Y-83818853D01*
X149615001Y-91961437D01*
X149611203Y-92000000D01*
X149626359Y-92153886D01*
X149671246Y-92301859D01*
X149673386Y-92305862D01*
X149744139Y-92438233D01*
X149772006Y-92472188D01*
X149817655Y-92527812D01*
X149817659Y-92527816D01*
X149842237Y-92557764D01*
X149872185Y-92582342D01*
X150817653Y-93527810D01*
X150842236Y-93557764D01*
X150961767Y-93655862D01*
X151098140Y-93728754D01*
X151246113Y-93773642D01*
X151321026Y-93781020D01*
X151361439Y-93785000D01*
X151361444Y-93785000D01*
X151400000Y-93788797D01*
X151438556Y-93785000D01*
X152801547Y-93785000D01*
X152840100Y-93788797D01*
X152878653Y-93785000D01*
X152878661Y-93785000D01*
X152993987Y-93773641D01*
X153141960Y-93728754D01*
X153278333Y-93655862D01*
X153397864Y-93557764D01*
X153422447Y-93527810D01*
X154075257Y-92875000D01*
X154636928Y-92875000D01*
X154649188Y-92999482D01*
X154685498Y-93119180D01*
X154744463Y-93229494D01*
X154823815Y-93326185D01*
X154920506Y-93405537D01*
X155030820Y-93464502D01*
X155150518Y-93500812D01*
X155275000Y-93513072D01*
X155464250Y-93510000D01*
X155623000Y-93351250D01*
X155623000Y-92564500D01*
X155877000Y-92564500D01*
X155877000Y-93351250D01*
X156035750Y-93510000D01*
X156225000Y-93513072D01*
X156349482Y-93500812D01*
X156469180Y-93464502D01*
X156579494Y-93405537D01*
X156676185Y-93326185D01*
X156755537Y-93229494D01*
X156814502Y-93119180D01*
X156848099Y-93008425D01*
X156849188Y-93019482D01*
X156885498Y-93139180D01*
X156944463Y-93249494D01*
X157023815Y-93346185D01*
X157120506Y-93425537D01*
X157230820Y-93484502D01*
X157350518Y-93520812D01*
X157475000Y-93533072D01*
X157664250Y-93530000D01*
X157823000Y-93371250D01*
X157823000Y-92584500D01*
X158077000Y-92584500D01*
X158077000Y-93371250D01*
X158235750Y-93530000D01*
X158425000Y-93533072D01*
X158549482Y-93520812D01*
X158669180Y-93484502D01*
X158779494Y-93425537D01*
X158825000Y-93388191D01*
X158870506Y-93425537D01*
X158980820Y-93484502D01*
X159100518Y-93520812D01*
X159225000Y-93533072D01*
X159414250Y-93530000D01*
X159573000Y-93371250D01*
X159573000Y-92584500D01*
X159827000Y-92584500D01*
X159827000Y-93371250D01*
X159985750Y-93530000D01*
X160175000Y-93533072D01*
X160299482Y-93520812D01*
X160419180Y-93484502D01*
X160529494Y-93425537D01*
X160626185Y-93346185D01*
X160705537Y-93249494D01*
X160764502Y-93139180D01*
X160800812Y-93019482D01*
X160813072Y-92895000D01*
X160810000Y-92743250D01*
X160651250Y-92584500D01*
X159827000Y-92584500D01*
X159573000Y-92584500D01*
X158077000Y-92584500D01*
X157823000Y-92584500D01*
X156998750Y-92584500D01*
X156860000Y-92723250D01*
X156701250Y-92564500D01*
X155877000Y-92564500D01*
X155623000Y-92564500D01*
X154798750Y-92564500D01*
X154640000Y-92723250D01*
X154636928Y-92875000D01*
X154075257Y-92875000D01*
X154515258Y-92435000D01*
X157143947Y-92435000D01*
X157182500Y-92438797D01*
X157221053Y-92435000D01*
X157221061Y-92435000D01*
X157336387Y-92423641D01*
X157484360Y-92378754D01*
X157574638Y-92330500D01*
X157823000Y-92330500D01*
X157823000Y-92310500D01*
X158077000Y-92310500D01*
X158077000Y-92330500D01*
X159573000Y-92330500D01*
X159573000Y-92310500D01*
X159827000Y-92310500D01*
X159827000Y-92330500D01*
X160651250Y-92330500D01*
X160810000Y-92171750D01*
X160813072Y-92020000D01*
X160800812Y-91895518D01*
X160764502Y-91775820D01*
X160705537Y-91665506D01*
X160650900Y-91598930D01*
X160668671Y-91577275D01*
X160747850Y-91429142D01*
X160783991Y-91310000D01*
X162001728Y-91310000D01*
X162002126Y-91313435D01*
X162041102Y-91432291D01*
X162102516Y-91541260D01*
X162166844Y-91616165D01*
X162154892Y-91645020D01*
X162115118Y-91844979D01*
X162115118Y-92048857D01*
X162154892Y-92248816D01*
X162232913Y-92437174D01*
X162346181Y-92606692D01*
X162490344Y-92750855D01*
X162515000Y-92767330D01*
X162515001Y-94812098D01*
X162437885Y-94875385D01*
X162331329Y-95005225D01*
X162252150Y-95153358D01*
X162203392Y-95314092D01*
X162186928Y-95481250D01*
X162186928Y-95918750D01*
X162203392Y-96085908D01*
X162252150Y-96246642D01*
X162331329Y-96394775D01*
X162349100Y-96416430D01*
X162294463Y-96483006D01*
X162235498Y-96593320D01*
X162199188Y-96713018D01*
X162186928Y-96837500D01*
X162190000Y-96989250D01*
X162348750Y-97148000D01*
X163173000Y-97148000D01*
X163173000Y-97128000D01*
X163427000Y-97128000D01*
X163427000Y-97148000D01*
X163447000Y-97148000D01*
X163447000Y-97402000D01*
X163427000Y-97402000D01*
X163427000Y-97422000D01*
X163173000Y-97422000D01*
X163173000Y-97402000D01*
X162348750Y-97402000D01*
X162190000Y-97560750D01*
X162186928Y-97712500D01*
X162199188Y-97836982D01*
X162235498Y-97956680D01*
X162294463Y-98066994D01*
X162373815Y-98163685D01*
X162470506Y-98243037D01*
X162580820Y-98302002D01*
X162700518Y-98338312D01*
X162717657Y-98340000D01*
X161799812Y-98340000D01*
X161924157Y-98131252D01*
X162021481Y-97856891D01*
X161900814Y-97627000D01*
X160707000Y-97627000D01*
X160707000Y-97647000D01*
X160453000Y-97647000D01*
X160453000Y-97627000D01*
X160433000Y-97627000D01*
X160433000Y-97373000D01*
X160453000Y-97373000D01*
X160453000Y-96179845D01*
X160707000Y-96179845D01*
X160707000Y-97373000D01*
X161900814Y-97373000D01*
X162021481Y-97143109D01*
X161924157Y-96868748D01*
X161775178Y-96618645D01*
X161580269Y-96402412D01*
X161346920Y-96228359D01*
X161084099Y-96103175D01*
X160936890Y-96058524D01*
X160707000Y-96179845D01*
X160453000Y-96179845D01*
X160223110Y-96058524D01*
X160075901Y-96103175D01*
X159813080Y-96228359D01*
X159579731Y-96402412D01*
X159384822Y-96618645D01*
X159315201Y-96735523D01*
X159280706Y-96670986D01*
X159095134Y-96444866D01*
X158869014Y-96259294D01*
X158611034Y-96121401D01*
X158331111Y-96036487D01*
X158112950Y-96015000D01*
X157967050Y-96015000D01*
X157748889Y-96036487D01*
X157468966Y-96121401D01*
X157210986Y-96259294D01*
X156984866Y-96444866D01*
X156960393Y-96474687D01*
X156939502Y-96405820D01*
X156880537Y-96295506D01*
X156801185Y-96198815D01*
X156704494Y-96119463D01*
X156594180Y-96060498D01*
X156474482Y-96024188D01*
X156350000Y-96011928D01*
X154650000Y-96011928D01*
X154525518Y-96024188D01*
X154405820Y-96060498D01*
X154295506Y-96119463D01*
X154198815Y-96198815D01*
X154119463Y-96295506D01*
X154060498Y-96405820D01*
X154024188Y-96525518D01*
X154011928Y-96650000D01*
X154011928Y-98340000D01*
X145032279Y-98340000D01*
X144934576Y-98330420D01*
X144871643Y-98311420D01*
X144813594Y-98280554D01*
X144762657Y-98239011D01*
X144720752Y-98188356D01*
X144689485Y-98130529D01*
X144670044Y-98067728D01*
X144660000Y-97972165D01*
X144660000Y-95779872D01*
X144765000Y-95779872D01*
X144765000Y-96220128D01*
X144850890Y-96651925D01*
X145019369Y-97058669D01*
X145263962Y-97424729D01*
X145575271Y-97736038D01*
X145941331Y-97980631D01*
X146348075Y-98149110D01*
X146779872Y-98235000D01*
X147220128Y-98235000D01*
X147651925Y-98149110D01*
X148058669Y-97980631D01*
X148424729Y-97736038D01*
X148736038Y-97424729D01*
X148980631Y-97058669D01*
X149149110Y-96651925D01*
X149235000Y-96220128D01*
X149235000Y-95779872D01*
X149149110Y-95348075D01*
X148980631Y-94941331D01*
X148736038Y-94575271D01*
X148424729Y-94263962D01*
X148058669Y-94019369D01*
X147651925Y-93850890D01*
X147220128Y-93765000D01*
X146779872Y-93765000D01*
X146348075Y-93850890D01*
X145941331Y-94019369D01*
X145575271Y-94263962D01*
X145263962Y-94575271D01*
X145019369Y-94941331D01*
X144850890Y-95348075D01*
X144765000Y-95779872D01*
X144660000Y-95779872D01*
X144660000Y-81679872D01*
X144765000Y-81679872D01*
X144765000Y-82120128D01*
X144850890Y-82551925D01*
X145019369Y-82958669D01*
X145263962Y-83324729D01*
X145575271Y-83636038D01*
X145941331Y-83880631D01*
X146348075Y-84049110D01*
X146779872Y-84135000D01*
X147220128Y-84135000D01*
X147651925Y-84049110D01*
X148058669Y-83880631D01*
X148424729Y-83636038D01*
X148736038Y-83324729D01*
X148980631Y-82958669D01*
X149149110Y-82551925D01*
X149235000Y-82120128D01*
X149235000Y-81679872D01*
X149149110Y-81248075D01*
X148980631Y-80841331D01*
X148736038Y-80475271D01*
X148424729Y-80163962D01*
X148058669Y-79919369D01*
X147651925Y-79750890D01*
X147220128Y-79665000D01*
X146779872Y-79665000D01*
X146348075Y-79750890D01*
X145941331Y-79919369D01*
X145575271Y-80163962D01*
X145263962Y-80475271D01*
X145019369Y-80841331D01*
X144850890Y-81248075D01*
X144765000Y-81679872D01*
X144660000Y-81679872D01*
X144660000Y-80032279D01*
X144669580Y-79934576D01*
X144688580Y-79871644D01*
X144719445Y-79813595D01*
X144760989Y-79762657D01*
X144811644Y-79720752D01*
X144869471Y-79689485D01*
X144932272Y-79670044D01*
X145027835Y-79660000D01*
X151011928Y-79660000D01*
X151011928Y-81350000D01*
X151011928Y-81350000D01*
G37*
X151011928Y-81350000D02*
X151024188Y-81474482D01*
X151060498Y-81594180D01*
X151119463Y-81704494D01*
X151198815Y-81801185D01*
X151237340Y-81832802D01*
X149872190Y-83197953D01*
X149842236Y-83222536D01*
X149744138Y-83342068D01*
X149671246Y-83478441D01*
X149626359Y-83626414D01*
X149615000Y-83741740D01*
X149615000Y-83741747D01*
X149611203Y-83780300D01*
X149615000Y-83818853D01*
X149615001Y-91961437D01*
X149611203Y-92000000D01*
X149626359Y-92153886D01*
X149671246Y-92301859D01*
X149673386Y-92305862D01*
X149744139Y-92438233D01*
X149772006Y-92472188D01*
X149817655Y-92527812D01*
X149817659Y-92527816D01*
X149842237Y-92557764D01*
X149872185Y-92582342D01*
X150817653Y-93527810D01*
X150842236Y-93557764D01*
X150961767Y-93655862D01*
X151098140Y-93728754D01*
X151246113Y-93773642D01*
X151321026Y-93781020D01*
X151361439Y-93785000D01*
X151361444Y-93785000D01*
X151400000Y-93788797D01*
X151438556Y-93785000D01*
X152801547Y-93785000D01*
X152840100Y-93788797D01*
X152878653Y-93785000D01*
X152878661Y-93785000D01*
X152993987Y-93773641D01*
X153141960Y-93728754D01*
X153278333Y-93655862D01*
X153397864Y-93557764D01*
X153422447Y-93527810D01*
X154075257Y-92875000D01*
X154636928Y-92875000D01*
X154649188Y-92999482D01*
X154685498Y-93119180D01*
X154744463Y-93229494D01*
X154823815Y-93326185D01*
X154920506Y-93405537D01*
X155030820Y-93464502D01*
X155150518Y-93500812D01*
X155275000Y-93513072D01*
X155464250Y-93510000D01*
X155623000Y-93351250D01*
X155623000Y-92564500D01*
X155877000Y-92564500D01*
X155877000Y-93351250D01*
X156035750Y-93510000D01*
X156225000Y-93513072D01*
X156349482Y-93500812D01*
X156469180Y-93464502D01*
X156579494Y-93405537D01*
X156676185Y-93326185D01*
X156755537Y-93229494D01*
X156814502Y-93119180D01*
X156848099Y-93008425D01*
X156849188Y-93019482D01*
X156885498Y-93139180D01*
X156944463Y-93249494D01*
X157023815Y-93346185D01*
X157120506Y-93425537D01*
X157230820Y-93484502D01*
X157350518Y-93520812D01*
X157475000Y-93533072D01*
X157664250Y-93530000D01*
X157823000Y-93371250D01*
X157823000Y-92584500D01*
X158077000Y-92584500D01*
X158077000Y-93371250D01*
X158235750Y-93530000D01*
X158425000Y-93533072D01*
X158549482Y-93520812D01*
X158669180Y-93484502D01*
X158779494Y-93425537D01*
X158825000Y-93388191D01*
X158870506Y-93425537D01*
X158980820Y-93484502D01*
X159100518Y-93520812D01*
X159225000Y-93533072D01*
X159414250Y-93530000D01*
X159573000Y-93371250D01*
X159573000Y-92584500D01*
X159827000Y-92584500D01*
X159827000Y-93371250D01*
X159985750Y-93530000D01*
X160175000Y-93533072D01*
X160299482Y-93520812D01*
X160419180Y-93484502D01*
X160529494Y-93425537D01*
X160626185Y-93346185D01*
X160705537Y-93249494D01*
X160764502Y-93139180D01*
X160800812Y-93019482D01*
X160813072Y-92895000D01*
X160810000Y-92743250D01*
X160651250Y-92584500D01*
X159827000Y-92584500D01*
X159573000Y-92584500D01*
X158077000Y-92584500D01*
X157823000Y-92584500D01*
X156998750Y-92584500D01*
X156860000Y-92723250D01*
X156701250Y-92564500D01*
X155877000Y-92564500D01*
X155623000Y-92564500D01*
X154798750Y-92564500D01*
X154640000Y-92723250D01*
X154636928Y-92875000D01*
X154075257Y-92875000D01*
X154515258Y-92435000D01*
X157143947Y-92435000D01*
X157182500Y-92438797D01*
X157221053Y-92435000D01*
X157221061Y-92435000D01*
X157336387Y-92423641D01*
X157484360Y-92378754D01*
X157574638Y-92330500D01*
X157823000Y-92330500D01*
X157823000Y-92310500D01*
X158077000Y-92310500D01*
X158077000Y-92330500D01*
X159573000Y-92330500D01*
X159573000Y-92310500D01*
X159827000Y-92310500D01*
X159827000Y-92330500D01*
X160651250Y-92330500D01*
X160810000Y-92171750D01*
X160813072Y-92020000D01*
X160800812Y-91895518D01*
X160764502Y-91775820D01*
X160705537Y-91665506D01*
X160650900Y-91598930D01*
X160668671Y-91577275D01*
X160747850Y-91429142D01*
X160783991Y-91310000D01*
X162001728Y-91310000D01*
X162002126Y-91313435D01*
X162041102Y-91432291D01*
X162102516Y-91541260D01*
X162166844Y-91616165D01*
X162154892Y-91645020D01*
X162115118Y-91844979D01*
X162115118Y-92048857D01*
X162154892Y-92248816D01*
X162232913Y-92437174D01*
X162346181Y-92606692D01*
X162490344Y-92750855D01*
X162515000Y-92767330D01*
X162515001Y-94812098D01*
X162437885Y-94875385D01*
X162331329Y-95005225D01*
X162252150Y-95153358D01*
X162203392Y-95314092D01*
X162186928Y-95481250D01*
X162186928Y-95918750D01*
X162203392Y-96085908D01*
X162252150Y-96246642D01*
X162331329Y-96394775D01*
X162349100Y-96416430D01*
X162294463Y-96483006D01*
X162235498Y-96593320D01*
X162199188Y-96713018D01*
X162186928Y-96837500D01*
X162190000Y-96989250D01*
X162348750Y-97148000D01*
X163173000Y-97148000D01*
X163173000Y-97128000D01*
X163427000Y-97128000D01*
X163427000Y-97148000D01*
X163447000Y-97148000D01*
X163447000Y-97402000D01*
X163427000Y-97402000D01*
X163427000Y-97422000D01*
X163173000Y-97422000D01*
X163173000Y-97402000D01*
X162348750Y-97402000D01*
X162190000Y-97560750D01*
X162186928Y-97712500D01*
X162199188Y-97836982D01*
X162235498Y-97956680D01*
X162294463Y-98066994D01*
X162373815Y-98163685D01*
X162470506Y-98243037D01*
X162580820Y-98302002D01*
X162700518Y-98338312D01*
X162717657Y-98340000D01*
X161799812Y-98340000D01*
X161924157Y-98131252D01*
X162021481Y-97856891D01*
X161900814Y-97627000D01*
X160707000Y-97627000D01*
X160707000Y-97647000D01*
X160453000Y-97647000D01*
X160453000Y-97627000D01*
X160433000Y-97627000D01*
X160433000Y-97373000D01*
X160453000Y-97373000D01*
X160453000Y-96179845D01*
X160707000Y-96179845D01*
X160707000Y-97373000D01*
X161900814Y-97373000D01*
X162021481Y-97143109D01*
X161924157Y-96868748D01*
X161775178Y-96618645D01*
X161580269Y-96402412D01*
X161346920Y-96228359D01*
X161084099Y-96103175D01*
X160936890Y-96058524D01*
X160707000Y-96179845D01*
X160453000Y-96179845D01*
X160223110Y-96058524D01*
X160075901Y-96103175D01*
X159813080Y-96228359D01*
X159579731Y-96402412D01*
X159384822Y-96618645D01*
X159315201Y-96735523D01*
X159280706Y-96670986D01*
X159095134Y-96444866D01*
X158869014Y-96259294D01*
X158611034Y-96121401D01*
X158331111Y-96036487D01*
X158112950Y-96015000D01*
X157967050Y-96015000D01*
X157748889Y-96036487D01*
X157468966Y-96121401D01*
X157210986Y-96259294D01*
X156984866Y-96444866D01*
X156960393Y-96474687D01*
X156939502Y-96405820D01*
X156880537Y-96295506D01*
X156801185Y-96198815D01*
X156704494Y-96119463D01*
X156594180Y-96060498D01*
X156474482Y-96024188D01*
X156350000Y-96011928D01*
X154650000Y-96011928D01*
X154525518Y-96024188D01*
X154405820Y-96060498D01*
X154295506Y-96119463D01*
X154198815Y-96198815D01*
X154119463Y-96295506D01*
X154060498Y-96405820D01*
X154024188Y-96525518D01*
X154011928Y-96650000D01*
X154011928Y-98340000D01*
X145032279Y-98340000D01*
X144934576Y-98330420D01*
X144871643Y-98311420D01*
X144813594Y-98280554D01*
X144762657Y-98239011D01*
X144720752Y-98188356D01*
X144689485Y-98130529D01*
X144670044Y-98067728D01*
X144660000Y-97972165D01*
X144660000Y-95779872D01*
X144765000Y-95779872D01*
X144765000Y-96220128D01*
X144850890Y-96651925D01*
X145019369Y-97058669D01*
X145263962Y-97424729D01*
X145575271Y-97736038D01*
X145941331Y-97980631D01*
X146348075Y-98149110D01*
X146779872Y-98235000D01*
X147220128Y-98235000D01*
X147651925Y-98149110D01*
X148058669Y-97980631D01*
X148424729Y-97736038D01*
X148736038Y-97424729D01*
X148980631Y-97058669D01*
X149149110Y-96651925D01*
X149235000Y-96220128D01*
X149235000Y-95779872D01*
X149149110Y-95348075D01*
X148980631Y-94941331D01*
X148736038Y-94575271D01*
X148424729Y-94263962D01*
X148058669Y-94019369D01*
X147651925Y-93850890D01*
X147220128Y-93765000D01*
X146779872Y-93765000D01*
X146348075Y-93850890D01*
X145941331Y-94019369D01*
X145575271Y-94263962D01*
X145263962Y-94575271D01*
X145019369Y-94941331D01*
X144850890Y-95348075D01*
X144765000Y-95779872D01*
X144660000Y-95779872D01*
X144660000Y-81679872D01*
X144765000Y-81679872D01*
X144765000Y-82120128D01*
X144850890Y-82551925D01*
X145019369Y-82958669D01*
X145263962Y-83324729D01*
X145575271Y-83636038D01*
X145941331Y-83880631D01*
X146348075Y-84049110D01*
X146779872Y-84135000D01*
X147220128Y-84135000D01*
X147651925Y-84049110D01*
X148058669Y-83880631D01*
X148424729Y-83636038D01*
X148736038Y-83324729D01*
X148980631Y-82958669D01*
X149149110Y-82551925D01*
X149235000Y-82120128D01*
X149235000Y-81679872D01*
X149149110Y-81248075D01*
X148980631Y-80841331D01*
X148736038Y-80475271D01*
X148424729Y-80163962D01*
X148058669Y-79919369D01*
X147651925Y-79750890D01*
X147220128Y-79665000D01*
X146779872Y-79665000D01*
X146348075Y-79750890D01*
X145941331Y-79919369D01*
X145575271Y-80163962D01*
X145263962Y-80475271D01*
X145019369Y-80841331D01*
X144850890Y-81248075D01*
X144765000Y-81679872D01*
X144660000Y-81679872D01*
X144660000Y-80032279D01*
X144669580Y-79934576D01*
X144688580Y-79871644D01*
X144719445Y-79813595D01*
X144760989Y-79762657D01*
X144811644Y-79720752D01*
X144869471Y-79689485D01*
X144932272Y-79670044D01*
X145027835Y-79660000D01*
X151011928Y-79660000D01*
X151011928Y-81350000D01*
G36*
X169070506Y-98243037D02*
G01*
X169180820Y-98302002D01*
X169300518Y-98338312D01*
X169317657Y-98340000D01*
X168854371Y-98340000D01*
X168894275Y-98318671D01*
X169024115Y-98212115D01*
X169027621Y-98207843D01*
X169070506Y-98243037D01*
X169070506Y-98243037D01*
G37*
X169070506Y-98243037D02*
X169180820Y-98302002D01*
X169300518Y-98338312D01*
X169317657Y-98340000D01*
X168854371Y-98340000D01*
X168894275Y-98318671D01*
X169024115Y-98212115D01*
X169027621Y-98207843D01*
X169070506Y-98243037D01*
G36*
X166009013Y-94658138D02*
G01*
X165918820Y-94685498D01*
X165808506Y-94744463D01*
X165711815Y-94823815D01*
X165632463Y-94920506D01*
X165573498Y-95030820D01*
X165537188Y-95150518D01*
X165524928Y-95275000D01*
X165528000Y-95464250D01*
X165686750Y-95623000D01*
X166473500Y-95623000D01*
X166473500Y-95603000D01*
X166727500Y-95603000D01*
X166727500Y-95623000D01*
X166747500Y-95623000D01*
X166747500Y-95877000D01*
X166727500Y-95877000D01*
X166727500Y-95897000D01*
X166473500Y-95897000D01*
X166473500Y-95877000D01*
X165686750Y-95877000D01*
X165528000Y-96035750D01*
X165524928Y-96225000D01*
X165537188Y-96349482D01*
X165573498Y-96469180D01*
X165624716Y-96565000D01*
X165564557Y-96565000D01*
X164405672Y-95406115D01*
X164396608Y-95314092D01*
X164347850Y-95153358D01*
X164295396Y-95055224D01*
X164370798Y-95040226D01*
X164559156Y-94962205D01*
X164728674Y-94848937D01*
X164872837Y-94704774D01*
X164986105Y-94535256D01*
X165057507Y-94362878D01*
X165081898Y-94358026D01*
X165270256Y-94280005D01*
X165439774Y-94166737D01*
X165478657Y-94127854D01*
X166009013Y-94658138D01*
X166009013Y-94658138D01*
G37*
X166009013Y-94658138D02*
X165918820Y-94685498D01*
X165808506Y-94744463D01*
X165711815Y-94823815D01*
X165632463Y-94920506D01*
X165573498Y-95030820D01*
X165537188Y-95150518D01*
X165524928Y-95275000D01*
X165528000Y-95464250D01*
X165686750Y-95623000D01*
X166473500Y-95623000D01*
X166473500Y-95603000D01*
X166727500Y-95603000D01*
X166727500Y-95623000D01*
X166747500Y-95623000D01*
X166747500Y-95877000D01*
X166727500Y-95877000D01*
X166727500Y-95897000D01*
X166473500Y-95897000D01*
X166473500Y-95877000D01*
X165686750Y-95877000D01*
X165528000Y-96035750D01*
X165524928Y-96225000D01*
X165537188Y-96349482D01*
X165573498Y-96469180D01*
X165624716Y-96565000D01*
X165564557Y-96565000D01*
X164405672Y-95406115D01*
X164396608Y-95314092D01*
X164347850Y-95153358D01*
X164295396Y-95055224D01*
X164370798Y-95040226D01*
X164559156Y-94962205D01*
X164728674Y-94848937D01*
X164872837Y-94704774D01*
X164986105Y-94535256D01*
X165057507Y-94362878D01*
X165081898Y-94358026D01*
X165270256Y-94280005D01*
X165439774Y-94166737D01*
X165478657Y-94127854D01*
X166009013Y-94658138D01*
G36*
X165627000Y-89173000D02*
G01*
X165647000Y-89173000D01*
X165647000Y-89427000D01*
X165627000Y-89427000D01*
X165627000Y-89447000D01*
X165373000Y-89447000D01*
X165373000Y-89427000D01*
X165353000Y-89427000D01*
X165353000Y-89173000D01*
X165373000Y-89173000D01*
X165373000Y-89153000D01*
X165627000Y-89153000D01*
X165627000Y-89173000D01*
X165627000Y-89173000D01*
G37*
X165627000Y-89173000D02*
X165647000Y-89173000D01*
X165647000Y-89427000D01*
X165627000Y-89427000D01*
X165627000Y-89447000D01*
X165373000Y-89447000D01*
X165373000Y-89427000D01*
X165353000Y-89427000D01*
X165353000Y-89173000D01*
X165373000Y-89173000D01*
X165373000Y-89153000D01*
X165627000Y-89153000D01*
X165627000Y-89173000D01*
G36*
X157707000Y-80373000D02*
G01*
X157727000Y-80373000D01*
X157727000Y-80627000D01*
X157707000Y-80627000D01*
X157707000Y-81820155D01*
X157936890Y-81941476D01*
X158084099Y-81896825D01*
X158346920Y-81771641D01*
X158580269Y-81597588D01*
X158775178Y-81381355D01*
X158844799Y-81264477D01*
X158879294Y-81329014D01*
X159064866Y-81555134D01*
X159290986Y-81740706D01*
X159368834Y-81782317D01*
X159370998Y-81804286D01*
X159382143Y-81841026D01*
X159414454Y-81947546D01*
X159485026Y-82079576D01*
X159511144Y-82111400D01*
X159580000Y-82195301D01*
X159608998Y-82219099D01*
X159629899Y-82240000D01*
X158903711Y-82240000D01*
X158859774Y-82196063D01*
X158690256Y-82082795D01*
X158501898Y-82004774D01*
X158301939Y-81965000D01*
X158098061Y-81965000D01*
X157898102Y-82004774D01*
X157709744Y-82082795D01*
X157540226Y-82196063D01*
X157396063Y-82340226D01*
X157282795Y-82509744D01*
X157204774Y-82698102D01*
X157165000Y-82898061D01*
X157165000Y-83101939D01*
X157204774Y-83301898D01*
X157282795Y-83490256D01*
X157396063Y-83659774D01*
X157540226Y-83803937D01*
X157709744Y-83917205D01*
X157757359Y-83936928D01*
X157718750Y-83936928D01*
X157551592Y-83953392D01*
X157390858Y-84002150D01*
X157242725Y-84081329D01*
X157221070Y-84099100D01*
X157154494Y-84044463D01*
X157044180Y-83985498D01*
X156924482Y-83949188D01*
X156800000Y-83936928D01*
X156648250Y-83940000D01*
X156489500Y-84098750D01*
X156489500Y-84923000D01*
X156509500Y-84923000D01*
X156509500Y-85177000D01*
X156489500Y-85177000D01*
X156489500Y-85197000D01*
X156235500Y-85197000D01*
X156235500Y-85177000D01*
X155448750Y-85177000D01*
X155290000Y-85335750D01*
X155286928Y-85525000D01*
X155298994Y-85647510D01*
X155220506Y-85689463D01*
X155123815Y-85768815D01*
X155044463Y-85865506D01*
X154985498Y-85975820D01*
X154949188Y-86095518D01*
X154936928Y-86220000D01*
X154936928Y-86825300D01*
X153633289Y-86825300D01*
X153532160Y-86771246D01*
X153384187Y-86726359D01*
X153303812Y-86718442D01*
X153130608Y-86507392D01*
X153114337Y-86494039D01*
X153262135Y-86330330D01*
X153402524Y-86095068D01*
X153492220Y-85843070D01*
X153369720Y-85627000D01*
X152127000Y-85627000D01*
X152127000Y-85647000D01*
X151873000Y-85647000D01*
X151873000Y-85627000D01*
X151853000Y-85627000D01*
X151853000Y-85373000D01*
X151873000Y-85373000D01*
X151873000Y-84261251D01*
X152127000Y-84261251D01*
X152127000Y-85373000D01*
X153369720Y-85373000D01*
X153492220Y-85156930D01*
X153402524Y-84904932D01*
X153262135Y-84669670D01*
X153176667Y-84575000D01*
X155286928Y-84575000D01*
X155290000Y-84764250D01*
X155448750Y-84923000D01*
X156235500Y-84923000D01*
X156235500Y-84098750D01*
X156076750Y-83940000D01*
X155925000Y-83936928D01*
X155800518Y-83949188D01*
X155680820Y-83985498D01*
X155570506Y-84044463D01*
X155473815Y-84123815D01*
X155394463Y-84220506D01*
X155335498Y-84330820D01*
X155299188Y-84450518D01*
X155286928Y-84575000D01*
X153176667Y-84575000D01*
X153078546Y-84466317D01*
X152858812Y-84302688D01*
X152611378Y-84185071D01*
X152345752Y-84117986D01*
X152127000Y-84261251D01*
X151873000Y-84261251D01*
X151654248Y-84117986D01*
X151388622Y-84185071D01*
X151185000Y-84281862D01*
X151185000Y-84105457D01*
X153027816Y-82262642D01*
X153057764Y-82238064D01*
X153082640Y-82207754D01*
X153102336Y-82183754D01*
X153155862Y-82118533D01*
X153225594Y-81988072D01*
X153350000Y-81988072D01*
X153474482Y-81975812D01*
X153594180Y-81939502D01*
X153704494Y-81880537D01*
X153801185Y-81801185D01*
X153880537Y-81704494D01*
X153939502Y-81594180D01*
X153960393Y-81525313D01*
X153984866Y-81555134D01*
X154210986Y-81740706D01*
X154468966Y-81878599D01*
X154748889Y-81963513D01*
X154967050Y-81985000D01*
X155112950Y-81985000D01*
X155331111Y-81963513D01*
X155611034Y-81878599D01*
X155869014Y-81740706D01*
X156095134Y-81555134D01*
X156280706Y-81329014D01*
X156315201Y-81264477D01*
X156384822Y-81381355D01*
X156579731Y-81597588D01*
X156813080Y-81771641D01*
X157075901Y-81896825D01*
X157223110Y-81941476D01*
X157453000Y-81820155D01*
X157453000Y-80627000D01*
X157433000Y-80627000D01*
X157433000Y-80373000D01*
X157453000Y-80373000D01*
X157453000Y-80353000D01*
X157707000Y-80353000D01*
X157707000Y-80373000D01*
X157707000Y-80373000D01*
G37*
X157707000Y-80373000D02*
X157727000Y-80373000D01*
X157727000Y-80627000D01*
X157707000Y-80627000D01*
X157707000Y-81820155D01*
X157936890Y-81941476D01*
X158084099Y-81896825D01*
X158346920Y-81771641D01*
X158580269Y-81597588D01*
X158775178Y-81381355D01*
X158844799Y-81264477D01*
X158879294Y-81329014D01*
X159064866Y-81555134D01*
X159290986Y-81740706D01*
X159368834Y-81782317D01*
X159370998Y-81804286D01*
X159382143Y-81841026D01*
X159414454Y-81947546D01*
X159485026Y-82079576D01*
X159511144Y-82111400D01*
X159580000Y-82195301D01*
X159608998Y-82219099D01*
X159629899Y-82240000D01*
X158903711Y-82240000D01*
X158859774Y-82196063D01*
X158690256Y-82082795D01*
X158501898Y-82004774D01*
X158301939Y-81965000D01*
X158098061Y-81965000D01*
X157898102Y-82004774D01*
X157709744Y-82082795D01*
X157540226Y-82196063D01*
X157396063Y-82340226D01*
X157282795Y-82509744D01*
X157204774Y-82698102D01*
X157165000Y-82898061D01*
X157165000Y-83101939D01*
X157204774Y-83301898D01*
X157282795Y-83490256D01*
X157396063Y-83659774D01*
X157540226Y-83803937D01*
X157709744Y-83917205D01*
X157757359Y-83936928D01*
X157718750Y-83936928D01*
X157551592Y-83953392D01*
X157390858Y-84002150D01*
X157242725Y-84081329D01*
X157221070Y-84099100D01*
X157154494Y-84044463D01*
X157044180Y-83985498D01*
X156924482Y-83949188D01*
X156800000Y-83936928D01*
X156648250Y-83940000D01*
X156489500Y-84098750D01*
X156489500Y-84923000D01*
X156509500Y-84923000D01*
X156509500Y-85177000D01*
X156489500Y-85177000D01*
X156489500Y-85197000D01*
X156235500Y-85197000D01*
X156235500Y-85177000D01*
X155448750Y-85177000D01*
X155290000Y-85335750D01*
X155286928Y-85525000D01*
X155298994Y-85647510D01*
X155220506Y-85689463D01*
X155123815Y-85768815D01*
X155044463Y-85865506D01*
X154985498Y-85975820D01*
X154949188Y-86095518D01*
X154936928Y-86220000D01*
X154936928Y-86825300D01*
X153633289Y-86825300D01*
X153532160Y-86771246D01*
X153384187Y-86726359D01*
X153303812Y-86718442D01*
X153130608Y-86507392D01*
X153114337Y-86494039D01*
X153262135Y-86330330D01*
X153402524Y-86095068D01*
X153492220Y-85843070D01*
X153369720Y-85627000D01*
X152127000Y-85627000D01*
X152127000Y-85647000D01*
X151873000Y-85647000D01*
X151873000Y-85627000D01*
X151853000Y-85627000D01*
X151853000Y-85373000D01*
X151873000Y-85373000D01*
X151873000Y-84261251D01*
X152127000Y-84261251D01*
X152127000Y-85373000D01*
X153369720Y-85373000D01*
X153492220Y-85156930D01*
X153402524Y-84904932D01*
X153262135Y-84669670D01*
X153176667Y-84575000D01*
X155286928Y-84575000D01*
X155290000Y-84764250D01*
X155448750Y-84923000D01*
X156235500Y-84923000D01*
X156235500Y-84098750D01*
X156076750Y-83940000D01*
X155925000Y-83936928D01*
X155800518Y-83949188D01*
X155680820Y-83985498D01*
X155570506Y-84044463D01*
X155473815Y-84123815D01*
X155394463Y-84220506D01*
X155335498Y-84330820D01*
X155299188Y-84450518D01*
X155286928Y-84575000D01*
X153176667Y-84575000D01*
X153078546Y-84466317D01*
X152858812Y-84302688D01*
X152611378Y-84185071D01*
X152345752Y-84117986D01*
X152127000Y-84261251D01*
X151873000Y-84261251D01*
X151654248Y-84117986D01*
X151388622Y-84185071D01*
X151185000Y-84281862D01*
X151185000Y-84105457D01*
X153027816Y-82262642D01*
X153057764Y-82238064D01*
X153082640Y-82207754D01*
X153102336Y-82183754D01*
X153155862Y-82118533D01*
X153225594Y-81988072D01*
X153350000Y-81988072D01*
X153474482Y-81975812D01*
X153594180Y-81939502D01*
X153704494Y-81880537D01*
X153801185Y-81801185D01*
X153880537Y-81704494D01*
X153939502Y-81594180D01*
X153960393Y-81525313D01*
X153984866Y-81555134D01*
X154210986Y-81740706D01*
X154468966Y-81878599D01*
X154748889Y-81963513D01*
X154967050Y-81985000D01*
X155112950Y-81985000D01*
X155331111Y-81963513D01*
X155611034Y-81878599D01*
X155869014Y-81740706D01*
X156095134Y-81555134D01*
X156280706Y-81329014D01*
X156315201Y-81264477D01*
X156384822Y-81381355D01*
X156579731Y-81597588D01*
X156813080Y-81771641D01*
X157075901Y-81896825D01*
X157223110Y-81941476D01*
X157453000Y-81820155D01*
X157453000Y-80627000D01*
X157433000Y-80627000D01*
X157433000Y-80373000D01*
X157453000Y-80373000D01*
X157453000Y-80353000D01*
X157707000Y-80353000D01*
X157707000Y-80373000D01*
G36*
X168290150Y-80315858D02*
G01*
X168241392Y-80476592D01*
X168224928Y-80643750D01*
X168224928Y-81156250D01*
X168241392Y-81323408D01*
X168290150Y-81484142D01*
X168369329Y-81632275D01*
X168424909Y-81700000D01*
X168372393Y-81763992D01*
X167847404Y-81239003D01*
X167823601Y-81209999D01*
X167707876Y-81115026D01*
X167575847Y-81044454D01*
X167432586Y-81000997D01*
X167320933Y-80990000D01*
X167320922Y-80990000D01*
X167283600Y-80986324D01*
X167246278Y-80990000D01*
X165952500Y-80990000D01*
X165952500Y-80773000D01*
X165972500Y-80773000D01*
X165972500Y-80753000D01*
X166226500Y-80753000D01*
X166226500Y-80773000D01*
X167013250Y-80773000D01*
X167172000Y-80614250D01*
X167175072Y-80425000D01*
X167162812Y-80300518D01*
X167150521Y-80260000D01*
X168320007Y-80260000D01*
X168290150Y-80315858D01*
X168290150Y-80315858D01*
G37*
X168290150Y-80315858D02*
X168241392Y-80476592D01*
X168224928Y-80643750D01*
X168224928Y-81156250D01*
X168241392Y-81323408D01*
X168290150Y-81484142D01*
X168369329Y-81632275D01*
X168424909Y-81700000D01*
X168372393Y-81763992D01*
X167847404Y-81239003D01*
X167823601Y-81209999D01*
X167707876Y-81115026D01*
X167575847Y-81044454D01*
X167432586Y-81000997D01*
X167320933Y-80990000D01*
X167320922Y-80990000D01*
X167283600Y-80986324D01*
X167246278Y-80990000D01*
X165952500Y-80990000D01*
X165952500Y-80773000D01*
X165972500Y-80773000D01*
X165972500Y-80753000D01*
X166226500Y-80753000D01*
X166226500Y-80773000D01*
X167013250Y-80773000D01*
X167172000Y-80614250D01*
X167175072Y-80425000D01*
X167162812Y-80300518D01*
X167150521Y-80260000D01*
X168320007Y-80260000D01*
X168290150Y-80315858D01*
G36*
X175702500Y-80773000D02*
G01*
X175722500Y-80773000D01*
X175722500Y-81027000D01*
X175702500Y-81027000D01*
X175702500Y-81047000D01*
X175448500Y-81047000D01*
X175448500Y-81027000D01*
X175428500Y-81027000D01*
X175428500Y-80773000D01*
X175448500Y-80773000D01*
X175448500Y-80753000D01*
X175702500Y-80753000D01*
X175702500Y-80773000D01*
X175702500Y-80773000D01*
G37*
X175702500Y-80773000D02*
X175722500Y-80773000D01*
X175722500Y-81027000D01*
X175702500Y-81027000D01*
X175702500Y-81047000D01*
X175448500Y-81047000D01*
X175448500Y-81027000D01*
X175428500Y-81027000D01*
X175428500Y-80773000D01*
X175448500Y-80773000D01*
X175448500Y-80753000D01*
X175702500Y-80753000D01*
X175702500Y-80773000D01*
M02*
