G04 #@! TF.GenerationSoftware,KiCad,Pcbnew,(5.1.2)-1*
G04 #@! TF.CreationDate,2020-10-03T12:09:34+09:00*
G04 #@! TF.ProjectId,es,65732e6b-6963-4616-945f-706362585858,v1.4*
G04 #@! TF.SameCoordinates,Original*
G04 #@! TF.FileFunction,Soldermask,Top*
G04 #@! TF.FilePolarity,Negative*
%FSLAX46Y46*%
G04 Gerber Fmt 4.6, Leading zero omitted, Abs format (unit mm)*
G04 Created by KiCad (PCBNEW (5.1.2)-1) date 2020-10-03 12:09:34*
%MOMM*%
%LPD*%
G04 APERTURE LIST*
%ADD10C,0.100000*%
G04 APERTURE END LIST*
D10*
G36*
X156401000Y-98401000D02*
G01*
X154599000Y-98401000D01*
X154599000Y-96599000D01*
X156401000Y-96599000D01*
X156401000Y-98401000D01*
X156401000Y-98401000D01*
G37*
G36*
X160690442Y-96605518D02*
G01*
X160756627Y-96612037D01*
X160926466Y-96663557D01*
X161082991Y-96747222D01*
X161118729Y-96776552D01*
X161220186Y-96859814D01*
X161303448Y-96961271D01*
X161332778Y-96997009D01*
X161416443Y-97153534D01*
X161467963Y-97323373D01*
X161485359Y-97500000D01*
X161467963Y-97676627D01*
X161416443Y-97846466D01*
X161332778Y-98002991D01*
X161303448Y-98038729D01*
X161220186Y-98140186D01*
X161118729Y-98223448D01*
X161082991Y-98252778D01*
X160926466Y-98336443D01*
X160756627Y-98387963D01*
X160690442Y-98394482D01*
X160624260Y-98401000D01*
X160535740Y-98401000D01*
X160469558Y-98394482D01*
X160403373Y-98387963D01*
X160233534Y-98336443D01*
X160077009Y-98252778D01*
X160041271Y-98223448D01*
X159939814Y-98140186D01*
X159856552Y-98038729D01*
X159827222Y-98002991D01*
X159743557Y-97846466D01*
X159692037Y-97676627D01*
X159674641Y-97500000D01*
X159692037Y-97323373D01*
X159743557Y-97153534D01*
X159827222Y-96997009D01*
X159856552Y-96961271D01*
X159939814Y-96859814D01*
X160041271Y-96776552D01*
X160077009Y-96747222D01*
X160233534Y-96663557D01*
X160403373Y-96612037D01*
X160469557Y-96605519D01*
X160535740Y-96599000D01*
X160624260Y-96599000D01*
X160690442Y-96605518D01*
X160690442Y-96605518D01*
G37*
G36*
X158150442Y-96605518D02*
G01*
X158216627Y-96612037D01*
X158386466Y-96663557D01*
X158542991Y-96747222D01*
X158578729Y-96776552D01*
X158680186Y-96859814D01*
X158763448Y-96961271D01*
X158792778Y-96997009D01*
X158876443Y-97153534D01*
X158927963Y-97323373D01*
X158945359Y-97500000D01*
X158927963Y-97676627D01*
X158876443Y-97846466D01*
X158792778Y-98002991D01*
X158763448Y-98038729D01*
X158680186Y-98140186D01*
X158578729Y-98223448D01*
X158542991Y-98252778D01*
X158386466Y-98336443D01*
X158216627Y-98387963D01*
X158150442Y-98394482D01*
X158084260Y-98401000D01*
X157995740Y-98401000D01*
X157929558Y-98394482D01*
X157863373Y-98387963D01*
X157693534Y-98336443D01*
X157537009Y-98252778D01*
X157501271Y-98223448D01*
X157399814Y-98140186D01*
X157316552Y-98038729D01*
X157287222Y-98002991D01*
X157203557Y-97846466D01*
X157152037Y-97676627D01*
X157134641Y-97500000D01*
X157152037Y-97323373D01*
X157203557Y-97153534D01*
X157287222Y-96997009D01*
X157316552Y-96961271D01*
X157399814Y-96859814D01*
X157501271Y-96776552D01*
X157537009Y-96747222D01*
X157693534Y-96663557D01*
X157863373Y-96612037D01*
X157929557Y-96605519D01*
X157995740Y-96599000D01*
X158084260Y-96599000D01*
X158150442Y-96605518D01*
X158150442Y-96605518D01*
G37*
G36*
X168541591Y-96828085D02*
G01*
X168575569Y-96838393D01*
X168606890Y-96855134D01*
X168634339Y-96877661D01*
X168656866Y-96905110D01*
X168673607Y-96936431D01*
X168683915Y-96970409D01*
X168688000Y-97011890D01*
X168688000Y-97688110D01*
X168683915Y-97729591D01*
X168673607Y-97763569D01*
X168656866Y-97794890D01*
X168634339Y-97822339D01*
X168606890Y-97844866D01*
X168575569Y-97861607D01*
X168541591Y-97871915D01*
X168500110Y-97876000D01*
X167898890Y-97876000D01*
X167857409Y-97871915D01*
X167823431Y-97861607D01*
X167792110Y-97844866D01*
X167764661Y-97822339D01*
X167742134Y-97794890D01*
X167725393Y-97763569D01*
X167715085Y-97729591D01*
X167711000Y-97688110D01*
X167711000Y-97011890D01*
X167715085Y-96970409D01*
X167725393Y-96936431D01*
X167742134Y-96905110D01*
X167764661Y-96877661D01*
X167792110Y-96855134D01*
X167823431Y-96838393D01*
X167857409Y-96828085D01*
X167898890Y-96824000D01*
X168500110Y-96824000D01*
X168541591Y-96828085D01*
X168541591Y-96828085D01*
G37*
G36*
X166966591Y-96828085D02*
G01*
X167000569Y-96838393D01*
X167031890Y-96855134D01*
X167059339Y-96877661D01*
X167081866Y-96905110D01*
X167098607Y-96936431D01*
X167108915Y-96970409D01*
X167113000Y-97011890D01*
X167113000Y-97688110D01*
X167108915Y-97729591D01*
X167098607Y-97763569D01*
X167081866Y-97794890D01*
X167059339Y-97822339D01*
X167031890Y-97844866D01*
X167000569Y-97861607D01*
X166966591Y-97871915D01*
X166925110Y-97876000D01*
X166323890Y-97876000D01*
X166282409Y-97871915D01*
X166248431Y-97861607D01*
X166217110Y-97844866D01*
X166189661Y-97822339D01*
X166167134Y-97794890D01*
X166150393Y-97763569D01*
X166140085Y-97729591D01*
X166136000Y-97688110D01*
X166136000Y-97011890D01*
X166140085Y-96970409D01*
X166150393Y-96936431D01*
X166167134Y-96905110D01*
X166189661Y-96877661D01*
X166217110Y-96855134D01*
X166248431Y-96838393D01*
X166282409Y-96828085D01*
X166323890Y-96824000D01*
X166925110Y-96824000D01*
X166966591Y-96828085D01*
X166966591Y-96828085D01*
G37*
G36*
X163679591Y-96790585D02*
G01*
X163713569Y-96800893D01*
X163744890Y-96817634D01*
X163772339Y-96840161D01*
X163794866Y-96867610D01*
X163811607Y-96898931D01*
X163821915Y-96932909D01*
X163826000Y-96974390D01*
X163826000Y-97575610D01*
X163821915Y-97617091D01*
X163811607Y-97651069D01*
X163794866Y-97682390D01*
X163772339Y-97709839D01*
X163744890Y-97732366D01*
X163713569Y-97749107D01*
X163679591Y-97759415D01*
X163638110Y-97763500D01*
X162961890Y-97763500D01*
X162920409Y-97759415D01*
X162886431Y-97749107D01*
X162855110Y-97732366D01*
X162827661Y-97709839D01*
X162805134Y-97682390D01*
X162788393Y-97651069D01*
X162778085Y-97617091D01*
X162774000Y-97575610D01*
X162774000Y-96974390D01*
X162778085Y-96932909D01*
X162788393Y-96898931D01*
X162805134Y-96867610D01*
X162827661Y-96840161D01*
X162855110Y-96817634D01*
X162886431Y-96800893D01*
X162920409Y-96790585D01*
X162961890Y-96786500D01*
X163638110Y-96786500D01*
X163679591Y-96790585D01*
X163679591Y-96790585D01*
G37*
G36*
X170279591Y-96790585D02*
G01*
X170313569Y-96800893D01*
X170344890Y-96817634D01*
X170372339Y-96840161D01*
X170394866Y-96867610D01*
X170411607Y-96898931D01*
X170421915Y-96932909D01*
X170426000Y-96974390D01*
X170426000Y-97575610D01*
X170421915Y-97617091D01*
X170411607Y-97651069D01*
X170394866Y-97682390D01*
X170372339Y-97709839D01*
X170344890Y-97732366D01*
X170313569Y-97749107D01*
X170279591Y-97759415D01*
X170238110Y-97763500D01*
X169561890Y-97763500D01*
X169520409Y-97759415D01*
X169486431Y-97749107D01*
X169455110Y-97732366D01*
X169427661Y-97709839D01*
X169405134Y-97682390D01*
X169388393Y-97651069D01*
X169378085Y-97617091D01*
X169374000Y-97575610D01*
X169374000Y-96974390D01*
X169378085Y-96932909D01*
X169388393Y-96898931D01*
X169405134Y-96867610D01*
X169427661Y-96840161D01*
X169455110Y-96817634D01*
X169486431Y-96800893D01*
X169520409Y-96790585D01*
X169561890Y-96786500D01*
X170238110Y-96786500D01*
X170279591Y-96790585D01*
X170279591Y-96790585D01*
G37*
G36*
X147375256Y-94391298D02*
G01*
X147481579Y-94412447D01*
X147782042Y-94536903D01*
X148052451Y-94717585D01*
X148282415Y-94947549D01*
X148463097Y-95217958D01*
X148463098Y-95217960D01*
X148494019Y-95292610D01*
X148561594Y-95455750D01*
X148587553Y-95518422D01*
X148651000Y-95837389D01*
X148651000Y-96162611D01*
X148631308Y-96261607D01*
X148587553Y-96481579D01*
X148463097Y-96782042D01*
X148282415Y-97052451D01*
X148052451Y-97282415D01*
X147782042Y-97463097D01*
X147481579Y-97587553D01*
X147375256Y-97608702D01*
X147162611Y-97651000D01*
X146837389Y-97651000D01*
X146624744Y-97608702D01*
X146518421Y-97587553D01*
X146217958Y-97463097D01*
X145947549Y-97282415D01*
X145717585Y-97052451D01*
X145536903Y-96782042D01*
X145412447Y-96481579D01*
X145368692Y-96261607D01*
X145349000Y-96162611D01*
X145349000Y-95837389D01*
X145412447Y-95518422D01*
X145438407Y-95455750D01*
X145505981Y-95292610D01*
X145536902Y-95217960D01*
X145536903Y-95217958D01*
X145717585Y-94947549D01*
X145947549Y-94717585D01*
X146217958Y-94536903D01*
X146518421Y-94412447D01*
X146624744Y-94391298D01*
X146837389Y-94349000D01*
X147162611Y-94349000D01*
X147375256Y-94391298D01*
X147375256Y-94391298D01*
G37*
G36*
X166942591Y-95228085D02*
G01*
X166976569Y-95238393D01*
X167007890Y-95255134D01*
X167035339Y-95277661D01*
X167057866Y-95305110D01*
X167074607Y-95336431D01*
X167084915Y-95370409D01*
X167089000Y-95411890D01*
X167089000Y-96088110D01*
X167084915Y-96129591D01*
X167074607Y-96163569D01*
X167057866Y-96194890D01*
X167035339Y-96222339D01*
X167007890Y-96244866D01*
X166976569Y-96261607D01*
X166942591Y-96271915D01*
X166901110Y-96276000D01*
X166299890Y-96276000D01*
X166258409Y-96271915D01*
X166224431Y-96261607D01*
X166193110Y-96244866D01*
X166165661Y-96222339D01*
X166143134Y-96194890D01*
X166126393Y-96163569D01*
X166116085Y-96129591D01*
X166112000Y-96088110D01*
X166112000Y-95411890D01*
X166116085Y-95370409D01*
X166126393Y-95336431D01*
X166143134Y-95305110D01*
X166165661Y-95277661D01*
X166193110Y-95255134D01*
X166224431Y-95238393D01*
X166258409Y-95228085D01*
X166299890Y-95224000D01*
X166901110Y-95224000D01*
X166942591Y-95228085D01*
X166942591Y-95228085D01*
G37*
G36*
X168517591Y-95228085D02*
G01*
X168551569Y-95238393D01*
X168582890Y-95255134D01*
X168610339Y-95277661D01*
X168632866Y-95305110D01*
X168649607Y-95336431D01*
X168659915Y-95370409D01*
X168664000Y-95411890D01*
X168664000Y-96088110D01*
X168659915Y-96129591D01*
X168649607Y-96163569D01*
X168632866Y-96194890D01*
X168610339Y-96222339D01*
X168582890Y-96244866D01*
X168551569Y-96261607D01*
X168517591Y-96271915D01*
X168476110Y-96276000D01*
X167874890Y-96276000D01*
X167833409Y-96271915D01*
X167799431Y-96261607D01*
X167768110Y-96244866D01*
X167740661Y-96222339D01*
X167718134Y-96194890D01*
X167701393Y-96163569D01*
X167691085Y-96129591D01*
X167687000Y-96088110D01*
X167687000Y-95411890D01*
X167691085Y-95370409D01*
X167701393Y-95336431D01*
X167718134Y-95305110D01*
X167740661Y-95277661D01*
X167768110Y-95255134D01*
X167799431Y-95238393D01*
X167833409Y-95228085D01*
X167874890Y-95224000D01*
X168476110Y-95224000D01*
X168517591Y-95228085D01*
X168517591Y-95228085D01*
G37*
G36*
X170279591Y-95215585D02*
G01*
X170313569Y-95225893D01*
X170344890Y-95242634D01*
X170372339Y-95265161D01*
X170394866Y-95292610D01*
X170411607Y-95323931D01*
X170421915Y-95357909D01*
X170426000Y-95399390D01*
X170426000Y-96000610D01*
X170421915Y-96042091D01*
X170411607Y-96076069D01*
X170394866Y-96107390D01*
X170372339Y-96134839D01*
X170344890Y-96157366D01*
X170313569Y-96174107D01*
X170279591Y-96184415D01*
X170238110Y-96188500D01*
X169561890Y-96188500D01*
X169520409Y-96184415D01*
X169486431Y-96174107D01*
X169455110Y-96157366D01*
X169427661Y-96134839D01*
X169405134Y-96107390D01*
X169388393Y-96076069D01*
X169378085Y-96042091D01*
X169374000Y-96000610D01*
X169374000Y-95399390D01*
X169378085Y-95357909D01*
X169388393Y-95323931D01*
X169405134Y-95292610D01*
X169427661Y-95265161D01*
X169455110Y-95242634D01*
X169486431Y-95225893D01*
X169520409Y-95215585D01*
X169561890Y-95211500D01*
X170238110Y-95211500D01*
X170279591Y-95215585D01*
X170279591Y-95215585D01*
G37*
G36*
X163679591Y-95215585D02*
G01*
X163713569Y-95225893D01*
X163744890Y-95242634D01*
X163772339Y-95265161D01*
X163794866Y-95292610D01*
X163811607Y-95323931D01*
X163821915Y-95357909D01*
X163826000Y-95399390D01*
X163826000Y-96000610D01*
X163821915Y-96042091D01*
X163811607Y-96076069D01*
X163794866Y-96107390D01*
X163772339Y-96134839D01*
X163744890Y-96157366D01*
X163713569Y-96174107D01*
X163679591Y-96184415D01*
X163638110Y-96188500D01*
X162961890Y-96188500D01*
X162920409Y-96184415D01*
X162886431Y-96174107D01*
X162855110Y-96157366D01*
X162827661Y-96134839D01*
X162805134Y-96107390D01*
X162788393Y-96076069D01*
X162778085Y-96042091D01*
X162774000Y-96000610D01*
X162774000Y-95399390D01*
X162778085Y-95357909D01*
X162788393Y-95323931D01*
X162805134Y-95292610D01*
X162827661Y-95265161D01*
X162855110Y-95242634D01*
X162886431Y-95225893D01*
X162920409Y-95215585D01*
X162961890Y-95211500D01*
X163638110Y-95211500D01*
X163679591Y-95215585D01*
X163679591Y-95215585D01*
G37*
G36*
X158329591Y-91973085D02*
G01*
X158363569Y-91983393D01*
X158394890Y-92000134D01*
X158422339Y-92022661D01*
X158444866Y-92050110D01*
X158461607Y-92081431D01*
X158471915Y-92115409D01*
X158476000Y-92156890D01*
X158476000Y-92758110D01*
X158471915Y-92799591D01*
X158461607Y-92833569D01*
X158444866Y-92864890D01*
X158422339Y-92892339D01*
X158394890Y-92914866D01*
X158363569Y-92931607D01*
X158329591Y-92941915D01*
X158288110Y-92946000D01*
X157611890Y-92946000D01*
X157570409Y-92941915D01*
X157536431Y-92931607D01*
X157505110Y-92914866D01*
X157477661Y-92892339D01*
X157455134Y-92864890D01*
X157438393Y-92833569D01*
X157428085Y-92799591D01*
X157424000Y-92758110D01*
X157424000Y-92156890D01*
X157428085Y-92115409D01*
X157438393Y-92081431D01*
X157455134Y-92050110D01*
X157477661Y-92022661D01*
X157505110Y-92000134D01*
X157536431Y-91983393D01*
X157570409Y-91973085D01*
X157611890Y-91969000D01*
X158288110Y-91969000D01*
X158329591Y-91973085D01*
X158329591Y-91973085D01*
G37*
G36*
X160079591Y-91973085D02*
G01*
X160113569Y-91983393D01*
X160144890Y-92000134D01*
X160172339Y-92022661D01*
X160194866Y-92050110D01*
X160211607Y-92081431D01*
X160221915Y-92115409D01*
X160226000Y-92156890D01*
X160226000Y-92758110D01*
X160221915Y-92799591D01*
X160211607Y-92833569D01*
X160194866Y-92864890D01*
X160172339Y-92892339D01*
X160144890Y-92914866D01*
X160113569Y-92931607D01*
X160079591Y-92941915D01*
X160038110Y-92946000D01*
X159361890Y-92946000D01*
X159320409Y-92941915D01*
X159286431Y-92931607D01*
X159255110Y-92914866D01*
X159227661Y-92892339D01*
X159205134Y-92864890D01*
X159188393Y-92833569D01*
X159178085Y-92799591D01*
X159174000Y-92758110D01*
X159174000Y-92156890D01*
X159178085Y-92115409D01*
X159188393Y-92081431D01*
X159205134Y-92050110D01*
X159227661Y-92022661D01*
X159255110Y-92000134D01*
X159286431Y-91983393D01*
X159320409Y-91973085D01*
X159361890Y-91969000D01*
X160038110Y-91969000D01*
X160079591Y-91973085D01*
X160079591Y-91973085D01*
G37*
G36*
X156129591Y-91953085D02*
G01*
X156163569Y-91963393D01*
X156194890Y-91980134D01*
X156222339Y-92002661D01*
X156244866Y-92030110D01*
X156261607Y-92061431D01*
X156271915Y-92095409D01*
X156276000Y-92136890D01*
X156276000Y-92738110D01*
X156271915Y-92779591D01*
X156261607Y-92813569D01*
X156244866Y-92844890D01*
X156222339Y-92872339D01*
X156194890Y-92894866D01*
X156163569Y-92911607D01*
X156129591Y-92921915D01*
X156088110Y-92926000D01*
X155411890Y-92926000D01*
X155370409Y-92921915D01*
X155336431Y-92911607D01*
X155305110Y-92894866D01*
X155277661Y-92872339D01*
X155255134Y-92844890D01*
X155238393Y-92813569D01*
X155228085Y-92779591D01*
X155224000Y-92738110D01*
X155224000Y-92136890D01*
X155228085Y-92095409D01*
X155238393Y-92061431D01*
X155255134Y-92030110D01*
X155277661Y-92002661D01*
X155305110Y-91980134D01*
X155336431Y-91963393D01*
X155370409Y-91953085D01*
X155411890Y-91949000D01*
X156088110Y-91949000D01*
X156129591Y-91953085D01*
X156129591Y-91953085D01*
G37*
G36*
X173717747Y-90690921D02*
G01*
X173797376Y-90698764D01*
X173950627Y-90745252D01*
X173950630Y-90745253D01*
X174091863Y-90820744D01*
X174215659Y-90922341D01*
X174317256Y-91046137D01*
X174392747Y-91187370D01*
X174392748Y-91187373D01*
X174439236Y-91340624D01*
X174454933Y-91500000D01*
X174439236Y-91659376D01*
X174392748Y-91812627D01*
X174392747Y-91812630D01*
X174317256Y-91953863D01*
X174215659Y-92077659D01*
X174091863Y-92179256D01*
X173950630Y-92254747D01*
X173950627Y-92254748D01*
X173797376Y-92301236D01*
X173717747Y-92309079D01*
X173677934Y-92313000D01*
X173322066Y-92313000D01*
X173282253Y-92309079D01*
X173202624Y-92301236D01*
X173049373Y-92254748D01*
X173049370Y-92254747D01*
X172908137Y-92179256D01*
X172784341Y-92077659D01*
X172682744Y-91953863D01*
X172607253Y-91812630D01*
X172607252Y-91812627D01*
X172560764Y-91659376D01*
X172545067Y-91500000D01*
X172560764Y-91340624D01*
X172607252Y-91187373D01*
X172607253Y-91187370D01*
X172682744Y-91046137D01*
X172784341Y-90922341D01*
X172908137Y-90820744D01*
X173049370Y-90745253D01*
X173049373Y-90745252D01*
X173202624Y-90698764D01*
X173282253Y-90690921D01*
X173322066Y-90687000D01*
X173677934Y-90687000D01*
X173717747Y-90690921D01*
X173717747Y-90690921D01*
G37*
G36*
X152217747Y-90690921D02*
G01*
X152297376Y-90698764D01*
X152450627Y-90745252D01*
X152450630Y-90745253D01*
X152591863Y-90820744D01*
X152715659Y-90922341D01*
X152817256Y-91046137D01*
X152892747Y-91187370D01*
X152892748Y-91187373D01*
X152939236Y-91340624D01*
X152954933Y-91500000D01*
X152939236Y-91659376D01*
X152892748Y-91812627D01*
X152892747Y-91812630D01*
X152817256Y-91953863D01*
X152715659Y-92077659D01*
X152591863Y-92179256D01*
X152450630Y-92254747D01*
X152450627Y-92254748D01*
X152297376Y-92301236D01*
X152217747Y-92309079D01*
X152177934Y-92313000D01*
X151822066Y-92313000D01*
X151782253Y-92309079D01*
X151702624Y-92301236D01*
X151549373Y-92254748D01*
X151549370Y-92254747D01*
X151408137Y-92179256D01*
X151284341Y-92077659D01*
X151182744Y-91953863D01*
X151107253Y-91812630D01*
X151107252Y-91812627D01*
X151060764Y-91659376D01*
X151045067Y-91500000D01*
X151060764Y-91340624D01*
X151107252Y-91187373D01*
X151107253Y-91187370D01*
X151182744Y-91046137D01*
X151284341Y-90922341D01*
X151408137Y-90820744D01*
X151549370Y-90745253D01*
X151549373Y-90745252D01*
X151702624Y-90698764D01*
X151782253Y-90690921D01*
X151822066Y-90687000D01*
X152177934Y-90687000D01*
X152217747Y-90690921D01*
X152217747Y-90690921D01*
G37*
G36*
X163905355Y-86375083D02*
G01*
X163910029Y-86376501D01*
X163914330Y-86378800D01*
X163920702Y-86384029D01*
X163941076Y-86397643D01*
X163963715Y-86407020D01*
X163987749Y-86411800D01*
X164012253Y-86411800D01*
X164036286Y-86407019D01*
X164058925Y-86397642D01*
X164079298Y-86384029D01*
X164085670Y-86378800D01*
X164089971Y-86376501D01*
X164094645Y-86375083D01*
X164105641Y-86374000D01*
X164394359Y-86374000D01*
X164405355Y-86375083D01*
X164410029Y-86376501D01*
X164414330Y-86378800D01*
X164420702Y-86384029D01*
X164441076Y-86397643D01*
X164463715Y-86407020D01*
X164487749Y-86411800D01*
X164512253Y-86411800D01*
X164536286Y-86407019D01*
X164558925Y-86397642D01*
X164579298Y-86384029D01*
X164585670Y-86378800D01*
X164589971Y-86376501D01*
X164594645Y-86375083D01*
X164605641Y-86374000D01*
X164894359Y-86374000D01*
X164905355Y-86375083D01*
X164910029Y-86376501D01*
X164914330Y-86378800D01*
X164920702Y-86384029D01*
X164941076Y-86397643D01*
X164963715Y-86407020D01*
X164987749Y-86411800D01*
X165012253Y-86411800D01*
X165036286Y-86407019D01*
X165058925Y-86397642D01*
X165079298Y-86384029D01*
X165085670Y-86378800D01*
X165089971Y-86376501D01*
X165094645Y-86375083D01*
X165105641Y-86374000D01*
X165394359Y-86374000D01*
X165405355Y-86375083D01*
X165410029Y-86376501D01*
X165414330Y-86378800D01*
X165420702Y-86384029D01*
X165441076Y-86397643D01*
X165463715Y-86407020D01*
X165487749Y-86411800D01*
X165512253Y-86411800D01*
X165536286Y-86407019D01*
X165558925Y-86397642D01*
X165579298Y-86384029D01*
X165585670Y-86378800D01*
X165589971Y-86376501D01*
X165594645Y-86375083D01*
X165605641Y-86374000D01*
X165894359Y-86374000D01*
X165905355Y-86375083D01*
X165910029Y-86376501D01*
X165914330Y-86378800D01*
X165920702Y-86384029D01*
X165941076Y-86397643D01*
X165963715Y-86407020D01*
X165987749Y-86411800D01*
X166012253Y-86411800D01*
X166036286Y-86407019D01*
X166058925Y-86397642D01*
X166079298Y-86384029D01*
X166085670Y-86378800D01*
X166089971Y-86376501D01*
X166094645Y-86375083D01*
X166105641Y-86374000D01*
X166394359Y-86374000D01*
X166405355Y-86375083D01*
X166410029Y-86376501D01*
X166414330Y-86378800D01*
X166420702Y-86384029D01*
X166441076Y-86397643D01*
X166463715Y-86407020D01*
X166487749Y-86411800D01*
X166512253Y-86411800D01*
X166536286Y-86407019D01*
X166558925Y-86397642D01*
X166579298Y-86384029D01*
X166585670Y-86378800D01*
X166589971Y-86376501D01*
X166594645Y-86375083D01*
X166605641Y-86374000D01*
X166894359Y-86374000D01*
X166905355Y-86375083D01*
X166910029Y-86376501D01*
X166914330Y-86378800D01*
X166920702Y-86384029D01*
X166941076Y-86397643D01*
X166963715Y-86407020D01*
X166987749Y-86411800D01*
X167012253Y-86411800D01*
X167036286Y-86407019D01*
X167058925Y-86397642D01*
X167079298Y-86384029D01*
X167085670Y-86378800D01*
X167089971Y-86376501D01*
X167094645Y-86375083D01*
X167105641Y-86374000D01*
X167394359Y-86374000D01*
X167405355Y-86375083D01*
X167410029Y-86376501D01*
X167414331Y-86378800D01*
X167418104Y-86381896D01*
X167421200Y-86385669D01*
X167423499Y-86389971D01*
X167424917Y-86394645D01*
X167426000Y-86405641D01*
X167426000Y-87249001D01*
X167428402Y-87273387D01*
X167435515Y-87296836D01*
X167447066Y-87318447D01*
X167462611Y-87337389D01*
X167481553Y-87352934D01*
X167503164Y-87364485D01*
X167526613Y-87371598D01*
X167550999Y-87374000D01*
X168394359Y-87374000D01*
X168405355Y-87375083D01*
X168410029Y-87376501D01*
X168414331Y-87378800D01*
X168418104Y-87381896D01*
X168421200Y-87385669D01*
X168423499Y-87389971D01*
X168424917Y-87394645D01*
X168426000Y-87405641D01*
X168426000Y-87694359D01*
X168424917Y-87705355D01*
X168423499Y-87710029D01*
X168421200Y-87714330D01*
X168415971Y-87720702D01*
X168402357Y-87741076D01*
X168392980Y-87763715D01*
X168388200Y-87787749D01*
X168388200Y-87812253D01*
X168392981Y-87836286D01*
X168402358Y-87858925D01*
X168415971Y-87879298D01*
X168421200Y-87885670D01*
X168423499Y-87889971D01*
X168424917Y-87894645D01*
X168426000Y-87905641D01*
X168426000Y-88194359D01*
X168424917Y-88205355D01*
X168423499Y-88210029D01*
X168421200Y-88214330D01*
X168415971Y-88220702D01*
X168402357Y-88241076D01*
X168392980Y-88263715D01*
X168388200Y-88287749D01*
X168388200Y-88312253D01*
X168392981Y-88336286D01*
X168402358Y-88358925D01*
X168415971Y-88379298D01*
X168421200Y-88385670D01*
X168423499Y-88389971D01*
X168424917Y-88394645D01*
X168426000Y-88405641D01*
X168426000Y-88694359D01*
X168424917Y-88705355D01*
X168423499Y-88710029D01*
X168421200Y-88714330D01*
X168415971Y-88720702D01*
X168402357Y-88741076D01*
X168392980Y-88763715D01*
X168388200Y-88787749D01*
X168388200Y-88812253D01*
X168392981Y-88836286D01*
X168402358Y-88858925D01*
X168415971Y-88879298D01*
X168421200Y-88885670D01*
X168423499Y-88889971D01*
X168424917Y-88894645D01*
X168426000Y-88905641D01*
X168426000Y-89194359D01*
X168424917Y-89205355D01*
X168423499Y-89210029D01*
X168421200Y-89214330D01*
X168415971Y-89220702D01*
X168402357Y-89241076D01*
X168392980Y-89263715D01*
X168388200Y-89287749D01*
X168388200Y-89312253D01*
X168392981Y-89336286D01*
X168402358Y-89358925D01*
X168415971Y-89379298D01*
X168421200Y-89385670D01*
X168423499Y-89389971D01*
X168424917Y-89394645D01*
X168426000Y-89405641D01*
X168426000Y-89694359D01*
X168424917Y-89705355D01*
X168423499Y-89710029D01*
X168421200Y-89714330D01*
X168415971Y-89720702D01*
X168402357Y-89741076D01*
X168392980Y-89763715D01*
X168388200Y-89787749D01*
X168388200Y-89812253D01*
X168392981Y-89836286D01*
X168402358Y-89858925D01*
X168415971Y-89879298D01*
X168421200Y-89885670D01*
X168423499Y-89889971D01*
X168424917Y-89894645D01*
X168426000Y-89905641D01*
X168426000Y-90194359D01*
X168424917Y-90205355D01*
X168423499Y-90210029D01*
X168421200Y-90214330D01*
X168415971Y-90220702D01*
X168402357Y-90241076D01*
X168392980Y-90263715D01*
X168388200Y-90287749D01*
X168388200Y-90312253D01*
X168392981Y-90336286D01*
X168402358Y-90358925D01*
X168415971Y-90379298D01*
X168421200Y-90385670D01*
X168423499Y-90389971D01*
X168424917Y-90394645D01*
X168426000Y-90405641D01*
X168426000Y-90694359D01*
X168424917Y-90705355D01*
X168423499Y-90710029D01*
X168421200Y-90714330D01*
X168415971Y-90720702D01*
X168402357Y-90741076D01*
X168392980Y-90763715D01*
X168388200Y-90787749D01*
X168388200Y-90812253D01*
X168392981Y-90836286D01*
X168402358Y-90858925D01*
X168415971Y-90879298D01*
X168421200Y-90885670D01*
X168423499Y-90889971D01*
X168424917Y-90894645D01*
X168426000Y-90905641D01*
X168426000Y-91194359D01*
X168424917Y-91205355D01*
X168423499Y-91210029D01*
X168421200Y-91214331D01*
X168418104Y-91218104D01*
X168414331Y-91221200D01*
X168410029Y-91223499D01*
X168405355Y-91224917D01*
X168394359Y-91226000D01*
X167550999Y-91226000D01*
X167526613Y-91228402D01*
X167503164Y-91235515D01*
X167481553Y-91247066D01*
X167462611Y-91262611D01*
X167447066Y-91281553D01*
X167435515Y-91303164D01*
X167428402Y-91326613D01*
X167426000Y-91350999D01*
X167426000Y-92194359D01*
X167424917Y-92205355D01*
X167423499Y-92210029D01*
X167421200Y-92214331D01*
X167418104Y-92218104D01*
X167414331Y-92221200D01*
X167410029Y-92223499D01*
X167405355Y-92224917D01*
X167394359Y-92226000D01*
X167105641Y-92226000D01*
X167094645Y-92224917D01*
X167089971Y-92223499D01*
X167085670Y-92221200D01*
X167079298Y-92215971D01*
X167058924Y-92202357D01*
X167036285Y-92192980D01*
X167012251Y-92188200D01*
X166987747Y-92188200D01*
X166963714Y-92192981D01*
X166941075Y-92202358D01*
X166920702Y-92215971D01*
X166914330Y-92221200D01*
X166910029Y-92223499D01*
X166905355Y-92224917D01*
X166894359Y-92226000D01*
X166605641Y-92226000D01*
X166594645Y-92224917D01*
X166589971Y-92223499D01*
X166585670Y-92221200D01*
X166579298Y-92215971D01*
X166558924Y-92202357D01*
X166536285Y-92192980D01*
X166512251Y-92188200D01*
X166487747Y-92188200D01*
X166463714Y-92192981D01*
X166441075Y-92202358D01*
X166420702Y-92215971D01*
X166414330Y-92221200D01*
X166410029Y-92223499D01*
X166405355Y-92224917D01*
X166394359Y-92226000D01*
X166105641Y-92226000D01*
X166094645Y-92224917D01*
X166089971Y-92223499D01*
X166085670Y-92221200D01*
X166079298Y-92215971D01*
X166058924Y-92202357D01*
X166036285Y-92192980D01*
X166012251Y-92188200D01*
X165987747Y-92188200D01*
X165963714Y-92192981D01*
X165941075Y-92202358D01*
X165920702Y-92215971D01*
X165914330Y-92221200D01*
X165910029Y-92223499D01*
X165905355Y-92224917D01*
X165894359Y-92226000D01*
X165605641Y-92226000D01*
X165594645Y-92224917D01*
X165589971Y-92223499D01*
X165585670Y-92221200D01*
X165579298Y-92215971D01*
X165558924Y-92202357D01*
X165536285Y-92192980D01*
X165512251Y-92188200D01*
X165487747Y-92188200D01*
X165463714Y-92192981D01*
X165441075Y-92202358D01*
X165420702Y-92215971D01*
X165414330Y-92221200D01*
X165410029Y-92223499D01*
X165405355Y-92224917D01*
X165394359Y-92226000D01*
X165105641Y-92226000D01*
X165094645Y-92224917D01*
X165089971Y-92223499D01*
X165085670Y-92221200D01*
X165079298Y-92215971D01*
X165058924Y-92202357D01*
X165036285Y-92192980D01*
X165012251Y-92188200D01*
X164987747Y-92188200D01*
X164963714Y-92192981D01*
X164941075Y-92202358D01*
X164920702Y-92215971D01*
X164914330Y-92221200D01*
X164910029Y-92223499D01*
X164905355Y-92224917D01*
X164894359Y-92226000D01*
X164605641Y-92226000D01*
X164594645Y-92224917D01*
X164589971Y-92223499D01*
X164585670Y-92221200D01*
X164579298Y-92215971D01*
X164558924Y-92202357D01*
X164536285Y-92192980D01*
X164512251Y-92188200D01*
X164487747Y-92188200D01*
X164463714Y-92192981D01*
X164441075Y-92202358D01*
X164420702Y-92215971D01*
X164414330Y-92221200D01*
X164410029Y-92223499D01*
X164405355Y-92224917D01*
X164394359Y-92226000D01*
X164105641Y-92226000D01*
X164094645Y-92224917D01*
X164089971Y-92223499D01*
X164085670Y-92221200D01*
X164079298Y-92215971D01*
X164058924Y-92202357D01*
X164036285Y-92192980D01*
X164012251Y-92188200D01*
X163987747Y-92188200D01*
X163963714Y-92192981D01*
X163941075Y-92202358D01*
X163920702Y-92215971D01*
X163914330Y-92221200D01*
X163910029Y-92223499D01*
X163905355Y-92224917D01*
X163894359Y-92226000D01*
X163605641Y-92226000D01*
X163594645Y-92224917D01*
X163589971Y-92223499D01*
X163585669Y-92221200D01*
X163581896Y-92218104D01*
X163578800Y-92214331D01*
X163576501Y-92210029D01*
X163575083Y-92205355D01*
X163574000Y-92194359D01*
X163574000Y-91350999D01*
X163571598Y-91326613D01*
X163564485Y-91303164D01*
X163552934Y-91281553D01*
X163537389Y-91262611D01*
X163518447Y-91247066D01*
X163496836Y-91235515D01*
X163473387Y-91228402D01*
X163449001Y-91226000D01*
X162605641Y-91226000D01*
X162594645Y-91224917D01*
X162589971Y-91223499D01*
X162585669Y-91221200D01*
X162581896Y-91218104D01*
X162578800Y-91214331D01*
X162576501Y-91210029D01*
X162575083Y-91205355D01*
X162574000Y-91194359D01*
X162574000Y-91115801D01*
X163551000Y-91115801D01*
X163551000Y-91124001D01*
X163553402Y-91148387D01*
X163560515Y-91171836D01*
X163572066Y-91193447D01*
X163587611Y-91212389D01*
X163606553Y-91227934D01*
X163628164Y-91239485D01*
X163651613Y-91246598D01*
X163675999Y-91249000D01*
X163684199Y-91249000D01*
X163708585Y-91246598D01*
X163732034Y-91239485D01*
X163753645Y-91227934D01*
X163772587Y-91212389D01*
X163788132Y-91193447D01*
X163799683Y-91171836D01*
X163806796Y-91148387D01*
X163807991Y-91136247D01*
X167191403Y-91136247D01*
X167196183Y-91160281D01*
X167205559Y-91182920D01*
X167219172Y-91203295D01*
X167236498Y-91220623D01*
X167256872Y-91234238D01*
X167279510Y-91243616D01*
X167303543Y-91248398D01*
X167315801Y-91249000D01*
X167324001Y-91249000D01*
X167348387Y-91246598D01*
X167371836Y-91239485D01*
X167393447Y-91227934D01*
X167412389Y-91212389D01*
X167427934Y-91193447D01*
X167439485Y-91171836D01*
X167446598Y-91148387D01*
X167449000Y-91124001D01*
X167449000Y-91115801D01*
X167446598Y-91091415D01*
X167439485Y-91067966D01*
X167427934Y-91046355D01*
X167412389Y-91027413D01*
X167393447Y-91011868D01*
X167371836Y-91000317D01*
X167348387Y-90993204D01*
X167324001Y-90990802D01*
X167299615Y-90993204D01*
X167276166Y-91000317D01*
X167254555Y-91011868D01*
X167235613Y-91027413D01*
X167227382Y-91036496D01*
X167219179Y-91044698D01*
X167205564Y-91065072D01*
X167196186Y-91087710D01*
X167191404Y-91111743D01*
X167191403Y-91136247D01*
X163807991Y-91136247D01*
X163809198Y-91124001D01*
X163806796Y-91099615D01*
X163799683Y-91076166D01*
X163788132Y-91054555D01*
X163772587Y-91035613D01*
X163763504Y-91027382D01*
X163755302Y-91019179D01*
X163734928Y-91005564D01*
X163712290Y-90996186D01*
X163688257Y-90991404D01*
X163663753Y-90991403D01*
X163639719Y-90996183D01*
X163617080Y-91005559D01*
X163596705Y-91019172D01*
X163579377Y-91036498D01*
X163565762Y-91056872D01*
X163556384Y-91079510D01*
X163551602Y-91103543D01*
X163551000Y-91115801D01*
X162574000Y-91115801D01*
X162574000Y-90905641D01*
X162575083Y-90894645D01*
X162576501Y-90889971D01*
X162578800Y-90885670D01*
X162584029Y-90879298D01*
X162597643Y-90858924D01*
X162607020Y-90836285D01*
X162611800Y-90812251D01*
X162611800Y-90787747D01*
X162607019Y-90763714D01*
X162597642Y-90741075D01*
X162584029Y-90720702D01*
X162578800Y-90714330D01*
X162576501Y-90710029D01*
X162575083Y-90705355D01*
X162574000Y-90694359D01*
X162574000Y-90405641D01*
X162575083Y-90394645D01*
X162576501Y-90389971D01*
X162578800Y-90385670D01*
X162584029Y-90379298D01*
X162597643Y-90358924D01*
X162607020Y-90336285D01*
X162611800Y-90312251D01*
X162611800Y-90287747D01*
X162607019Y-90263714D01*
X162597642Y-90241075D01*
X162584029Y-90220702D01*
X162578800Y-90214330D01*
X162576501Y-90210029D01*
X162575083Y-90205355D01*
X162574000Y-90194359D01*
X162574000Y-89905641D01*
X162575083Y-89894645D01*
X162576501Y-89889971D01*
X162578800Y-89885670D01*
X162584029Y-89879298D01*
X162597643Y-89858924D01*
X162607020Y-89836285D01*
X162611800Y-89812251D01*
X162611800Y-89787747D01*
X162607019Y-89763714D01*
X162597642Y-89741075D01*
X162584029Y-89720702D01*
X162578800Y-89714330D01*
X162576501Y-89710029D01*
X162575083Y-89705355D01*
X162574000Y-89694359D01*
X162574000Y-89405641D01*
X162575083Y-89394645D01*
X162576501Y-89389971D01*
X162578800Y-89385670D01*
X162584029Y-89379298D01*
X162597643Y-89358924D01*
X162607020Y-89336285D01*
X162611800Y-89312251D01*
X162611800Y-89287747D01*
X162607019Y-89263714D01*
X162597642Y-89241075D01*
X162584029Y-89220702D01*
X162578800Y-89214330D01*
X162576501Y-89210029D01*
X162575083Y-89205355D01*
X162574000Y-89194359D01*
X162574000Y-88905641D01*
X162575083Y-88894645D01*
X162576501Y-88889971D01*
X162578800Y-88885670D01*
X162584029Y-88879298D01*
X162597643Y-88858924D01*
X162607020Y-88836285D01*
X162611800Y-88812251D01*
X162611800Y-88787747D01*
X162607019Y-88763714D01*
X162597642Y-88741075D01*
X162584029Y-88720702D01*
X162578800Y-88714330D01*
X162576501Y-88710029D01*
X162575083Y-88705355D01*
X162574000Y-88694359D01*
X162574000Y-88405641D01*
X162575083Y-88394645D01*
X162576501Y-88389971D01*
X162578800Y-88385670D01*
X162584029Y-88379298D01*
X162597643Y-88358924D01*
X162607020Y-88336285D01*
X162611800Y-88312251D01*
X162611800Y-88287747D01*
X162607019Y-88263714D01*
X162597642Y-88241075D01*
X162584029Y-88220702D01*
X162578800Y-88214330D01*
X162576501Y-88210029D01*
X162575083Y-88205355D01*
X162574000Y-88194359D01*
X162574000Y-87905641D01*
X162575083Y-87894645D01*
X162576501Y-87889971D01*
X162578800Y-87885670D01*
X162584029Y-87879298D01*
X162597643Y-87858924D01*
X162607020Y-87836285D01*
X162611800Y-87812251D01*
X162611800Y-87787747D01*
X162607019Y-87763714D01*
X162597642Y-87741075D01*
X162584029Y-87720702D01*
X162578800Y-87714330D01*
X162576501Y-87710029D01*
X162575083Y-87705355D01*
X162574000Y-87694359D01*
X162574000Y-87475999D01*
X163551000Y-87475999D01*
X163551000Y-87484199D01*
X163553402Y-87508585D01*
X163560515Y-87532034D01*
X163572066Y-87553645D01*
X163587611Y-87572587D01*
X163606553Y-87588132D01*
X163628164Y-87599683D01*
X163651613Y-87606796D01*
X163675999Y-87609198D01*
X163700385Y-87606796D01*
X163723834Y-87599683D01*
X163745445Y-87588132D01*
X163764387Y-87572587D01*
X163772620Y-87563502D01*
X163780821Y-87555302D01*
X163794436Y-87534928D01*
X163803814Y-87512290D01*
X163808596Y-87488257D01*
X163808596Y-87475999D01*
X167190802Y-87475999D01*
X167193204Y-87500385D01*
X167200317Y-87523834D01*
X167211868Y-87545445D01*
X167227413Y-87564387D01*
X167236496Y-87572618D01*
X167244698Y-87580821D01*
X167265072Y-87594436D01*
X167287710Y-87603814D01*
X167311743Y-87608596D01*
X167336247Y-87608597D01*
X167360281Y-87603817D01*
X167382920Y-87594441D01*
X167403295Y-87580828D01*
X167420623Y-87563502D01*
X167434238Y-87543128D01*
X167443616Y-87520490D01*
X167448398Y-87496457D01*
X167449000Y-87484199D01*
X167449000Y-87475999D01*
X167446598Y-87451613D01*
X167439485Y-87428164D01*
X167427934Y-87406553D01*
X167412389Y-87387611D01*
X167393447Y-87372066D01*
X167371836Y-87360515D01*
X167348387Y-87353402D01*
X167324001Y-87351000D01*
X167315801Y-87351000D01*
X167291415Y-87353402D01*
X167267966Y-87360515D01*
X167246355Y-87372066D01*
X167227413Y-87387611D01*
X167211868Y-87406553D01*
X167200317Y-87428164D01*
X167193204Y-87451613D01*
X167190802Y-87475999D01*
X163808596Y-87475999D01*
X163808597Y-87463753D01*
X163803817Y-87439719D01*
X163794441Y-87417080D01*
X163780828Y-87396705D01*
X163763502Y-87379377D01*
X163743128Y-87365762D01*
X163720490Y-87356384D01*
X163696457Y-87351602D01*
X163684199Y-87351000D01*
X163675999Y-87351000D01*
X163651613Y-87353402D01*
X163628164Y-87360515D01*
X163606553Y-87372066D01*
X163587611Y-87387611D01*
X163572066Y-87406553D01*
X163560515Y-87428164D01*
X163553402Y-87451613D01*
X163551000Y-87475999D01*
X162574000Y-87475999D01*
X162574000Y-87405641D01*
X162575083Y-87394645D01*
X162576501Y-87389971D01*
X162578800Y-87385669D01*
X162581896Y-87381896D01*
X162585669Y-87378800D01*
X162589971Y-87376501D01*
X162594645Y-87375083D01*
X162605641Y-87374000D01*
X163449001Y-87374000D01*
X163473387Y-87371598D01*
X163496836Y-87364485D01*
X163518447Y-87352934D01*
X163537389Y-87337389D01*
X163552934Y-87318447D01*
X163564485Y-87296836D01*
X163571598Y-87273387D01*
X163574000Y-87249001D01*
X163574000Y-86405641D01*
X163575083Y-86394645D01*
X163576501Y-86389971D01*
X163578800Y-86385669D01*
X163581896Y-86381896D01*
X163585669Y-86378800D01*
X163589971Y-86376501D01*
X163594645Y-86375083D01*
X163605641Y-86374000D01*
X163894359Y-86374000D01*
X163905355Y-86375083D01*
X163905355Y-86375083D01*
G37*
G36*
X160079591Y-90398085D02*
G01*
X160113569Y-90408393D01*
X160144890Y-90425134D01*
X160172339Y-90447661D01*
X160194866Y-90475110D01*
X160211607Y-90506431D01*
X160221915Y-90540409D01*
X160226000Y-90581890D01*
X160226000Y-91183110D01*
X160221915Y-91224591D01*
X160211607Y-91258569D01*
X160194866Y-91289890D01*
X160172339Y-91317339D01*
X160144890Y-91339866D01*
X160113569Y-91356607D01*
X160079591Y-91366915D01*
X160038110Y-91371000D01*
X159361890Y-91371000D01*
X159320409Y-91366915D01*
X159286431Y-91356607D01*
X159255110Y-91339866D01*
X159227661Y-91317339D01*
X159205134Y-91289890D01*
X159188393Y-91258569D01*
X159178085Y-91224591D01*
X159174000Y-91183110D01*
X159174000Y-90581890D01*
X159178085Y-90540409D01*
X159188393Y-90506431D01*
X159205134Y-90475110D01*
X159227661Y-90447661D01*
X159255110Y-90425134D01*
X159286431Y-90408393D01*
X159320409Y-90398085D01*
X159361890Y-90394000D01*
X160038110Y-90394000D01*
X160079591Y-90398085D01*
X160079591Y-90398085D01*
G37*
G36*
X158329591Y-90398085D02*
G01*
X158363569Y-90408393D01*
X158394890Y-90425134D01*
X158422339Y-90447661D01*
X158444866Y-90475110D01*
X158461607Y-90506431D01*
X158471915Y-90540409D01*
X158476000Y-90581890D01*
X158476000Y-91183110D01*
X158471915Y-91224591D01*
X158461607Y-91258569D01*
X158444866Y-91289890D01*
X158422339Y-91317339D01*
X158394890Y-91339866D01*
X158363569Y-91356607D01*
X158329591Y-91366915D01*
X158288110Y-91371000D01*
X157611890Y-91371000D01*
X157570409Y-91366915D01*
X157536431Y-91356607D01*
X157505110Y-91339866D01*
X157477661Y-91317339D01*
X157455134Y-91289890D01*
X157438393Y-91258569D01*
X157428085Y-91224591D01*
X157424000Y-91183110D01*
X157424000Y-90581890D01*
X157428085Y-90540409D01*
X157438393Y-90506431D01*
X157455134Y-90475110D01*
X157477661Y-90447661D01*
X157505110Y-90425134D01*
X157536431Y-90408393D01*
X157570409Y-90398085D01*
X157611890Y-90394000D01*
X158288110Y-90394000D01*
X158329591Y-90398085D01*
X158329591Y-90398085D01*
G37*
G36*
X156129591Y-90378085D02*
G01*
X156163569Y-90388393D01*
X156194890Y-90405134D01*
X156222339Y-90427661D01*
X156244866Y-90455110D01*
X156261607Y-90486431D01*
X156271915Y-90520409D01*
X156276000Y-90561890D01*
X156276000Y-91163110D01*
X156271915Y-91204591D01*
X156261607Y-91238569D01*
X156244866Y-91269890D01*
X156222339Y-91297339D01*
X156194890Y-91319866D01*
X156163569Y-91336607D01*
X156129591Y-91346915D01*
X156088110Y-91351000D01*
X155411890Y-91351000D01*
X155370409Y-91346915D01*
X155336431Y-91336607D01*
X155305110Y-91319866D01*
X155277661Y-91297339D01*
X155255134Y-91269890D01*
X155238393Y-91238569D01*
X155228085Y-91204591D01*
X155224000Y-91163110D01*
X155224000Y-90561890D01*
X155228085Y-90520409D01*
X155238393Y-90486431D01*
X155255134Y-90455110D01*
X155277661Y-90427661D01*
X155305110Y-90405134D01*
X155336431Y-90388393D01*
X155370409Y-90378085D01*
X155411890Y-90374000D01*
X156088110Y-90374000D01*
X156129591Y-90378085D01*
X156129591Y-90378085D01*
G37*
G36*
X173717747Y-88690921D02*
G01*
X173797376Y-88698764D01*
X173950627Y-88745252D01*
X173950630Y-88745253D01*
X174091863Y-88820744D01*
X174215659Y-88922341D01*
X174317256Y-89046137D01*
X174392747Y-89187370D01*
X174392748Y-89187373D01*
X174439236Y-89340624D01*
X174454933Y-89500000D01*
X174439236Y-89659376D01*
X174392862Y-89812251D01*
X174392747Y-89812630D01*
X174317256Y-89953863D01*
X174215659Y-90077659D01*
X174091863Y-90179256D01*
X173950630Y-90254747D01*
X173950627Y-90254748D01*
X173797376Y-90301236D01*
X173717747Y-90309079D01*
X173677934Y-90313000D01*
X173322066Y-90313000D01*
X173282253Y-90309079D01*
X173202624Y-90301236D01*
X173049373Y-90254748D01*
X173049370Y-90254747D01*
X172908137Y-90179256D01*
X172784341Y-90077659D01*
X172682744Y-89953863D01*
X172607253Y-89812630D01*
X172607138Y-89812251D01*
X172560764Y-89659376D01*
X172545067Y-89500000D01*
X172560764Y-89340624D01*
X172607252Y-89187373D01*
X172607253Y-89187370D01*
X172682744Y-89046137D01*
X172784341Y-88922341D01*
X172908137Y-88820744D01*
X173049370Y-88745253D01*
X173049373Y-88745252D01*
X173202624Y-88698764D01*
X173282253Y-88690921D01*
X173322066Y-88687000D01*
X173677934Y-88687000D01*
X173717747Y-88690921D01*
X173717747Y-88690921D01*
G37*
G36*
X152217747Y-88690921D02*
G01*
X152297376Y-88698764D01*
X152450627Y-88745252D01*
X152450630Y-88745253D01*
X152591863Y-88820744D01*
X152715659Y-88922341D01*
X152817256Y-89046137D01*
X152892747Y-89187370D01*
X152892748Y-89187373D01*
X152939236Y-89340624D01*
X152954933Y-89500000D01*
X152939236Y-89659376D01*
X152892862Y-89812251D01*
X152892747Y-89812630D01*
X152817256Y-89953863D01*
X152715659Y-90077659D01*
X152591863Y-90179256D01*
X152450630Y-90254747D01*
X152450627Y-90254748D01*
X152297376Y-90301236D01*
X152217747Y-90309079D01*
X152177934Y-90313000D01*
X151822066Y-90313000D01*
X151782253Y-90309079D01*
X151702624Y-90301236D01*
X151549373Y-90254748D01*
X151549370Y-90254747D01*
X151408137Y-90179256D01*
X151284341Y-90077659D01*
X151182744Y-89953863D01*
X151107253Y-89812630D01*
X151107138Y-89812251D01*
X151060764Y-89659376D01*
X151045067Y-89500000D01*
X151060764Y-89340624D01*
X151107252Y-89187373D01*
X151107253Y-89187370D01*
X151182744Y-89046137D01*
X151284341Y-88922341D01*
X151408137Y-88820744D01*
X151549370Y-88745253D01*
X151549373Y-88745252D01*
X151702624Y-88698764D01*
X151782253Y-88690921D01*
X151822066Y-88687000D01*
X152177934Y-88687000D01*
X152217747Y-88690921D01*
X152217747Y-88690921D01*
G37*
G36*
X158176000Y-89531000D02*
G01*
X157424000Y-89531000D01*
X157424000Y-88369000D01*
X158176000Y-88369000D01*
X158176000Y-89531000D01*
X158176000Y-89531000D01*
G37*
G36*
X156276000Y-89531000D02*
G01*
X155524000Y-89531000D01*
X155524000Y-88369000D01*
X156276000Y-88369000D01*
X156276000Y-89531000D01*
X156276000Y-89531000D01*
G37*
G36*
X152217747Y-86690921D02*
G01*
X152297376Y-86698764D01*
X152450627Y-86745252D01*
X152450630Y-86745253D01*
X152591863Y-86820744D01*
X152715659Y-86922341D01*
X152817256Y-87046137D01*
X152892747Y-87187370D01*
X152892748Y-87187373D01*
X152939236Y-87340624D01*
X152954933Y-87500000D01*
X152939236Y-87659376D01*
X152892862Y-87812251D01*
X152892747Y-87812630D01*
X152817256Y-87953863D01*
X152715659Y-88077659D01*
X152591863Y-88179256D01*
X152450630Y-88254747D01*
X152450627Y-88254748D01*
X152297376Y-88301236D01*
X152217747Y-88309079D01*
X152177934Y-88313000D01*
X151822066Y-88313000D01*
X151782253Y-88309079D01*
X151702624Y-88301236D01*
X151549373Y-88254748D01*
X151549370Y-88254747D01*
X151408137Y-88179256D01*
X151284341Y-88077659D01*
X151182744Y-87953863D01*
X151107253Y-87812630D01*
X151107138Y-87812251D01*
X151060764Y-87659376D01*
X151045067Y-87500000D01*
X151060764Y-87340624D01*
X151107252Y-87187373D01*
X151107253Y-87187370D01*
X151182744Y-87046137D01*
X151284341Y-86922341D01*
X151408137Y-86820744D01*
X151549370Y-86745253D01*
X151549373Y-86745252D01*
X151702624Y-86698764D01*
X151782253Y-86690921D01*
X151822066Y-86687000D01*
X152177934Y-86687000D01*
X152217747Y-86690921D01*
X152217747Y-86690921D01*
G37*
G36*
X173717747Y-86690921D02*
G01*
X173797376Y-86698764D01*
X173950627Y-86745252D01*
X173950630Y-86745253D01*
X174091863Y-86820744D01*
X174215659Y-86922341D01*
X174317256Y-87046137D01*
X174392747Y-87187370D01*
X174392748Y-87187373D01*
X174439236Y-87340624D01*
X174454933Y-87500000D01*
X174439236Y-87659376D01*
X174392862Y-87812251D01*
X174392747Y-87812630D01*
X174317256Y-87953863D01*
X174215659Y-88077659D01*
X174091863Y-88179256D01*
X173950630Y-88254747D01*
X173950627Y-88254748D01*
X173797376Y-88301236D01*
X173717747Y-88309079D01*
X173677934Y-88313000D01*
X173322066Y-88313000D01*
X173282253Y-88309079D01*
X173202624Y-88301236D01*
X173049373Y-88254748D01*
X173049370Y-88254747D01*
X172908137Y-88179256D01*
X172784341Y-88077659D01*
X172682744Y-87953863D01*
X172607253Y-87812630D01*
X172607138Y-87812251D01*
X172560764Y-87659376D01*
X172545067Y-87500000D01*
X172560764Y-87340624D01*
X172607252Y-87187373D01*
X172607253Y-87187370D01*
X172682744Y-87046137D01*
X172784341Y-86922341D01*
X172908137Y-86820744D01*
X173049370Y-86745253D01*
X173049373Y-86745252D01*
X173202624Y-86698764D01*
X173282253Y-86690921D01*
X173322066Y-86687000D01*
X173677934Y-86687000D01*
X173717747Y-86690921D01*
X173717747Y-86690921D01*
G37*
G36*
X158176000Y-87331000D02*
G01*
X155524000Y-87331000D01*
X155524000Y-86169000D01*
X158176000Y-86169000D01*
X158176000Y-87331000D01*
X158176000Y-87331000D01*
G37*
G36*
X173717747Y-84690921D02*
G01*
X173797376Y-84698764D01*
X173950627Y-84745252D01*
X173950630Y-84745253D01*
X174091863Y-84820744D01*
X174215659Y-84922341D01*
X174317256Y-85046137D01*
X174392747Y-85187370D01*
X174392748Y-85187373D01*
X174439236Y-85340624D01*
X174454933Y-85500000D01*
X174439236Y-85659376D01*
X174392748Y-85812627D01*
X174392747Y-85812630D01*
X174317256Y-85953863D01*
X174215659Y-86077659D01*
X174091863Y-86179256D01*
X173950630Y-86254747D01*
X173950627Y-86254748D01*
X173797376Y-86301236D01*
X173717747Y-86309079D01*
X173677934Y-86313000D01*
X173322066Y-86313000D01*
X173282253Y-86309079D01*
X173202624Y-86301236D01*
X173049373Y-86254748D01*
X173049370Y-86254747D01*
X172908137Y-86179256D01*
X172784341Y-86077659D01*
X172682744Y-85953863D01*
X172607253Y-85812630D01*
X172607252Y-85812627D01*
X172560764Y-85659376D01*
X172545067Y-85500000D01*
X172560764Y-85340624D01*
X172607252Y-85187373D01*
X172607253Y-85187370D01*
X172682744Y-85046137D01*
X172784341Y-84922341D01*
X172908137Y-84820744D01*
X173049370Y-84745253D01*
X173049373Y-84745252D01*
X173202624Y-84698764D01*
X173282253Y-84690921D01*
X173322066Y-84687000D01*
X173677934Y-84687000D01*
X173717747Y-84690921D01*
X173717747Y-84690921D01*
G37*
G36*
X152217747Y-84690921D02*
G01*
X152297376Y-84698764D01*
X152450627Y-84745252D01*
X152450630Y-84745253D01*
X152591863Y-84820744D01*
X152715659Y-84922341D01*
X152817256Y-85046137D01*
X152892747Y-85187370D01*
X152892748Y-85187373D01*
X152939236Y-85340624D01*
X152954933Y-85500000D01*
X152939236Y-85659376D01*
X152892748Y-85812627D01*
X152892747Y-85812630D01*
X152817256Y-85953863D01*
X152715659Y-86077659D01*
X152591863Y-86179256D01*
X152450630Y-86254747D01*
X152450627Y-86254748D01*
X152297376Y-86301236D01*
X152217747Y-86309079D01*
X152177934Y-86313000D01*
X151822066Y-86313000D01*
X151782253Y-86309079D01*
X151702624Y-86301236D01*
X151549373Y-86254748D01*
X151549370Y-86254747D01*
X151408137Y-86179256D01*
X151284341Y-86077659D01*
X151182744Y-85953863D01*
X151107253Y-85812630D01*
X151107252Y-85812627D01*
X151060764Y-85659376D01*
X151045067Y-85500000D01*
X151060764Y-85340624D01*
X151107252Y-85187373D01*
X151107253Y-85187370D01*
X151182744Y-85046137D01*
X151284341Y-84922341D01*
X151408137Y-84820744D01*
X151549370Y-84745253D01*
X151549373Y-84745252D01*
X151702624Y-84698764D01*
X151782253Y-84690921D01*
X151822066Y-84687000D01*
X152177934Y-84687000D01*
X152217747Y-84690921D01*
X152217747Y-84690921D01*
G37*
G36*
X158279591Y-84528085D02*
G01*
X158313569Y-84538393D01*
X158344890Y-84555134D01*
X158372339Y-84577661D01*
X158394866Y-84605110D01*
X158411607Y-84636431D01*
X158421915Y-84670409D01*
X158426000Y-84711890D01*
X158426000Y-85388110D01*
X158421915Y-85429591D01*
X158411607Y-85463569D01*
X158394866Y-85494890D01*
X158372339Y-85522339D01*
X158344890Y-85544866D01*
X158313569Y-85561607D01*
X158279591Y-85571915D01*
X158238110Y-85576000D01*
X157636890Y-85576000D01*
X157595409Y-85571915D01*
X157561431Y-85561607D01*
X157530110Y-85544866D01*
X157502661Y-85522339D01*
X157480134Y-85494890D01*
X157463393Y-85463569D01*
X157453085Y-85429591D01*
X157449000Y-85388110D01*
X157449000Y-84711890D01*
X157453085Y-84670409D01*
X157463393Y-84636431D01*
X157480134Y-84605110D01*
X157502661Y-84577661D01*
X157530110Y-84555134D01*
X157561431Y-84538393D01*
X157595409Y-84528085D01*
X157636890Y-84524000D01*
X158238110Y-84524000D01*
X158279591Y-84528085D01*
X158279591Y-84528085D01*
G37*
G36*
X156704591Y-84528085D02*
G01*
X156738569Y-84538393D01*
X156769890Y-84555134D01*
X156797339Y-84577661D01*
X156819866Y-84605110D01*
X156836607Y-84636431D01*
X156846915Y-84670409D01*
X156851000Y-84711890D01*
X156851000Y-85388110D01*
X156846915Y-85429591D01*
X156836607Y-85463569D01*
X156819866Y-85494890D01*
X156797339Y-85522339D01*
X156769890Y-85544866D01*
X156738569Y-85561607D01*
X156704591Y-85571915D01*
X156663110Y-85576000D01*
X156061890Y-85576000D01*
X156020409Y-85571915D01*
X155986431Y-85561607D01*
X155955110Y-85544866D01*
X155927661Y-85522339D01*
X155905134Y-85494890D01*
X155888393Y-85463569D01*
X155878085Y-85429591D01*
X155874000Y-85388110D01*
X155874000Y-84711890D01*
X155878085Y-84670409D01*
X155888393Y-84636431D01*
X155905134Y-84605110D01*
X155927661Y-84577661D01*
X155955110Y-84555134D01*
X155986431Y-84538393D01*
X156020409Y-84528085D01*
X156061890Y-84524000D01*
X156663110Y-84524000D01*
X156704591Y-84528085D01*
X156704591Y-84528085D01*
G37*
G36*
X169642591Y-84178085D02*
G01*
X169676569Y-84188393D01*
X169707890Y-84205134D01*
X169735339Y-84227661D01*
X169757866Y-84255110D01*
X169774607Y-84286431D01*
X169784915Y-84320409D01*
X169789000Y-84361890D01*
X169789000Y-85038110D01*
X169784915Y-85079591D01*
X169774607Y-85113569D01*
X169757866Y-85144890D01*
X169735339Y-85172339D01*
X169707890Y-85194866D01*
X169676569Y-85211607D01*
X169642591Y-85221915D01*
X169601110Y-85226000D01*
X168999890Y-85226000D01*
X168958409Y-85221915D01*
X168924431Y-85211607D01*
X168893110Y-85194866D01*
X168865661Y-85172339D01*
X168843134Y-85144890D01*
X168826393Y-85113569D01*
X168816085Y-85079591D01*
X168812000Y-85038110D01*
X168812000Y-84361890D01*
X168816085Y-84320409D01*
X168826393Y-84286431D01*
X168843134Y-84255110D01*
X168865661Y-84227661D01*
X168893110Y-84205134D01*
X168924431Y-84188393D01*
X168958409Y-84178085D01*
X168999890Y-84174000D01*
X169601110Y-84174000D01*
X169642591Y-84178085D01*
X169642591Y-84178085D01*
G37*
G36*
X171217591Y-84178085D02*
G01*
X171251569Y-84188393D01*
X171282890Y-84205134D01*
X171310339Y-84227661D01*
X171332866Y-84255110D01*
X171349607Y-84286431D01*
X171359915Y-84320409D01*
X171364000Y-84361890D01*
X171364000Y-85038110D01*
X171359915Y-85079591D01*
X171349607Y-85113569D01*
X171332866Y-85144890D01*
X171310339Y-85172339D01*
X171282890Y-85194866D01*
X171251569Y-85211607D01*
X171217591Y-85221915D01*
X171176110Y-85226000D01*
X170574890Y-85226000D01*
X170533409Y-85221915D01*
X170499431Y-85211607D01*
X170468110Y-85194866D01*
X170440661Y-85172339D01*
X170418134Y-85144890D01*
X170401393Y-85113569D01*
X170391085Y-85079591D01*
X170387000Y-85038110D01*
X170387000Y-84361890D01*
X170391085Y-84320409D01*
X170401393Y-84286431D01*
X170418134Y-84255110D01*
X170440661Y-84227661D01*
X170468110Y-84205134D01*
X170499431Y-84188393D01*
X170533409Y-84178085D01*
X170574890Y-84174000D01*
X171176110Y-84174000D01*
X171217591Y-84178085D01*
X171217591Y-84178085D01*
G37*
G36*
X147375256Y-80291298D02*
G01*
X147481579Y-80312447D01*
X147507961Y-80323375D01*
X147729560Y-80415164D01*
X147782042Y-80436903D01*
X148052451Y-80617585D01*
X148282415Y-80847549D01*
X148463097Y-81117958D01*
X148587553Y-81418421D01*
X148608702Y-81524744D01*
X148651000Y-81737389D01*
X148651000Y-82062611D01*
X148627142Y-82182552D01*
X148587553Y-82381579D01*
X148463097Y-82682042D01*
X148282415Y-82952451D01*
X148052451Y-83182415D01*
X147782042Y-83363097D01*
X147481579Y-83487553D01*
X147375256Y-83508702D01*
X147162611Y-83551000D01*
X146837389Y-83551000D01*
X146624744Y-83508702D01*
X146518421Y-83487553D01*
X146217958Y-83363097D01*
X145947549Y-83182415D01*
X145717585Y-82952451D01*
X145536903Y-82682042D01*
X145412447Y-82381579D01*
X145372858Y-82182552D01*
X145349000Y-82062611D01*
X145349000Y-81737389D01*
X145391298Y-81524744D01*
X145412447Y-81418421D01*
X145536903Y-81117958D01*
X145717585Y-80847549D01*
X145947549Y-80617585D01*
X146217958Y-80436903D01*
X146270441Y-80415164D01*
X146492039Y-80323375D01*
X146518421Y-80312447D01*
X146624744Y-80291298D01*
X146837389Y-80249000D01*
X147162611Y-80249000D01*
X147375256Y-80291298D01*
X147375256Y-80291298D01*
G37*
G36*
X166441591Y-82078085D02*
G01*
X166475569Y-82088393D01*
X166506890Y-82105134D01*
X166534339Y-82127661D01*
X166556866Y-82155110D01*
X166573607Y-82186431D01*
X166583915Y-82220409D01*
X166588000Y-82261890D01*
X166588000Y-82938110D01*
X166583915Y-82979591D01*
X166573607Y-83013569D01*
X166556866Y-83044890D01*
X166534339Y-83072339D01*
X166506890Y-83094866D01*
X166475569Y-83111607D01*
X166441591Y-83121915D01*
X166400110Y-83126000D01*
X165798890Y-83126000D01*
X165757409Y-83121915D01*
X165723431Y-83111607D01*
X165692110Y-83094866D01*
X165664661Y-83072339D01*
X165642134Y-83044890D01*
X165625393Y-83013569D01*
X165615085Y-82979591D01*
X165611000Y-82938110D01*
X165611000Y-82261890D01*
X165615085Y-82220409D01*
X165625393Y-82186431D01*
X165642134Y-82155110D01*
X165664661Y-82127661D01*
X165692110Y-82105134D01*
X165723431Y-82088393D01*
X165757409Y-82078085D01*
X165798890Y-82074000D01*
X166400110Y-82074000D01*
X166441591Y-82078085D01*
X166441591Y-82078085D01*
G37*
G36*
X164866591Y-82078085D02*
G01*
X164900569Y-82088393D01*
X164931890Y-82105134D01*
X164959339Y-82127661D01*
X164981866Y-82155110D01*
X164998607Y-82186431D01*
X165008915Y-82220409D01*
X165013000Y-82261890D01*
X165013000Y-82938110D01*
X165008915Y-82979591D01*
X164998607Y-83013569D01*
X164981866Y-83044890D01*
X164959339Y-83072339D01*
X164931890Y-83094866D01*
X164900569Y-83111607D01*
X164866591Y-83121915D01*
X164825110Y-83126000D01*
X164223890Y-83126000D01*
X164182409Y-83121915D01*
X164148431Y-83111607D01*
X164117110Y-83094866D01*
X164089661Y-83072339D01*
X164067134Y-83044890D01*
X164050393Y-83013569D01*
X164040085Y-82979591D01*
X164036000Y-82938110D01*
X164036000Y-82261890D01*
X164040085Y-82220409D01*
X164050393Y-82186431D01*
X164067134Y-82155110D01*
X164089661Y-82127661D01*
X164117110Y-82105134D01*
X164148431Y-82088393D01*
X164182409Y-82078085D01*
X164223890Y-82074000D01*
X164825110Y-82074000D01*
X164866591Y-82078085D01*
X164866591Y-82078085D01*
G37*
G36*
X175941591Y-81978085D02*
G01*
X175975569Y-81988393D01*
X176006890Y-82005134D01*
X176034339Y-82027661D01*
X176056866Y-82055110D01*
X176073607Y-82086431D01*
X176083915Y-82120409D01*
X176088000Y-82161890D01*
X176088000Y-82838110D01*
X176083915Y-82879591D01*
X176073607Y-82913569D01*
X176056866Y-82944890D01*
X176034339Y-82972339D01*
X176006890Y-82994866D01*
X175975569Y-83011607D01*
X175941591Y-83021915D01*
X175900110Y-83026000D01*
X175298890Y-83026000D01*
X175257409Y-83021915D01*
X175223431Y-83011607D01*
X175192110Y-82994866D01*
X175164661Y-82972339D01*
X175142134Y-82944890D01*
X175125393Y-82913569D01*
X175115085Y-82879591D01*
X175111000Y-82838110D01*
X175111000Y-82161890D01*
X175115085Y-82120409D01*
X175125393Y-82086431D01*
X175142134Y-82055110D01*
X175164661Y-82027661D01*
X175192110Y-82005134D01*
X175223431Y-81988393D01*
X175257409Y-81978085D01*
X175298890Y-81974000D01*
X175900110Y-81974000D01*
X175941591Y-81978085D01*
X175941591Y-81978085D01*
G37*
G36*
X174366591Y-81978085D02*
G01*
X174400569Y-81988393D01*
X174431890Y-82005134D01*
X174459339Y-82027661D01*
X174481866Y-82055110D01*
X174498607Y-82086431D01*
X174508915Y-82120409D01*
X174513000Y-82161890D01*
X174513000Y-82838110D01*
X174508915Y-82879591D01*
X174498607Y-82913569D01*
X174481866Y-82944890D01*
X174459339Y-82972339D01*
X174431890Y-82994866D01*
X174400569Y-83011607D01*
X174366591Y-83021915D01*
X174325110Y-83026000D01*
X173723890Y-83026000D01*
X173682409Y-83021915D01*
X173648431Y-83011607D01*
X173617110Y-82994866D01*
X173589661Y-82972339D01*
X173567134Y-82944890D01*
X173550393Y-82913569D01*
X173540085Y-82879591D01*
X173536000Y-82838110D01*
X173536000Y-82161890D01*
X173540085Y-82120409D01*
X173550393Y-82086431D01*
X173567134Y-82055110D01*
X173589661Y-82027661D01*
X173617110Y-82005134D01*
X173648431Y-81988393D01*
X173682409Y-81978085D01*
X173723890Y-81974000D01*
X174325110Y-81974000D01*
X174366591Y-81978085D01*
X174366591Y-81978085D01*
G37*
G36*
X171217591Y-81978085D02*
G01*
X171251569Y-81988393D01*
X171282890Y-82005134D01*
X171310339Y-82027661D01*
X171332866Y-82055110D01*
X171349607Y-82086431D01*
X171359915Y-82120409D01*
X171364000Y-82161890D01*
X171364000Y-82838110D01*
X171359915Y-82879591D01*
X171349607Y-82913569D01*
X171332866Y-82944890D01*
X171310339Y-82972339D01*
X171282890Y-82994866D01*
X171251569Y-83011607D01*
X171217591Y-83021915D01*
X171176110Y-83026000D01*
X170574890Y-83026000D01*
X170533409Y-83021915D01*
X170499431Y-83011607D01*
X170468110Y-82994866D01*
X170440661Y-82972339D01*
X170418134Y-82944890D01*
X170401393Y-82913569D01*
X170391085Y-82879591D01*
X170387000Y-82838110D01*
X170387000Y-82161890D01*
X170391085Y-82120409D01*
X170401393Y-82086431D01*
X170418134Y-82055110D01*
X170440661Y-82027661D01*
X170468110Y-82005134D01*
X170499431Y-81988393D01*
X170533409Y-81978085D01*
X170574890Y-81974000D01*
X171176110Y-81974000D01*
X171217591Y-81978085D01*
X171217591Y-81978085D01*
G37*
G36*
X169642591Y-81978085D02*
G01*
X169676569Y-81988393D01*
X169707890Y-82005134D01*
X169735339Y-82027661D01*
X169757866Y-82055110D01*
X169774607Y-82086431D01*
X169784915Y-82120409D01*
X169789000Y-82161890D01*
X169789000Y-82838110D01*
X169784915Y-82879591D01*
X169774607Y-82913569D01*
X169757866Y-82944890D01*
X169735339Y-82972339D01*
X169707890Y-82994866D01*
X169676569Y-83011607D01*
X169642591Y-83021915D01*
X169601110Y-83026000D01*
X168999890Y-83026000D01*
X168958409Y-83021915D01*
X168924431Y-83011607D01*
X168893110Y-82994866D01*
X168865661Y-82972339D01*
X168843134Y-82944890D01*
X168826393Y-82913569D01*
X168816085Y-82879591D01*
X168812000Y-82838110D01*
X168812000Y-82161890D01*
X168816085Y-82120409D01*
X168826393Y-82086431D01*
X168843134Y-82055110D01*
X168865661Y-82027661D01*
X168893110Y-82005134D01*
X168924431Y-81988393D01*
X168958409Y-81978085D01*
X168999890Y-81974000D01*
X169601110Y-81974000D01*
X169642591Y-81978085D01*
X169642591Y-81978085D01*
G37*
G36*
X175917591Y-80378085D02*
G01*
X175951569Y-80388393D01*
X175982890Y-80405134D01*
X176010339Y-80427661D01*
X176032866Y-80455110D01*
X176049607Y-80486431D01*
X176059915Y-80520409D01*
X176064000Y-80561890D01*
X176064000Y-81238110D01*
X176059915Y-81279591D01*
X176049607Y-81313569D01*
X176032866Y-81344890D01*
X176010339Y-81372339D01*
X175982890Y-81394866D01*
X175951569Y-81411607D01*
X175917591Y-81421915D01*
X175876110Y-81426000D01*
X175274890Y-81426000D01*
X175233409Y-81421915D01*
X175199431Y-81411607D01*
X175168110Y-81394866D01*
X175140661Y-81372339D01*
X175118134Y-81344890D01*
X175101393Y-81313569D01*
X175091085Y-81279591D01*
X175087000Y-81238110D01*
X175087000Y-80561890D01*
X175091085Y-80520409D01*
X175101393Y-80486431D01*
X175118134Y-80455110D01*
X175140661Y-80427661D01*
X175168110Y-80405134D01*
X175199431Y-80388393D01*
X175233409Y-80378085D01*
X175274890Y-80374000D01*
X175876110Y-80374000D01*
X175917591Y-80378085D01*
X175917591Y-80378085D01*
G37*
G36*
X174342591Y-80378085D02*
G01*
X174376569Y-80388393D01*
X174407890Y-80405134D01*
X174435339Y-80427661D01*
X174457866Y-80455110D01*
X174474607Y-80486431D01*
X174484915Y-80520409D01*
X174489000Y-80561890D01*
X174489000Y-81238110D01*
X174484915Y-81279591D01*
X174474607Y-81313569D01*
X174457866Y-81344890D01*
X174435339Y-81372339D01*
X174407890Y-81394866D01*
X174376569Y-81411607D01*
X174342591Y-81421915D01*
X174301110Y-81426000D01*
X173699890Y-81426000D01*
X173658409Y-81421915D01*
X173624431Y-81411607D01*
X173593110Y-81394866D01*
X173565661Y-81372339D01*
X173543134Y-81344890D01*
X173526393Y-81313569D01*
X173516085Y-81279591D01*
X173512000Y-81238110D01*
X173512000Y-80561890D01*
X173516085Y-80520409D01*
X173526393Y-80486431D01*
X173543134Y-80455110D01*
X173565661Y-80427661D01*
X173593110Y-80405134D01*
X173624431Y-80388393D01*
X173658409Y-80378085D01*
X173699890Y-80374000D01*
X174301110Y-80374000D01*
X174342591Y-80378085D01*
X174342591Y-80378085D01*
G37*
G36*
X169642591Y-80378085D02*
G01*
X169676569Y-80388393D01*
X169707890Y-80405134D01*
X169735339Y-80427661D01*
X169757866Y-80455110D01*
X169774607Y-80486431D01*
X169784915Y-80520409D01*
X169789000Y-80561890D01*
X169789000Y-81238110D01*
X169784915Y-81279591D01*
X169774607Y-81313569D01*
X169757866Y-81344890D01*
X169735339Y-81372339D01*
X169707890Y-81394866D01*
X169676569Y-81411607D01*
X169642591Y-81421915D01*
X169601110Y-81426000D01*
X168999890Y-81426000D01*
X168958409Y-81421915D01*
X168924431Y-81411607D01*
X168893110Y-81394866D01*
X168865661Y-81372339D01*
X168843134Y-81344890D01*
X168826393Y-81313569D01*
X168816085Y-81279591D01*
X168812000Y-81238110D01*
X168812000Y-80561890D01*
X168816085Y-80520409D01*
X168826393Y-80486431D01*
X168843134Y-80455110D01*
X168865661Y-80427661D01*
X168893110Y-80405134D01*
X168924431Y-80388393D01*
X168958409Y-80378085D01*
X168999890Y-80374000D01*
X169601110Y-80374000D01*
X169642591Y-80378085D01*
X169642591Y-80378085D01*
G37*
G36*
X171217591Y-80378085D02*
G01*
X171251569Y-80388393D01*
X171282890Y-80405134D01*
X171310339Y-80427661D01*
X171332866Y-80455110D01*
X171349607Y-80486431D01*
X171359915Y-80520409D01*
X171364000Y-80561890D01*
X171364000Y-81238110D01*
X171359915Y-81279591D01*
X171349607Y-81313569D01*
X171332866Y-81344890D01*
X171310339Y-81372339D01*
X171282890Y-81394866D01*
X171251569Y-81411607D01*
X171217591Y-81421915D01*
X171176110Y-81426000D01*
X170574890Y-81426000D01*
X170533409Y-81421915D01*
X170499431Y-81411607D01*
X170468110Y-81394866D01*
X170440661Y-81372339D01*
X170418134Y-81344890D01*
X170401393Y-81313569D01*
X170391085Y-81279591D01*
X170387000Y-81238110D01*
X170387000Y-80561890D01*
X170391085Y-80520409D01*
X170401393Y-80486431D01*
X170418134Y-80455110D01*
X170440661Y-80427661D01*
X170468110Y-80405134D01*
X170499431Y-80388393D01*
X170533409Y-80378085D01*
X170574890Y-80374000D01*
X171176110Y-80374000D01*
X171217591Y-80378085D01*
X171217591Y-80378085D01*
G37*
G36*
X166441591Y-80378085D02*
G01*
X166475569Y-80388393D01*
X166506890Y-80405134D01*
X166534339Y-80427661D01*
X166556866Y-80455110D01*
X166573607Y-80486431D01*
X166583915Y-80520409D01*
X166588000Y-80561890D01*
X166588000Y-81238110D01*
X166583915Y-81279591D01*
X166573607Y-81313569D01*
X166556866Y-81344890D01*
X166534339Y-81372339D01*
X166506890Y-81394866D01*
X166475569Y-81411607D01*
X166441591Y-81421915D01*
X166400110Y-81426000D01*
X165798890Y-81426000D01*
X165757409Y-81421915D01*
X165723431Y-81411607D01*
X165692110Y-81394866D01*
X165664661Y-81372339D01*
X165642134Y-81344890D01*
X165625393Y-81313569D01*
X165615085Y-81279591D01*
X165611000Y-81238110D01*
X165611000Y-80561890D01*
X165615085Y-80520409D01*
X165625393Y-80486431D01*
X165642134Y-80455110D01*
X165664661Y-80427661D01*
X165692110Y-80405134D01*
X165723431Y-80388393D01*
X165757409Y-80378085D01*
X165798890Y-80374000D01*
X166400110Y-80374000D01*
X166441591Y-80378085D01*
X166441591Y-80378085D01*
G37*
G36*
X164866591Y-80378085D02*
G01*
X164900569Y-80388393D01*
X164931890Y-80405134D01*
X164959339Y-80427661D01*
X164981866Y-80455110D01*
X164998607Y-80486431D01*
X165008915Y-80520409D01*
X165013000Y-80561890D01*
X165013000Y-81238110D01*
X165008915Y-81279591D01*
X164998607Y-81313569D01*
X164981866Y-81344890D01*
X164959339Y-81372339D01*
X164931890Y-81394866D01*
X164900569Y-81411607D01*
X164866591Y-81421915D01*
X164825110Y-81426000D01*
X164223890Y-81426000D01*
X164182409Y-81421915D01*
X164148431Y-81411607D01*
X164117110Y-81394866D01*
X164089661Y-81372339D01*
X164067134Y-81344890D01*
X164050393Y-81313569D01*
X164040085Y-81279591D01*
X164036000Y-81238110D01*
X164036000Y-80561890D01*
X164040085Y-80520409D01*
X164050393Y-80486431D01*
X164067134Y-80455110D01*
X164089661Y-80427661D01*
X164117110Y-80405134D01*
X164148431Y-80388393D01*
X164182409Y-80378085D01*
X164223890Y-80374000D01*
X164825110Y-80374000D01*
X164866591Y-80378085D01*
X164866591Y-80378085D01*
G37*
G36*
X160230442Y-79605518D02*
G01*
X160296627Y-79612037D01*
X160466466Y-79663557D01*
X160622991Y-79747222D01*
X160658729Y-79776552D01*
X160760186Y-79859814D01*
X160843448Y-79961271D01*
X160872778Y-79997009D01*
X160956443Y-80153534D01*
X161007963Y-80323373D01*
X161025359Y-80500000D01*
X161007963Y-80676627D01*
X160956443Y-80846466D01*
X160872778Y-81002991D01*
X160843448Y-81038729D01*
X160760186Y-81140186D01*
X160658729Y-81223448D01*
X160622991Y-81252778D01*
X160466466Y-81336443D01*
X160296627Y-81387963D01*
X160230443Y-81394481D01*
X160164260Y-81401000D01*
X160075740Y-81401000D01*
X160009557Y-81394481D01*
X159943373Y-81387963D01*
X159773534Y-81336443D01*
X159617009Y-81252778D01*
X159581271Y-81223448D01*
X159479814Y-81140186D01*
X159396552Y-81038729D01*
X159367222Y-81002991D01*
X159283557Y-80846466D01*
X159232037Y-80676627D01*
X159214641Y-80500000D01*
X159232037Y-80323373D01*
X159283557Y-80153534D01*
X159367222Y-79997009D01*
X159396552Y-79961271D01*
X159479814Y-79859814D01*
X159581271Y-79776552D01*
X159617009Y-79747222D01*
X159773534Y-79663557D01*
X159943373Y-79612037D01*
X160009558Y-79605518D01*
X160075740Y-79599000D01*
X160164260Y-79599000D01*
X160230442Y-79605518D01*
X160230442Y-79605518D01*
G37*
G36*
X157690442Y-79605518D02*
G01*
X157756627Y-79612037D01*
X157926466Y-79663557D01*
X158082991Y-79747222D01*
X158118729Y-79776552D01*
X158220186Y-79859814D01*
X158303448Y-79961271D01*
X158332778Y-79997009D01*
X158416443Y-80153534D01*
X158467963Y-80323373D01*
X158485359Y-80500000D01*
X158467963Y-80676627D01*
X158416443Y-80846466D01*
X158332778Y-81002991D01*
X158303448Y-81038729D01*
X158220186Y-81140186D01*
X158118729Y-81223448D01*
X158082991Y-81252778D01*
X157926466Y-81336443D01*
X157756627Y-81387963D01*
X157690443Y-81394481D01*
X157624260Y-81401000D01*
X157535740Y-81401000D01*
X157469557Y-81394481D01*
X157403373Y-81387963D01*
X157233534Y-81336443D01*
X157077009Y-81252778D01*
X157041271Y-81223448D01*
X156939814Y-81140186D01*
X156856552Y-81038729D01*
X156827222Y-81002991D01*
X156743557Y-80846466D01*
X156692037Y-80676627D01*
X156674641Y-80500000D01*
X156692037Y-80323373D01*
X156743557Y-80153534D01*
X156827222Y-79997009D01*
X156856552Y-79961271D01*
X156939814Y-79859814D01*
X157041271Y-79776552D01*
X157077009Y-79747222D01*
X157233534Y-79663557D01*
X157403373Y-79612037D01*
X157469558Y-79605518D01*
X157535740Y-79599000D01*
X157624260Y-79599000D01*
X157690442Y-79605518D01*
X157690442Y-79605518D01*
G37*
G36*
X155150442Y-79605518D02*
G01*
X155216627Y-79612037D01*
X155386466Y-79663557D01*
X155542991Y-79747222D01*
X155578729Y-79776552D01*
X155680186Y-79859814D01*
X155763448Y-79961271D01*
X155792778Y-79997009D01*
X155876443Y-80153534D01*
X155927963Y-80323373D01*
X155945359Y-80500000D01*
X155927963Y-80676627D01*
X155876443Y-80846466D01*
X155792778Y-81002991D01*
X155763448Y-81038729D01*
X155680186Y-81140186D01*
X155578729Y-81223448D01*
X155542991Y-81252778D01*
X155386466Y-81336443D01*
X155216627Y-81387963D01*
X155150443Y-81394481D01*
X155084260Y-81401000D01*
X154995740Y-81401000D01*
X154929557Y-81394481D01*
X154863373Y-81387963D01*
X154693534Y-81336443D01*
X154537009Y-81252778D01*
X154501271Y-81223448D01*
X154399814Y-81140186D01*
X154316552Y-81038729D01*
X154287222Y-81002991D01*
X154203557Y-80846466D01*
X154152037Y-80676627D01*
X154134641Y-80500000D01*
X154152037Y-80323373D01*
X154203557Y-80153534D01*
X154287222Y-79997009D01*
X154316552Y-79961271D01*
X154399814Y-79859814D01*
X154501271Y-79776552D01*
X154537009Y-79747222D01*
X154693534Y-79663557D01*
X154863373Y-79612037D01*
X154929558Y-79605518D01*
X154995740Y-79599000D01*
X155084260Y-79599000D01*
X155150442Y-79605518D01*
X155150442Y-79605518D01*
G37*
G36*
X153401000Y-81401000D02*
G01*
X151599000Y-81401000D01*
X151599000Y-79599000D01*
X153401000Y-79599000D01*
X153401000Y-81401000D01*
X153401000Y-81401000D01*
G37*
M02*
