M48
; DRILL file {KiCad (5.1.2)-1} date 2020/10/03 12:09:36
; FORMAT={-:-/ absolute / metric / decimal}
; #@! TF.CreationDate,2020-10-03T12:09:36+09:00
; #@! TF.GenerationSoftware,Kicad,Pcbnew,(5.1.2)-1
FMAT,2
METRIC
T1C0.400
T2C0.762
T3C1.000
T4C3.200
%
G90
G05
T1
X149.0Y-89.3
X153.8Y-82.9
X158.2Y-83.0
X160.811Y-89.819
X163.15Y-91.947
X164.069Y-94.045
X164.78Y-93.363
X168.143Y-91.973
X169.029Y-91.132
T2
X152.0Y-85.5
X152.0Y-87.5
X152.0Y-89.5
X152.0Y-91.5
X173.5Y-85.5
X173.5Y-87.5
X173.5Y-89.5
X173.5Y-91.5
T3
X152.5Y-80.5
X155.04Y-80.5
X157.58Y-80.5
X160.12Y-80.5
X155.5Y-97.5
X158.04Y-97.5
X160.58Y-97.5
T4
X147.0Y-81.9
X147.0Y-96.0
T0
M30
