G04 #@! TF.GenerationSoftware,KiCad,Pcbnew,(5.1.2)-1*
G04 #@! TF.CreationDate,2020-06-14T00:48:43+09:00*
G04 #@! TF.ProjectId,es,65732e6b-6963-4616-945f-706362585858,v1.0*
G04 #@! TF.SameCoordinates,Original*
G04 #@! TF.FileFunction,Copper,L2,Bot*
G04 #@! TF.FilePolarity,Positive*
%FSLAX46Y46*%
G04 Gerber Fmt 4.6, Leading zero omitted, Abs format (unit mm)*
G04 Created by KiCad (PCBNEW (5.1.2)-1) date 2020-06-14 00:48:43*
%MOMM*%
%LPD*%
G04 APERTURE LIST*
%ADD10C,1.000000*%
%ADD11O,1.800000X1.524000*%
%ADD12C,0.800000*%
%ADD13C,0.200000*%
%ADD14C,0.254000*%
G04 APERTURE END LIST*
D10*
X162170000Y-112420000D03*
D11*
X152000000Y-105000000D03*
X152000000Y-107000000D03*
X152000000Y-109000000D03*
X152000000Y-111000000D03*
D12*
X168460000Y-105740000D03*
X154780000Y-106470000D03*
X165090000Y-113780000D03*
X161460000Y-105820000D03*
D13*
X161460000Y-105820000D02*
X161470000Y-105820000D01*
D14*
G36*
X174065424Y-100669580D02*
G01*
X174128356Y-100688580D01*
X174186405Y-100719445D01*
X174237343Y-100760989D01*
X174279248Y-100811644D01*
X174310515Y-100869471D01*
X174329956Y-100932272D01*
X174340000Y-101027835D01*
X174340001Y-113967711D01*
X174330420Y-114065424D01*
X174311420Y-114128357D01*
X174280554Y-114186406D01*
X174239011Y-114237343D01*
X174188356Y-114279248D01*
X174130529Y-114310515D01*
X174067728Y-114329956D01*
X173972165Y-114340000D01*
X151032279Y-114340000D01*
X150934576Y-114330420D01*
X150871643Y-114311420D01*
X150813594Y-114280554D01*
X150762657Y-114239011D01*
X150720752Y-114188356D01*
X150689485Y-114130529D01*
X150670044Y-114067728D01*
X150660000Y-113972165D01*
X150660000Y-111714749D01*
X150694817Y-111779887D01*
X150869392Y-111992608D01*
X151082113Y-112167183D01*
X151324805Y-112296904D01*
X151588140Y-112376786D01*
X151793375Y-112397000D01*
X152206625Y-112397000D01*
X152411860Y-112376786D01*
X152637917Y-112308212D01*
X161035000Y-112308212D01*
X161035000Y-112531788D01*
X161078617Y-112751067D01*
X161164176Y-112957624D01*
X161288388Y-113143520D01*
X161446480Y-113301612D01*
X161632376Y-113425824D01*
X161838933Y-113511383D01*
X162058212Y-113555000D01*
X162281788Y-113555000D01*
X162501067Y-113511383D01*
X162707624Y-113425824D01*
X162893520Y-113301612D01*
X163051612Y-113143520D01*
X163175824Y-112957624D01*
X163261383Y-112751067D01*
X163305000Y-112531788D01*
X163305000Y-112308212D01*
X163261383Y-112088933D01*
X163175824Y-111882376D01*
X163107333Y-111779872D01*
X169765000Y-111779872D01*
X169765000Y-112220128D01*
X169850890Y-112651925D01*
X170019369Y-113058669D01*
X170263962Y-113424729D01*
X170575271Y-113736038D01*
X170941331Y-113980631D01*
X171348075Y-114149110D01*
X171779872Y-114235000D01*
X172220128Y-114235000D01*
X172651925Y-114149110D01*
X173058669Y-113980631D01*
X173424729Y-113736038D01*
X173736038Y-113424729D01*
X173980631Y-113058669D01*
X174149110Y-112651925D01*
X174235000Y-112220128D01*
X174235000Y-111779872D01*
X174149110Y-111348075D01*
X173980631Y-110941331D01*
X173736038Y-110575271D01*
X173424729Y-110263962D01*
X173058669Y-110019369D01*
X172651925Y-109850890D01*
X172220128Y-109765000D01*
X171779872Y-109765000D01*
X171348075Y-109850890D01*
X170941331Y-110019369D01*
X170575271Y-110263962D01*
X170263962Y-110575271D01*
X170019369Y-110941331D01*
X169850890Y-111348075D01*
X169765000Y-111779872D01*
X163107333Y-111779872D01*
X163051612Y-111696480D01*
X162893520Y-111538388D01*
X162707624Y-111414176D01*
X162501067Y-111328617D01*
X162281788Y-111285000D01*
X162058212Y-111285000D01*
X161838933Y-111328617D01*
X161632376Y-111414176D01*
X161446480Y-111538388D01*
X161288388Y-111696480D01*
X161164176Y-111882376D01*
X161078617Y-112088933D01*
X161035000Y-112308212D01*
X152637917Y-112308212D01*
X152675195Y-112296904D01*
X152917887Y-112167183D01*
X153130608Y-111992608D01*
X153305183Y-111779887D01*
X153434904Y-111537195D01*
X153514786Y-111273860D01*
X153541759Y-111000000D01*
X153514786Y-110726140D01*
X153434904Y-110462805D01*
X153305183Y-110220113D01*
X153130608Y-110007392D01*
X153121601Y-110000000D01*
X153130608Y-109992608D01*
X153305183Y-109779887D01*
X153434904Y-109537195D01*
X153514786Y-109273860D01*
X153541759Y-109000000D01*
X153514786Y-108726140D01*
X153434904Y-108462805D01*
X153305183Y-108220113D01*
X153130608Y-108007392D01*
X153121601Y-108000000D01*
X153130608Y-107992608D01*
X153305183Y-107779887D01*
X153434904Y-107537195D01*
X153514786Y-107273860D01*
X153541759Y-107000000D01*
X153514786Y-106726140D01*
X153434904Y-106462805D01*
X153305183Y-106220113D01*
X153130608Y-106007392D01*
X153114337Y-105994039D01*
X153262135Y-105830330D01*
X153402524Y-105595068D01*
X153492220Y-105343070D01*
X153369720Y-105127000D01*
X152127000Y-105127000D01*
X152127000Y-105147000D01*
X151873000Y-105147000D01*
X151873000Y-105127000D01*
X151853000Y-105127000D01*
X151853000Y-104873000D01*
X151873000Y-104873000D01*
X151873000Y-103761251D01*
X152127000Y-103761251D01*
X152127000Y-104873000D01*
X153369720Y-104873000D01*
X153492220Y-104656930D01*
X153402524Y-104404932D01*
X153262135Y-104169670D01*
X153078546Y-103966317D01*
X152858812Y-103802688D01*
X152611378Y-103685071D01*
X152345752Y-103617986D01*
X152127000Y-103761251D01*
X151873000Y-103761251D01*
X151654248Y-103617986D01*
X151388622Y-103685071D01*
X151141188Y-103802688D01*
X150921454Y-103966317D01*
X150737865Y-104169670D01*
X150660000Y-104300155D01*
X150660000Y-102779872D01*
X169765000Y-102779872D01*
X169765000Y-103220128D01*
X169850890Y-103651925D01*
X170019369Y-104058669D01*
X170263962Y-104424729D01*
X170575271Y-104736038D01*
X170941331Y-104980631D01*
X171348075Y-105149110D01*
X171779872Y-105235000D01*
X172220128Y-105235000D01*
X172651925Y-105149110D01*
X173058669Y-104980631D01*
X173424729Y-104736038D01*
X173736038Y-104424729D01*
X173980631Y-104058669D01*
X174149110Y-103651925D01*
X174235000Y-103220128D01*
X174235000Y-102779872D01*
X174149110Y-102348075D01*
X173980631Y-101941331D01*
X173736038Y-101575271D01*
X173424729Y-101263962D01*
X173058669Y-101019369D01*
X172651925Y-100850890D01*
X172220128Y-100765000D01*
X171779872Y-100765000D01*
X171348075Y-100850890D01*
X170941331Y-101019369D01*
X170575271Y-101263962D01*
X170263962Y-101575271D01*
X170019369Y-101941331D01*
X169850890Y-102348075D01*
X169765000Y-102779872D01*
X150660000Y-102779872D01*
X150660000Y-101032279D01*
X150669580Y-100934576D01*
X150688580Y-100871644D01*
X150719445Y-100813595D01*
X150760989Y-100762657D01*
X150811644Y-100720752D01*
X150869471Y-100689485D01*
X150932272Y-100670044D01*
X151027835Y-100660000D01*
X173967721Y-100660000D01*
X174065424Y-100669580D01*
X174065424Y-100669580D01*
G37*
X174065424Y-100669580D02*
X174128356Y-100688580D01*
X174186405Y-100719445D01*
X174237343Y-100760989D01*
X174279248Y-100811644D01*
X174310515Y-100869471D01*
X174329956Y-100932272D01*
X174340000Y-101027835D01*
X174340001Y-113967711D01*
X174330420Y-114065424D01*
X174311420Y-114128357D01*
X174280554Y-114186406D01*
X174239011Y-114237343D01*
X174188356Y-114279248D01*
X174130529Y-114310515D01*
X174067728Y-114329956D01*
X173972165Y-114340000D01*
X151032279Y-114340000D01*
X150934576Y-114330420D01*
X150871643Y-114311420D01*
X150813594Y-114280554D01*
X150762657Y-114239011D01*
X150720752Y-114188356D01*
X150689485Y-114130529D01*
X150670044Y-114067728D01*
X150660000Y-113972165D01*
X150660000Y-111714749D01*
X150694817Y-111779887D01*
X150869392Y-111992608D01*
X151082113Y-112167183D01*
X151324805Y-112296904D01*
X151588140Y-112376786D01*
X151793375Y-112397000D01*
X152206625Y-112397000D01*
X152411860Y-112376786D01*
X152637917Y-112308212D01*
X161035000Y-112308212D01*
X161035000Y-112531788D01*
X161078617Y-112751067D01*
X161164176Y-112957624D01*
X161288388Y-113143520D01*
X161446480Y-113301612D01*
X161632376Y-113425824D01*
X161838933Y-113511383D01*
X162058212Y-113555000D01*
X162281788Y-113555000D01*
X162501067Y-113511383D01*
X162707624Y-113425824D01*
X162893520Y-113301612D01*
X163051612Y-113143520D01*
X163175824Y-112957624D01*
X163261383Y-112751067D01*
X163305000Y-112531788D01*
X163305000Y-112308212D01*
X163261383Y-112088933D01*
X163175824Y-111882376D01*
X163107333Y-111779872D01*
X169765000Y-111779872D01*
X169765000Y-112220128D01*
X169850890Y-112651925D01*
X170019369Y-113058669D01*
X170263962Y-113424729D01*
X170575271Y-113736038D01*
X170941331Y-113980631D01*
X171348075Y-114149110D01*
X171779872Y-114235000D01*
X172220128Y-114235000D01*
X172651925Y-114149110D01*
X173058669Y-113980631D01*
X173424729Y-113736038D01*
X173736038Y-113424729D01*
X173980631Y-113058669D01*
X174149110Y-112651925D01*
X174235000Y-112220128D01*
X174235000Y-111779872D01*
X174149110Y-111348075D01*
X173980631Y-110941331D01*
X173736038Y-110575271D01*
X173424729Y-110263962D01*
X173058669Y-110019369D01*
X172651925Y-109850890D01*
X172220128Y-109765000D01*
X171779872Y-109765000D01*
X171348075Y-109850890D01*
X170941331Y-110019369D01*
X170575271Y-110263962D01*
X170263962Y-110575271D01*
X170019369Y-110941331D01*
X169850890Y-111348075D01*
X169765000Y-111779872D01*
X163107333Y-111779872D01*
X163051612Y-111696480D01*
X162893520Y-111538388D01*
X162707624Y-111414176D01*
X162501067Y-111328617D01*
X162281788Y-111285000D01*
X162058212Y-111285000D01*
X161838933Y-111328617D01*
X161632376Y-111414176D01*
X161446480Y-111538388D01*
X161288388Y-111696480D01*
X161164176Y-111882376D01*
X161078617Y-112088933D01*
X161035000Y-112308212D01*
X152637917Y-112308212D01*
X152675195Y-112296904D01*
X152917887Y-112167183D01*
X153130608Y-111992608D01*
X153305183Y-111779887D01*
X153434904Y-111537195D01*
X153514786Y-111273860D01*
X153541759Y-111000000D01*
X153514786Y-110726140D01*
X153434904Y-110462805D01*
X153305183Y-110220113D01*
X153130608Y-110007392D01*
X153121601Y-110000000D01*
X153130608Y-109992608D01*
X153305183Y-109779887D01*
X153434904Y-109537195D01*
X153514786Y-109273860D01*
X153541759Y-109000000D01*
X153514786Y-108726140D01*
X153434904Y-108462805D01*
X153305183Y-108220113D01*
X153130608Y-108007392D01*
X153121601Y-108000000D01*
X153130608Y-107992608D01*
X153305183Y-107779887D01*
X153434904Y-107537195D01*
X153514786Y-107273860D01*
X153541759Y-107000000D01*
X153514786Y-106726140D01*
X153434904Y-106462805D01*
X153305183Y-106220113D01*
X153130608Y-106007392D01*
X153114337Y-105994039D01*
X153262135Y-105830330D01*
X153402524Y-105595068D01*
X153492220Y-105343070D01*
X153369720Y-105127000D01*
X152127000Y-105127000D01*
X152127000Y-105147000D01*
X151873000Y-105147000D01*
X151873000Y-105127000D01*
X151853000Y-105127000D01*
X151853000Y-104873000D01*
X151873000Y-104873000D01*
X151873000Y-103761251D01*
X152127000Y-103761251D01*
X152127000Y-104873000D01*
X153369720Y-104873000D01*
X153492220Y-104656930D01*
X153402524Y-104404932D01*
X153262135Y-104169670D01*
X153078546Y-103966317D01*
X152858812Y-103802688D01*
X152611378Y-103685071D01*
X152345752Y-103617986D01*
X152127000Y-103761251D01*
X151873000Y-103761251D01*
X151654248Y-103617986D01*
X151388622Y-103685071D01*
X151141188Y-103802688D01*
X150921454Y-103966317D01*
X150737865Y-104169670D01*
X150660000Y-104300155D01*
X150660000Y-102779872D01*
X169765000Y-102779872D01*
X169765000Y-103220128D01*
X169850890Y-103651925D01*
X170019369Y-104058669D01*
X170263962Y-104424729D01*
X170575271Y-104736038D01*
X170941331Y-104980631D01*
X171348075Y-105149110D01*
X171779872Y-105235000D01*
X172220128Y-105235000D01*
X172651925Y-105149110D01*
X173058669Y-104980631D01*
X173424729Y-104736038D01*
X173736038Y-104424729D01*
X173980631Y-104058669D01*
X174149110Y-103651925D01*
X174235000Y-103220128D01*
X174235000Y-102779872D01*
X174149110Y-102348075D01*
X173980631Y-101941331D01*
X173736038Y-101575271D01*
X173424729Y-101263962D01*
X173058669Y-101019369D01*
X172651925Y-100850890D01*
X172220128Y-100765000D01*
X171779872Y-100765000D01*
X171348075Y-100850890D01*
X170941331Y-101019369D01*
X170575271Y-101263962D01*
X170263962Y-101575271D01*
X170019369Y-101941331D01*
X169850890Y-102348075D01*
X169765000Y-102779872D01*
X150660000Y-102779872D01*
X150660000Y-101032279D01*
X150669580Y-100934576D01*
X150688580Y-100871644D01*
X150719445Y-100813595D01*
X150760989Y-100762657D01*
X150811644Y-100720752D01*
X150869471Y-100689485D01*
X150932272Y-100670044D01*
X151027835Y-100660000D01*
X173967721Y-100660000D01*
X174065424Y-100669580D01*
M02*
