G04 #@! TF.GenerationSoftware,KiCad,Pcbnew,(5.1.2)-1*
G04 #@! TF.CreationDate,2020-06-14T00:48:43+09:00*
G04 #@! TF.ProjectId,es,65732e6b-6963-4616-945f-706362585858,v1.0*
G04 #@! TF.SameCoordinates,Original*
G04 #@! TF.FileFunction,Soldermask,Bot*
G04 #@! TF.FilePolarity,Negative*
%FSLAX46Y46*%
G04 Gerber Fmt 4.6, Leading zero omitted, Abs format (unit mm)*
G04 Created by KiCad (PCBNEW (5.1.2)-1) date 2020-06-14 00:48:43*
%MOMM*%
%LPD*%
G04 APERTURE LIST*
%ADD10C,0.100000*%
G04 APERTURE END LIST*
D10*
G36*
X162330721Y-111890174D02*
G01*
X162430995Y-111931709D01*
X162430996Y-111931710D01*
X162521242Y-111992010D01*
X162597990Y-112068758D01*
X162597991Y-112068760D01*
X162658291Y-112159005D01*
X162699826Y-112259279D01*
X162721000Y-112365730D01*
X162721000Y-112474270D01*
X162699826Y-112580721D01*
X162658291Y-112680995D01*
X162658290Y-112680996D01*
X162597990Y-112771242D01*
X162521242Y-112847990D01*
X162475812Y-112878345D01*
X162430995Y-112908291D01*
X162330721Y-112949826D01*
X162224270Y-112971000D01*
X162115730Y-112971000D01*
X162009279Y-112949826D01*
X161909005Y-112908291D01*
X161864188Y-112878345D01*
X161818758Y-112847990D01*
X161742010Y-112771242D01*
X161681710Y-112680996D01*
X161681709Y-112680995D01*
X161640174Y-112580721D01*
X161619000Y-112474270D01*
X161619000Y-112365730D01*
X161640174Y-112259279D01*
X161681709Y-112159005D01*
X161742009Y-112068760D01*
X161742010Y-112068758D01*
X161818758Y-111992010D01*
X161909004Y-111931710D01*
X161909005Y-111931709D01*
X162009279Y-111890174D01*
X162115730Y-111869000D01*
X162224270Y-111869000D01*
X162330721Y-111890174D01*
X162330721Y-111890174D01*
G37*
G36*
X152217747Y-110190921D02*
G01*
X152297376Y-110198764D01*
X152450627Y-110245252D01*
X152450630Y-110245253D01*
X152591863Y-110320744D01*
X152715659Y-110422341D01*
X152817256Y-110546137D01*
X152892747Y-110687370D01*
X152892748Y-110687373D01*
X152939236Y-110840624D01*
X152954933Y-111000000D01*
X152939236Y-111159376D01*
X152892748Y-111312627D01*
X152892747Y-111312630D01*
X152817256Y-111453863D01*
X152715659Y-111577659D01*
X152591863Y-111679256D01*
X152450630Y-111754747D01*
X152450627Y-111754748D01*
X152297376Y-111801236D01*
X152217747Y-111809079D01*
X152177934Y-111813000D01*
X151822066Y-111813000D01*
X151782253Y-111809079D01*
X151702624Y-111801236D01*
X151549373Y-111754748D01*
X151549370Y-111754747D01*
X151408137Y-111679256D01*
X151284341Y-111577659D01*
X151182744Y-111453863D01*
X151107253Y-111312630D01*
X151107252Y-111312627D01*
X151060764Y-111159376D01*
X151045067Y-111000000D01*
X151060764Y-110840624D01*
X151107252Y-110687373D01*
X151107253Y-110687370D01*
X151182744Y-110546137D01*
X151284341Y-110422341D01*
X151408137Y-110320744D01*
X151549370Y-110245253D01*
X151549373Y-110245252D01*
X151702624Y-110198764D01*
X151782253Y-110190921D01*
X151822066Y-110187000D01*
X152177934Y-110187000D01*
X152217747Y-110190921D01*
X152217747Y-110190921D01*
G37*
G36*
X152217747Y-108190921D02*
G01*
X152297376Y-108198764D01*
X152450627Y-108245252D01*
X152450630Y-108245253D01*
X152591863Y-108320744D01*
X152715659Y-108422341D01*
X152817256Y-108546137D01*
X152892747Y-108687370D01*
X152892748Y-108687373D01*
X152939236Y-108840624D01*
X152954933Y-109000000D01*
X152939236Y-109159376D01*
X152892748Y-109312627D01*
X152892747Y-109312630D01*
X152817256Y-109453863D01*
X152715659Y-109577659D01*
X152591863Y-109679256D01*
X152450630Y-109754747D01*
X152450627Y-109754748D01*
X152297376Y-109801236D01*
X152217747Y-109809079D01*
X152177934Y-109813000D01*
X151822066Y-109813000D01*
X151782253Y-109809079D01*
X151702624Y-109801236D01*
X151549373Y-109754748D01*
X151549370Y-109754747D01*
X151408137Y-109679256D01*
X151284341Y-109577659D01*
X151182744Y-109453863D01*
X151107253Y-109312630D01*
X151107252Y-109312627D01*
X151060764Y-109159376D01*
X151045067Y-109000000D01*
X151060764Y-108840624D01*
X151107252Y-108687373D01*
X151107253Y-108687370D01*
X151182744Y-108546137D01*
X151284341Y-108422341D01*
X151408137Y-108320744D01*
X151549370Y-108245253D01*
X151549373Y-108245252D01*
X151702624Y-108198764D01*
X151782253Y-108190921D01*
X151822066Y-108187000D01*
X152177934Y-108187000D01*
X152217747Y-108190921D01*
X152217747Y-108190921D01*
G37*
G36*
X152217747Y-106190921D02*
G01*
X152297376Y-106198764D01*
X152450627Y-106245252D01*
X152450630Y-106245253D01*
X152591863Y-106320744D01*
X152715659Y-106422341D01*
X152817256Y-106546137D01*
X152892747Y-106687370D01*
X152892748Y-106687373D01*
X152939236Y-106840624D01*
X152954933Y-107000000D01*
X152939236Y-107159376D01*
X152892748Y-107312627D01*
X152892747Y-107312630D01*
X152817256Y-107453863D01*
X152715659Y-107577659D01*
X152591863Y-107679256D01*
X152450630Y-107754747D01*
X152450627Y-107754748D01*
X152297376Y-107801236D01*
X152217747Y-107809079D01*
X152177934Y-107813000D01*
X151822066Y-107813000D01*
X151782253Y-107809079D01*
X151702624Y-107801236D01*
X151549373Y-107754748D01*
X151549370Y-107754747D01*
X151408137Y-107679256D01*
X151284341Y-107577659D01*
X151182744Y-107453863D01*
X151107253Y-107312630D01*
X151107252Y-107312627D01*
X151060764Y-107159376D01*
X151045067Y-107000000D01*
X151060764Y-106840624D01*
X151107252Y-106687373D01*
X151107253Y-106687370D01*
X151182744Y-106546137D01*
X151284341Y-106422341D01*
X151408137Y-106320744D01*
X151549370Y-106245253D01*
X151549373Y-106245252D01*
X151702624Y-106198764D01*
X151782253Y-106190921D01*
X151822066Y-106187000D01*
X152177934Y-106187000D01*
X152217747Y-106190921D01*
X152217747Y-106190921D01*
G37*
G36*
X152217747Y-104190921D02*
G01*
X152297376Y-104198764D01*
X152450627Y-104245252D01*
X152450630Y-104245253D01*
X152591863Y-104320744D01*
X152715659Y-104422341D01*
X152817256Y-104546137D01*
X152892747Y-104687370D01*
X152892748Y-104687373D01*
X152939236Y-104840624D01*
X152954933Y-105000000D01*
X152939236Y-105159376D01*
X152892748Y-105312627D01*
X152892747Y-105312630D01*
X152817256Y-105453863D01*
X152715659Y-105577659D01*
X152591863Y-105679256D01*
X152450630Y-105754747D01*
X152450627Y-105754748D01*
X152297376Y-105801236D01*
X152217747Y-105809079D01*
X152177934Y-105813000D01*
X151822066Y-105813000D01*
X151782253Y-105809079D01*
X151702624Y-105801236D01*
X151549373Y-105754748D01*
X151549370Y-105754747D01*
X151408137Y-105679256D01*
X151284341Y-105577659D01*
X151182744Y-105453863D01*
X151107253Y-105312630D01*
X151107252Y-105312627D01*
X151060764Y-105159376D01*
X151045067Y-105000000D01*
X151060764Y-104840624D01*
X151107252Y-104687373D01*
X151107253Y-104687370D01*
X151182744Y-104546137D01*
X151284341Y-104422341D01*
X151408137Y-104320744D01*
X151549370Y-104245253D01*
X151549373Y-104245252D01*
X151702624Y-104198764D01*
X151782253Y-104190921D01*
X151822066Y-104187000D01*
X152177934Y-104187000D01*
X152217747Y-104190921D01*
X152217747Y-104190921D01*
G37*
M02*
