G04 #@! TF.GenerationSoftware,KiCad,Pcbnew,(5.1.2)-1*
G04 #@! TF.CreationDate,2020-06-14T00:48:43+09:00*
G04 #@! TF.ProjectId,es,65732e6b-6963-4616-945f-706362585858,v1.0*
G04 #@! TF.SameCoordinates,Original*
G04 #@! TF.FileFunction,Legend,Bot*
G04 #@! TF.FilePolarity,Positive*
%FSLAX46Y46*%
G04 Gerber Fmt 4.6, Leading zero omitted, Abs format (unit mm)*
G04 Created by KiCad (PCBNEW (5.1.2)-1) date 2020-06-14 00:48:43*
%MOMM*%
%LPD*%
G04 APERTURE LIST*
%ADD10C,0.120000*%
%ADD11C,1.102000*%
%ADD12O,1.902000X1.626000*%
G04 APERTURE END LIST*
D10*
X168569523Y-110091904D02*
X168569523Y-109291904D01*
X168569523Y-109672857D02*
X168112380Y-109672857D01*
X168112380Y-110091904D02*
X168112380Y-109291904D01*
X167769523Y-110053809D02*
X167655238Y-110091904D01*
X167464761Y-110091904D01*
X167388571Y-110053809D01*
X167350476Y-110015714D01*
X167312380Y-109939523D01*
X167312380Y-109863333D01*
X167350476Y-109787142D01*
X167388571Y-109749047D01*
X167464761Y-109710952D01*
X167617142Y-109672857D01*
X167693333Y-109634761D01*
X167731428Y-109596666D01*
X167769523Y-109520476D01*
X167769523Y-109444285D01*
X167731428Y-109368095D01*
X167693333Y-109330000D01*
X167617142Y-109291904D01*
X167426666Y-109291904D01*
X167312380Y-109330000D01*
X167045714Y-109291904D02*
X166550476Y-109291904D01*
X166817142Y-109596666D01*
X166702857Y-109596666D01*
X166626666Y-109634761D01*
X166588571Y-109672857D01*
X166550476Y-109749047D01*
X166550476Y-109939523D01*
X166588571Y-110015714D01*
X166626666Y-110053809D01*
X166702857Y-110091904D01*
X166931428Y-110091904D01*
X167007619Y-110053809D01*
X167045714Y-110015714D01*
X166055238Y-109291904D02*
X165979047Y-109291904D01*
X165902857Y-109330000D01*
X165864761Y-109368095D01*
X165826666Y-109444285D01*
X165788571Y-109596666D01*
X165788571Y-109787142D01*
X165826666Y-109939523D01*
X165864761Y-110015714D01*
X165902857Y-110053809D01*
X165979047Y-110091904D01*
X166055238Y-110091904D01*
X166131428Y-110053809D01*
X166169523Y-110015714D01*
X166207619Y-109939523D01*
X166245714Y-109787142D01*
X166245714Y-109596666D01*
X166207619Y-109444285D01*
X166169523Y-109368095D01*
X166131428Y-109330000D01*
X166055238Y-109291904D01*
X165293333Y-109291904D02*
X165217142Y-109291904D01*
X165140952Y-109330000D01*
X165102857Y-109368095D01*
X165064761Y-109444285D01*
X165026666Y-109596666D01*
X165026666Y-109787142D01*
X165064761Y-109939523D01*
X165102857Y-110015714D01*
X165140952Y-110053809D01*
X165217142Y-110091904D01*
X165293333Y-110091904D01*
X165369523Y-110053809D01*
X165407619Y-110015714D01*
X165445714Y-109939523D01*
X165483809Y-109787142D01*
X165483809Y-109596666D01*
X165445714Y-109444285D01*
X165407619Y-109368095D01*
X165369523Y-109330000D01*
X165293333Y-109291904D01*
X164264761Y-110091904D02*
X164721904Y-110091904D01*
X164493333Y-110091904D02*
X164493333Y-109291904D01*
X164569523Y-109406190D01*
X164645714Y-109482380D01*
X164721904Y-109520476D01*
X163921904Y-109787142D02*
X163312380Y-109787142D01*
X163617142Y-110091904D02*
X163617142Y-109482380D01*
X163007619Y-109291904D02*
X162474285Y-109291904D01*
X163007619Y-110091904D01*
X162474285Y-110091904D01*
X162169523Y-110091904D02*
X162169523Y-109291904D01*
X161902857Y-109863333D01*
X161636190Y-109291904D01*
X161636190Y-110091904D01*
X161102857Y-109291904D02*
X160950476Y-109291904D01*
X160874285Y-109330000D01*
X160798095Y-109406190D01*
X160760000Y-109558571D01*
X160760000Y-109825238D01*
X160798095Y-109977619D01*
X160874285Y-110053809D01*
X160950476Y-110091904D01*
X161102857Y-110091904D01*
X161179047Y-110053809D01*
X161255238Y-109977619D01*
X161293333Y-109825238D01*
X161293333Y-109558571D01*
X161255238Y-109406190D01*
X161179047Y-109330000D01*
X161102857Y-109291904D01*
X160417142Y-110091904D02*
X160417142Y-109291904D01*
X160226666Y-109291904D01*
X160112380Y-109330000D01*
X160036190Y-109406190D01*
X159998095Y-109482380D01*
X159960000Y-109634761D01*
X159960000Y-109749047D01*
X159998095Y-109901428D01*
X160036190Y-109977619D01*
X160112380Y-110053809D01*
X160226666Y-110091904D01*
X160417142Y-110091904D01*
X159274285Y-109558571D02*
X159274285Y-110091904D01*
X159464761Y-109253809D02*
X159655238Y-109825238D01*
X159160000Y-109825238D01*
X158512380Y-109558571D02*
X158512380Y-110091904D01*
X158702857Y-109253809D02*
X158893333Y-109825238D01*
X158398095Y-109825238D01*
X157674285Y-110091904D02*
X158131428Y-110091904D01*
X157902857Y-110091904D02*
X157902857Y-109291904D01*
X157979047Y-109406190D01*
X158055238Y-109482380D01*
X158131428Y-109520476D01*
X157179047Y-109291904D02*
X157102857Y-109291904D01*
X157026666Y-109330000D01*
X156988571Y-109368095D01*
X156950476Y-109444285D01*
X156912380Y-109596666D01*
X156912380Y-109787142D01*
X156950476Y-109939523D01*
X156988571Y-110015714D01*
X157026666Y-110053809D01*
X157102857Y-110091904D01*
X157179047Y-110091904D01*
X157255238Y-110053809D01*
X157293333Y-110015714D01*
X157331428Y-109939523D01*
X157369523Y-109787142D01*
X157369523Y-109596666D01*
X157331428Y-109444285D01*
X157293333Y-109368095D01*
X157255238Y-109330000D01*
X157179047Y-109291904D01*
X169391904Y-106752857D02*
X169125238Y-106752857D01*
X169010952Y-107171904D02*
X169391904Y-107171904D01*
X169391904Y-106371904D01*
X169010952Y-106371904D01*
X168668095Y-106638571D02*
X168668095Y-107171904D01*
X168668095Y-106714761D02*
X168630000Y-106676666D01*
X168553809Y-106638571D01*
X168439523Y-106638571D01*
X168363333Y-106676666D01*
X168325238Y-106752857D01*
X168325238Y-107171904D01*
X168020476Y-106638571D02*
X167830000Y-107171904D01*
X167639523Y-106638571D01*
X167334761Y-107171904D02*
X167334761Y-106638571D01*
X167334761Y-106371904D02*
X167372857Y-106410000D01*
X167334761Y-106448095D01*
X167296666Y-106410000D01*
X167334761Y-106371904D01*
X167334761Y-106448095D01*
X166953809Y-107171904D02*
X166953809Y-106638571D01*
X166953809Y-106790952D02*
X166915714Y-106714761D01*
X166877619Y-106676666D01*
X166801428Y-106638571D01*
X166725238Y-106638571D01*
X166344285Y-107171904D02*
X166420476Y-107133809D01*
X166458571Y-107095714D01*
X166496666Y-107019523D01*
X166496666Y-106790952D01*
X166458571Y-106714761D01*
X166420476Y-106676666D01*
X166344285Y-106638571D01*
X166230000Y-106638571D01*
X166153809Y-106676666D01*
X166115714Y-106714761D01*
X166077619Y-106790952D01*
X166077619Y-107019523D01*
X166115714Y-107095714D01*
X166153809Y-107133809D01*
X166230000Y-107171904D01*
X166344285Y-107171904D01*
X165734761Y-106638571D02*
X165734761Y-107171904D01*
X165734761Y-106714761D02*
X165696666Y-106676666D01*
X165620476Y-106638571D01*
X165506190Y-106638571D01*
X165430000Y-106676666D01*
X165391904Y-106752857D01*
X165391904Y-107171904D01*
X165010952Y-107171904D02*
X165010952Y-106638571D01*
X165010952Y-106714761D02*
X164972857Y-106676666D01*
X164896666Y-106638571D01*
X164782380Y-106638571D01*
X164706190Y-106676666D01*
X164668095Y-106752857D01*
X164668095Y-107171904D01*
X164668095Y-106752857D02*
X164630000Y-106676666D01*
X164553809Y-106638571D01*
X164439523Y-106638571D01*
X164363333Y-106676666D01*
X164325238Y-106752857D01*
X164325238Y-107171904D01*
X163639523Y-107133809D02*
X163715714Y-107171904D01*
X163868095Y-107171904D01*
X163944285Y-107133809D01*
X163982380Y-107057619D01*
X163982380Y-106752857D01*
X163944285Y-106676666D01*
X163868095Y-106638571D01*
X163715714Y-106638571D01*
X163639523Y-106676666D01*
X163601428Y-106752857D01*
X163601428Y-106829047D01*
X163982380Y-106905238D01*
X163258571Y-106638571D02*
X163258571Y-107171904D01*
X163258571Y-106714761D02*
X163220476Y-106676666D01*
X163144285Y-106638571D01*
X163030000Y-106638571D01*
X162953809Y-106676666D01*
X162915714Y-106752857D01*
X162915714Y-107171904D01*
X162649047Y-106638571D02*
X162344285Y-106638571D01*
X162534761Y-106371904D02*
X162534761Y-107057619D01*
X162496666Y-107133809D01*
X162420476Y-107171904D01*
X162344285Y-107171904D01*
X161734761Y-107171904D02*
X161734761Y-106752857D01*
X161772857Y-106676666D01*
X161849047Y-106638571D01*
X162001428Y-106638571D01*
X162077619Y-106676666D01*
X161734761Y-107133809D02*
X161810952Y-107171904D01*
X162001428Y-107171904D01*
X162077619Y-107133809D01*
X162115714Y-107057619D01*
X162115714Y-106981428D01*
X162077619Y-106905238D01*
X162001428Y-106867142D01*
X161810952Y-106867142D01*
X161734761Y-106829047D01*
X161239523Y-107171904D02*
X161315714Y-107133809D01*
X161353809Y-107057619D01*
X161353809Y-106371904D01*
X160363333Y-107133809D02*
X160249047Y-107171904D01*
X160058571Y-107171904D01*
X159982380Y-107133809D01*
X159944285Y-107095714D01*
X159906190Y-107019523D01*
X159906190Y-106943333D01*
X159944285Y-106867142D01*
X159982380Y-106829047D01*
X160058571Y-106790952D01*
X160210952Y-106752857D01*
X160287142Y-106714761D01*
X160325238Y-106676666D01*
X160363333Y-106600476D01*
X160363333Y-106524285D01*
X160325238Y-106448095D01*
X160287142Y-106410000D01*
X160210952Y-106371904D01*
X160020476Y-106371904D01*
X159906190Y-106410000D01*
X159258571Y-107133809D02*
X159334761Y-107171904D01*
X159487142Y-107171904D01*
X159563333Y-107133809D01*
X159601428Y-107057619D01*
X159601428Y-106752857D01*
X159563333Y-106676666D01*
X159487142Y-106638571D01*
X159334761Y-106638571D01*
X159258571Y-106676666D01*
X159220476Y-106752857D01*
X159220476Y-106829047D01*
X159601428Y-106905238D01*
X158877619Y-106638571D02*
X158877619Y-107171904D01*
X158877619Y-106714761D02*
X158839523Y-106676666D01*
X158763333Y-106638571D01*
X158649047Y-106638571D01*
X158572857Y-106676666D01*
X158534761Y-106752857D01*
X158534761Y-107171904D01*
X158191904Y-107133809D02*
X158115714Y-107171904D01*
X157963333Y-107171904D01*
X157887142Y-107133809D01*
X157849047Y-107057619D01*
X157849047Y-107019523D01*
X157887142Y-106943333D01*
X157963333Y-106905238D01*
X158077619Y-106905238D01*
X158153809Y-106867142D01*
X158191904Y-106790952D01*
X158191904Y-106752857D01*
X158153809Y-106676666D01*
X158077619Y-106638571D01*
X157963333Y-106638571D01*
X157887142Y-106676666D01*
X157391904Y-107171904D02*
X157468095Y-107133809D01*
X157506190Y-107095714D01*
X157544285Y-107019523D01*
X157544285Y-106790952D01*
X157506190Y-106714761D01*
X157468095Y-106676666D01*
X157391904Y-106638571D01*
X157277619Y-106638571D01*
X157201428Y-106676666D01*
X157163333Y-106714761D01*
X157125238Y-106790952D01*
X157125238Y-107019523D01*
X157163333Y-107095714D01*
X157201428Y-107133809D01*
X157277619Y-107171904D01*
X157391904Y-107171904D01*
X156782380Y-107171904D02*
X156782380Y-106638571D01*
X156782380Y-106790952D02*
X156744285Y-106714761D01*
X156706190Y-106676666D01*
X156630000Y-106638571D01*
X156553809Y-106638571D01*
X169163333Y-107768095D02*
X169125238Y-107730000D01*
X169049047Y-107691904D01*
X168858571Y-107691904D01*
X168782380Y-107730000D01*
X168744285Y-107768095D01*
X168706190Y-107844285D01*
X168706190Y-107920476D01*
X168744285Y-108034761D01*
X169201428Y-108491904D01*
X168706190Y-108491904D01*
X168210952Y-107691904D02*
X168134761Y-107691904D01*
X168058571Y-107730000D01*
X168020476Y-107768095D01*
X167982380Y-107844285D01*
X167944285Y-107996666D01*
X167944285Y-108187142D01*
X167982380Y-108339523D01*
X168020476Y-108415714D01*
X168058571Y-108453809D01*
X168134761Y-108491904D01*
X168210952Y-108491904D01*
X168287142Y-108453809D01*
X168325238Y-108415714D01*
X168363333Y-108339523D01*
X168401428Y-108187142D01*
X168401428Y-107996666D01*
X168363333Y-107844285D01*
X168325238Y-107768095D01*
X168287142Y-107730000D01*
X168210952Y-107691904D01*
X167449047Y-107691904D02*
X167372857Y-107691904D01*
X167296666Y-107730000D01*
X167258571Y-107768095D01*
X167220476Y-107844285D01*
X167182380Y-107996666D01*
X167182380Y-108187142D01*
X167220476Y-108339523D01*
X167258571Y-108415714D01*
X167296666Y-108453809D01*
X167372857Y-108491904D01*
X167449047Y-108491904D01*
X167525238Y-108453809D01*
X167563333Y-108415714D01*
X167601428Y-108339523D01*
X167639523Y-108187142D01*
X167639523Y-107996666D01*
X167601428Y-107844285D01*
X167563333Y-107768095D01*
X167525238Y-107730000D01*
X167449047Y-107691904D01*
X166496666Y-107691904D02*
X166649047Y-107691904D01*
X166725238Y-107730000D01*
X166763333Y-107768095D01*
X166839523Y-107882380D01*
X166877619Y-108034761D01*
X166877619Y-108339523D01*
X166839523Y-108415714D01*
X166801428Y-108453809D01*
X166725238Y-108491904D01*
X166572857Y-108491904D01*
X166496666Y-108453809D01*
X166458571Y-108415714D01*
X166420476Y-108339523D01*
X166420476Y-108149047D01*
X166458571Y-108072857D01*
X166496666Y-108034761D01*
X166572857Y-107996666D01*
X166725238Y-107996666D01*
X166801428Y-108034761D01*
X166839523Y-108072857D01*
X166877619Y-108149047D01*
X165010952Y-108415714D02*
X165049047Y-108453809D01*
X165163333Y-108491904D01*
X165239523Y-108491904D01*
X165353809Y-108453809D01*
X165430000Y-108377619D01*
X165468095Y-108301428D01*
X165506190Y-108149047D01*
X165506190Y-108034761D01*
X165468095Y-107882380D01*
X165430000Y-107806190D01*
X165353809Y-107730000D01*
X165239523Y-107691904D01*
X165163333Y-107691904D01*
X165049047Y-107730000D01*
X165010952Y-107768095D01*
X164668095Y-108491904D02*
X164668095Y-107958571D01*
X164668095Y-108110952D02*
X164630000Y-108034761D01*
X164591904Y-107996666D01*
X164515714Y-107958571D01*
X164439523Y-107958571D01*
X163868095Y-108453809D02*
X163944285Y-108491904D01*
X164096666Y-108491904D01*
X164172857Y-108453809D01*
X164210952Y-108377619D01*
X164210952Y-108072857D01*
X164172857Y-107996666D01*
X164096666Y-107958571D01*
X163944285Y-107958571D01*
X163868095Y-107996666D01*
X163830000Y-108072857D01*
X163830000Y-108149047D01*
X164210952Y-108225238D01*
X163525238Y-108453809D02*
X163449047Y-108491904D01*
X163296666Y-108491904D01*
X163220476Y-108453809D01*
X163182380Y-108377619D01*
X163182380Y-108339523D01*
X163220476Y-108263333D01*
X163296666Y-108225238D01*
X163410952Y-108225238D01*
X163487142Y-108187142D01*
X163525238Y-108110952D01*
X163525238Y-108072857D01*
X163487142Y-107996666D01*
X163410952Y-107958571D01*
X163296666Y-107958571D01*
X163220476Y-107996666D01*
X162496666Y-108453809D02*
X162572857Y-108491904D01*
X162725238Y-108491904D01*
X162801428Y-108453809D01*
X162839523Y-108415714D01*
X162877619Y-108339523D01*
X162877619Y-108110952D01*
X162839523Y-108034761D01*
X162801428Y-107996666D01*
X162725238Y-107958571D01*
X162572857Y-107958571D01*
X162496666Y-107996666D01*
X161849047Y-108453809D02*
X161925238Y-108491904D01*
X162077619Y-108491904D01*
X162153809Y-108453809D01*
X162191904Y-108377619D01*
X162191904Y-108072857D01*
X162153809Y-107996666D01*
X162077619Y-107958571D01*
X161925238Y-107958571D01*
X161849047Y-107996666D01*
X161810952Y-108072857D01*
X161810952Y-108149047D01*
X162191904Y-108225238D01*
X161468095Y-107958571D02*
X161468095Y-108491904D01*
X161468095Y-108034761D02*
X161430000Y-107996666D01*
X161353809Y-107958571D01*
X161239523Y-107958571D01*
X161163333Y-107996666D01*
X161125238Y-108072857D01*
X161125238Y-108491904D01*
X160858571Y-107958571D02*
X160553809Y-107958571D01*
X160744285Y-107691904D02*
X160744285Y-108377619D01*
X160706190Y-108453809D01*
X160630000Y-108491904D01*
X160553809Y-108491904D01*
X159753809Y-107958571D02*
X159563333Y-108491904D01*
X159372857Y-107958571D01*
X158649047Y-108491904D02*
X159106190Y-108491904D01*
X158877619Y-108491904D02*
X158877619Y-107691904D01*
X158953809Y-107806190D01*
X159030000Y-107882380D01*
X159106190Y-107920476D01*
X158306190Y-108415714D02*
X158268095Y-108453809D01*
X158306190Y-108491904D01*
X158344285Y-108453809D01*
X158306190Y-108415714D01*
X158306190Y-108491904D01*
X157506190Y-108491904D02*
X157963333Y-108491904D01*
X157734761Y-108491904D02*
X157734761Y-107691904D01*
X157810952Y-107806190D01*
X157887142Y-107882380D01*
X157963333Y-107920476D01*
%LPC*%
D11*
X162170000Y-112420000D03*
D12*
X152000000Y-105000000D03*
X152000000Y-107000000D03*
X152000000Y-109000000D03*
X152000000Y-111000000D03*
M02*
