G04 #@! TF.GenerationSoftware,KiCad,Pcbnew,(5.1.2)-1*
G04 #@! TF.CreationDate,2020-06-14T00:48:43+09:00*
G04 #@! TF.ProjectId,es,65732e6b-6963-4616-945f-706362585858,v1.0*
G04 #@! TF.SameCoordinates,Original*
G04 #@! TF.FileFunction,Soldermask,Top*
G04 #@! TF.FilePolarity,Negative*
%FSLAX46Y46*%
G04 Gerber Fmt 4.6, Leading zero omitted, Abs format (unit mm)*
G04 Created by KiCad (PCBNEW (5.1.2)-1) date 2020-06-14 00:48:43*
%MOMM*%
%LPD*%
G04 APERTURE LIST*
%ADD10C,0.100000*%
G04 APERTURE END LIST*
D10*
G36*
X158689591Y-112405085D02*
G01*
X158723569Y-112415393D01*
X158754890Y-112432134D01*
X158782339Y-112454661D01*
X158804866Y-112482110D01*
X158821607Y-112513431D01*
X158831915Y-112547409D01*
X158836000Y-112588890D01*
X158836000Y-113190110D01*
X158831915Y-113231591D01*
X158821607Y-113265569D01*
X158804866Y-113296890D01*
X158782339Y-113324339D01*
X158754890Y-113346866D01*
X158723569Y-113363607D01*
X158689591Y-113373915D01*
X158648110Y-113378000D01*
X157971890Y-113378000D01*
X157930409Y-113373915D01*
X157896431Y-113363607D01*
X157865110Y-113346866D01*
X157837661Y-113324339D01*
X157815134Y-113296890D01*
X157798393Y-113265569D01*
X157788085Y-113231591D01*
X157784000Y-113190110D01*
X157784000Y-112588890D01*
X157788085Y-112547409D01*
X157798393Y-112513431D01*
X157815134Y-112482110D01*
X157837661Y-112454661D01*
X157865110Y-112432134D01*
X157896431Y-112415393D01*
X157930409Y-112405085D01*
X157971890Y-112401000D01*
X158648110Y-112401000D01*
X158689591Y-112405085D01*
X158689591Y-112405085D01*
G37*
G36*
X156989591Y-112405085D02*
G01*
X157023569Y-112415393D01*
X157054890Y-112432134D01*
X157082339Y-112454661D01*
X157104866Y-112482110D01*
X157121607Y-112513431D01*
X157131915Y-112547409D01*
X157136000Y-112588890D01*
X157136000Y-113190110D01*
X157131915Y-113231591D01*
X157121607Y-113265569D01*
X157104866Y-113296890D01*
X157082339Y-113324339D01*
X157054890Y-113346866D01*
X157023569Y-113363607D01*
X156989591Y-113373915D01*
X156948110Y-113378000D01*
X156271890Y-113378000D01*
X156230409Y-113373915D01*
X156196431Y-113363607D01*
X156165110Y-113346866D01*
X156137661Y-113324339D01*
X156115134Y-113296890D01*
X156098393Y-113265569D01*
X156088085Y-113231591D01*
X156084000Y-113190110D01*
X156084000Y-112588890D01*
X156088085Y-112547409D01*
X156098393Y-112513431D01*
X156115134Y-112482110D01*
X156137661Y-112454661D01*
X156165110Y-112432134D01*
X156196431Y-112415393D01*
X156230409Y-112405085D01*
X156271890Y-112401000D01*
X156948110Y-112401000D01*
X156989591Y-112405085D01*
X156989591Y-112405085D01*
G37*
G36*
X162330721Y-111890174D02*
G01*
X162430995Y-111931709D01*
X162465046Y-111954461D01*
X162521242Y-111992010D01*
X162597990Y-112068758D01*
X162597991Y-112068760D01*
X162658291Y-112159005D01*
X162699826Y-112259279D01*
X162721000Y-112365730D01*
X162721000Y-112474270D01*
X162699826Y-112580721D01*
X162658291Y-112680995D01*
X162658290Y-112680996D01*
X162597990Y-112771242D01*
X162521242Y-112847990D01*
X162475812Y-112878345D01*
X162430995Y-112908291D01*
X162330721Y-112949826D01*
X162224270Y-112971000D01*
X162115730Y-112971000D01*
X162009279Y-112949826D01*
X161909005Y-112908291D01*
X161864188Y-112878345D01*
X161818758Y-112847990D01*
X161742010Y-112771242D01*
X161681710Y-112680996D01*
X161681709Y-112680995D01*
X161640174Y-112580721D01*
X161619000Y-112474270D01*
X161619000Y-112365730D01*
X161640174Y-112259279D01*
X161681709Y-112159005D01*
X161742009Y-112068760D01*
X161742010Y-112068758D01*
X161818758Y-111992010D01*
X161874954Y-111954461D01*
X161909005Y-111931709D01*
X162009279Y-111890174D01*
X162115730Y-111869000D01*
X162224270Y-111869000D01*
X162330721Y-111890174D01*
X162330721Y-111890174D01*
G37*
G36*
X166062591Y-110978085D02*
G01*
X166096569Y-110988393D01*
X166127890Y-111005134D01*
X166155339Y-111027661D01*
X166177866Y-111055110D01*
X166194607Y-111086431D01*
X166204915Y-111120409D01*
X166209000Y-111161890D01*
X166209000Y-111838110D01*
X166204915Y-111879591D01*
X166194607Y-111913569D01*
X166177866Y-111944890D01*
X166155339Y-111972339D01*
X166127890Y-111994866D01*
X166096569Y-112011607D01*
X166062591Y-112021915D01*
X166021110Y-112026000D01*
X165419890Y-112026000D01*
X165378409Y-112021915D01*
X165344431Y-112011607D01*
X165313110Y-111994866D01*
X165285661Y-111972339D01*
X165263134Y-111944890D01*
X165246393Y-111913569D01*
X165236085Y-111879591D01*
X165232000Y-111838110D01*
X165232000Y-111161890D01*
X165236085Y-111120409D01*
X165246393Y-111086431D01*
X165263134Y-111055110D01*
X165285661Y-111027661D01*
X165313110Y-111005134D01*
X165344431Y-110988393D01*
X165378409Y-110978085D01*
X165419890Y-110974000D01*
X166021110Y-110974000D01*
X166062591Y-110978085D01*
X166062591Y-110978085D01*
G37*
G36*
X167637591Y-110978085D02*
G01*
X167671569Y-110988393D01*
X167702890Y-111005134D01*
X167730339Y-111027661D01*
X167752866Y-111055110D01*
X167769607Y-111086431D01*
X167779915Y-111120409D01*
X167784000Y-111161890D01*
X167784000Y-111838110D01*
X167779915Y-111879591D01*
X167769607Y-111913569D01*
X167752866Y-111944890D01*
X167730339Y-111972339D01*
X167702890Y-111994866D01*
X167671569Y-112011607D01*
X167637591Y-112021915D01*
X167596110Y-112026000D01*
X166994890Y-112026000D01*
X166953409Y-112021915D01*
X166919431Y-112011607D01*
X166888110Y-111994866D01*
X166860661Y-111972339D01*
X166838134Y-111944890D01*
X166821393Y-111913569D01*
X166811085Y-111879591D01*
X166807000Y-111838110D01*
X166807000Y-111161890D01*
X166811085Y-111120409D01*
X166821393Y-111086431D01*
X166838134Y-111055110D01*
X166860661Y-111027661D01*
X166888110Y-111005134D01*
X166919431Y-110988393D01*
X166953409Y-110978085D01*
X166994890Y-110974000D01*
X167596110Y-110974000D01*
X167637591Y-110978085D01*
X167637591Y-110978085D01*
G37*
G36*
X152217747Y-110190921D02*
G01*
X152297376Y-110198764D01*
X152450627Y-110245252D01*
X152450630Y-110245253D01*
X152591863Y-110320744D01*
X152715659Y-110422341D01*
X152817256Y-110546137D01*
X152892747Y-110687370D01*
X152892748Y-110687373D01*
X152939236Y-110840624D01*
X152954933Y-111000000D01*
X152939236Y-111159376D01*
X152892748Y-111312627D01*
X152892747Y-111312630D01*
X152817256Y-111453863D01*
X152715659Y-111577659D01*
X152591863Y-111679256D01*
X152450630Y-111754747D01*
X152450627Y-111754748D01*
X152297376Y-111801236D01*
X152217747Y-111809079D01*
X152177934Y-111813000D01*
X151822066Y-111813000D01*
X151782253Y-111809079D01*
X151702624Y-111801236D01*
X151549373Y-111754748D01*
X151549370Y-111754747D01*
X151408137Y-111679256D01*
X151284341Y-111577659D01*
X151182744Y-111453863D01*
X151107253Y-111312630D01*
X151107252Y-111312627D01*
X151060764Y-111159376D01*
X151045067Y-111000000D01*
X151060764Y-110840624D01*
X151107252Y-110687373D01*
X151107253Y-110687370D01*
X151182744Y-110546137D01*
X151284341Y-110422341D01*
X151408137Y-110320744D01*
X151549370Y-110245253D01*
X151549373Y-110245252D01*
X151702624Y-110198764D01*
X151782253Y-110190921D01*
X151822066Y-110187000D01*
X152177934Y-110187000D01*
X152217747Y-110190921D01*
X152217747Y-110190921D01*
G37*
G36*
X156989591Y-110830085D02*
G01*
X157023569Y-110840393D01*
X157054890Y-110857134D01*
X157082339Y-110879661D01*
X157104866Y-110907110D01*
X157121607Y-110938431D01*
X157131915Y-110972409D01*
X157136000Y-111013890D01*
X157136000Y-111615110D01*
X157131915Y-111656591D01*
X157121607Y-111690569D01*
X157104866Y-111721890D01*
X157082339Y-111749339D01*
X157054890Y-111771866D01*
X157023569Y-111788607D01*
X156989591Y-111798915D01*
X156948110Y-111803000D01*
X156271890Y-111803000D01*
X156230409Y-111798915D01*
X156196431Y-111788607D01*
X156165110Y-111771866D01*
X156137661Y-111749339D01*
X156115134Y-111721890D01*
X156098393Y-111690569D01*
X156088085Y-111656591D01*
X156084000Y-111615110D01*
X156084000Y-111013890D01*
X156088085Y-110972409D01*
X156098393Y-110938431D01*
X156115134Y-110907110D01*
X156137661Y-110879661D01*
X156165110Y-110857134D01*
X156196431Y-110840393D01*
X156230409Y-110830085D01*
X156271890Y-110826000D01*
X156948110Y-110826000D01*
X156989591Y-110830085D01*
X156989591Y-110830085D01*
G37*
G36*
X158689591Y-110830085D02*
G01*
X158723569Y-110840393D01*
X158754890Y-110857134D01*
X158782339Y-110879661D01*
X158804866Y-110907110D01*
X158821607Y-110938431D01*
X158831915Y-110972409D01*
X158836000Y-111013890D01*
X158836000Y-111615110D01*
X158831915Y-111656591D01*
X158821607Y-111690569D01*
X158804866Y-111721890D01*
X158782339Y-111749339D01*
X158754890Y-111771866D01*
X158723569Y-111788607D01*
X158689591Y-111798915D01*
X158648110Y-111803000D01*
X157971890Y-111803000D01*
X157930409Y-111798915D01*
X157896431Y-111788607D01*
X157865110Y-111771866D01*
X157837661Y-111749339D01*
X157815134Y-111721890D01*
X157798393Y-111690569D01*
X157788085Y-111656591D01*
X157784000Y-111615110D01*
X157784000Y-111013890D01*
X157788085Y-110972409D01*
X157798393Y-110938431D01*
X157815134Y-110907110D01*
X157837661Y-110879661D01*
X157865110Y-110857134D01*
X157896431Y-110840393D01*
X157930409Y-110830085D01*
X157971890Y-110826000D01*
X158648110Y-110826000D01*
X158689591Y-110830085D01*
X158689591Y-110830085D01*
G37*
G36*
X152217747Y-108190921D02*
G01*
X152297376Y-108198764D01*
X152450627Y-108245252D01*
X152450630Y-108245253D01*
X152591863Y-108320744D01*
X152715659Y-108422341D01*
X152817256Y-108546137D01*
X152892747Y-108687370D01*
X152892748Y-108687373D01*
X152939236Y-108840624D01*
X152954933Y-109000000D01*
X152939236Y-109159376D01*
X152930128Y-109189401D01*
X152892747Y-109312630D01*
X152817256Y-109453863D01*
X152715659Y-109577659D01*
X152591863Y-109679256D01*
X152450630Y-109754747D01*
X152450627Y-109754748D01*
X152297376Y-109801236D01*
X152217747Y-109809079D01*
X152177934Y-109813000D01*
X151822066Y-109813000D01*
X151782253Y-109809079D01*
X151702624Y-109801236D01*
X151549373Y-109754748D01*
X151549370Y-109754747D01*
X151408137Y-109679256D01*
X151284341Y-109577659D01*
X151182744Y-109453863D01*
X151107253Y-109312630D01*
X151069872Y-109189401D01*
X151060764Y-109159376D01*
X151045067Y-109000000D01*
X151060764Y-108840624D01*
X151107252Y-108687373D01*
X151107253Y-108687370D01*
X151182744Y-108546137D01*
X151284341Y-108422341D01*
X151408137Y-108320744D01*
X151549370Y-108245253D01*
X151549373Y-108245252D01*
X151702624Y-108198764D01*
X151782253Y-108190921D01*
X151822066Y-108187000D01*
X152177934Y-108187000D01*
X152217747Y-108190921D01*
X152217747Y-108190921D01*
G37*
G36*
X165886000Y-109551000D02*
G01*
X165534000Y-109551000D01*
X165534000Y-108949000D01*
X165886000Y-108949000D01*
X165886000Y-109551000D01*
X165886000Y-109551000D01*
G37*
G36*
X166886000Y-109551000D02*
G01*
X166534000Y-109551000D01*
X166534000Y-108949000D01*
X166886000Y-108949000D01*
X166886000Y-109551000D01*
X166886000Y-109551000D01*
G37*
G36*
X164886000Y-109551000D02*
G01*
X164534000Y-109551000D01*
X164534000Y-108949000D01*
X164886000Y-108949000D01*
X164886000Y-109551000D01*
X164886000Y-109551000D01*
G37*
G36*
X162629591Y-108413085D02*
G01*
X162663569Y-108423393D01*
X162694890Y-108440134D01*
X162722339Y-108462661D01*
X162744866Y-108490110D01*
X162761607Y-108521431D01*
X162771915Y-108555409D01*
X162776000Y-108596890D01*
X162776000Y-109198110D01*
X162771915Y-109239591D01*
X162761607Y-109273569D01*
X162744866Y-109304890D01*
X162722339Y-109332339D01*
X162694890Y-109354866D01*
X162663569Y-109371607D01*
X162629591Y-109381915D01*
X162588110Y-109386000D01*
X161911890Y-109386000D01*
X161870409Y-109381915D01*
X161836431Y-109371607D01*
X161805110Y-109354866D01*
X161777661Y-109332339D01*
X161755134Y-109304890D01*
X161738393Y-109273569D01*
X161728085Y-109239591D01*
X161724000Y-109198110D01*
X161724000Y-108596890D01*
X161728085Y-108555409D01*
X161738393Y-108521431D01*
X161755134Y-108490110D01*
X161777661Y-108462661D01*
X161805110Y-108440134D01*
X161836431Y-108423393D01*
X161870409Y-108413085D01*
X161911890Y-108409000D01*
X162588110Y-108409000D01*
X162629591Y-108413085D01*
X162629591Y-108413085D01*
G37*
G36*
X158536000Y-109341000D02*
G01*
X158184000Y-109341000D01*
X158184000Y-108739000D01*
X158536000Y-108739000D01*
X158536000Y-109341000D01*
X158536000Y-109341000D01*
G37*
G36*
X160536000Y-109341000D02*
G01*
X160184000Y-109341000D01*
X160184000Y-108739000D01*
X160536000Y-108739000D01*
X160536000Y-109341000D01*
X160536000Y-109341000D01*
G37*
G36*
X159536000Y-109341000D02*
G01*
X159184000Y-109341000D01*
X159184000Y-108739000D01*
X159536000Y-108739000D01*
X159536000Y-109341000D01*
X159536000Y-109341000D01*
G37*
G36*
X167311000Y-108626000D02*
G01*
X166709000Y-108626000D01*
X166709000Y-107274000D01*
X167311000Y-107274000D01*
X167311000Y-108626000D01*
X167311000Y-108626000D01*
G37*
G36*
X164711000Y-108626000D02*
G01*
X164109000Y-108626000D01*
X164109000Y-107274000D01*
X164711000Y-107274000D01*
X164711000Y-108626000D01*
X164711000Y-108626000D01*
G37*
G36*
X152217747Y-106190921D02*
G01*
X152297376Y-106198764D01*
X152450627Y-106245252D01*
X152450630Y-106245253D01*
X152591863Y-106320744D01*
X152715659Y-106422341D01*
X152817256Y-106546137D01*
X152892747Y-106687370D01*
X152892748Y-106687373D01*
X152939236Y-106840624D01*
X152954933Y-107000000D01*
X152939236Y-107159376D01*
X152904465Y-107274000D01*
X152892747Y-107312630D01*
X152817256Y-107453863D01*
X152715659Y-107577659D01*
X152591863Y-107679256D01*
X152450630Y-107754747D01*
X152450627Y-107754748D01*
X152297376Y-107801236D01*
X152217747Y-107809079D01*
X152177934Y-107813000D01*
X151822066Y-107813000D01*
X151782253Y-107809079D01*
X151702624Y-107801236D01*
X151549373Y-107754748D01*
X151549370Y-107754747D01*
X151408137Y-107679256D01*
X151284341Y-107577659D01*
X151182744Y-107453863D01*
X151107253Y-107312630D01*
X151095535Y-107274000D01*
X151060764Y-107159376D01*
X151045067Y-107000000D01*
X151060764Y-106840624D01*
X151107252Y-106687373D01*
X151107253Y-106687370D01*
X151182744Y-106546137D01*
X151284341Y-106422341D01*
X151408137Y-106320744D01*
X151549370Y-106245253D01*
X151549373Y-106245252D01*
X151702624Y-106198764D01*
X151782253Y-106190921D01*
X151822066Y-106187000D01*
X152177934Y-106187000D01*
X152217747Y-106190921D01*
X152217747Y-106190921D01*
G37*
G36*
X162629591Y-106838085D02*
G01*
X162663569Y-106848393D01*
X162694890Y-106865134D01*
X162722339Y-106887661D01*
X162744866Y-106915110D01*
X162761607Y-106946431D01*
X162771915Y-106980409D01*
X162776000Y-107021890D01*
X162776000Y-107623110D01*
X162771915Y-107664591D01*
X162761607Y-107698569D01*
X162744866Y-107729890D01*
X162722339Y-107757339D01*
X162694890Y-107779866D01*
X162663569Y-107796607D01*
X162629591Y-107806915D01*
X162588110Y-107811000D01*
X161911890Y-107811000D01*
X161870409Y-107806915D01*
X161836431Y-107796607D01*
X161805110Y-107779866D01*
X161777661Y-107757339D01*
X161755134Y-107729890D01*
X161738393Y-107698569D01*
X161728085Y-107664591D01*
X161724000Y-107623110D01*
X161724000Y-107021890D01*
X161728085Y-106980409D01*
X161738393Y-106946431D01*
X161755134Y-106915110D01*
X161777661Y-106887661D01*
X161805110Y-106865134D01*
X161836431Y-106848393D01*
X161870409Y-106838085D01*
X161911890Y-106834000D01*
X162588110Y-106834000D01*
X162629591Y-106838085D01*
X162629591Y-106838085D01*
G37*
G36*
X158536000Y-107241000D02*
G01*
X158184000Y-107241000D01*
X158184000Y-106639000D01*
X158536000Y-106639000D01*
X158536000Y-107241000D01*
X158536000Y-107241000D01*
G37*
G36*
X160536000Y-107241000D02*
G01*
X160184000Y-107241000D01*
X160184000Y-106639000D01*
X160536000Y-106639000D01*
X160536000Y-107241000D01*
X160536000Y-107241000D01*
G37*
G36*
X159536000Y-107241000D02*
G01*
X159184000Y-107241000D01*
X159184000Y-106639000D01*
X159536000Y-106639000D01*
X159536000Y-107241000D01*
X159536000Y-107241000D01*
G37*
G36*
X164886000Y-106951000D02*
G01*
X164534000Y-106951000D01*
X164534000Y-106349000D01*
X164886000Y-106349000D01*
X164886000Y-106951000D01*
X164886000Y-106951000D01*
G37*
G36*
X166886000Y-106951000D02*
G01*
X166534000Y-106951000D01*
X166534000Y-106349000D01*
X166886000Y-106349000D01*
X166886000Y-106951000D01*
X166886000Y-106951000D01*
G37*
G36*
X165886000Y-106951000D02*
G01*
X165534000Y-106951000D01*
X165534000Y-106349000D01*
X165886000Y-106349000D01*
X165886000Y-106951000D01*
X165886000Y-106951000D01*
G37*
G36*
X152217747Y-104190921D02*
G01*
X152297376Y-104198764D01*
X152450627Y-104245252D01*
X152450630Y-104245253D01*
X152591863Y-104320744D01*
X152715659Y-104422341D01*
X152817256Y-104546137D01*
X152892747Y-104687370D01*
X152892748Y-104687373D01*
X152939236Y-104840624D01*
X152954933Y-105000000D01*
X152939236Y-105159376D01*
X152892748Y-105312627D01*
X152892747Y-105312630D01*
X152817256Y-105453863D01*
X152715659Y-105577659D01*
X152591863Y-105679256D01*
X152450630Y-105754747D01*
X152450627Y-105754748D01*
X152297376Y-105801236D01*
X152217747Y-105809079D01*
X152177934Y-105813000D01*
X151822066Y-105813000D01*
X151782253Y-105809079D01*
X151702624Y-105801236D01*
X151549373Y-105754748D01*
X151549370Y-105754747D01*
X151408137Y-105679256D01*
X151284341Y-105577659D01*
X151182744Y-105453863D01*
X151107253Y-105312630D01*
X151107252Y-105312627D01*
X151060764Y-105159376D01*
X151045067Y-105000000D01*
X151060764Y-104840624D01*
X151107252Y-104687373D01*
X151107253Y-104687370D01*
X151182744Y-104546137D01*
X151284341Y-104422341D01*
X151408137Y-104320744D01*
X151549370Y-104245253D01*
X151549373Y-104245252D01*
X151702624Y-104198764D01*
X151782253Y-104190921D01*
X151822066Y-104187000D01*
X152177934Y-104187000D01*
X152217747Y-104190921D01*
X152217747Y-104190921D01*
G37*
G36*
X163879591Y-103718085D02*
G01*
X163913569Y-103728393D01*
X163944890Y-103745134D01*
X163972339Y-103767661D01*
X163994866Y-103795110D01*
X164011607Y-103826431D01*
X164021915Y-103860409D01*
X164026000Y-103901890D01*
X164026000Y-104578110D01*
X164021915Y-104619591D01*
X164011607Y-104653569D01*
X163994866Y-104684890D01*
X163972339Y-104712339D01*
X163944890Y-104734866D01*
X163913569Y-104751607D01*
X163879591Y-104761915D01*
X163838110Y-104766000D01*
X163236890Y-104766000D01*
X163195409Y-104761915D01*
X163161431Y-104751607D01*
X163130110Y-104734866D01*
X163102661Y-104712339D01*
X163080134Y-104684890D01*
X163063393Y-104653569D01*
X163053085Y-104619591D01*
X163049000Y-104578110D01*
X163049000Y-103901890D01*
X163053085Y-103860409D01*
X163063393Y-103826431D01*
X163080134Y-103795110D01*
X163102661Y-103767661D01*
X163130110Y-103745134D01*
X163161431Y-103728393D01*
X163195409Y-103718085D01*
X163236890Y-103714000D01*
X163838110Y-103714000D01*
X163879591Y-103718085D01*
X163879591Y-103718085D01*
G37*
G36*
X158966591Y-103718085D02*
G01*
X159000569Y-103728393D01*
X159031890Y-103745134D01*
X159059339Y-103767661D01*
X159081866Y-103795110D01*
X159098607Y-103826431D01*
X159108915Y-103860409D01*
X159113000Y-103901890D01*
X159113000Y-104578110D01*
X159108915Y-104619591D01*
X159098607Y-104653569D01*
X159081866Y-104684890D01*
X159059339Y-104712339D01*
X159031890Y-104734866D01*
X159000569Y-104751607D01*
X158966591Y-104761915D01*
X158925110Y-104766000D01*
X158323890Y-104766000D01*
X158282409Y-104761915D01*
X158248431Y-104751607D01*
X158217110Y-104734866D01*
X158189661Y-104712339D01*
X158167134Y-104684890D01*
X158150393Y-104653569D01*
X158140085Y-104619591D01*
X158136000Y-104578110D01*
X158136000Y-103901890D01*
X158140085Y-103860409D01*
X158150393Y-103826431D01*
X158167134Y-103795110D01*
X158189661Y-103767661D01*
X158217110Y-103745134D01*
X158248431Y-103728393D01*
X158282409Y-103718085D01*
X158323890Y-103714000D01*
X158925110Y-103714000D01*
X158966591Y-103718085D01*
X158966591Y-103718085D01*
G37*
G36*
X160541591Y-103718085D02*
G01*
X160575569Y-103728393D01*
X160606890Y-103745134D01*
X160634339Y-103767661D01*
X160656866Y-103795110D01*
X160673607Y-103826431D01*
X160683915Y-103860409D01*
X160688000Y-103901890D01*
X160688000Y-104578110D01*
X160683915Y-104619591D01*
X160673607Y-104653569D01*
X160656866Y-104684890D01*
X160634339Y-104712339D01*
X160606890Y-104734866D01*
X160575569Y-104751607D01*
X160541591Y-104761915D01*
X160500110Y-104766000D01*
X159898890Y-104766000D01*
X159857409Y-104761915D01*
X159823431Y-104751607D01*
X159792110Y-104734866D01*
X159764661Y-104712339D01*
X159742134Y-104684890D01*
X159725393Y-104653569D01*
X159715085Y-104619591D01*
X159711000Y-104578110D01*
X159711000Y-103901890D01*
X159715085Y-103860409D01*
X159725393Y-103826431D01*
X159742134Y-103795110D01*
X159764661Y-103767661D01*
X159792110Y-103745134D01*
X159823431Y-103728393D01*
X159857409Y-103718085D01*
X159898890Y-103714000D01*
X160500110Y-103714000D01*
X160541591Y-103718085D01*
X160541591Y-103718085D01*
G37*
G36*
X162304591Y-103718085D02*
G01*
X162338569Y-103728393D01*
X162369890Y-103745134D01*
X162397339Y-103767661D01*
X162419866Y-103795110D01*
X162436607Y-103826431D01*
X162446915Y-103860409D01*
X162451000Y-103901890D01*
X162451000Y-104578110D01*
X162446915Y-104619591D01*
X162436607Y-104653569D01*
X162419866Y-104684890D01*
X162397339Y-104712339D01*
X162369890Y-104734866D01*
X162338569Y-104751607D01*
X162304591Y-104761915D01*
X162263110Y-104766000D01*
X161661890Y-104766000D01*
X161620409Y-104761915D01*
X161586431Y-104751607D01*
X161555110Y-104734866D01*
X161527661Y-104712339D01*
X161505134Y-104684890D01*
X161488393Y-104653569D01*
X161478085Y-104619591D01*
X161474000Y-104578110D01*
X161474000Y-103901890D01*
X161478085Y-103860409D01*
X161488393Y-103826431D01*
X161505134Y-103795110D01*
X161527661Y-103767661D01*
X161555110Y-103745134D01*
X161586431Y-103728393D01*
X161620409Y-103718085D01*
X161661890Y-103714000D01*
X162263110Y-103714000D01*
X162304591Y-103718085D01*
X162304591Y-103718085D01*
G37*
G36*
X167279591Y-103715085D02*
G01*
X167313569Y-103725393D01*
X167344890Y-103742134D01*
X167372339Y-103764661D01*
X167394866Y-103792110D01*
X167411607Y-103823431D01*
X167421915Y-103857409D01*
X167426000Y-103898890D01*
X167426000Y-104500110D01*
X167421915Y-104541591D01*
X167411607Y-104575569D01*
X167394866Y-104606890D01*
X167372339Y-104634339D01*
X167344890Y-104656866D01*
X167313569Y-104673607D01*
X167279591Y-104683915D01*
X167238110Y-104688000D01*
X166561890Y-104688000D01*
X166520409Y-104683915D01*
X166486431Y-104673607D01*
X166455110Y-104656866D01*
X166427661Y-104634339D01*
X166405134Y-104606890D01*
X166388393Y-104575569D01*
X166378085Y-104541591D01*
X166374000Y-104500110D01*
X166374000Y-103898890D01*
X166378085Y-103857409D01*
X166388393Y-103823431D01*
X166405134Y-103792110D01*
X166427661Y-103764661D01*
X166455110Y-103742134D01*
X166486431Y-103725393D01*
X166520409Y-103715085D01*
X166561890Y-103711000D01*
X167238110Y-103711000D01*
X167279591Y-103715085D01*
X167279591Y-103715085D01*
G37*
G36*
X163877591Y-102078085D02*
G01*
X163911569Y-102088393D01*
X163942890Y-102105134D01*
X163970339Y-102127661D01*
X163992866Y-102155110D01*
X164009607Y-102186431D01*
X164019915Y-102220409D01*
X164024000Y-102261890D01*
X164024000Y-102938110D01*
X164019915Y-102979591D01*
X164009607Y-103013569D01*
X163992866Y-103044890D01*
X163970339Y-103072339D01*
X163942890Y-103094866D01*
X163911569Y-103111607D01*
X163877591Y-103121915D01*
X163836110Y-103126000D01*
X163234890Y-103126000D01*
X163193409Y-103121915D01*
X163159431Y-103111607D01*
X163128110Y-103094866D01*
X163100661Y-103072339D01*
X163078134Y-103044890D01*
X163061393Y-103013569D01*
X163051085Y-102979591D01*
X163047000Y-102938110D01*
X163047000Y-102261890D01*
X163051085Y-102220409D01*
X163061393Y-102186431D01*
X163078134Y-102155110D01*
X163100661Y-102127661D01*
X163128110Y-102105134D01*
X163159431Y-102088393D01*
X163193409Y-102078085D01*
X163234890Y-102074000D01*
X163836110Y-102074000D01*
X163877591Y-102078085D01*
X163877591Y-102078085D01*
G37*
G36*
X160541591Y-102078085D02*
G01*
X160575569Y-102088393D01*
X160606890Y-102105134D01*
X160634339Y-102127661D01*
X160656866Y-102155110D01*
X160673607Y-102186431D01*
X160683915Y-102220409D01*
X160688000Y-102261890D01*
X160688000Y-102938110D01*
X160683915Y-102979591D01*
X160673607Y-103013569D01*
X160656866Y-103044890D01*
X160634339Y-103072339D01*
X160606890Y-103094866D01*
X160575569Y-103111607D01*
X160541591Y-103121915D01*
X160500110Y-103126000D01*
X159898890Y-103126000D01*
X159857409Y-103121915D01*
X159823431Y-103111607D01*
X159792110Y-103094866D01*
X159764661Y-103072339D01*
X159742134Y-103044890D01*
X159725393Y-103013569D01*
X159715085Y-102979591D01*
X159711000Y-102938110D01*
X159711000Y-102261890D01*
X159715085Y-102220409D01*
X159725393Y-102186431D01*
X159742134Y-102155110D01*
X159764661Y-102127661D01*
X159792110Y-102105134D01*
X159823431Y-102088393D01*
X159857409Y-102078085D01*
X159898890Y-102074000D01*
X160500110Y-102074000D01*
X160541591Y-102078085D01*
X160541591Y-102078085D01*
G37*
G36*
X162302591Y-102078085D02*
G01*
X162336569Y-102088393D01*
X162367890Y-102105134D01*
X162395339Y-102127661D01*
X162417866Y-102155110D01*
X162434607Y-102186431D01*
X162444915Y-102220409D01*
X162449000Y-102261890D01*
X162449000Y-102938110D01*
X162444915Y-102979591D01*
X162434607Y-103013569D01*
X162417866Y-103044890D01*
X162395339Y-103072339D01*
X162367890Y-103094866D01*
X162336569Y-103111607D01*
X162302591Y-103121915D01*
X162261110Y-103126000D01*
X161659890Y-103126000D01*
X161618409Y-103121915D01*
X161584431Y-103111607D01*
X161553110Y-103094866D01*
X161525661Y-103072339D01*
X161503134Y-103044890D01*
X161486393Y-103013569D01*
X161476085Y-102979591D01*
X161472000Y-102938110D01*
X161472000Y-102261890D01*
X161476085Y-102220409D01*
X161486393Y-102186431D01*
X161503134Y-102155110D01*
X161525661Y-102127661D01*
X161553110Y-102105134D01*
X161584431Y-102088393D01*
X161618409Y-102078085D01*
X161659890Y-102074000D01*
X162261110Y-102074000D01*
X162302591Y-102078085D01*
X162302591Y-102078085D01*
G37*
G36*
X158966591Y-102078085D02*
G01*
X159000569Y-102088393D01*
X159031890Y-102105134D01*
X159059339Y-102127661D01*
X159081866Y-102155110D01*
X159098607Y-102186431D01*
X159108915Y-102220409D01*
X159113000Y-102261890D01*
X159113000Y-102938110D01*
X159108915Y-102979591D01*
X159098607Y-103013569D01*
X159081866Y-103044890D01*
X159059339Y-103072339D01*
X159031890Y-103094866D01*
X159000569Y-103111607D01*
X158966591Y-103121915D01*
X158925110Y-103126000D01*
X158323890Y-103126000D01*
X158282409Y-103121915D01*
X158248431Y-103111607D01*
X158217110Y-103094866D01*
X158189661Y-103072339D01*
X158167134Y-103044890D01*
X158150393Y-103013569D01*
X158140085Y-102979591D01*
X158136000Y-102938110D01*
X158136000Y-102261890D01*
X158140085Y-102220409D01*
X158150393Y-102186431D01*
X158167134Y-102155110D01*
X158189661Y-102127661D01*
X158217110Y-102105134D01*
X158248431Y-102088393D01*
X158282409Y-102078085D01*
X158323890Y-102074000D01*
X158925110Y-102074000D01*
X158966591Y-102078085D01*
X158966591Y-102078085D01*
G37*
G36*
X167279591Y-102140085D02*
G01*
X167313569Y-102150393D01*
X167344890Y-102167134D01*
X167372339Y-102189661D01*
X167394866Y-102217110D01*
X167411607Y-102248431D01*
X167421915Y-102282409D01*
X167426000Y-102323890D01*
X167426000Y-102925110D01*
X167421915Y-102966591D01*
X167411607Y-103000569D01*
X167394866Y-103031890D01*
X167372339Y-103059339D01*
X167344890Y-103081866D01*
X167313569Y-103098607D01*
X167279591Y-103108915D01*
X167238110Y-103113000D01*
X166561890Y-103113000D01*
X166520409Y-103108915D01*
X166486431Y-103098607D01*
X166455110Y-103081866D01*
X166427661Y-103059339D01*
X166405134Y-103031890D01*
X166388393Y-103000569D01*
X166378085Y-102966591D01*
X166374000Y-102925110D01*
X166374000Y-102323890D01*
X166378085Y-102282409D01*
X166388393Y-102248431D01*
X166405134Y-102217110D01*
X166427661Y-102189661D01*
X166455110Y-102167134D01*
X166486431Y-102150393D01*
X166520409Y-102140085D01*
X166561890Y-102136000D01*
X167238110Y-102136000D01*
X167279591Y-102140085D01*
X167279591Y-102140085D01*
G37*
M02*
