G04 #@! TF.GenerationSoftware,KiCad,Pcbnew,(5.1.2)-1*
G04 #@! TF.CreationDate,2020-06-14T00:48:43+09:00*
G04 #@! TF.ProjectId,es,65732e6b-6963-4616-945f-706362585858,v1.0*
G04 #@! TF.SameCoordinates,Original*
G04 #@! TF.FileFunction,Paste,Top*
G04 #@! TF.FilePolarity,Positive*
%FSLAX46Y46*%
G04 Gerber Fmt 4.6, Leading zero omitted, Abs format (unit mm)*
G04 Created by KiCad (PCBNEW (5.1.2)-1) date 2020-06-14 00:48:43*
%MOMM*%
%LPD*%
G04 APERTURE LIST*
%ADD10R,0.250000X0.500000*%
%ADD11R,0.500000X0.250000*%
%ADD12C,0.100000*%
%ADD13C,0.875000*%
%ADD14O,1.800000X1.524000*%
G04 APERTURE END LIST*
D10*
X164710000Y-106650000D03*
X165710000Y-106650000D03*
X166710000Y-106650000D03*
D11*
X167010000Y-107450000D03*
X167010000Y-107950000D03*
X167010000Y-108450000D03*
D10*
X166710000Y-109250000D03*
X165710000Y-109250000D03*
X164710000Y-109250000D03*
D11*
X164410000Y-108450000D03*
X164410000Y-107950000D03*
X164410000Y-107450000D03*
D12*
G36*
X160439691Y-102126053D02*
G01*
X160460926Y-102129203D01*
X160481750Y-102134419D01*
X160501962Y-102141651D01*
X160521368Y-102150830D01*
X160539781Y-102161866D01*
X160557024Y-102174654D01*
X160572930Y-102189070D01*
X160587346Y-102204976D01*
X160600134Y-102222219D01*
X160611170Y-102240632D01*
X160620349Y-102260038D01*
X160627581Y-102280250D01*
X160632797Y-102301074D01*
X160635947Y-102322309D01*
X160637000Y-102343750D01*
X160637000Y-102856250D01*
X160635947Y-102877691D01*
X160632797Y-102898926D01*
X160627581Y-102919750D01*
X160620349Y-102939962D01*
X160611170Y-102959368D01*
X160600134Y-102977781D01*
X160587346Y-102995024D01*
X160572930Y-103010930D01*
X160557024Y-103025346D01*
X160539781Y-103038134D01*
X160521368Y-103049170D01*
X160501962Y-103058349D01*
X160481750Y-103065581D01*
X160460926Y-103070797D01*
X160439691Y-103073947D01*
X160418250Y-103075000D01*
X159980750Y-103075000D01*
X159959309Y-103073947D01*
X159938074Y-103070797D01*
X159917250Y-103065581D01*
X159897038Y-103058349D01*
X159877632Y-103049170D01*
X159859219Y-103038134D01*
X159841976Y-103025346D01*
X159826070Y-103010930D01*
X159811654Y-102995024D01*
X159798866Y-102977781D01*
X159787830Y-102959368D01*
X159778651Y-102939962D01*
X159771419Y-102919750D01*
X159766203Y-102898926D01*
X159763053Y-102877691D01*
X159762000Y-102856250D01*
X159762000Y-102343750D01*
X159763053Y-102322309D01*
X159766203Y-102301074D01*
X159771419Y-102280250D01*
X159778651Y-102260038D01*
X159787830Y-102240632D01*
X159798866Y-102222219D01*
X159811654Y-102204976D01*
X159826070Y-102189070D01*
X159841976Y-102174654D01*
X159859219Y-102161866D01*
X159877632Y-102150830D01*
X159897038Y-102141651D01*
X159917250Y-102134419D01*
X159938074Y-102129203D01*
X159959309Y-102126053D01*
X159980750Y-102125000D01*
X160418250Y-102125000D01*
X160439691Y-102126053D01*
X160439691Y-102126053D01*
G37*
D13*
X160199500Y-102600000D03*
D12*
G36*
X158864691Y-102126053D02*
G01*
X158885926Y-102129203D01*
X158906750Y-102134419D01*
X158926962Y-102141651D01*
X158946368Y-102150830D01*
X158964781Y-102161866D01*
X158982024Y-102174654D01*
X158997930Y-102189070D01*
X159012346Y-102204976D01*
X159025134Y-102222219D01*
X159036170Y-102240632D01*
X159045349Y-102260038D01*
X159052581Y-102280250D01*
X159057797Y-102301074D01*
X159060947Y-102322309D01*
X159062000Y-102343750D01*
X159062000Y-102856250D01*
X159060947Y-102877691D01*
X159057797Y-102898926D01*
X159052581Y-102919750D01*
X159045349Y-102939962D01*
X159036170Y-102959368D01*
X159025134Y-102977781D01*
X159012346Y-102995024D01*
X158997930Y-103010930D01*
X158982024Y-103025346D01*
X158964781Y-103038134D01*
X158946368Y-103049170D01*
X158926962Y-103058349D01*
X158906750Y-103065581D01*
X158885926Y-103070797D01*
X158864691Y-103073947D01*
X158843250Y-103075000D01*
X158405750Y-103075000D01*
X158384309Y-103073947D01*
X158363074Y-103070797D01*
X158342250Y-103065581D01*
X158322038Y-103058349D01*
X158302632Y-103049170D01*
X158284219Y-103038134D01*
X158266976Y-103025346D01*
X158251070Y-103010930D01*
X158236654Y-102995024D01*
X158223866Y-102977781D01*
X158212830Y-102959368D01*
X158203651Y-102939962D01*
X158196419Y-102919750D01*
X158191203Y-102898926D01*
X158188053Y-102877691D01*
X158187000Y-102856250D01*
X158187000Y-102343750D01*
X158188053Y-102322309D01*
X158191203Y-102301074D01*
X158196419Y-102280250D01*
X158203651Y-102260038D01*
X158212830Y-102240632D01*
X158223866Y-102222219D01*
X158236654Y-102204976D01*
X158251070Y-102189070D01*
X158266976Y-102174654D01*
X158284219Y-102161866D01*
X158302632Y-102150830D01*
X158322038Y-102141651D01*
X158342250Y-102134419D01*
X158363074Y-102129203D01*
X158384309Y-102126053D01*
X158405750Y-102125000D01*
X158843250Y-102125000D01*
X158864691Y-102126053D01*
X158864691Y-102126053D01*
G37*
D13*
X158624500Y-102600000D03*
D12*
G36*
X158587691Y-110878053D02*
G01*
X158608926Y-110881203D01*
X158629750Y-110886419D01*
X158649962Y-110893651D01*
X158669368Y-110902830D01*
X158687781Y-110913866D01*
X158705024Y-110926654D01*
X158720930Y-110941070D01*
X158735346Y-110956976D01*
X158748134Y-110974219D01*
X158759170Y-110992632D01*
X158768349Y-111012038D01*
X158775581Y-111032250D01*
X158780797Y-111053074D01*
X158783947Y-111074309D01*
X158785000Y-111095750D01*
X158785000Y-111533250D01*
X158783947Y-111554691D01*
X158780797Y-111575926D01*
X158775581Y-111596750D01*
X158768349Y-111616962D01*
X158759170Y-111636368D01*
X158748134Y-111654781D01*
X158735346Y-111672024D01*
X158720930Y-111687930D01*
X158705024Y-111702346D01*
X158687781Y-111715134D01*
X158669368Y-111726170D01*
X158649962Y-111735349D01*
X158629750Y-111742581D01*
X158608926Y-111747797D01*
X158587691Y-111750947D01*
X158566250Y-111752000D01*
X158053750Y-111752000D01*
X158032309Y-111750947D01*
X158011074Y-111747797D01*
X157990250Y-111742581D01*
X157970038Y-111735349D01*
X157950632Y-111726170D01*
X157932219Y-111715134D01*
X157914976Y-111702346D01*
X157899070Y-111687930D01*
X157884654Y-111672024D01*
X157871866Y-111654781D01*
X157860830Y-111636368D01*
X157851651Y-111616962D01*
X157844419Y-111596750D01*
X157839203Y-111575926D01*
X157836053Y-111554691D01*
X157835000Y-111533250D01*
X157835000Y-111095750D01*
X157836053Y-111074309D01*
X157839203Y-111053074D01*
X157844419Y-111032250D01*
X157851651Y-111012038D01*
X157860830Y-110992632D01*
X157871866Y-110974219D01*
X157884654Y-110956976D01*
X157899070Y-110941070D01*
X157914976Y-110926654D01*
X157932219Y-110913866D01*
X157950632Y-110902830D01*
X157970038Y-110893651D01*
X157990250Y-110886419D01*
X158011074Y-110881203D01*
X158032309Y-110878053D01*
X158053750Y-110877000D01*
X158566250Y-110877000D01*
X158587691Y-110878053D01*
X158587691Y-110878053D01*
G37*
D13*
X158310000Y-111314500D03*
D12*
G36*
X158587691Y-112453053D02*
G01*
X158608926Y-112456203D01*
X158629750Y-112461419D01*
X158649962Y-112468651D01*
X158669368Y-112477830D01*
X158687781Y-112488866D01*
X158705024Y-112501654D01*
X158720930Y-112516070D01*
X158735346Y-112531976D01*
X158748134Y-112549219D01*
X158759170Y-112567632D01*
X158768349Y-112587038D01*
X158775581Y-112607250D01*
X158780797Y-112628074D01*
X158783947Y-112649309D01*
X158785000Y-112670750D01*
X158785000Y-113108250D01*
X158783947Y-113129691D01*
X158780797Y-113150926D01*
X158775581Y-113171750D01*
X158768349Y-113191962D01*
X158759170Y-113211368D01*
X158748134Y-113229781D01*
X158735346Y-113247024D01*
X158720930Y-113262930D01*
X158705024Y-113277346D01*
X158687781Y-113290134D01*
X158669368Y-113301170D01*
X158649962Y-113310349D01*
X158629750Y-113317581D01*
X158608926Y-113322797D01*
X158587691Y-113325947D01*
X158566250Y-113327000D01*
X158053750Y-113327000D01*
X158032309Y-113325947D01*
X158011074Y-113322797D01*
X157990250Y-113317581D01*
X157970038Y-113310349D01*
X157950632Y-113301170D01*
X157932219Y-113290134D01*
X157914976Y-113277346D01*
X157899070Y-113262930D01*
X157884654Y-113247024D01*
X157871866Y-113229781D01*
X157860830Y-113211368D01*
X157851651Y-113191962D01*
X157844419Y-113171750D01*
X157839203Y-113150926D01*
X157836053Y-113129691D01*
X157835000Y-113108250D01*
X157835000Y-112670750D01*
X157836053Y-112649309D01*
X157839203Y-112628074D01*
X157844419Y-112607250D01*
X157851651Y-112587038D01*
X157860830Y-112567632D01*
X157871866Y-112549219D01*
X157884654Y-112531976D01*
X157899070Y-112516070D01*
X157914976Y-112501654D01*
X157932219Y-112488866D01*
X157950632Y-112477830D01*
X157970038Y-112468651D01*
X157990250Y-112461419D01*
X158011074Y-112456203D01*
X158032309Y-112453053D01*
X158053750Y-112452000D01*
X158566250Y-112452000D01*
X158587691Y-112453053D01*
X158587691Y-112453053D01*
G37*
D13*
X158310000Y-112889500D03*
D12*
G36*
X156887691Y-110878053D02*
G01*
X156908926Y-110881203D01*
X156929750Y-110886419D01*
X156949962Y-110893651D01*
X156969368Y-110902830D01*
X156987781Y-110913866D01*
X157005024Y-110926654D01*
X157020930Y-110941070D01*
X157035346Y-110956976D01*
X157048134Y-110974219D01*
X157059170Y-110992632D01*
X157068349Y-111012038D01*
X157075581Y-111032250D01*
X157080797Y-111053074D01*
X157083947Y-111074309D01*
X157085000Y-111095750D01*
X157085000Y-111533250D01*
X157083947Y-111554691D01*
X157080797Y-111575926D01*
X157075581Y-111596750D01*
X157068349Y-111616962D01*
X157059170Y-111636368D01*
X157048134Y-111654781D01*
X157035346Y-111672024D01*
X157020930Y-111687930D01*
X157005024Y-111702346D01*
X156987781Y-111715134D01*
X156969368Y-111726170D01*
X156949962Y-111735349D01*
X156929750Y-111742581D01*
X156908926Y-111747797D01*
X156887691Y-111750947D01*
X156866250Y-111752000D01*
X156353750Y-111752000D01*
X156332309Y-111750947D01*
X156311074Y-111747797D01*
X156290250Y-111742581D01*
X156270038Y-111735349D01*
X156250632Y-111726170D01*
X156232219Y-111715134D01*
X156214976Y-111702346D01*
X156199070Y-111687930D01*
X156184654Y-111672024D01*
X156171866Y-111654781D01*
X156160830Y-111636368D01*
X156151651Y-111616962D01*
X156144419Y-111596750D01*
X156139203Y-111575926D01*
X156136053Y-111554691D01*
X156135000Y-111533250D01*
X156135000Y-111095750D01*
X156136053Y-111074309D01*
X156139203Y-111053074D01*
X156144419Y-111032250D01*
X156151651Y-111012038D01*
X156160830Y-110992632D01*
X156171866Y-110974219D01*
X156184654Y-110956976D01*
X156199070Y-110941070D01*
X156214976Y-110926654D01*
X156232219Y-110913866D01*
X156250632Y-110902830D01*
X156270038Y-110893651D01*
X156290250Y-110886419D01*
X156311074Y-110881203D01*
X156332309Y-110878053D01*
X156353750Y-110877000D01*
X156866250Y-110877000D01*
X156887691Y-110878053D01*
X156887691Y-110878053D01*
G37*
D13*
X156610000Y-111314500D03*
D12*
G36*
X156887691Y-112453053D02*
G01*
X156908926Y-112456203D01*
X156929750Y-112461419D01*
X156949962Y-112468651D01*
X156969368Y-112477830D01*
X156987781Y-112488866D01*
X157005024Y-112501654D01*
X157020930Y-112516070D01*
X157035346Y-112531976D01*
X157048134Y-112549219D01*
X157059170Y-112567632D01*
X157068349Y-112587038D01*
X157075581Y-112607250D01*
X157080797Y-112628074D01*
X157083947Y-112649309D01*
X157085000Y-112670750D01*
X157085000Y-113108250D01*
X157083947Y-113129691D01*
X157080797Y-113150926D01*
X157075581Y-113171750D01*
X157068349Y-113191962D01*
X157059170Y-113211368D01*
X157048134Y-113229781D01*
X157035346Y-113247024D01*
X157020930Y-113262930D01*
X157005024Y-113277346D01*
X156987781Y-113290134D01*
X156969368Y-113301170D01*
X156949962Y-113310349D01*
X156929750Y-113317581D01*
X156908926Y-113322797D01*
X156887691Y-113325947D01*
X156866250Y-113327000D01*
X156353750Y-113327000D01*
X156332309Y-113325947D01*
X156311074Y-113322797D01*
X156290250Y-113317581D01*
X156270038Y-113310349D01*
X156250632Y-113301170D01*
X156232219Y-113290134D01*
X156214976Y-113277346D01*
X156199070Y-113262930D01*
X156184654Y-113247024D01*
X156171866Y-113229781D01*
X156160830Y-113211368D01*
X156151651Y-113191962D01*
X156144419Y-113171750D01*
X156139203Y-113150926D01*
X156136053Y-113129691D01*
X156135000Y-113108250D01*
X156135000Y-112670750D01*
X156136053Y-112649309D01*
X156139203Y-112628074D01*
X156144419Y-112607250D01*
X156151651Y-112587038D01*
X156160830Y-112567632D01*
X156171866Y-112549219D01*
X156184654Y-112531976D01*
X156199070Y-112516070D01*
X156214976Y-112501654D01*
X156232219Y-112488866D01*
X156250632Y-112477830D01*
X156270038Y-112468651D01*
X156290250Y-112461419D01*
X156311074Y-112456203D01*
X156332309Y-112453053D01*
X156353750Y-112452000D01*
X156866250Y-112452000D01*
X156887691Y-112453053D01*
X156887691Y-112453053D01*
G37*
D13*
X156610000Y-112889500D03*
D10*
X158360000Y-106940000D03*
X159360000Y-106940000D03*
X160360000Y-106940000D03*
X160360000Y-109040000D03*
X159360000Y-109040000D03*
X158360000Y-109040000D03*
D12*
G36*
X163777691Y-103766053D02*
G01*
X163798926Y-103769203D01*
X163819750Y-103774419D01*
X163839962Y-103781651D01*
X163859368Y-103790830D01*
X163877781Y-103801866D01*
X163895024Y-103814654D01*
X163910930Y-103829070D01*
X163925346Y-103844976D01*
X163938134Y-103862219D01*
X163949170Y-103880632D01*
X163958349Y-103900038D01*
X163965581Y-103920250D01*
X163970797Y-103941074D01*
X163973947Y-103962309D01*
X163975000Y-103983750D01*
X163975000Y-104496250D01*
X163973947Y-104517691D01*
X163970797Y-104538926D01*
X163965581Y-104559750D01*
X163958349Y-104579962D01*
X163949170Y-104599368D01*
X163938134Y-104617781D01*
X163925346Y-104635024D01*
X163910930Y-104650930D01*
X163895024Y-104665346D01*
X163877781Y-104678134D01*
X163859368Y-104689170D01*
X163839962Y-104698349D01*
X163819750Y-104705581D01*
X163798926Y-104710797D01*
X163777691Y-104713947D01*
X163756250Y-104715000D01*
X163318750Y-104715000D01*
X163297309Y-104713947D01*
X163276074Y-104710797D01*
X163255250Y-104705581D01*
X163235038Y-104698349D01*
X163215632Y-104689170D01*
X163197219Y-104678134D01*
X163179976Y-104665346D01*
X163164070Y-104650930D01*
X163149654Y-104635024D01*
X163136866Y-104617781D01*
X163125830Y-104599368D01*
X163116651Y-104579962D01*
X163109419Y-104559750D01*
X163104203Y-104538926D01*
X163101053Y-104517691D01*
X163100000Y-104496250D01*
X163100000Y-103983750D01*
X163101053Y-103962309D01*
X163104203Y-103941074D01*
X163109419Y-103920250D01*
X163116651Y-103900038D01*
X163125830Y-103880632D01*
X163136866Y-103862219D01*
X163149654Y-103844976D01*
X163164070Y-103829070D01*
X163179976Y-103814654D01*
X163197219Y-103801866D01*
X163215632Y-103790830D01*
X163235038Y-103781651D01*
X163255250Y-103774419D01*
X163276074Y-103769203D01*
X163297309Y-103766053D01*
X163318750Y-103765000D01*
X163756250Y-103765000D01*
X163777691Y-103766053D01*
X163777691Y-103766053D01*
G37*
D13*
X163537500Y-104240000D03*
D12*
G36*
X162202691Y-103766053D02*
G01*
X162223926Y-103769203D01*
X162244750Y-103774419D01*
X162264962Y-103781651D01*
X162284368Y-103790830D01*
X162302781Y-103801866D01*
X162320024Y-103814654D01*
X162335930Y-103829070D01*
X162350346Y-103844976D01*
X162363134Y-103862219D01*
X162374170Y-103880632D01*
X162383349Y-103900038D01*
X162390581Y-103920250D01*
X162395797Y-103941074D01*
X162398947Y-103962309D01*
X162400000Y-103983750D01*
X162400000Y-104496250D01*
X162398947Y-104517691D01*
X162395797Y-104538926D01*
X162390581Y-104559750D01*
X162383349Y-104579962D01*
X162374170Y-104599368D01*
X162363134Y-104617781D01*
X162350346Y-104635024D01*
X162335930Y-104650930D01*
X162320024Y-104665346D01*
X162302781Y-104678134D01*
X162284368Y-104689170D01*
X162264962Y-104698349D01*
X162244750Y-104705581D01*
X162223926Y-104710797D01*
X162202691Y-104713947D01*
X162181250Y-104715000D01*
X161743750Y-104715000D01*
X161722309Y-104713947D01*
X161701074Y-104710797D01*
X161680250Y-104705581D01*
X161660038Y-104698349D01*
X161640632Y-104689170D01*
X161622219Y-104678134D01*
X161604976Y-104665346D01*
X161589070Y-104650930D01*
X161574654Y-104635024D01*
X161561866Y-104617781D01*
X161550830Y-104599368D01*
X161541651Y-104579962D01*
X161534419Y-104559750D01*
X161529203Y-104538926D01*
X161526053Y-104517691D01*
X161525000Y-104496250D01*
X161525000Y-103983750D01*
X161526053Y-103962309D01*
X161529203Y-103941074D01*
X161534419Y-103920250D01*
X161541651Y-103900038D01*
X161550830Y-103880632D01*
X161561866Y-103862219D01*
X161574654Y-103844976D01*
X161589070Y-103829070D01*
X161604976Y-103814654D01*
X161622219Y-103801866D01*
X161640632Y-103790830D01*
X161660038Y-103781651D01*
X161680250Y-103774419D01*
X161701074Y-103769203D01*
X161722309Y-103766053D01*
X161743750Y-103765000D01*
X162181250Y-103765000D01*
X162202691Y-103766053D01*
X162202691Y-103766053D01*
G37*
D13*
X161962500Y-104240000D03*
D14*
X152000000Y-105000000D03*
X152000000Y-107000000D03*
X152000000Y-109000000D03*
X152000000Y-111000000D03*
D12*
G36*
X167177691Y-102188053D02*
G01*
X167198926Y-102191203D01*
X167219750Y-102196419D01*
X167239962Y-102203651D01*
X167259368Y-102212830D01*
X167277781Y-102223866D01*
X167295024Y-102236654D01*
X167310930Y-102251070D01*
X167325346Y-102266976D01*
X167338134Y-102284219D01*
X167349170Y-102302632D01*
X167358349Y-102322038D01*
X167365581Y-102342250D01*
X167370797Y-102363074D01*
X167373947Y-102384309D01*
X167375000Y-102405750D01*
X167375000Y-102843250D01*
X167373947Y-102864691D01*
X167370797Y-102885926D01*
X167365581Y-102906750D01*
X167358349Y-102926962D01*
X167349170Y-102946368D01*
X167338134Y-102964781D01*
X167325346Y-102982024D01*
X167310930Y-102997930D01*
X167295024Y-103012346D01*
X167277781Y-103025134D01*
X167259368Y-103036170D01*
X167239962Y-103045349D01*
X167219750Y-103052581D01*
X167198926Y-103057797D01*
X167177691Y-103060947D01*
X167156250Y-103062000D01*
X166643750Y-103062000D01*
X166622309Y-103060947D01*
X166601074Y-103057797D01*
X166580250Y-103052581D01*
X166560038Y-103045349D01*
X166540632Y-103036170D01*
X166522219Y-103025134D01*
X166504976Y-103012346D01*
X166489070Y-102997930D01*
X166474654Y-102982024D01*
X166461866Y-102964781D01*
X166450830Y-102946368D01*
X166441651Y-102926962D01*
X166434419Y-102906750D01*
X166429203Y-102885926D01*
X166426053Y-102864691D01*
X166425000Y-102843250D01*
X166425000Y-102405750D01*
X166426053Y-102384309D01*
X166429203Y-102363074D01*
X166434419Y-102342250D01*
X166441651Y-102322038D01*
X166450830Y-102302632D01*
X166461866Y-102284219D01*
X166474654Y-102266976D01*
X166489070Y-102251070D01*
X166504976Y-102236654D01*
X166522219Y-102223866D01*
X166540632Y-102212830D01*
X166560038Y-102203651D01*
X166580250Y-102196419D01*
X166601074Y-102191203D01*
X166622309Y-102188053D01*
X166643750Y-102187000D01*
X167156250Y-102187000D01*
X167177691Y-102188053D01*
X167177691Y-102188053D01*
G37*
D13*
X166900000Y-102624500D03*
D12*
G36*
X167177691Y-103763053D02*
G01*
X167198926Y-103766203D01*
X167219750Y-103771419D01*
X167239962Y-103778651D01*
X167259368Y-103787830D01*
X167277781Y-103798866D01*
X167295024Y-103811654D01*
X167310930Y-103826070D01*
X167325346Y-103841976D01*
X167338134Y-103859219D01*
X167349170Y-103877632D01*
X167358349Y-103897038D01*
X167365581Y-103917250D01*
X167370797Y-103938074D01*
X167373947Y-103959309D01*
X167375000Y-103980750D01*
X167375000Y-104418250D01*
X167373947Y-104439691D01*
X167370797Y-104460926D01*
X167365581Y-104481750D01*
X167358349Y-104501962D01*
X167349170Y-104521368D01*
X167338134Y-104539781D01*
X167325346Y-104557024D01*
X167310930Y-104572930D01*
X167295024Y-104587346D01*
X167277781Y-104600134D01*
X167259368Y-104611170D01*
X167239962Y-104620349D01*
X167219750Y-104627581D01*
X167198926Y-104632797D01*
X167177691Y-104635947D01*
X167156250Y-104637000D01*
X166643750Y-104637000D01*
X166622309Y-104635947D01*
X166601074Y-104632797D01*
X166580250Y-104627581D01*
X166560038Y-104620349D01*
X166540632Y-104611170D01*
X166522219Y-104600134D01*
X166504976Y-104587346D01*
X166489070Y-104572930D01*
X166474654Y-104557024D01*
X166461866Y-104539781D01*
X166450830Y-104521368D01*
X166441651Y-104501962D01*
X166434419Y-104481750D01*
X166429203Y-104460926D01*
X166426053Y-104439691D01*
X166425000Y-104418250D01*
X166425000Y-103980750D01*
X166426053Y-103959309D01*
X166429203Y-103938074D01*
X166434419Y-103917250D01*
X166441651Y-103897038D01*
X166450830Y-103877632D01*
X166461866Y-103859219D01*
X166474654Y-103841976D01*
X166489070Y-103826070D01*
X166504976Y-103811654D01*
X166522219Y-103798866D01*
X166540632Y-103787830D01*
X166560038Y-103778651D01*
X166580250Y-103771419D01*
X166601074Y-103766203D01*
X166622309Y-103763053D01*
X166643750Y-103762000D01*
X167156250Y-103762000D01*
X167177691Y-103763053D01*
X167177691Y-103763053D01*
G37*
D13*
X166900000Y-104199500D03*
D12*
G36*
X167535691Y-111026053D02*
G01*
X167556926Y-111029203D01*
X167577750Y-111034419D01*
X167597962Y-111041651D01*
X167617368Y-111050830D01*
X167635781Y-111061866D01*
X167653024Y-111074654D01*
X167668930Y-111089070D01*
X167683346Y-111104976D01*
X167696134Y-111122219D01*
X167707170Y-111140632D01*
X167716349Y-111160038D01*
X167723581Y-111180250D01*
X167728797Y-111201074D01*
X167731947Y-111222309D01*
X167733000Y-111243750D01*
X167733000Y-111756250D01*
X167731947Y-111777691D01*
X167728797Y-111798926D01*
X167723581Y-111819750D01*
X167716349Y-111839962D01*
X167707170Y-111859368D01*
X167696134Y-111877781D01*
X167683346Y-111895024D01*
X167668930Y-111910930D01*
X167653024Y-111925346D01*
X167635781Y-111938134D01*
X167617368Y-111949170D01*
X167597962Y-111958349D01*
X167577750Y-111965581D01*
X167556926Y-111970797D01*
X167535691Y-111973947D01*
X167514250Y-111975000D01*
X167076750Y-111975000D01*
X167055309Y-111973947D01*
X167034074Y-111970797D01*
X167013250Y-111965581D01*
X166993038Y-111958349D01*
X166973632Y-111949170D01*
X166955219Y-111938134D01*
X166937976Y-111925346D01*
X166922070Y-111910930D01*
X166907654Y-111895024D01*
X166894866Y-111877781D01*
X166883830Y-111859368D01*
X166874651Y-111839962D01*
X166867419Y-111819750D01*
X166862203Y-111798926D01*
X166859053Y-111777691D01*
X166858000Y-111756250D01*
X166858000Y-111243750D01*
X166859053Y-111222309D01*
X166862203Y-111201074D01*
X166867419Y-111180250D01*
X166874651Y-111160038D01*
X166883830Y-111140632D01*
X166894866Y-111122219D01*
X166907654Y-111104976D01*
X166922070Y-111089070D01*
X166937976Y-111074654D01*
X166955219Y-111061866D01*
X166973632Y-111050830D01*
X166993038Y-111041651D01*
X167013250Y-111034419D01*
X167034074Y-111029203D01*
X167055309Y-111026053D01*
X167076750Y-111025000D01*
X167514250Y-111025000D01*
X167535691Y-111026053D01*
X167535691Y-111026053D01*
G37*
D13*
X167295500Y-111500000D03*
D12*
G36*
X165960691Y-111026053D02*
G01*
X165981926Y-111029203D01*
X166002750Y-111034419D01*
X166022962Y-111041651D01*
X166042368Y-111050830D01*
X166060781Y-111061866D01*
X166078024Y-111074654D01*
X166093930Y-111089070D01*
X166108346Y-111104976D01*
X166121134Y-111122219D01*
X166132170Y-111140632D01*
X166141349Y-111160038D01*
X166148581Y-111180250D01*
X166153797Y-111201074D01*
X166156947Y-111222309D01*
X166158000Y-111243750D01*
X166158000Y-111756250D01*
X166156947Y-111777691D01*
X166153797Y-111798926D01*
X166148581Y-111819750D01*
X166141349Y-111839962D01*
X166132170Y-111859368D01*
X166121134Y-111877781D01*
X166108346Y-111895024D01*
X166093930Y-111910930D01*
X166078024Y-111925346D01*
X166060781Y-111938134D01*
X166042368Y-111949170D01*
X166022962Y-111958349D01*
X166002750Y-111965581D01*
X165981926Y-111970797D01*
X165960691Y-111973947D01*
X165939250Y-111975000D01*
X165501750Y-111975000D01*
X165480309Y-111973947D01*
X165459074Y-111970797D01*
X165438250Y-111965581D01*
X165418038Y-111958349D01*
X165398632Y-111949170D01*
X165380219Y-111938134D01*
X165362976Y-111925346D01*
X165347070Y-111910930D01*
X165332654Y-111895024D01*
X165319866Y-111877781D01*
X165308830Y-111859368D01*
X165299651Y-111839962D01*
X165292419Y-111819750D01*
X165287203Y-111798926D01*
X165284053Y-111777691D01*
X165283000Y-111756250D01*
X165283000Y-111243750D01*
X165284053Y-111222309D01*
X165287203Y-111201074D01*
X165292419Y-111180250D01*
X165299651Y-111160038D01*
X165308830Y-111140632D01*
X165319866Y-111122219D01*
X165332654Y-111104976D01*
X165347070Y-111089070D01*
X165362976Y-111074654D01*
X165380219Y-111061866D01*
X165398632Y-111050830D01*
X165418038Y-111041651D01*
X165438250Y-111034419D01*
X165459074Y-111029203D01*
X165480309Y-111026053D01*
X165501750Y-111025000D01*
X165939250Y-111025000D01*
X165960691Y-111026053D01*
X165960691Y-111026053D01*
G37*
D13*
X165720500Y-111500000D03*
D12*
G36*
X162200691Y-102126053D02*
G01*
X162221926Y-102129203D01*
X162242750Y-102134419D01*
X162262962Y-102141651D01*
X162282368Y-102150830D01*
X162300781Y-102161866D01*
X162318024Y-102174654D01*
X162333930Y-102189070D01*
X162348346Y-102204976D01*
X162361134Y-102222219D01*
X162372170Y-102240632D01*
X162381349Y-102260038D01*
X162388581Y-102280250D01*
X162393797Y-102301074D01*
X162396947Y-102322309D01*
X162398000Y-102343750D01*
X162398000Y-102856250D01*
X162396947Y-102877691D01*
X162393797Y-102898926D01*
X162388581Y-102919750D01*
X162381349Y-102939962D01*
X162372170Y-102959368D01*
X162361134Y-102977781D01*
X162348346Y-102995024D01*
X162333930Y-103010930D01*
X162318024Y-103025346D01*
X162300781Y-103038134D01*
X162282368Y-103049170D01*
X162262962Y-103058349D01*
X162242750Y-103065581D01*
X162221926Y-103070797D01*
X162200691Y-103073947D01*
X162179250Y-103075000D01*
X161741750Y-103075000D01*
X161720309Y-103073947D01*
X161699074Y-103070797D01*
X161678250Y-103065581D01*
X161658038Y-103058349D01*
X161638632Y-103049170D01*
X161620219Y-103038134D01*
X161602976Y-103025346D01*
X161587070Y-103010930D01*
X161572654Y-102995024D01*
X161559866Y-102977781D01*
X161548830Y-102959368D01*
X161539651Y-102939962D01*
X161532419Y-102919750D01*
X161527203Y-102898926D01*
X161524053Y-102877691D01*
X161523000Y-102856250D01*
X161523000Y-102343750D01*
X161524053Y-102322309D01*
X161527203Y-102301074D01*
X161532419Y-102280250D01*
X161539651Y-102260038D01*
X161548830Y-102240632D01*
X161559866Y-102222219D01*
X161572654Y-102204976D01*
X161587070Y-102189070D01*
X161602976Y-102174654D01*
X161620219Y-102161866D01*
X161638632Y-102150830D01*
X161658038Y-102141651D01*
X161678250Y-102134419D01*
X161699074Y-102129203D01*
X161720309Y-102126053D01*
X161741750Y-102125000D01*
X162179250Y-102125000D01*
X162200691Y-102126053D01*
X162200691Y-102126053D01*
G37*
D13*
X161960500Y-102600000D03*
D12*
G36*
X163775691Y-102126053D02*
G01*
X163796926Y-102129203D01*
X163817750Y-102134419D01*
X163837962Y-102141651D01*
X163857368Y-102150830D01*
X163875781Y-102161866D01*
X163893024Y-102174654D01*
X163908930Y-102189070D01*
X163923346Y-102204976D01*
X163936134Y-102222219D01*
X163947170Y-102240632D01*
X163956349Y-102260038D01*
X163963581Y-102280250D01*
X163968797Y-102301074D01*
X163971947Y-102322309D01*
X163973000Y-102343750D01*
X163973000Y-102856250D01*
X163971947Y-102877691D01*
X163968797Y-102898926D01*
X163963581Y-102919750D01*
X163956349Y-102939962D01*
X163947170Y-102959368D01*
X163936134Y-102977781D01*
X163923346Y-102995024D01*
X163908930Y-103010930D01*
X163893024Y-103025346D01*
X163875781Y-103038134D01*
X163857368Y-103049170D01*
X163837962Y-103058349D01*
X163817750Y-103065581D01*
X163796926Y-103070797D01*
X163775691Y-103073947D01*
X163754250Y-103075000D01*
X163316750Y-103075000D01*
X163295309Y-103073947D01*
X163274074Y-103070797D01*
X163253250Y-103065581D01*
X163233038Y-103058349D01*
X163213632Y-103049170D01*
X163195219Y-103038134D01*
X163177976Y-103025346D01*
X163162070Y-103010930D01*
X163147654Y-102995024D01*
X163134866Y-102977781D01*
X163123830Y-102959368D01*
X163114651Y-102939962D01*
X163107419Y-102919750D01*
X163102203Y-102898926D01*
X163099053Y-102877691D01*
X163098000Y-102856250D01*
X163098000Y-102343750D01*
X163099053Y-102322309D01*
X163102203Y-102301074D01*
X163107419Y-102280250D01*
X163114651Y-102260038D01*
X163123830Y-102240632D01*
X163134866Y-102222219D01*
X163147654Y-102204976D01*
X163162070Y-102189070D01*
X163177976Y-102174654D01*
X163195219Y-102161866D01*
X163213632Y-102150830D01*
X163233038Y-102141651D01*
X163253250Y-102134419D01*
X163274074Y-102129203D01*
X163295309Y-102126053D01*
X163316750Y-102125000D01*
X163754250Y-102125000D01*
X163775691Y-102126053D01*
X163775691Y-102126053D01*
G37*
D13*
X163535500Y-102600000D03*
D12*
G36*
X158864691Y-103766053D02*
G01*
X158885926Y-103769203D01*
X158906750Y-103774419D01*
X158926962Y-103781651D01*
X158946368Y-103790830D01*
X158964781Y-103801866D01*
X158982024Y-103814654D01*
X158997930Y-103829070D01*
X159012346Y-103844976D01*
X159025134Y-103862219D01*
X159036170Y-103880632D01*
X159045349Y-103900038D01*
X159052581Y-103920250D01*
X159057797Y-103941074D01*
X159060947Y-103962309D01*
X159062000Y-103983750D01*
X159062000Y-104496250D01*
X159060947Y-104517691D01*
X159057797Y-104538926D01*
X159052581Y-104559750D01*
X159045349Y-104579962D01*
X159036170Y-104599368D01*
X159025134Y-104617781D01*
X159012346Y-104635024D01*
X158997930Y-104650930D01*
X158982024Y-104665346D01*
X158964781Y-104678134D01*
X158946368Y-104689170D01*
X158926962Y-104698349D01*
X158906750Y-104705581D01*
X158885926Y-104710797D01*
X158864691Y-104713947D01*
X158843250Y-104715000D01*
X158405750Y-104715000D01*
X158384309Y-104713947D01*
X158363074Y-104710797D01*
X158342250Y-104705581D01*
X158322038Y-104698349D01*
X158302632Y-104689170D01*
X158284219Y-104678134D01*
X158266976Y-104665346D01*
X158251070Y-104650930D01*
X158236654Y-104635024D01*
X158223866Y-104617781D01*
X158212830Y-104599368D01*
X158203651Y-104579962D01*
X158196419Y-104559750D01*
X158191203Y-104538926D01*
X158188053Y-104517691D01*
X158187000Y-104496250D01*
X158187000Y-103983750D01*
X158188053Y-103962309D01*
X158191203Y-103941074D01*
X158196419Y-103920250D01*
X158203651Y-103900038D01*
X158212830Y-103880632D01*
X158223866Y-103862219D01*
X158236654Y-103844976D01*
X158251070Y-103829070D01*
X158266976Y-103814654D01*
X158284219Y-103801866D01*
X158302632Y-103790830D01*
X158322038Y-103781651D01*
X158342250Y-103774419D01*
X158363074Y-103769203D01*
X158384309Y-103766053D01*
X158405750Y-103765000D01*
X158843250Y-103765000D01*
X158864691Y-103766053D01*
X158864691Y-103766053D01*
G37*
D13*
X158624500Y-104240000D03*
D12*
G36*
X160439691Y-103766053D02*
G01*
X160460926Y-103769203D01*
X160481750Y-103774419D01*
X160501962Y-103781651D01*
X160521368Y-103790830D01*
X160539781Y-103801866D01*
X160557024Y-103814654D01*
X160572930Y-103829070D01*
X160587346Y-103844976D01*
X160600134Y-103862219D01*
X160611170Y-103880632D01*
X160620349Y-103900038D01*
X160627581Y-103920250D01*
X160632797Y-103941074D01*
X160635947Y-103962309D01*
X160637000Y-103983750D01*
X160637000Y-104496250D01*
X160635947Y-104517691D01*
X160632797Y-104538926D01*
X160627581Y-104559750D01*
X160620349Y-104579962D01*
X160611170Y-104599368D01*
X160600134Y-104617781D01*
X160587346Y-104635024D01*
X160572930Y-104650930D01*
X160557024Y-104665346D01*
X160539781Y-104678134D01*
X160521368Y-104689170D01*
X160501962Y-104698349D01*
X160481750Y-104705581D01*
X160460926Y-104710797D01*
X160439691Y-104713947D01*
X160418250Y-104715000D01*
X159980750Y-104715000D01*
X159959309Y-104713947D01*
X159938074Y-104710797D01*
X159917250Y-104705581D01*
X159897038Y-104698349D01*
X159877632Y-104689170D01*
X159859219Y-104678134D01*
X159841976Y-104665346D01*
X159826070Y-104650930D01*
X159811654Y-104635024D01*
X159798866Y-104617781D01*
X159787830Y-104599368D01*
X159778651Y-104579962D01*
X159771419Y-104559750D01*
X159766203Y-104538926D01*
X159763053Y-104517691D01*
X159762000Y-104496250D01*
X159762000Y-103983750D01*
X159763053Y-103962309D01*
X159766203Y-103941074D01*
X159771419Y-103920250D01*
X159778651Y-103900038D01*
X159787830Y-103880632D01*
X159798866Y-103862219D01*
X159811654Y-103844976D01*
X159826070Y-103829070D01*
X159841976Y-103814654D01*
X159859219Y-103801866D01*
X159877632Y-103790830D01*
X159897038Y-103781651D01*
X159917250Y-103774419D01*
X159938074Y-103769203D01*
X159959309Y-103766053D01*
X159980750Y-103765000D01*
X160418250Y-103765000D01*
X160439691Y-103766053D01*
X160439691Y-103766053D01*
G37*
D13*
X160199500Y-104240000D03*
D12*
G36*
X162527691Y-106886053D02*
G01*
X162548926Y-106889203D01*
X162569750Y-106894419D01*
X162589962Y-106901651D01*
X162609368Y-106910830D01*
X162627781Y-106921866D01*
X162645024Y-106934654D01*
X162660930Y-106949070D01*
X162675346Y-106964976D01*
X162688134Y-106982219D01*
X162699170Y-107000632D01*
X162708349Y-107020038D01*
X162715581Y-107040250D01*
X162720797Y-107061074D01*
X162723947Y-107082309D01*
X162725000Y-107103750D01*
X162725000Y-107541250D01*
X162723947Y-107562691D01*
X162720797Y-107583926D01*
X162715581Y-107604750D01*
X162708349Y-107624962D01*
X162699170Y-107644368D01*
X162688134Y-107662781D01*
X162675346Y-107680024D01*
X162660930Y-107695930D01*
X162645024Y-107710346D01*
X162627781Y-107723134D01*
X162609368Y-107734170D01*
X162589962Y-107743349D01*
X162569750Y-107750581D01*
X162548926Y-107755797D01*
X162527691Y-107758947D01*
X162506250Y-107760000D01*
X161993750Y-107760000D01*
X161972309Y-107758947D01*
X161951074Y-107755797D01*
X161930250Y-107750581D01*
X161910038Y-107743349D01*
X161890632Y-107734170D01*
X161872219Y-107723134D01*
X161854976Y-107710346D01*
X161839070Y-107695930D01*
X161824654Y-107680024D01*
X161811866Y-107662781D01*
X161800830Y-107644368D01*
X161791651Y-107624962D01*
X161784419Y-107604750D01*
X161779203Y-107583926D01*
X161776053Y-107562691D01*
X161775000Y-107541250D01*
X161775000Y-107103750D01*
X161776053Y-107082309D01*
X161779203Y-107061074D01*
X161784419Y-107040250D01*
X161791651Y-107020038D01*
X161800830Y-107000632D01*
X161811866Y-106982219D01*
X161824654Y-106964976D01*
X161839070Y-106949070D01*
X161854976Y-106934654D01*
X161872219Y-106921866D01*
X161890632Y-106910830D01*
X161910038Y-106901651D01*
X161930250Y-106894419D01*
X161951074Y-106889203D01*
X161972309Y-106886053D01*
X161993750Y-106885000D01*
X162506250Y-106885000D01*
X162527691Y-106886053D01*
X162527691Y-106886053D01*
G37*
D13*
X162250000Y-107322500D03*
D12*
G36*
X162527691Y-108461053D02*
G01*
X162548926Y-108464203D01*
X162569750Y-108469419D01*
X162589962Y-108476651D01*
X162609368Y-108485830D01*
X162627781Y-108496866D01*
X162645024Y-108509654D01*
X162660930Y-108524070D01*
X162675346Y-108539976D01*
X162688134Y-108557219D01*
X162699170Y-108575632D01*
X162708349Y-108595038D01*
X162715581Y-108615250D01*
X162720797Y-108636074D01*
X162723947Y-108657309D01*
X162725000Y-108678750D01*
X162725000Y-109116250D01*
X162723947Y-109137691D01*
X162720797Y-109158926D01*
X162715581Y-109179750D01*
X162708349Y-109199962D01*
X162699170Y-109219368D01*
X162688134Y-109237781D01*
X162675346Y-109255024D01*
X162660930Y-109270930D01*
X162645024Y-109285346D01*
X162627781Y-109298134D01*
X162609368Y-109309170D01*
X162589962Y-109318349D01*
X162569750Y-109325581D01*
X162548926Y-109330797D01*
X162527691Y-109333947D01*
X162506250Y-109335000D01*
X161993750Y-109335000D01*
X161972309Y-109333947D01*
X161951074Y-109330797D01*
X161930250Y-109325581D01*
X161910038Y-109318349D01*
X161890632Y-109309170D01*
X161872219Y-109298134D01*
X161854976Y-109285346D01*
X161839070Y-109270930D01*
X161824654Y-109255024D01*
X161811866Y-109237781D01*
X161800830Y-109219368D01*
X161791651Y-109199962D01*
X161784419Y-109179750D01*
X161779203Y-109158926D01*
X161776053Y-109137691D01*
X161775000Y-109116250D01*
X161775000Y-108678750D01*
X161776053Y-108657309D01*
X161779203Y-108636074D01*
X161784419Y-108615250D01*
X161791651Y-108595038D01*
X161800830Y-108575632D01*
X161811866Y-108557219D01*
X161824654Y-108539976D01*
X161839070Y-108524070D01*
X161854976Y-108509654D01*
X161872219Y-108496866D01*
X161890632Y-108485830D01*
X161910038Y-108476651D01*
X161930250Y-108469419D01*
X161951074Y-108464203D01*
X161972309Y-108461053D01*
X161993750Y-108460000D01*
X162506250Y-108460000D01*
X162527691Y-108461053D01*
X162527691Y-108461053D01*
G37*
D13*
X162250000Y-108897500D03*
M02*
